<svg width="11" height="11" viewBox="0 0 11 11" fill="none" xmlns="http://www.w3.org/2000/svg">
<path d="M5.50004 10.4271C5.22504 10.4271 4.95463 10.363 4.73463 10.2392L2.56671 8.98795C1.66837 8.38295 1.60879 8.27295 1.60879 7.3242V5.05086C1.60879 4.10211 1.66837 3.99211 2.54837 3.40086L4.73921 2.13586C5.17463 1.88377 5.83005 1.88377 6.26546 2.13586L8.43338 3.38711C9.33172 3.99211 9.3913 4.10211 9.3913 5.05086V7.3242C9.3913 8.27295 9.33172 8.38295 8.45172 8.9742L6.26088 10.2392C6.04546 10.3675 5.77046 10.4271 5.50004 10.4271ZM5.50004 2.63544C5.34421 2.63544 5.18838 2.66753 5.07838 2.73169L2.91046 3.98294C2.29629 4.40003 2.29629 4.40003 2.29629 5.05086V7.3242C2.29629 7.97504 2.29629 7.97504 2.93337 8.40587L5.08296 9.64337C5.30296 9.77171 5.70171 9.77171 5.92171 9.64337L8.08963 8.39212C8.7038 7.97504 8.7038 7.97504 8.7038 7.3242V5.05086C8.7038 4.40003 8.7038 4.40003 8.06672 3.96919L5.91713 2.73169C5.81171 2.66753 5.65588 2.63544 5.50004 2.63544Z" fill="#292D32"/>
<path d="M8.02093 3.84088C7.83301 3.84088 7.67718 3.68505 7.67718 3.49713V2.29171C7.67718 1.56754 7.3701 1.26046 6.64593 1.26046H4.35426C3.63009 1.26046 3.323 1.56754 3.323 2.29171V3.46505C3.323 3.65296 3.16717 3.8088 2.97925 3.8088C2.79134 3.8088 2.6355 3.65755 2.6355 3.46505V2.29171C2.6355 1.18254 3.24509 0.572958 4.35426 0.572958H6.64593C7.7551 0.572958 8.36468 1.18254 8.36468 2.29171V3.49713C8.36468 3.68505 8.20885 3.84088 8.02093 3.84088Z" fill="#292D32"/>
<path d="M6.24713 8.08051C6.15088 8.08051 6.05004 8.06218 5.94921 8.02093L5.50004 7.84676L5.05088 8.02551C4.80796 8.12176 4.56046 8.09884 4.37712 7.96593C4.19379 7.83301 4.09754 7.60384 4.11129 7.34259L4.13879 6.86134L3.83171 6.49009C3.66671 6.28384 3.61171 6.04551 3.68504 5.82551C3.75379 5.61009 3.94171 5.44509 4.19379 5.38092L4.66129 5.26175L4.92254 4.85384C5.20213 4.41384 5.80254 4.41384 6.08213 4.85384L6.34338 5.26175L6.81088 5.38092C7.06296 5.44509 7.25088 5.61009 7.31963 5.82551C7.38838 6.04092 7.33338 6.28384 7.16838 6.48551L6.8613 6.85676L6.88879 7.33801C6.90255 7.59926 6.80629 7.82384 6.62296 7.96134C6.51296 8.03926 6.38463 8.08051 6.24713 8.08051ZM4.36337 6.05009L4.67046 6.42134C4.77587 6.54509 4.83546 6.74217 4.82629 6.90259L4.79879 7.38384L5.24796 7.20509C5.39921 7.14551 5.60088 7.14551 5.75213 7.20509L6.20129 7.38384L6.17379 6.90259C6.16463 6.74217 6.22421 6.54967 6.32963 6.42134L6.63671 6.05009L6.16921 5.93092C6.01338 5.88967 5.84838 5.77051 5.76129 5.63759L5.50463 5.23425L5.24338 5.63759C5.15629 5.77509 4.99129 5.89426 4.83546 5.93551L4.36337 6.05009Z" fill="#292D32"/>
</svg>
