<svg width="11" height="11" viewBox="0 0 11 11" fill="none" xmlns="http://www.w3.org/2000/svg">
<path d="M5.49999 10.1201C5.36249 10.1201 5.22498 10.088 5.1104 10.0238C4.25332 9.5563 2.7454 9.0613 1.80123 8.93755L1.66831 8.91922C1.06789 8.84588 0.572893 8.28213 0.572893 7.67255V2.13587C0.572893 1.77379 0.714977 1.44379 0.976227 1.20545C1.23748 0.96712 1.57664 0.852536 1.93415 0.88462C2.94248 0.962536 4.46415 1.4667 5.32582 2.00754L5.43582 2.07171C5.4679 2.09004 5.53665 2.09004 5.56415 2.07629L5.63749 2.03046C6.49915 1.48962 8.02082 0.976286 9.03374 0.889203C9.04291 0.889203 9.07958 0.889203 9.08874 0.889203C9.42333 0.85712 9.76708 0.976287 10.0237 1.21462C10.285 1.45295 10.4271 1.78295 10.4271 2.14504V7.67713C10.4271 8.2913 9.93208 8.85047 9.32708 8.9238L9.17583 8.94213C8.23166 9.06589 6.71915 9.56547 5.8804 10.0284C5.7704 10.0926 5.63749 10.1201 5.49999 10.1201ZM1.82415 1.56754C1.67748 1.56754 1.54456 1.61795 1.43914 1.7142C1.32456 1.81962 1.26039 1.97087 1.26039 2.13587V7.67255C1.26039 7.94297 1.49414 8.20422 1.7554 8.24088L1.8929 8.25922C2.92415 8.39672 4.5054 8.91464 5.42207 9.41422C5.46332 9.43255 5.5229 9.43714 5.54582 9.42797C6.46249 8.91922 8.05291 8.39672 9.08874 8.25922L9.24458 8.24088C9.50583 8.2088 9.73958 7.94297 9.73958 7.67255V2.14046C9.73958 1.97087 9.67541 1.8242 9.56083 1.7142C9.44166 1.60879 9.29041 1.55837 9.12083 1.56754C9.11166 1.56754 9.07499 1.56754 9.06583 1.56754C8.19041 1.64545 6.77874 2.11754 6.00874 2.59879L5.9354 2.64921C5.68332 2.80504 5.32582 2.80504 5.0829 2.65379L4.9729 2.58962C4.18915 2.10837 2.77748 1.64087 1.87915 1.56754C1.86081 1.56754 1.84248 1.56754 1.82415 1.56754Z" fill="#292D32"/>
<path d="M5.49998 9.73508C5.31207 9.73508 5.15623 9.57925 5.15623 9.39133V2.51632C5.15623 2.3284 5.31207 2.17257 5.49998 2.17257C5.6879 2.17257 5.84373 2.3284 5.84373 2.51632V9.39133C5.84373 9.58383 5.6879 9.73508 5.49998 9.73508Z" fill="#292D32"/>
<path d="M3.55206 4.23508H2.52081C2.33289 4.23508 2.17706 4.07924 2.17706 3.89133C2.17706 3.70341 2.33289 3.54757 2.52081 3.54757H3.55206C3.73998 3.54757 3.89581 3.70341 3.89581 3.89133C3.89581 4.07924 3.73998 4.23508 3.55206 4.23508Z" fill="#292D32"/>
<path d="M3.89581 5.61008H2.52081C2.33289 5.61008 2.17706 5.45425 2.17706 5.26633C2.17706 5.07842 2.33289 4.92258 2.52081 4.92258H3.89581C4.08373 4.92258 4.23956 5.07842 4.23956 5.26633C4.23956 5.45425 4.08373 5.61008 3.89581 5.61008Z" fill="#292D32"/>
</svg>
