<svg width="11" height="11" viewBox="0 0 11 11" fill="none" xmlns="http://www.w3.org/2000/svg">
<path d="M7.01704 6.88422C6.7512 6.88422 6.46245 6.79714 6.1737 6.61839L5.5687 6.25172C5.5412 6.23339 5.4587 6.23339 5.4312 6.25172L4.8262 6.61839C4.3312 6.92089 3.84536 6.96672 3.45578 6.74672C3.07536 6.5313 2.86453 6.10047 2.86453 5.53672V2.30546C2.86453 1.18713 3.47411 0.572958 4.58328 0.572958H6.41662C7.52579 0.572958 8.13537 1.18713 8.13537 2.30546V5.53672C8.13537 6.10505 7.92454 6.53589 7.54412 6.74672C7.3837 6.83839 7.20496 6.88422 7.01704 6.88422ZM5.49995 5.55047C5.6512 5.55047 5.80245 5.58713 5.9262 5.66047L6.5312 6.02713C6.80162 6.19213 7.04912 6.23339 7.20496 6.1463C7.35621 6.05922 7.44329 5.83463 7.44329 5.53213V2.30546C7.44329 1.57213 7.1362 1.26046 6.41204 1.26046H4.5787C3.85453 1.26046 3.54745 1.57213 3.54745 2.30546V5.53672C3.54745 5.83922 3.63453 6.0638 3.78578 6.15089C3.94162 6.23797 4.18912 6.19672 4.45953 6.03172L5.06453 5.66505C5.19745 5.58713 5.3487 5.55047 5.49995 5.55047Z" fill="#292D32"/>
<path d="M6.87499 10.4272H4.12498C1.63623 10.4272 0.572893 9.35466 0.572893 6.84299V5.45423C0.572893 3.3184 1.34289 2.23673 3.06623 1.94798C3.24956 1.91589 3.42831 2.04423 3.4604 2.23214C3.49248 2.42006 3.36415 2.59423 3.17623 2.62631C1.79665 2.85548 1.25581 3.6484 1.25581 5.45423V6.84299C1.25581 8.95591 2.0304 9.73966 4.1204 9.73966H6.8704C8.96041 9.73966 9.73499 8.95591 9.73499 6.84299V5.45423C9.73499 3.6209 9.17583 2.82798 7.73666 2.61256C7.54874 2.58506 7.42041 2.4109 7.44791 2.22298C7.47541 2.03506 7.64957 1.90673 7.83749 1.93423C9.62499 2.20006 10.4225 3.28173 10.4225 5.45423V6.84299C10.4271 9.35466 9.36374 10.4272 6.87499 10.4272Z" fill="#292D32"/>
</svg>
