<svg width="11" height="11" viewBox="0 0 11 11" fill="none" xmlns="http://www.w3.org/2000/svg">
<path d="M6.87499 10.4271H4.12498C1.63623 10.4271 0.572893 9.36381 0.572893 6.87505V4.12505C0.572893 1.63629 1.63623 0.572958 4.12498 0.572958H6.87499C9.36374 0.572958 10.4271 1.63629 10.4271 4.12505V6.87505C10.4271 9.36381 9.36374 10.4271 6.87499 10.4271ZM4.12498 1.26046C2.01206 1.26046 1.26039 2.01213 1.26039 4.12505V6.87505C1.26039 8.98797 2.01206 9.73964 4.12498 9.73964H6.87499C8.98791 9.73964 9.73958 8.98797 9.73958 6.87505V4.12505C9.73958 2.01213 8.98791 1.26046 6.87499 1.26046H4.12498Z" fill="#292D32"/>
<path d="M3.97828 7.02632C3.78578 7.02632 3.60703 6.98049 3.4512 6.8934C3.07078 6.67799 2.86453 6.25174 2.86453 5.69257V1.11839C2.86453 0.930476 3.02036 0.774642 3.20828 0.774642C3.3962 0.774642 3.55203 0.930476 3.55203 1.11839V5.69257C3.55203 5.99049 3.63911 6.21049 3.79037 6.29299C3.95078 6.38465 4.19828 6.33882 4.4687 6.1784L5.0737 5.81632C5.3212 5.66965 5.67412 5.66965 5.92162 5.81632L6.52662 6.1784C6.80162 6.3434 7.04912 6.38465 7.20495 6.29299C7.3562 6.2059 7.44329 5.9859 7.44329 5.69257V1.11839C7.44329 0.930476 7.59912 0.774642 7.78704 0.774642C7.97496 0.774642 8.13079 0.930476 8.13079 1.11839V5.69257C8.13079 6.25174 7.92454 6.67799 7.54412 6.8934C7.1637 7.10882 6.66412 7.06299 6.1737 6.76965L5.5687 6.40757C5.5412 6.38924 5.45412 6.38924 5.42662 6.40757L4.82162 6.76965C4.53745 6.93924 4.24412 7.02632 3.97828 7.02632Z" fill="#292D32"/>
<path d="M6.87499 10.4271H4.12498C1.63623 10.4271 0.572893 9.36381 0.572893 6.87505V4.12505C0.572893 1.63629 1.63623 0.572958 4.12498 0.572958H6.87499C9.36374 0.572958 10.4271 1.63629 10.4271 4.12505V6.87505C10.4271 9.36381 9.36374 10.4271 6.87499 10.4271ZM4.12498 1.26046C2.01206 1.26046 1.26039 2.01213 1.26039 4.12505V6.87505C1.26039 8.98797 2.01206 9.73964 4.12498 9.73964H6.87499C8.98791 9.73964 9.73958 8.98797 9.73958 6.87505V4.12505C9.73958 2.01213 8.98791 1.26046 6.87499 1.26046H4.12498Z" fill="#292D32"/>
<path d="M3.97828 7.02632C3.78578 7.02632 3.60703 6.98049 3.4512 6.8934C3.07078 6.67799 2.86453 6.25174 2.86453 5.69257V1.11839C2.86453 0.930476 3.02036 0.774642 3.20828 0.774642C3.3962 0.774642 3.55203 0.930476 3.55203 1.11839V5.69257C3.55203 5.99049 3.63911 6.21049 3.79037 6.29299C3.95078 6.38465 4.19828 6.33882 4.4687 6.1784L5.0737 5.81632C5.3212 5.66965 5.67412 5.66965 5.92162 5.81632L6.52662 6.1784C6.80162 6.3434 7.04912 6.38465 7.20495 6.29299C7.3562 6.2059 7.44329 5.9859 7.44329 5.69257V1.11839C7.44329 0.930476 7.59912 0.774642 7.78704 0.774642C7.97496 0.774642 8.13079 0.930476 8.13079 1.11839V5.69257C8.13079 6.25174 7.92454 6.67799 7.54412 6.8934C7.1637 7.10882 6.66412 7.06299 6.1737 6.76965L5.5687 6.40757C5.5412 6.38924 5.45412 6.38924 5.42662 6.40757L4.82162 6.76965C4.53745 6.93924 4.24412 7.02632 3.97828 7.02632Z" fill="#292D32"/>
</svg>
