<svg width="11" height="11" viewBox="0 0 11 11" fill="none" xmlns="http://www.w3.org/2000/svg">
<path d="M1.60418 8.59381C1.41626 8.59381 1.26043 8.43797 1.26043 8.25006V3.20838C1.26043 1.18713 1.8746 0.572958 3.89585 0.572958H7.10419C9.12544 0.572958 9.73961 1.18713 9.73961 3.20838V7.79172C9.73961 7.86506 9.73961 7.9338 9.73503 8.00714C9.72128 8.19506 9.5517 8.34172 9.36836 8.32797C9.18044 8.31422 9.03378 8.14922 9.04753 7.96131C9.05211 7.90631 9.05211 7.84672 9.05211 7.79172V3.20838C9.05211 1.57213 8.74503 1.26046 7.10419 1.26046H3.89585C2.25501 1.26046 1.94793 1.57213 1.94793 3.20838V8.25006C1.94793 8.43797 1.7921 8.59381 1.60418 8.59381Z" fill="#292D32"/>
<path d="M7.79169 10.4271H3.20835C2.13585 10.4271 1.26043 9.55173 1.26043 8.47923V8.18131C1.26043 7.26922 2.00293 6.5313 2.91043 6.5313H9.39586C9.58378 6.5313 9.73961 6.68714 9.73961 6.87506V8.47923C9.73961 9.55173 8.86419 10.4271 7.79169 10.4271ZM2.91043 7.21881C2.37876 7.21881 1.94793 7.64964 1.94793 8.18131V8.47923C1.94793 9.17589 2.51168 9.73964 3.20835 9.73964H7.79169C8.48836 9.73964 9.05211 9.17589 9.05211 8.47923V7.21881H2.91043Z" fill="#292D32"/>
<path d="M7.3334 3.55216H3.66672C3.47881 3.55216 3.32297 3.39633 3.32297 3.20841C3.32297 3.02049 3.47881 2.86466 3.66672 2.86466H7.3334C7.52132 2.86466 7.67715 3.02049 7.67715 3.20841C7.67715 3.39633 7.52132 3.55216 7.3334 3.55216Z" fill="#292D32"/>
<path d="M5.9584 5.15633H3.66672C3.47881 5.15633 3.32297 5.00049 3.32297 4.81258C3.32297 4.62466 3.47881 4.46883 3.66672 4.46883H5.9584C6.14631 4.46883 6.30215 4.62466 6.30215 4.81258C6.30215 5.00049 6.14631 5.15633 5.9584 5.15633Z" fill="#292D32"/>
</svg>
