<svg width="11" height="11" viewBox="0 0 11 11" fill="none" xmlns="http://www.w3.org/2000/svg">
<path d="M7.33328 10.4272H3.6666C1.5491 10.4272 1.15493 9.44175 1.0541 8.48383L0.710346 4.81257C0.659929 4.33132 0.646179 3.6209 1.12285 3.08924C1.53535 2.6309 2.21827 2.4109 3.20827 2.4109H7.79161C8.78619 2.4109 9.46911 2.63549 9.87703 3.08924C10.3537 3.6209 10.3399 4.33132 10.2895 4.81716L9.94578 8.47925C9.84495 9.44175 9.45078 10.4272 7.33328 10.4272ZM3.20827 3.09382C2.43368 3.09382 1.90201 3.24507 1.6316 3.54757C1.40701 3.79507 1.33368 4.17549 1.39326 4.74382L1.73701 8.41508C1.81493 9.13925 2.01202 9.73967 3.6666 9.73967H7.33328C8.98328 9.73967 9.18494 9.13925 9.26286 8.4105L9.60661 4.74841C9.66619 4.17549 9.59286 3.79507 9.36828 3.54757C9.09786 3.24507 8.56619 3.09382 7.79161 3.09382H3.20827Z" fill="#292D32"/>
<path d="M7.33333 3.0938C7.14542 3.0938 6.98958 2.93796 6.98958 2.75005V2.38338C6.98958 1.56754 6.98958 1.26046 5.86666 1.26046H5.13333C4.01041 1.26046 4.01041 1.56754 4.01041 2.38338V2.75005C4.01041 2.93796 3.85458 3.0938 3.66666 3.0938C3.47874 3.0938 3.32291 2.93796 3.32291 2.75005V2.38338C3.32291 1.57671 3.32291 0.572958 5.13333 0.572958H5.86666C7.67708 0.572958 7.67708 1.57671 7.67708 2.38338V2.75005C7.67708 2.93796 7.52125 3.0938 7.33333 3.0938Z" fill="#292D32"/>
<path d="M5.49996 7.67713C4.23954 7.67713 4.23954 6.89797 4.23954 6.43047V5.95838C4.23954 5.31213 4.39537 5.1563 5.04162 5.1563H5.95829C6.60454 5.1563 6.76038 5.31213 6.76038 5.95838V6.41672C6.76038 6.89338 6.76038 7.67713 5.49996 7.67713ZM4.92704 5.8438C4.92704 5.88046 4.92704 5.92171 4.92704 5.95838V6.43047C4.92704 6.90255 4.92704 6.98963 5.49996 6.98963C6.07287 6.98963 6.07287 6.9163 6.07287 6.42588V5.95838C6.07287 5.92171 6.07287 5.88046 6.07287 5.8438C6.03621 5.8438 5.99496 5.8438 5.95829 5.8438H5.04162C5.00496 5.8438 4.96371 5.8438 4.92704 5.8438Z" fill="#292D32"/>
<path d="M6.41661 6.76965C6.24703 6.76965 6.09578 6.64132 6.07745 6.46715C6.05453 6.27923 6.18745 6.10506 6.37536 6.08215C7.58537 5.9309 8.74495 5.47256 9.7212 4.76215C9.87245 4.64756 10.0879 4.68423 10.2025 4.84006C10.3125 4.99131 10.2804 5.20673 10.1245 5.32131C9.05204 6.10048 7.78703 6.60007 6.45787 6.76965C6.44412 6.76965 6.43036 6.76965 6.41661 6.76965Z" fill="#292D32"/>
<path d="M4.58328 6.77424C4.56953 6.77424 4.55578 6.77424 4.54203 6.77424C3.28619 6.63216 2.06244 6.17383 1.00369 5.44966C0.847854 5.34424 0.806604 5.12882 0.912021 4.97299C1.01744 4.81716 1.23286 4.77591 1.38869 4.88132C2.35577 5.54132 3.46953 5.95841 4.61536 6.09133C4.80328 6.11424 4.94078 6.28383 4.91786 6.47174C4.90411 6.64591 4.75745 6.77424 4.58328 6.77424Z" fill="#292D32"/>
</svg>
