<svg width="11" height="11" viewBox="0 0 11 11" fill="none" xmlns="http://www.w3.org/2000/svg">
<path d="M5.50006 8.68551C4.29923 8.68551 3.32297 7.70925 3.32297 6.50842C3.32297 5.30758 4.29923 4.33133 5.50006 4.33133C6.7009 4.33133 7.67715 5.30758 7.67715 6.50842C7.67715 7.70925 6.7009 8.68551 5.50006 8.68551ZM5.50006 5.01883C4.67964 5.01883 4.01048 5.688 4.01048 6.50842C4.01048 7.32884 4.67964 7.99801 5.50006 7.99801C6.32048 7.99801 6.98965 7.32884 6.98965 6.50842C6.98965 5.688 6.32048 5.01883 5.50006 5.01883Z" fill="#292D32"/>
<path d="M5.24333 7.25545C5.09667 7.25545 4.95 7.20045 4.84 7.09045L4.54208 6.79253C4.40916 6.65961 4.40916 6.43961 4.54208 6.3067C4.675 6.17378 4.895 6.17378 5.02792 6.3067L5.24792 6.5267L5.98583 5.84836C6.12333 5.72003 6.34334 5.72919 6.47167 5.86669C6.6 6.0042 6.59084 6.2242 6.45334 6.35253L5.6375 7.1042C5.52292 7.20503 5.38542 7.25545 5.24333 7.25545Z" fill="#292D32"/>
<path d="M7.33334 10.4272H3.66667C1.54916 10.4272 1.155 9.44175 1.05416 8.48383L0.710411 4.81257C0.659994 4.33132 0.646244 3.6209 1.12291 3.08924C1.53541 2.6309 2.21833 2.4109 3.20833 2.4109H7.79167C8.78626 2.4109 9.46918 2.63549 9.87709 3.08924C10.3538 3.6209 10.34 4.33132 10.2896 4.81716L9.94585 8.47925C9.84501 9.44175 9.45084 10.4272 7.33334 10.4272ZM3.20833 3.09382C2.43375 3.09382 1.90208 3.24507 1.63166 3.54757C1.40708 3.79507 1.33375 4.17549 1.39333 4.74382L1.73708 8.41508C1.815 9.13925 2.01208 9.73967 3.66667 9.73967H7.33334C8.98334 9.73967 9.18501 9.13925 9.26293 8.4105L9.60668 4.74841C9.66626 4.17549 9.59293 3.79507 9.36834 3.54757C9.09793 3.24507 8.56626 3.09382 7.79167 3.09382H3.20833Z" fill="#292D32"/>
<path d="M7.3334 3.0938C7.14548 3.0938 6.98965 2.93796 6.98965 2.75005V2.38338C6.98965 1.56754 6.98965 1.26046 5.86673 1.26046H5.13339C4.01048 1.26046 4.01048 1.56754 4.01048 2.38338V2.75005C4.01048 2.93796 3.85464 3.0938 3.66672 3.0938C3.47881 3.0938 3.32297 2.93796 3.32297 2.75005V2.38338C3.32297 1.57671 3.32297 0.572958 5.13339 0.572958H5.86673C7.67715 0.572958 7.67715 1.57671 7.67715 2.38338V2.75005C7.67715 2.93796 7.52132 3.0938 7.3334 3.0938Z" fill="#292D32"/>
<path d="M7.33798 6.59545C7.18214 6.59545 7.04464 6.49003 7.00339 6.3342C6.95756 6.15086 7.06756 5.96295 7.25089 5.91711C8.14465 5.69253 8.97423 5.30295 9.71673 4.76211C9.86798 4.65211 10.0834 4.6842 10.198 4.84003C10.308 4.99128 10.2759 5.2067 10.1201 5.32128C9.30423 5.91253 8.39673 6.33878 7.41589 6.58628C7.39298 6.59087 7.36548 6.59545 7.33798 6.59545Z" fill="#292D32"/>
<path d="M3.66667 6.6092C3.63917 6.6092 3.61167 6.60462 3.58417 6.60004C2.66292 6.37545 1.79667 5.98587 1.00375 5.44504C0.84792 5.33962 0.806669 5.1242 0.912086 4.96837C1.0175 4.81253 1.23292 4.77128 1.38875 4.8767C2.11292 5.3717 2.90126 5.72462 3.74459 5.93087C3.92793 5.9767 4.04251 6.16004 3.99668 6.34795C3.96459 6.50379 3.82251 6.6092 3.66667 6.6092Z" fill="#292D32"/>
</svg>
