<svg width="11" height="11" viewBox="0 0 11 11" fill="none" xmlns="http://www.w3.org/2000/svg">
<path d="M5.5 8.68551C4.29916 8.68551 3.32291 7.70925 3.32291 6.50842C3.32291 5.30758 4.29916 4.33133 5.5 4.33133C6.70083 4.33133 7.67708 5.30758 7.67708 6.50842C7.67708 7.70925 6.70083 8.68551 5.5 8.68551ZM5.5 5.01883C4.67958 5.01883 4.01041 5.688 4.01041 6.50842C4.01041 7.32884 4.67958 7.99801 5.5 7.99801C6.32041 7.99801 6.98958 7.32884 6.98958 6.50842C6.98958 5.688 6.32041 5.01883 5.5 5.01883Z" fill="#292D32"/>
<path d="M5.99036 7.36089C5.90327 7.36089 5.81619 7.3288 5.74744 7.26005L4.78035 6.29297C4.64744 6.16005 4.64744 5.94005 4.78035 5.80713C4.91327 5.67422 5.13327 5.67422 5.26619 5.80713L6.23327 6.77422C6.36619 6.90714 6.36619 7.12714 6.23327 7.26005C6.16452 7.3288 6.07744 7.36089 5.99036 7.36089Z" fill="#292D32"/>
<path d="M5.00966 7.37462C4.92258 7.37462 4.8355 7.34254 4.76675 7.27379C4.63383 7.14087 4.63383 6.92087 4.76675 6.78796L5.73383 5.82087C5.86675 5.68795 6.08675 5.68795 6.21967 5.82087C6.35258 5.95379 6.35258 6.17379 6.21967 6.3067L5.25258 7.27379C5.18383 7.33796 5.09675 7.37462 5.00966 7.37462Z" fill="#292D32"/>
<path d="M7.33334 10.4272H3.66667C1.54916 10.4272 1.155 9.44175 1.05416 8.48383L0.710411 4.81257C0.659994 4.33132 0.646244 3.6209 1.12291 3.08924C1.53541 2.6309 2.21833 2.4109 3.20833 2.4109H7.79167C8.78626 2.4109 9.46918 2.63549 9.87709 3.08924C10.3538 3.6209 10.34 4.33132 10.2896 4.81716L9.94585 8.47925C9.84501 9.44175 9.45084 10.4272 7.33334 10.4272ZM3.20833 3.09382C2.43375 3.09382 1.90208 3.24507 1.63166 3.54757C1.40708 3.79507 1.33375 4.17549 1.39333 4.74382L1.73708 8.41508C1.815 9.13925 2.01208 9.73967 3.66667 9.73967H7.33334C8.98334 9.73967 9.18501 9.13925 9.26293 8.4105L9.60668 4.74841C9.66626 4.17549 9.59293 3.79507 9.36834 3.54757C9.09793 3.24507 8.56626 3.09382 7.79167 3.09382H3.20833Z" fill="#292D32"/>
<path d="M7.33333 3.0938C7.14542 3.0938 6.98958 2.93796 6.98958 2.75005V2.38338C6.98958 1.56754 6.98958 1.26046 5.86666 1.26046H5.13333C4.01041 1.26046 4.01041 1.56754 4.01041 2.38338V2.75005C4.01041 2.93796 3.85458 3.0938 3.66666 3.0938C3.47874 3.0938 3.32291 2.93796 3.32291 2.75005V2.38338C3.32291 1.57671 3.32291 0.572958 5.13333 0.572958H5.86666C7.67708 0.572958 7.67708 1.57671 7.67708 2.38338V2.75005C7.67708 2.93796 7.52125 3.0938 7.33333 3.0938Z" fill="#292D32"/>
<path d="M7.33791 6.59545C7.18208 6.59545 7.04458 6.49003 7.00333 6.3342C6.9575 6.15086 7.0675 5.96295 7.25083 5.91711C8.14458 5.69253 8.97417 5.30295 9.71667 4.76211C9.86792 4.65211 10.0879 4.6842 10.1979 4.84003C10.3079 4.99128 10.2758 5.2067 10.12 5.32128C9.30417 5.91253 8.39667 6.33878 7.41583 6.58628C7.39291 6.59087 7.36541 6.59545 7.33791 6.59545Z" fill="#292D32"/>
<path d="M3.66667 6.6092C3.63917 6.6092 3.61167 6.60462 3.58417 6.60004C2.66292 6.37545 1.79667 5.98587 1.00375 5.44504C0.84792 5.33962 0.806669 5.1242 0.912086 4.96837C1.0175 4.81253 1.23292 4.77128 1.38875 4.8767C2.11292 5.3717 2.90126 5.72462 3.74459 5.93087C3.92793 5.9767 4.04251 6.16004 3.99668 6.34795C3.96459 6.50379 3.82251 6.6092 3.66667 6.6092Z" fill="#292D32"/>
</svg>
