<svg width="11" height="11" viewBox="0 0 11 11" fill="none" xmlns="http://www.w3.org/2000/svg">
<path d="M5.50006 8.68551C4.29923 8.68551 3.32297 7.70925 3.32297 6.50842C3.32297 5.30758 4.29923 4.33133 5.50006 4.33133C6.7009 4.33133 7.67715 5.30758 7.67715 6.50842C7.67715 7.70925 6.7009 8.68551 5.50006 8.68551ZM5.50006 5.01883C4.67964 5.01883 4.01048 5.688 4.01048 6.50842C4.01048 7.32884 4.67964 7.99801 5.50006 7.99801C6.32048 7.99801 6.98965 7.32884 6.98965 6.50842C6.98965 5.688 6.32048 5.01883 5.50006 5.01883Z" fill="#292D32"/>
<path d="M5.04171 7.31049C4.92713 7.31049 4.81254 7.2509 4.74838 7.14549C4.65213 6.98049 4.70254 6.76965 4.86754 6.6734L5.21588 6.46257C5.25255 6.44424 5.27088 6.40299 5.27088 6.36632V5.94007C5.27088 5.75215 5.42671 5.59632 5.61463 5.59632C5.80255 5.59632 5.95838 5.74757 5.95838 5.93548V6.36174C5.95838 6.64132 5.80713 6.90715 5.5688 7.04924L5.22046 7.26007C5.16546 7.29674 5.1013 7.31049 5.04171 7.31049Z" fill="#292D32"/>
<path d="M7.33341 10.4272H3.66673C1.54923 10.4272 1.15506 9.44175 1.05423 8.48383L0.710476 4.81257C0.660059 4.33132 0.64631 3.6209 1.12298 3.08924C1.53548 2.6309 2.2184 2.4109 3.2084 2.4109H7.79174C8.78632 2.4109 9.46924 2.63549 9.87716 3.08924C10.3538 3.6209 10.3401 4.33132 10.2897 4.81716L9.94591 8.47925C9.84508 9.44175 9.45091 10.4272 7.33341 10.4272ZM3.2084 3.09382C2.43381 3.09382 1.90215 3.24507 1.63173 3.54757C1.40714 3.79507 1.33381 4.17549 1.39339 4.74382L1.73714 8.41508C1.81506 9.13925 2.01215 9.73967 3.66673 9.73967H7.33341C8.98341 9.73967 9.18507 9.13925 9.26299 8.4105L9.60674 4.74841C9.66633 4.17549 9.59299 3.79507 9.36841 3.54757C9.09799 3.24507 8.56632 3.09382 7.79174 3.09382H3.2084Z" fill="#292D32"/>
<path d="M7.3334 3.0938C7.14548 3.0938 6.98965 2.93796 6.98965 2.75005V2.38338C6.98965 1.56754 6.98965 1.26046 5.86673 1.26046H5.13339C4.01048 1.26046 4.01048 1.56754 4.01048 2.38338V2.75005C4.01048 2.93796 3.85464 3.0938 3.66672 3.0938C3.47881 3.0938 3.32297 2.93796 3.32297 2.75005V2.38338C3.32297 1.57671 3.32297 0.572958 5.13339 0.572958H5.86673C7.67715 0.572958 7.67715 1.57671 7.67715 2.38338V2.75005C7.67715 2.93796 7.52132 3.0938 7.3334 3.0938Z" fill="#292D32"/>
<path d="M7.33798 6.59545C7.18214 6.59545 7.04464 6.49003 7.00339 6.3342C6.95756 6.15086 7.06756 5.96295 7.25089 5.91711C8.14465 5.69253 8.97423 5.30295 9.71673 4.76211C9.86798 4.65211 10.0834 4.6842 10.198 4.84003C10.308 4.99128 10.2759 5.2067 10.1201 5.32128C9.30423 5.91253 8.39673 6.33878 7.41589 6.58628C7.39298 6.59087 7.36548 6.59545 7.33798 6.59545Z" fill="#292D32"/>
<path d="M3.66674 6.6092C3.63924 6.6092 3.61174 6.60462 3.58424 6.60004C2.66299 6.37545 1.79674 5.98587 1.00382 5.44504C0.847985 5.33962 0.806735 5.1242 0.912151 4.96837C1.01757 4.81253 1.23299 4.77128 1.38882 4.8767C2.11299 5.3717 2.90132 5.72462 3.74466 5.93087C3.92799 5.9767 4.04257 6.16004 3.99674 6.34795C3.96466 6.50379 3.82257 6.6092 3.66674 6.6092Z" fill="#292D32"/>
</svg>
