<svg width="11" height="11" viewBox="0 0 11 11" fill="none" xmlns="http://www.w3.org/2000/svg">
<path d="M6.41666 10.4271H4.58334C2.0946 10.4271 1.03127 9.36375 1.03127 6.87501V4.12502C1.03127 1.63628 2.0946 0.572955 4.58334 0.572955H6.41666C8.9054 0.572955 9.96873 1.63628 9.96873 4.12502V6.87501C9.96873 9.36375 8.9054 10.4271 6.41666 10.4271ZM4.58334 1.26045C2.47043 1.26045 1.71876 2.01212 1.71876 4.12502V6.87501C1.71876 8.98792 2.47043 9.73959 4.58334 9.73959H6.41666C8.52957 9.73959 9.28123 8.98792 9.28123 6.87501V4.12502C9.28123 2.01212 8.52957 1.26045 6.41666 1.26045H4.58334Z" fill="#292D32"/>
<path d="M6.87497 4.96381H4.12498C3.55665 4.96381 3.09373 4.50089 3.09373 3.93256V3.47423C3.09373 2.9059 3.55665 2.44298 4.12498 2.44298H6.87497C7.4433 2.44298 7.90621 2.9059 7.90621 3.47423V3.93256C7.90621 4.50089 7.4433 4.96381 6.87497 4.96381ZM4.12498 3.13048C3.93706 3.13048 3.78123 3.28631 3.78123 3.47423V3.93256C3.78123 4.12048 3.93706 4.27631 4.12498 4.27631H6.87497C7.06288 4.27631 7.21872 4.12048 7.21872 3.93256V3.47423C7.21872 3.28631 7.06288 3.13048 6.87497 3.13048H4.12498Z" fill="#292D32"/>
<path d="M3.73536 6.83827C3.67578 6.83827 3.6162 6.82452 3.5612 6.8016C3.5062 6.77869 3.45578 6.7466 3.41453 6.70535C3.32745 6.61827 3.28162 6.50369 3.28162 6.37994C3.28162 6.32036 3.29078 6.26077 3.3137 6.20577C3.33662 6.14619 3.3687 6.10036 3.41453 6.05452C3.43286 6.03619 3.45578 6.01327 3.48328 5.99952C3.5062 5.98119 3.5337 5.96744 3.5612 5.95827C3.5887 5.94452 3.62078 5.93536 3.64828 5.93077C3.79495 5.89869 3.95536 5.94911 4.06078 6.05452C4.10203 6.09577 4.1387 6.14619 4.16161 6.20577C4.18453 6.26077 4.19828 6.32036 4.19828 6.37994C4.19828 6.50369 4.14786 6.61827 4.06078 6.70535C3.9737 6.79244 3.85911 6.83827 3.73536 6.83827Z" fill="#292D32"/>
<path d="M5.57326 6.83826C5.44951 6.83826 5.33493 6.79242 5.24784 6.70534C5.16076 6.61826 5.11493 6.50368 5.11493 6.37993C5.11493 6.32034 5.12409 6.26076 5.14701 6.20576C5.16993 6.14618 5.20201 6.10034 5.24784 6.05451C5.26618 6.03618 5.28909 6.01326 5.31659 5.99951C5.33951 5.98118 5.36701 5.96743 5.39451 5.95826C5.42201 5.94451 5.45409 5.93534 5.48159 5.93076C5.56868 5.91243 5.66034 5.92159 5.74742 5.95826C5.80242 5.98118 5.85284 6.01326 5.89409 6.05451C5.93534 6.10034 5.97201 6.14618 5.99492 6.20576C6.01784 6.26076 6.03159 6.32034 6.03159 6.37993C6.03159 6.50368 5.98117 6.61826 5.89409 6.70534C5.80701 6.79242 5.69242 6.83826 5.57326 6.83826Z" fill="#292D32"/>
<path d="M7.40199 6.83826C7.3424 6.83826 7.28282 6.82451 7.22782 6.80159C7.17282 6.77867 7.1224 6.74659 7.08115 6.70534C7.03532 6.65951 7.00324 6.60909 6.98032 6.55409C6.95741 6.49909 6.94824 6.43951 6.94824 6.37993C6.94824 6.32034 6.95741 6.26076 6.98032 6.20576C7.00324 6.14618 7.03532 6.10034 7.08115 6.05451C7.25074 5.88493 7.55782 5.88493 7.7274 6.05451C7.81449 6.14159 7.8649 6.26076 7.8649 6.37993C7.8649 6.50368 7.81449 6.61826 7.7274 6.70534C7.6449 6.78784 7.53032 6.83826 7.40199 6.83826Z" fill="#292D32"/>
<path d="M3.73991 8.6716C3.61616 8.6716 3.50158 8.62576 3.41449 8.53868C3.32741 8.4516 3.27699 8.33702 3.27699 8.21327C3.27699 8.0941 3.32741 7.97493 3.41449 7.88785C3.43283 7.86952 3.46033 7.8466 3.48324 7.83285C3.50616 7.81452 3.53366 7.80077 3.56116 7.7916C3.58866 7.77785 3.62074 7.76868 3.64824 7.7641C3.79949 7.7366 3.95532 7.78243 4.06074 7.88785C4.08366 7.91077 4.10199 7.93368 4.12032 7.9566C4.13407 7.9841 4.14782 8.0116 4.16157 8.0391C4.17074 8.0666 4.17991 8.0941 4.18907 8.1216C4.19366 8.15368 4.19824 8.18118 4.19824 8.21327C4.19824 8.33702 4.14782 8.4516 4.06074 8.53868C3.97366 8.62576 3.85907 8.6716 3.73991 8.6716Z" fill="#292D32"/>
<path d="M5.57328 8.6716C5.44954 8.6716 5.33495 8.62576 5.24787 8.53868C5.16079 8.4516 5.11037 8.33702 5.11037 8.21327C5.11037 8.0941 5.16079 7.97493 5.24787 7.88785C5.35329 7.78243 5.5137 7.7366 5.66037 7.7641C5.68787 7.76868 5.71995 7.77785 5.74745 7.7916C5.77495 7.80077 5.80245 7.81452 5.82537 7.83285C5.84828 7.8466 5.8712 7.86952 5.89412 7.88785C5.9812 7.97493 6.02703 8.0941 6.02703 8.21327C6.02703 8.33702 5.9812 8.4516 5.89412 8.53868C5.80703 8.62576 5.69245 8.6716 5.57328 8.6716Z" fill="#292D32"/>
<path d="M7.40199 8.67169C7.28282 8.67169 7.16824 8.62586 7.08115 8.53878C6.99407 8.45169 6.94824 8.33711 6.94824 8.21336C6.94824 8.09419 6.99407 7.97503 7.08115 7.88794C7.1224 7.8467 7.17282 7.81461 7.22782 7.7917C7.3974 7.72295 7.60365 7.75961 7.7274 7.88794C7.81449 7.97503 7.86032 8.09419 7.86032 8.21336C7.86032 8.33711 7.81449 8.45169 7.7274 8.53878C7.68615 8.58003 7.63574 8.61211 7.58074 8.63503C7.52574 8.65794 7.46615 8.67169 7.40199 8.67169Z" fill="#292D32"/>
</svg>
