<svg width="11" height="11" viewBox="0 0 11 11" fill="none" xmlns="http://www.w3.org/2000/svg">
<path d="M5.9812 8.90086C5.7337 8.90086 5.47245 8.87795 5.18828 8.83211L3.0387 8.49295C2.36036 8.38753 1.83786 8.19961 1.44828 7.92461C0.444525 7.22794 0.504109 6.03169 0.632442 5.19294L0.97161 3.04335C1.28328 1.07251 2.30078 0.334597 4.27162 0.641681L6.4212 0.980848C7.43412 1.14127 8.79537 1.54918 8.88246 3.25877C8.90079 3.5521 8.88246 3.88669 8.81829 4.28085L8.48371 6.43044C8.21787 8.11253 7.43412 8.90086 5.9812 8.90086ZM3.4512 1.26043C2.36036 1.26043 1.86536 1.81502 1.64994 3.15335L1.31078 5.30294C1.09994 6.65503 1.48494 7.11336 1.84244 7.36544C2.14495 7.58086 2.5712 7.72753 3.14411 7.81461L5.2937 8.15378C6.89329 8.40586 7.55329 7.92461 7.80537 6.32044L8.13996 4.17085C8.19496 3.8271 8.21329 3.53835 8.19496 3.29544V3.29085C8.14454 2.32835 7.59912 1.85627 6.3112 1.6546L4.1662 1.32002C3.90037 1.27877 3.66661 1.26043 3.4512 1.26043Z" fill="#292D32"/>
<path d="M6.72827 10.4272C6.33868 10.4272 5.89868 10.3447 5.38993 10.1751L3.32284 9.48757C2.14492 9.09799 1.50784 8.53882 1.31534 7.72298C1.28326 7.58548 1.33826 7.43882 1.45742 7.3609C1.57659 7.28298 1.73242 7.28298 1.84701 7.36548C2.14951 7.5809 2.57118 7.72757 3.14409 7.81465L5.29368 8.15382C6.89327 8.4059 7.55327 7.92465 7.80535 6.32048L8.13994 4.17089C8.19494 3.82714 8.21327 3.53839 8.19494 3.29548C8.19035 3.17631 8.24994 3.05714 8.35535 2.98839C8.46077 2.91964 8.59369 2.91506 8.70369 2.97464C9.93202 3.63006 10.2574 4.67965 9.72577 6.28382L9.03827 8.3509C8.71285 9.32257 8.2866 9.91841 7.69077 10.2163C7.40202 10.3584 7.08577 10.4272 6.72827 10.4272ZM2.62618 8.41507C2.84618 8.56174 3.13951 8.70382 3.53826 8.83674L5.60535 9.52424C6.39368 9.78549 6.95743 9.80841 7.3791 9.60216C7.80077 9.39132 8.1216 8.92382 8.38285 8.13549L9.07035 6.0684C9.44619 4.93173 9.29952 4.32673 8.8641 3.91881C8.85494 4.03339 8.8366 4.15256 8.81827 4.2809L8.48369 6.43048C8.17202 8.40132 7.15452 9.13924 5.18368 8.83674L3.03409 8.49757C2.89201 8.47007 2.75451 8.44257 2.62618 8.41507Z" fill="#292D32"/>
<path d="M3.77662 4.45507C3.14871 4.45507 2.63537 3.94174 2.63537 3.31382C2.63537 2.6859 3.14871 2.17257 3.77662 2.17257C4.40454 2.17257 4.91788 2.6859 4.91788 3.31382C4.91788 3.94174 4.40454 4.45507 3.77662 4.45507ZM3.77662 2.86465C3.52912 2.86465 3.32287 3.06632 3.32287 3.3184C3.32287 3.57049 3.52454 3.77215 3.77662 3.77215C4.02413 3.77215 4.23038 3.57049 4.23038 3.3184C4.23038 3.06632 4.02413 2.86465 3.77662 2.86465Z" fill="#292D32"/>
</svg>
