<svg width="11" height="11" viewBox="0 0 11 11" fill="none" xmlns="http://www.w3.org/2000/svg">
<path d="M7.31957 10.4271H3.65292C2.08542 10.4271 1.47584 9.81754 1.47584 8.25004V4.58339C1.47584 4.39548 1.63167 4.23964 1.81959 4.23964H9.15289C9.34081 4.23964 9.49664 4.39548 9.49664 4.58339V8.25004C9.49664 9.81754 8.88706 10.4271 7.31957 10.4271ZM2.16334 4.92714V8.25004C2.16334 9.43254 2.47042 9.73962 3.65292 9.73962H7.31957C8.50206 9.73962 8.80914 9.43254 8.80914 8.25004V4.92714H2.16334Z" fill="#292D32"/>
<path d="M8.93749 4.92711H2.06252C1.26044 4.92711 0.80211 4.46878 0.80211 3.6667V3.20837C0.80211 2.40629 1.26044 1.94795 2.06252 1.94795H8.93749C9.71666 1.94795 10.1979 2.4292 10.1979 3.20837V3.6667C10.1979 4.44586 9.71666 4.92711 8.93749 4.92711ZM2.06252 2.63545C1.64544 2.63545 1.48961 2.79128 1.48961 3.20837V3.6667C1.48961 4.08378 1.64544 4.23961 2.06252 4.23961H8.93749C9.34083 4.23961 9.51041 4.07003 9.51041 3.6667V3.20837C9.51041 2.80503 9.34083 2.63545 8.93749 2.63545H2.06252Z" fill="#292D32"/>
<path d="M5.33506 2.63543H2.80507C2.70882 2.63543 2.61715 2.59418 2.55299 2.52543C2.2734 2.21835 2.28257 1.74627 2.5759 1.45294L3.22673 0.802107C3.52923 0.499608 4.02881 0.499608 4.33131 0.802107L5.57797 2.04877C5.67422 2.14502 5.70631 2.29627 5.65131 2.4246C5.60089 2.55293 5.47714 2.63543 5.33506 2.63543ZM3.05715 1.94794H4.51006L3.84548 1.28794C3.80881 1.25127 3.74923 1.25127 3.71256 1.28794L3.06173 1.93877C3.06173 1.94335 3.05715 1.94335 3.05715 1.94794Z" fill="#292D32"/>
<path d="M8.19045 2.63543H5.66046C5.52296 2.63543 5.39463 2.55293 5.34421 2.4246C5.28922 2.29627 5.3213 2.1496 5.41755 2.04877L6.66421 0.802107C6.96671 0.499608 7.46629 0.499608 7.76879 0.802107L8.41962 1.45294C8.71295 1.74627 8.7267 2.21835 8.44254 2.52543C8.37837 2.59418 8.2867 2.63543 8.19045 2.63543ZM6.49463 1.94794H7.94754C7.94295 1.94335 7.94295 1.94335 7.93837 1.93877L7.28754 1.28794C7.25087 1.25127 7.19129 1.25127 7.15462 1.28794L6.49463 1.94794Z" fill="#292D32"/>
<path d="M4.55581 7.74588C4.42748 7.74588 4.29456 7.7138 4.17539 7.64963C3.91414 7.50755 3.75373 7.23713 3.75373 6.9438V4.58339C3.75373 4.39548 3.90956 4.23964 4.09748 4.23964H6.8658C7.05372 4.23964 7.20955 4.39548 7.20955 4.58339V6.93463C7.20955 7.23255 7.04913 7.50296 6.78788 7.64046C6.52663 7.78255 6.21039 7.76421 5.96289 7.59921L5.55497 7.32421C5.5183 7.29671 5.46789 7.29671 5.42664 7.32421L4.99581 7.60838C4.86289 7.70005 4.70706 7.74588 4.55581 7.74588ZM4.44123 4.92714V6.93922C4.44123 6.9988 4.47789 7.0263 4.50081 7.04005C4.52373 7.0538 4.56956 7.06755 4.61998 7.03547L5.05081 6.7513C5.32122 6.57255 5.66955 6.57255 5.93539 6.7513L6.3433 7.0263C6.39372 7.05838 6.43955 7.04463 6.46247 7.03088C6.48538 7.01713 6.52205 6.98963 6.52205 6.93005V4.92256H4.44123V4.92714Z" fill="#292D32"/>
</svg>
