<svg width="11" height="11" viewBox="0 0 11 11" fill="none" xmlns="http://www.w3.org/2000/svg">
<path d="M7.24635 9.24927C7.12719 9.24927 7.00344 9.24468 6.87052 9.23093C6.63218 9.2126 6.36177 9.16677 6.08218 9.09802L5.31218 8.91468C3.19926 8.4151 2.50718 7.29676 3.00218 5.18843L3.45135 3.268C3.55218 2.83259 3.67135 2.47967 3.81801 2.18634C4.60635 0.55925 6.11427 0.705917 7.18677 0.958L7.95219 1.13675C9.02469 1.38883 9.70302 1.78759 10.0834 2.39717C10.4593 3.00675 10.5189 3.79051 10.2668 4.86301L9.81761 6.77885C9.42344 8.45635 8.60302 9.24927 7.24635 9.24927ZM6.01343 1.48967C5.24802 1.48967 4.76218 1.80592 4.43676 2.48425C4.3176 2.73175 4.21218 3.03884 4.12051 3.42384L3.67135 5.34426C3.26343 7.07676 3.73551 7.83301 5.46802 8.24551L6.23802 8.42885C6.48552 8.48843 6.71927 8.5251 6.9301 8.54343C8.17219 8.66718 8.79552 8.12176 9.14386 6.62301L9.59302 4.70717C9.79927 3.82259 9.77177 3.20384 9.49677 2.75925C9.22177 2.31467 8.68094 2.01217 7.79177 1.80592L7.02635 1.62717C6.64593 1.5355 6.30677 1.48967 6.01343 1.48967Z" fill="#292D32"/>
<path d="M3.818 10.198C2.64008 10.198 1.88841 9.49215 1.40716 8.00256L0.820491 6.19214C0.169656 4.17547 0.75174 3.0388 2.75924 2.38797L3.48341 2.15422C3.72175 2.08088 3.9005 2.03047 4.06091 2.00297C4.18925 1.97547 4.32216 2.02588 4.40008 2.1313C4.478 2.23672 4.49175 2.37422 4.43675 2.49338C4.31758 2.7363 4.21216 3.04338 4.12508 3.42839L3.67591 5.34881C3.268 7.08131 3.74008 7.83756 5.47258 8.25006L6.24258 8.43339C6.49008 8.49298 6.72384 8.52964 6.93467 8.54798C7.08134 8.56173 7.2005 8.66256 7.24175 8.80464C7.27842 8.94673 7.22342 9.0934 7.10425 9.1759C6.80175 9.38215 6.42133 9.55631 5.94008 9.71215L5.21592 9.95048C4.68883 10.1155 4.2305 10.198 3.818 10.198ZM3.56591 2.85088L2.97466 3.04338C1.33841 3.57047 0.948824 4.34047 1.47591 5.98131L2.06258 7.79173C2.59424 9.42798 3.36425 9.82215 5.0005 9.29506L5.72467 9.05673C5.75217 9.04756 5.77508 9.0384 5.80258 9.02923L5.31675 8.91465C3.20383 8.41506 2.51174 7.29673 3.00674 5.18839L3.45591 3.26797C3.488 3.1213 3.52466 2.97922 3.56591 2.85088Z" fill="#292D32"/>
</svg>
