<svg width="11" height="11" viewBox="0 0 11 11" fill="none" xmlns="http://www.w3.org/2000/svg">
<path d="M7.24624 9.24915C7.12708 9.24915 7.00333 9.24456 6.87041 9.23081C6.63208 9.21248 6.36166 9.16665 6.08208 9.0979L5.31209 8.91457C3.19918 8.41498 2.5071 7.29665 3.00209 5.18833L3.45126 3.26792C3.55209 2.83251 3.67126 2.47959 3.81792 2.18626C4.60625 0.559181 6.11417 0.705847 7.18666 0.95793L7.95208 1.13668C9.02457 1.38876 9.7029 1.78751 10.0833 2.39709C10.4591 3.00667 10.5187 3.79042 10.2666 4.86291L9.81748 6.77874C9.42332 8.45623 8.60291 9.24915 7.24624 9.24915ZM6.01333 1.48959C5.24792 1.48959 4.76209 1.80584 4.43667 2.48417C4.31751 2.73167 4.21209 3.03875 4.12042 3.42375L3.67126 5.34416C3.26334 7.07666 3.73543 7.8329 5.46792 8.2454L6.23791 8.42873C6.48541 8.48832 6.71916 8.52498 6.93 8.54332C8.17666 8.66707 8.79541 8.12165 9.14374 6.62291L9.5929 4.70708C9.79915 3.8225 9.77165 3.20375 9.49665 2.75917C9.22165 2.31459 8.68082 2.01209 7.79166 1.80584L7.02625 1.62709C6.64583 1.53543 6.30666 1.48959 6.01333 1.48959Z" fill="#292D32"/>
<path d="M3.81791 10.1979C2.64 10.1979 1.88833 9.49202 1.40708 8.00245L0.820421 6.19204C0.16959 4.17538 0.751671 3.03872 2.75916 2.38789L3.48333 2.15414C3.72166 2.08081 3.90041 2.03039 4.06082 2.00289C4.19374 1.97539 4.32207 2.02581 4.39999 2.13122C4.47791 2.23664 4.49166 2.37414 4.43666 2.4933C4.31749 2.73622 4.21207 3.0433 4.12499 3.4283L3.67583 5.34871C3.26791 7.0812 3.73999 7.83745 5.47249 8.24995L6.24248 8.43328C6.48998 8.49286 6.72373 8.52953 6.93456 8.54786C7.08123 8.56161 7.2004 8.66244 7.24165 8.80453C7.27831 8.94661 7.22331 9.09328 7.10415 9.17578C6.80165 9.38203 6.42123 9.55619 5.93998 9.71202L5.21582 9.95036C4.68874 10.1154 4.23041 10.1979 3.81791 10.1979ZM3.56583 2.8508L2.97458 3.0433C1.33834 3.57038 0.948753 4.34038 1.47583 5.98121L2.0625 7.79162C2.59416 9.42786 3.36416 9.82202 5.0004 9.29494L5.72457 9.05661C5.75207 9.04744 5.77498 9.03828 5.80248 9.02911L5.31665 8.91453C3.20374 8.41495 2.51166 7.29662 3.00666 5.18829L3.45583 3.26788C3.48791 3.12122 3.52458 2.97913 3.56583 2.8508Z" fill="#292D32"/>
<path d="M8.01625 4.81712C7.98875 4.81712 7.96125 4.81253 7.92917 4.80795L5.70626 4.2442C5.52293 4.19837 5.41293 4.01045 5.45876 3.82712C5.5046 3.64379 5.69251 3.53379 5.87585 3.57962L8.09875 4.14337C8.28209 4.1892 8.39209 4.37712 8.34625 4.56045C8.30959 4.7117 8.1675 4.81712 8.01625 4.81712Z" fill="#292D32"/>
<path d="M6.67321 6.36628C6.64571 6.36628 6.61821 6.36169 6.58612 6.35711L5.25238 6.01795C5.06905 5.97211 4.95905 5.7842 5.00488 5.60086C5.05071 5.41753 5.23863 5.30753 5.42196 5.35337L6.75571 5.69253C6.93904 5.73836 7.04904 5.92628 7.0032 6.10961C6.96654 6.26544 6.82904 6.36628 6.67321 6.36628Z" fill="#292D32"/>
</svg>
