<svg width="11" height="11" viewBox="0 0 11 11" fill="none" xmlns="http://www.w3.org/2000/svg">
<path d="M5.50467 7.79166C5.11509 7.79166 4.72092 7.69083 4.41384 7.49375L1.65468 5.69251C1.14135 5.35793 0.83427 4.79418 0.83427 4.18001C0.83427 3.56585 1.14135 3.0021 1.65468 2.66752L4.41842 0.87086C5.03259 0.472111 5.9905 0.472111 6.60008 0.875443L9.34549 2.67669C9.85423 3.01127 10.1613 3.57502 10.1613 4.1846C10.1613 4.79418 9.85423 5.35793 9.34549 5.69251L6.60008 7.49375C6.293 7.69542 5.89883 7.79166 5.50467 7.79166ZM5.50467 1.26044C5.24342 1.26044 4.98217 1.32002 4.79425 1.44836L2.0351 3.24502C1.71427 3.45585 1.52635 3.79501 1.52635 4.18001C1.52635 4.56501 1.70968 4.90418 2.0351 5.11501L4.79425 6.91625C5.17467 7.16375 5.84383 7.16375 6.22425 6.91625L8.96965 5.11501C9.29049 4.90418 9.47382 4.56501 9.47382 4.18001C9.47382 3.79501 9.29049 3.45585 8.96965 3.24502L6.22425 1.44377C6.03175 1.32461 5.7705 1.26044 5.50467 1.26044Z" fill="#292D32"/>
<path d="M5.49999 10.4271C5.29832 10.4271 5.09207 10.3996 4.92707 10.3446L3.465 9.85878C2.77292 9.62961 2.2275 8.87337 2.23208 8.14462L2.23667 5.99504C2.23667 5.80713 2.3925 5.65129 2.58042 5.65129C2.76833 5.65129 2.92417 5.80713 2.92417 5.99504L2.91958 8.14462C2.91958 8.57545 3.27708 9.07045 3.685 9.20795L5.14707 9.69378C5.33041 9.75336 5.66957 9.75336 5.8529 9.69378L7.31498 9.20795C7.7229 9.07045 8.08039 8.57545 8.08039 8.1492V6.02254C8.08039 5.83463 8.23623 5.6788 8.42414 5.6788C8.61206 5.6788 8.76789 5.83463 8.76789 6.02254V8.1492C8.76789 8.87795 8.22706 9.62961 7.53498 9.86336L6.0729 10.3492C5.9079 10.3996 5.70165 10.4271 5.49999 10.4271Z" fill="#292D32"/>
<path d="M9.80827 7.21869C9.62036 7.21869 9.46453 7.06285 9.46453 6.87494V4.12495C9.46453 3.93703 9.62036 3.7812 9.80827 3.7812C9.99619 3.7812 10.152 3.93703 10.152 4.12495V6.87494C10.152 7.06285 9.99619 7.21869 9.80827 7.21869Z" fill="#292D32"/>
</svg>
