<svg width="11" height="11" viewBox="0 0 11 11" fill="none" xmlns="http://www.w3.org/2000/svg">
<path d="M5.59156 7.96576C5.27073 7.96576 4.94532 7.842 4.7024 7.59909C4.46407 7.36075 4.33115 7.04452 4.33115 6.70994C4.33115 6.37535 4.46407 6.05452 4.7024 5.82077L5.34864 5.17452C5.48155 5.04161 5.70155 5.04161 5.83447 5.17452C5.96738 5.30744 5.96738 5.52744 5.83447 5.66035L5.18823 6.3066C5.07823 6.4166 5.01865 6.55869 5.01865 6.70994C5.01865 6.86119 5.07823 7.00784 5.18823 7.11326C5.41281 7.33784 5.7749 7.33784 5.99949 7.11326L7.01697 6.09576C7.59905 5.51368 7.59905 4.56953 7.01697 3.98745C6.43489 3.40537 5.49074 3.40537 4.90866 3.98745L3.79947 5.0966C3.56572 5.33035 3.4374 5.63744 3.4374 5.96285C3.4374 6.28827 3.56572 6.59993 3.79947 6.82909C3.93239 6.96201 3.93239 7.18201 3.79947 7.31492C3.66656 7.44784 3.44656 7.44784 3.31364 7.31492C2.95156 6.95284 2.75449 6.4716 2.75449 5.95827C2.75449 5.44493 2.95156 4.96369 3.31364 4.60161L4.42283 3.49244C5.27074 2.64453 6.65489 2.64453 7.5028 3.49244C8.35071 4.34035 8.35071 5.72452 7.5028 6.57243L6.48532 7.58992C6.23782 7.84201 5.91698 7.96576 5.59156 7.96576Z" fill="#292D32"/>
<path d="M6.87501 10.427H4.12502C1.63628 10.427 0.572955 9.36369 0.572955 6.87495V4.12496C0.572955 1.63622 1.63628 0.57289 4.12502 0.57289H6.87501C9.36375 0.57289 10.4271 1.63622 10.4271 4.12496V6.87495C10.4271 9.36369 9.36375 10.427 6.87501 10.427ZM4.12502 1.26039C2.01212 1.26039 1.26045 2.01205 1.26045 4.12496V6.87495C1.26045 8.98786 2.01212 9.73952 4.12502 9.73952H6.87501C8.98792 9.73952 9.73959 8.98786 9.73959 6.87495V4.12496C9.73959 2.01205 8.98792 1.26039 6.87501 1.26039H4.12502Z" fill="#292D32"/>
</svg>
