<svg width="11" height="11" viewBox="0 0 11 11" fill="none" xmlns="http://www.w3.org/2000/svg">
<path d="M6.87501 10.427H4.12502C1.63628 10.427 0.572955 9.36369 0.572955 6.87495V4.12496C0.572955 1.63622 1.63628 0.57289 4.12502 0.57289H6.87501C9.36375 0.57289 10.4271 1.63622 10.4271 4.12496V6.87495C10.4271 9.36369 9.36375 10.427 6.87501 10.427ZM4.12502 1.26039C2.01212 1.26039 1.26045 2.01205 1.26045 4.12496V6.87495C1.26045 8.98786 2.01212 9.73952 4.12502 9.73952H6.87501C8.98792 9.73952 9.73959 8.98786 9.73959 6.87495V4.12496C9.73959 2.01205 8.98792 1.26039 6.87501 1.26039H4.12502Z" fill="#292D32"/>
<path d="M4.62466 8.36461C4.34049 8.36461 4.06091 8.2592 3.8455 8.04378L2.95633 7.15462C2.5255 6.72379 2.5255 6.02713 2.95633 5.5963L5.59174 2.96089C6.02257 2.53006 6.71924 2.53006 7.15007 2.96089L8.03923 3.85005C8.47006 4.28088 8.47006 4.97755 8.03923 5.40838L5.40382 8.04378C5.18841 8.25462 4.90882 8.36461 4.62466 8.36461ZM3.44675 6.66879L4.33591 7.55795C4.49633 7.71837 4.76216 7.71837 4.92258 7.55795L7.55798 4.92255C7.7184 4.76213 7.7184 4.4963 7.55798 4.33588L6.66882 3.44672C6.5084 3.2863 6.24257 3.2863 6.08216 3.44672L3.44675 6.08213C3.28633 6.24254 3.28633 6.50379 3.44675 6.66879Z" fill="#292D32"/>
<path d="M6.22426 7.07658C6.13717 7.07658 6.05009 7.04449 5.98134 6.97574L4.01968 5.01408C3.88677 4.88117 3.88677 4.66117 4.01968 4.52825C4.1526 4.39534 4.3726 4.39534 4.50551 4.52825L6.46717 6.48991C6.60009 6.62283 6.60009 6.84283 6.46717 6.97574C6.40301 7.04449 6.31134 7.07658 6.22426 7.07658Z" fill="#292D32"/>
</svg>
