<svg width="11" height="11" viewBox="0 0 11 11" fill="none" xmlns="http://www.w3.org/2000/svg">
<path d="M9.62496 2.4063H6.41664C6.22872 2.4063 6.07289 2.25046 6.07289 2.06255C6.07289 1.87463 6.22872 1.7188 6.41664 1.7188H9.62496C9.81287 1.7188 9.96871 1.87463 9.96871 2.06255C9.96871 2.25046 9.81287 2.4063 9.62496 2.4063Z" fill="#292D32"/>
<path d="M9.62496 4.69798H6.41664C6.22872 4.69798 6.07289 4.54215 6.07289 4.35424C6.07289 4.16632 6.22872 4.01049 6.41664 4.01049H9.62496C9.81287 4.01049 9.96871 4.16632 9.96871 4.35424C9.96871 4.54215 9.81287 4.69798 9.62496 4.69798Z" fill="#292D32"/>
<path d="M9.62498 6.98954H1.37501C1.1871 6.98954 1.03127 6.83371 1.03127 6.64579C1.03127 6.45788 1.1871 6.30205 1.37501 6.30205H9.62498C9.8129 6.30205 9.96873 6.45788 9.96873 6.64579C9.96873 6.83371 9.8129 6.98954 9.62498 6.98954Z" fill="#292D32"/>
<path d="M9.62498 9.28123H1.37501C1.1871 9.28123 1.03127 9.1254 1.03127 8.93748C1.03127 8.74957 1.1871 8.59373 1.37501 8.59373H9.62498C9.8129 8.59373 9.96873 8.74957 9.96873 8.93748C9.96873 9.1254 9.8129 9.28123 9.62498 9.28123Z" fill="#292D32"/>
<path d="M3.63 4.92713H2.32833C1.6225 4.92713 1.26042 4.56963 1.26042 3.85922V2.55756C1.26042 1.85172 1.61792 1.48964 2.32833 1.48964H3.63458C4.34041 1.48964 4.70249 1.84714 4.70249 2.55756V3.8638C4.69791 4.56963 4.34041 4.92713 3.63 4.92713ZM2.32833 2.17714C2.00292 2.17714 1.94792 2.23214 1.94792 2.55756V3.8638C1.94792 4.18922 2.00292 4.24422 2.32833 4.24422H3.63458C3.95999 4.24422 4.01499 4.18922 4.01499 3.8638V2.55756C4.01499 2.23214 3.95999 2.17714 3.63458 2.17714H2.32833Z" fill="#292D32"/>
</svg>
