<svg width="11" height="11" viewBox="0 0 11 11" fill="none" xmlns="http://www.w3.org/2000/svg">
<path d="M7.78696 4.45034H3.21282C3.0249 4.45034 2.86907 4.29451 2.86907 4.10659C2.86907 3.91868 3.0249 3.76284 3.21282 3.76284H7.78696C7.97487 3.76284 8.13071 3.91868 8.13071 4.10659C8.13071 4.29451 7.97487 4.45034 7.78696 4.45034Z" fill="#292D32"/>
<path d="M5.50001 4.45032C5.3121 4.45032 5.15627 4.29449 5.15627 4.10657V3.33658C5.15627 3.14866 5.3121 2.99283 5.50001 2.99283C5.68793 2.99283 5.84376 3.14866 5.84376 3.33658V4.10657C5.84376 4.29449 5.68793 4.45032 5.50001 4.45032Z" fill="#292D32"/>
<path d="M3.20833 8.0069C3.02041 8.0069 2.86458 7.85107 2.86458 7.66315C2.86458 7.47524 3.02041 7.3194 3.20833 7.3194C4.91332 7.3194 6.30206 5.87567 6.30206 4.09735C6.30206 3.90943 6.4579 3.7536 6.64581 3.7536C6.83373 3.7536 6.98956 3.90943 6.98956 4.09735C6.98956 6.25609 5.29373 8.0069 3.20833 8.0069Z" fill="#292D32"/>
<path d="M7.79177 8.00689C6.88885 8.00689 6.0501 7.55774 5.43593 6.73733C5.32135 6.58608 5.35345 6.37067 5.5047 6.25609C5.65594 6.14151 5.87135 6.17357 5.98594 6.32482C6.47177 6.96648 7.11344 7.31939 7.79635 7.31939C7.98427 7.31939 8.1401 7.47523 8.1401 7.66314C8.1401 7.85106 7.97968 8.00689 7.79177 8.00689Z" fill="#292D32"/>
<path d="M6.87501 10.4269H4.12502C1.63628 10.4269 0.572955 9.36356 0.572955 6.87482V4.12483C0.572955 1.63609 1.63628 0.572759 4.12502 0.572759H6.87501C9.36375 0.572759 10.4271 1.63609 10.4271 4.12483V6.87482C10.4271 9.36356 9.36375 10.4269 6.87501 10.4269ZM4.12502 1.26026C2.01212 1.26026 1.26045 2.01192 1.26045 4.12483V6.87482C1.26045 8.98773 2.01212 9.73939 4.12502 9.73939H6.87501C8.98792 9.73939 9.73959 8.98773 9.73959 6.87482V4.12483C9.73959 2.01192 8.98792 1.26026 6.87501 1.26026H4.12502Z" fill="#292D32"/>
</svg>
