<svg width="11" height="11" viewBox="0 0 11 11" fill="none" xmlns="http://www.w3.org/2000/svg">
<path d="M7.56247 8.36457H6.87039C6.68248 8.36457 6.52664 8.20873 6.52664 8.02082C6.52664 7.8329 6.68248 7.67707 6.87039 7.67707H7.56247C8.7633 7.67707 9.73955 6.70082 9.73955 5.49999C9.73955 4.29917 8.7633 3.32292 7.56247 3.32292H6.87498C6.68706 3.32292 6.53123 3.16709 6.53123 2.97917C6.53123 2.79125 6.68248 2.63542 6.87498 2.63542H7.56247C9.14372 2.63542 10.427 3.91875 10.427 5.49999C10.427 7.08124 9.14372 8.36457 7.56247 8.36457Z" fill="#292D32"/>
<path d="M4.12502 8.36457H3.43753C1.85628 8.36457 0.572955 7.08124 0.572955 5.49999C0.572955 3.91875 1.85628 2.63542 3.43753 2.63542H4.12502C4.31294 2.63542 4.46877 2.79125 4.46877 2.97917C4.46877 3.16709 4.31294 3.32292 4.12502 3.32292H3.43753C2.2367 3.32292 1.26045 4.29917 1.26045 5.49999C1.26045 6.70082 2.2367 7.67707 3.43753 7.67707H4.12502C4.31294 7.67707 4.46877 7.8329 4.46877 8.02082C4.46877 8.20873 4.31294 8.36457 4.12502 8.36457Z" fill="#292D32"/>
<path d="M7.33336 5.84376H3.6667C3.47879 5.84376 3.32295 5.68793 3.32295 5.50001C3.32295 5.3121 3.47879 5.15627 3.6667 5.15627H7.33336C7.52127 5.15627 7.6771 5.3121 7.6771 5.50001C7.6771 5.68793 7.52127 5.84376 7.33336 5.84376Z" fill="#292D32"/>
</svg>
