<svg width="11" height="11" viewBox="0 0 11 11" fill="none" xmlns="http://www.w3.org/2000/svg">
<path d="M3.55211 8.47915C1.91128 8.47915 0.572955 7.14083 0.572955 5.5C0.572955 3.85917 1.91128 2.52084 3.55211 2.52084C3.74003 2.52084 3.89586 2.67668 3.89586 2.86459C3.89586 3.05251 3.74003 3.20834 3.55211 3.20834C2.28711 3.20834 1.26045 4.235 1.26045 5.5C1.26045 6.76499 2.28711 7.79166 3.55211 7.79166C4.8171 7.79166 5.84377 6.76499 5.84377 5.5C5.84377 5.31208 5.9996 5.15625 6.18752 5.15625C6.37543 5.15625 6.53126 5.31208 6.53126 5.5C6.53126 7.14083 5.19294 8.47915 3.55211 8.47915Z" fill="#292D32"/>
<path d="M7.33332 8.59374C7.1454 8.59374 6.98957 8.43791 6.98957 8.24999C6.98957 8.06208 7.1454 7.90624 7.33332 7.90624C8.65789 7.90624 9.73956 6.82458 9.73956 5.5C9.73956 4.17543 8.65789 3.09376 7.33332 3.09376C6.00874 3.09376 4.92708 4.17543 4.92708 5.5C4.92708 5.68792 4.77124 5.84375 4.58333 5.84375C4.39541 5.84375 4.23958 5.68792 4.23958 5.5C4.23958 3.79501 5.62832 2.40627 7.33332 2.40627C9.03831 2.40627 10.4271 3.79501 10.4271 5.5C10.4271 7.205 9.03831 8.59374 7.33332 8.59374Z" fill="#292D32"/>
</svg>
