<svg width="11" height="11" viewBox="0 0 11 11" fill="none" xmlns="http://www.w3.org/2000/svg">
<path d="M5.72921 6.76034H4.58338C4.39547 6.76034 4.23963 6.60451 4.23963 6.4166C4.23963 6.22868 4.39547 6.07285 4.58338 6.07285H5.72921C6.93004 6.07285 7.90629 5.0966 7.90629 3.89577C7.90629 2.69494 6.93004 1.7187 5.72921 1.7187H3.43755C2.23673 1.7187 1.26048 2.69494 1.26048 3.89577C1.26048 4.39994 1.43923 4.89035 1.76006 5.27993C1.87922 5.4266 1.86089 5.64201 1.71423 5.76576C1.56756 5.88493 1.35215 5.8666 1.2284 5.71994C0.802148 5.20661 0.568398 4.56035 0.568398 3.89577C0.568398 2.31453 1.85173 1.0312 3.43297 1.0312H5.72463C7.30587 1.0312 8.5892 2.31453 8.5892 3.89577C8.5892 5.47702 7.31045 6.76034 5.72921 6.76034Z" fill="#292D32"/>
<path d="M7.56243 9.96866H5.27077C3.68953 9.96866 2.4062 8.68533 2.4062 7.10408C2.4062 5.52284 3.68953 4.23951 5.27077 4.23951H6.4166C6.60452 4.23951 6.76035 4.39535 6.76035 4.58326C6.76035 4.77118 6.60452 4.92701 6.4166 4.92701H5.27077C4.06994 4.92701 3.0937 5.90326 3.0937 7.10408C3.0937 8.30491 4.06994 9.28116 5.27077 9.28116H7.56243C8.76326 9.28116 9.73951 8.30491 9.73951 7.10408C9.73951 6.59992 9.56076 6.10951 9.23993 5.71993C9.12076 5.57326 9.13909 5.35785 9.28576 5.2341C9.43242 5.11035 9.64784 5.13325 9.77159 5.27992C10.1978 5.79325 10.4316 6.4395 10.4316 7.10408C10.427 8.68533 9.14367 9.96866 7.56243 9.96866Z" fill="#292D32"/>
</svg>
