<svg width="11" height="11" viewBox="0 0 11 11" fill="none" xmlns="http://www.w3.org/2000/svg">
<path d="M4.1204 9.85413C3.35957 9.85413 2.59416 9.56538 2.01208 8.9833C0.852499 7.81914 0.852499 5.93082 2.01208 4.77124C2.14499 4.63832 2.36499 4.63832 2.49791 4.77124C2.63083 4.90415 2.63083 5.12415 2.49791 5.25707C1.60416 6.15082 1.60416 7.60373 2.49791 8.49747C3.39166 9.39122 4.84457 9.39122 5.73831 8.49747C6.16914 8.06664 6.40748 7.48914 6.40748 6.87498C6.40748 6.2654 6.16914 5.6879 5.73831 5.25249C5.6054 5.11957 5.6054 4.89957 5.73831 4.76665C5.87123 4.63374 6.09123 4.63374 6.22414 4.76665C6.78789 5.3304 7.09497 6.07748 7.09497 6.87498C7.09497 7.67248 6.78331 8.41956 6.22414 8.9833C5.64665 9.56538 4.88582 9.85413 4.1204 9.85413Z" fill="#292D32"/>
<path d="M8.7404 6.48995C8.65332 6.48995 8.56624 6.45787 8.49749 6.38912C8.36457 6.2562 8.36457 6.0362 8.49749 5.90329C9.43707 4.96371 9.43707 3.43746 8.49749 2.50247C7.55791 1.56289 6.03166 1.56289 5.09667 2.50247C4.64292 2.95622 4.39084 3.56121 4.39084 4.20288C4.39084 4.84454 4.64292 5.44954 5.09667 5.90329C5.22958 6.0362 5.22958 6.2562 5.09667 6.38912C4.96375 6.52204 4.74375 6.52204 4.61084 6.38912C4.02876 5.80704 3.70334 5.02787 3.70334 4.20288C3.70334 3.37788 4.02417 2.59872 4.61084 2.01664C5.81625 0.811225 7.77791 0.811225 8.9879 2.01664C10.1933 3.22205 10.1933 5.18829 8.9879 6.3937C8.91915 6.45787 8.82749 6.48995 8.7404 6.48995Z" fill="#292D32"/>
</svg>
