<svg width="11" height="11" viewBox="0 0 11 11" fill="none" xmlns="http://www.w3.org/2000/svg">
<path d="M3.74919 7.68613C3.74002 7.68613 3.72628 7.68613 3.71711 7.68613C3.27253 7.64488 2.85545 7.43864 2.54378 7.10864C1.81045 6.33864 1.81045 5.0874 2.54378 4.3174L3.54753 3.26323C3.90503 2.8874 4.38628 2.67657 4.89961 2.67657C5.41294 2.67657 5.89419 2.88281 6.25168 3.26323C6.98501 4.03323 6.98501 5.28447 6.25168 6.05447L5.7521 6.58155C5.61919 6.71904 5.40377 6.72364 5.26627 6.59531C5.12877 6.46239 5.12419 6.24696 5.25252 6.10946L5.7521 5.58239C6.23794 5.07364 6.23794 4.24406 5.7521 3.7399C5.29836 3.26323 4.50086 3.26323 4.04253 3.7399L3.03878 4.79406C2.55295 5.3028 2.55295 6.13239 3.03878 6.63656C3.23587 6.84739 3.5017 6.97572 3.78128 7.00322C3.96919 7.02155 4.10669 7.19114 4.08836 7.37905C4.07461 7.55322 3.92336 7.68613 3.74919 7.68613Z" fill="#292D32"/>
<path d="M6.10044 8.32329C5.58711 8.32329 5.10587 8.11704 4.74837 7.73663C4.01504 6.96663 4.01504 5.71539 4.74837 4.94539L5.24795 4.41831C5.38086 4.28081 5.59628 4.27621 5.73378 4.40455C5.87128 4.53746 5.87586 4.75289 5.74753 4.89039L5.24795 5.41747C4.76212 5.92622 4.76212 6.75579 5.24795 7.25996C5.70169 7.73662 6.49919 7.74121 6.95752 7.25996L7.96127 6.2058C8.4471 5.69705 8.4471 4.86746 7.96127 4.3633C7.76419 4.15247 7.49836 4.02414 7.21877 3.99664C7.03086 3.97831 6.89336 3.80872 6.91169 3.6208C6.93003 3.43289 7.09502 3.29081 7.28752 3.31373C7.7321 3.35956 8.14919 3.56122 8.46085 3.89122C9.19418 4.66122 9.19418 5.91246 8.46085 6.68246L7.45711 7.73663C7.09503 8.11704 6.61377 8.32329 6.10044 8.32329Z" fill="#292D32"/>
<path d="M6.87495 10.427H4.12496C1.63622 10.427 0.57289 9.36369 0.57289 6.87495V4.12496C0.57289 1.63622 1.63622 0.57289 4.12496 0.57289H6.87495C9.36369 0.57289 10.427 1.63622 10.427 4.12496V6.87495C10.427 9.36369 9.36369 10.427 6.87495 10.427ZM4.12496 1.26039C2.01205 1.26039 1.26039 2.01205 1.26039 4.12496V6.87495C1.26039 8.98786 2.01205 9.73952 4.12496 9.73952H6.87495C8.98786 9.73952 9.73952 8.98786 9.73952 6.87495V4.12496C9.73952 2.01205 8.98786 1.26039 6.87495 1.26039H4.12496Z" fill="#292D32"/>
</svg>
