<svg width="11" height="11" viewBox="0 0 11 11" fill="none" xmlns="http://www.w3.org/2000/svg">
<path d="M3.63906 6.99416C3.59781 6.99416 3.56114 6.98957 3.51989 6.97124C3.14864 6.83374 2.83697 6.56332 2.63989 6.2104C2.18156 5.38541 2.46573 4.30833 3.26781 3.80875L4.3403 3.14416C4.73447 2.90125 5.19738 2.82793 5.63738 2.94251C6.07738 3.05709 6.44863 3.34583 6.67321 3.74917C7.13154 4.57416 6.84738 5.65125 6.0453 6.15083L5.92613 6.2379C5.77029 6.3479 5.55488 6.31124 5.44488 6.15999C5.33489 6.00416 5.37155 5.78875 5.5228 5.67875L5.66488 5.57792C6.17821 5.25709 6.35238 4.5925 6.0728 4.08375C5.93988 3.84542 5.72446 3.67583 5.4678 3.60708C5.21113 3.53833 4.94072 3.58417 4.70697 3.72625L3.63447 4.39083C3.13947 4.69791 2.96531 5.3625 3.24489 5.87583C3.35948 6.08208 3.54281 6.24249 3.76281 6.32499C3.94156 6.38915 4.03322 6.58625 3.96447 6.76499C3.91405 6.90708 3.78114 6.99416 3.63906 6.99416Z" fill="#292D32"/>
<path d="M5.80253 8.08947C5.66503 8.08947 5.52295 8.07114 5.38545 8.03447C4.94545 7.91989 4.5742 7.63113 4.3542 7.2278C3.89587 6.40281 4.18003 5.32573 4.98211 4.82615L5.10128 4.73907C5.25712 4.62907 5.47253 4.66574 5.58253 4.81699C5.69252 4.97282 5.65586 5.18823 5.50461 5.29823L5.36253 5.39906C4.8492 5.7199 4.67503 6.38448 4.95461 6.89323C5.08753 7.13156 5.30295 7.30113 5.55961 7.36988C5.81628 7.43863 6.08669 7.39281 6.32044 7.25073L7.39294 6.58614C7.88794 6.27906 8.0621 5.61448 7.78252 5.10115C7.66793 4.8949 7.48461 4.73448 7.26461 4.65198C7.08586 4.58781 6.99419 4.39074 7.06294 4.21199C7.12711 4.03324 7.32419 3.94157 7.50294 4.01032C7.87418 4.14782 8.18585 4.41824 8.38293 4.77115C8.84126 5.59615 8.5571 6.67322 7.75502 7.1728L6.68252 7.83739C6.41211 8.00239 6.10961 8.08947 5.80253 8.08947Z" fill="#292D32"/>
<path d="M5.50002 10.427C2.78211 10.427 0.572955 8.21786 0.572955 5.49995C0.572955 2.78205 2.78211 0.57289 5.50002 0.57289C8.21792 0.57289 10.4271 2.78205 10.4271 5.49995C10.4271 8.21786 8.21792 10.427 5.50002 10.427ZM5.50002 1.26039C3.16253 1.26039 1.26045 3.16246 1.26045 5.49995C1.26045 7.83744 3.16253 9.73952 5.50002 9.73952C7.83751 9.73952 9.73959 7.83744 9.73959 5.49995C9.73959 3.16246 7.83751 1.26039 5.50002 1.26039Z" fill="#292D32"/>
</svg>
