<svg width="11" height="11" viewBox="0 0 11 11" fill="none" xmlns="http://www.w3.org/2000/svg">
<path d="M6.87495 10.427H4.12496C1.63622 10.427 0.57289 9.36369 0.57289 6.87495V4.12496C0.57289 1.63622 1.63622 0.57289 4.12496 0.57289H6.87495C9.36369 0.57289 10.427 1.63622 10.427 4.12496V6.87495C10.427 9.36369 9.36369 10.427 6.87495 10.427ZM4.12496 1.26039C2.01205 1.26039 1.26039 2.01205 1.26039 4.12496V6.87495C1.26039 8.98786 2.01205 9.73952 4.12496 9.73952H6.87495C8.98786 9.73952 9.73952 8.98786 9.73952 6.87495V4.12496C9.73952 2.01205 8.98786 1.26039 6.87495 1.26039H4.12496Z" fill="#292D32"/>
<path d="M2.74998 8.59377C2.66289 8.59377 2.57581 8.56168 2.50706 8.49293C2.37414 8.36002 2.37414 8.14002 2.50706 8.0071L8.00704 2.50713C8.13995 2.37421 8.35995 2.37421 8.49287 2.50713C8.62579 2.64004 8.62579 2.86004 8.49287 2.99296L2.99289 8.49293C2.92414 8.56168 2.83706 8.59377 2.74998 8.59377Z" fill="#292D32"/>
<path d="M8.24996 4.92709C8.06205 4.92709 7.90622 4.77126 7.90622 4.58334V3.09376H6.41664C6.22872 3.09376 6.07289 2.93793 6.07289 2.75001C6.07289 2.5621 6.22872 2.40627 6.41664 2.40627H8.24996C8.43788 2.40627 8.59371 2.5621 8.59371 2.75001V4.58334C8.59371 4.77126 8.43788 4.92709 8.24996 4.92709Z" fill="#292D32"/>
<path d="M4.58334 8.59371H2.75001C2.5621 8.59371 2.40627 8.43788 2.40627 8.24996V6.41664C2.40627 6.22872 2.5621 6.07289 2.75001 6.07289C2.93793 6.07289 3.09376 6.22872 3.09376 6.41664V7.90622H4.58334C4.77126 7.90622 4.92709 8.06205 4.92709 8.24996C4.92709 8.43788 4.77126 8.59371 4.58334 8.59371Z" fill="#292D32"/>
<path d="M8.24995 8.59377C8.16287 8.59377 8.07579 8.56168 8.00704 8.49293L2.50706 2.99296C2.37414 2.86004 2.37414 2.64004 2.50706 2.50713C2.63998 2.37421 2.85998 2.37421 2.99289 2.50713L8.49287 8.0071C8.62579 8.14002 8.62579 8.36002 8.49287 8.49293C8.42412 8.56168 8.33704 8.59377 8.24995 8.59377Z" fill="#292D32"/>
<path d="M2.75001 4.92709C2.5621 4.92709 2.40627 4.77126 2.40627 4.58334V2.75001C2.40627 2.5621 2.5621 2.40627 2.75001 2.40627H4.58334C4.77126 2.40627 4.92709 2.5621 4.92709 2.75001C4.92709 2.93793 4.77126 3.09376 4.58334 3.09376H3.09376V4.58334C3.09376 4.77126 2.93793 4.92709 2.75001 4.92709Z" fill="#292D32"/>
<path d="M8.24996 8.59371H6.41664C6.22872 8.59371 6.07289 8.43788 6.07289 8.24996C6.07289 8.06205 6.22872 7.90622 6.41664 7.90622H7.90622V6.41664C7.90622 6.22872 8.06205 6.07289 8.24996 6.07289C8.43788 6.07289 8.59371 6.22872 8.59371 6.41664V8.24996C8.59371 8.43788 8.43788 8.59371 8.24996 8.59371Z" fill="#292D32"/>
</svg>
