<svg width="11" height="11" viewBox="0 0 11 11" fill="none" xmlns="http://www.w3.org/2000/svg">
<path d="M5.02789 10.4271C3.3229 10.4271 1.93415 9.03838 1.93415 7.33339V4.5834C1.93415 2.62632 3.52915 1.03133 5.48622 1.03133C7.4433 1.03133 9.03829 2.62632 9.03829 4.5834V7.10422C9.03829 8.17672 8.16288 9.05213 7.09038 9.05213C6.01789 9.05213 5.14247 8.17672 5.14247 7.10422V5.50006C5.14247 5.31215 5.29831 5.15631 5.48622 5.15631C5.67414 5.15631 5.82997 5.31215 5.82997 5.50006V7.10422C5.82997 7.80089 6.39372 8.36463 7.09038 8.36463C7.78705 8.36463 8.35079 7.80089 8.35079 7.10422V4.5834C8.35079 3.00216 7.06747 1.71883 5.48622 1.71883C3.90498 1.71883 2.62165 3.00216 2.62165 4.5834V7.33339C2.62165 8.65797 3.69873 9.73963 5.02789 9.73963C5.21581 9.73963 5.37164 9.89546 5.37164 10.0834C5.37164 10.2713 5.22039 10.4271 5.02789 10.4271Z" fill="#292D32"/>
</svg>
