<svg width="11" height="11" viewBox="0 0 11 11" fill="none" xmlns="http://www.w3.org/2000/svg">
<path d="M5.65121 9.78084C5.15163 9.78084 4.65205 9.59292 4.27163 9.21251C3.5108 8.45168 3.5108 7.21877 4.27163 6.45794L5.4083 5.32586C5.54121 5.19294 5.76121 5.19294 5.89413 5.32586C6.02704 5.45877 6.02704 5.67877 5.89413 5.81169L4.75747 6.94377C4.26705 7.43418 4.26705 8.23626 4.75747 8.72668C5.24788 9.21709 6.04996 9.21709 6.54038 8.72668L8.32329 6.94377C8.86412 6.40294 9.16203 5.68336 9.16203 4.91794C9.16203 4.15253 8.86412 3.43295 8.32329 2.89212C7.20496 1.77379 5.38996 1.77379 4.27163 2.89212L2.32831 4.83544C1.87456 5.28919 1.62248 5.89419 1.62248 6.53585C1.62248 7.17752 1.87456 7.78251 2.32831 8.23626C2.46123 8.36918 2.46123 8.58918 2.32831 8.72209C2.19539 8.85501 1.97539 8.85501 1.84248 8.72209C1.2604 8.13543 0.934982 7.36085 0.934982 6.53585C0.934982 5.71086 1.25581 4.93169 1.84248 4.34961L3.7858 2.40629C5.16996 1.02212 7.42496 1.02212 8.80912 2.40629C9.47828 3.07545 9.84953 3.9692 9.84953 4.91794C9.84953 5.86669 9.47828 6.76043 8.80912 7.4296L7.02621 9.21251C6.64579 9.59292 6.15079 9.78084 5.65121 9.78084Z" fill="#292D32"/>
</svg>
