<svg width="11" height="11" viewBox="0 0 11 11" fill="none" xmlns="http://www.w3.org/2000/svg">
<path d="M9.62492 10.427H1.37495C1.18703 10.427 1.0312 10.2712 1.0312 10.0833C1.0312 9.89535 1.18703 9.73951 1.37495 9.73951H9.62492C9.81283 9.73951 9.96867 9.89535 9.96867 10.0833C9.96867 10.2712 9.81283 10.427 9.62492 10.427Z" fill="#292D32"/>
<path d="M9.62492 1.26039H1.37495C1.18703 1.26039 1.0312 1.10455 1.0312 0.916638C1.0312 0.728722 1.18703 0.57289 1.37495 0.57289H9.62492C9.81283 0.57289 9.96867 0.728722 9.96867 0.916638C9.96867 1.10455 9.81283 1.26039 9.62492 1.26039Z" fill="#292D32"/>
<path d="M5.49995 8.59374C5.31203 8.59374 5.1562 8.43791 5.1562 8.24999V2.75001C5.1562 2.5621 5.31203 2.40627 5.49995 2.40627C5.68787 2.40627 5.8437 2.5621 5.8437 2.75001V8.24999C5.8437 8.43791 5.68787 8.59374 5.49995 8.59374Z" fill="#292D32"/>
<path d="M6.79699 3.88212C6.70991 3.88212 6.62283 3.85003 6.55408 3.78128L5.49991 2.72712L4.44575 3.78128C4.31284 3.9142 4.09284 3.9142 3.95992 3.78128C3.827 3.64837 3.827 3.42837 3.95992 3.29545L5.257 1.99837C5.38533 1.87004 5.6145 1.87004 5.74283 1.99837L7.03991 3.29545C7.17282 3.42837 7.17282 3.64837 7.03991 3.78128C6.97116 3.85003 6.88408 3.88212 6.79699 3.88212Z" fill="#292D32"/>
<path d="M5.49991 8.92373C5.40825 8.92373 5.32117 8.88706 5.257 8.82289L3.95992 7.52582C3.827 7.3929 3.827 7.1729 3.95992 7.03998C4.09284 6.90707 4.31284 6.90707 4.44575 7.03998L5.49991 8.09415L6.55408 7.03998C6.68699 6.90707 6.90699 6.90707 7.03991 7.03998C7.17282 7.1729 7.17282 7.3929 7.03991 7.52582L5.74283 8.82289C5.67866 8.88706 5.59158 8.92373 5.49991 8.92373Z" fill="#292D32"/>
</svg>
