<svg width="11" height="11" viewBox="0 0 11 11" fill="none" xmlns="http://www.w3.org/2000/svg">
<path d="M6.87501 10.427H4.12502C1.63628 10.427 0.572955 9.36369 0.572955 6.87495V4.12496C0.572955 1.63622 1.63628 0.57289 4.12502 0.57289H6.87501C9.36375 0.57289 10.4271 1.63622 10.4271 4.12496V6.87495C10.4271 9.36369 9.36375 10.427 6.87501 10.427ZM4.12502 1.26039C2.01212 1.26039 1.26045 2.01205 1.26045 4.12496V6.87495C1.26045 8.98786 2.01212 9.73952 4.12502 9.73952H6.87501C8.98792 9.73952 9.73959 8.98786 9.73959 6.87495V4.12496C9.73959 2.01205 8.98792 1.26039 6.87501 1.26039H4.12502Z" fill="#292D32"/>
<path d="M7.79157 5.77035H6.56324C6.06366 5.77035 5.67408 5.38077 5.67408 4.88119V4.19825C5.67408 3.69867 6.06366 3.30909 6.56324 3.30909H7.24616C7.73657 3.30909 8.13532 3.70784 8.13532 4.19825V5.42202C8.13532 5.61452 7.97949 5.77035 7.79157 5.77035ZM6.56324 3.99659C6.41658 3.99659 6.36158 4.10659 6.36158 4.19825V4.88119C6.36158 4.97286 6.41199 5.08286 6.56324 5.08286H7.44782V4.20284C7.44782 4.09284 7.35616 4.00117 7.24616 4.00117H6.56324V3.99659Z" fill="#292D32"/>
<path d="M6.83375 7.69074C6.71458 7.69074 6.6 7.63113 6.53583 7.52113C6.43958 7.35613 6.49458 7.14531 6.655 7.04906C7.27833 6.67782 7.44791 6.58158 7.44791 5.42658C7.44791 5.23866 7.60374 5.08283 7.79166 5.08283C7.97958 5.08283 8.13541 5.23866 8.13541 5.42658C8.13541 6.83824 7.82833 7.15447 7.00791 7.6403C6.95291 7.67238 6.89333 7.69074 6.83375 7.69074Z" fill="#292D32"/>
<path d="M4.97758 5.77035H3.74925C3.24967 5.77035 2.86009 5.38077 2.86009 4.88119V4.19825C2.86009 3.69867 3.24967 3.30909 3.74925 3.30909H4.43216C4.92258 3.30909 5.32133 3.70784 5.32133 4.19825V5.42202C5.32133 5.61452 5.17008 5.77035 4.97758 5.77035ZM3.75383 3.99659C3.60716 3.99659 3.55217 4.10659 3.55217 4.19825V4.88119C3.55217 4.97286 3.60258 5.08286 3.75383 5.08286H4.63841V4.20284C4.63841 4.09284 4.54675 4.00117 4.43675 4.00117H3.75383V3.99659Z" fill="#292D32"/>
<path d="M4.01949 7.69074C3.90033 7.69074 3.78574 7.63113 3.72158 7.52113C3.62533 7.35613 3.68033 7.14531 3.84074 7.04906C4.46407 6.67782 4.63366 6.58158 4.63366 5.42658C4.63366 5.23866 4.78949 5.08283 4.97741 5.08283C5.16532 5.08283 5.32115 5.23866 5.32115 5.42658C5.32115 6.83824 5.01407 7.15447 4.19366 7.6403C4.13866 7.67238 4.07908 7.69074 4.01949 7.69074Z" fill="#292D32"/>
</svg>
