<svg width="11" height="11" viewBox="0 0 11 11" fill="none" xmlns="http://www.w3.org/2000/svg">
<path d="M10.0834 5.68321H7.42505C6.55422 5.68321 5.89881 5.02779 5.89881 4.15696V2.68112C5.89881 1.81029 6.55422 1.15489 7.42505 1.15489H8.90088C9.73963 1.15489 10.4271 1.83779 10.4271 2.68112V5.33946C10.4271 5.53196 10.2713 5.68321 10.0834 5.68321ZM7.42505 1.84698C6.93922 1.84698 6.58631 2.19987 6.58631 2.6857V4.16155C6.58631 4.64738 6.93922 5.00027 7.42505 5.00027H9.73963V2.6857C9.73963 2.22279 9.3638 1.84698 8.90088 1.84698H7.42505Z" fill="#292D32"/>
<path d="M8.00706 9.84027C7.8879 9.84027 7.77331 9.78069 7.70915 9.67069C7.6129 9.50569 7.6679 9.29487 7.82831 9.19862C9.30873 8.31862 9.73956 7.95197 9.73956 5.33948C9.73956 5.15156 9.89539 4.99573 10.0833 4.99573C10.2712 4.99573 10.4271 5.15156 10.4271 5.33948C10.4271 8.20405 9.84497 8.80444 8.18123 9.78986C8.12623 9.82652 8.06665 9.84027 8.00706 9.84027Z" fill="#292D32"/>
<path d="M4.75303 5.68321H2.09471C1.22388 5.68321 0.568463 5.02779 0.568463 4.15696V2.68112C0.568463 1.81029 1.22388 1.15489 2.09471 1.15489H3.57512C4.41386 1.15489 5.10136 1.83779 5.10136 2.68112V5.33946C5.09678 5.53196 4.94553 5.68321 4.75303 5.68321ZM2.09929 1.84698C1.61346 1.84698 1.26054 2.19987 1.26054 2.6857V4.16155C1.26054 4.64738 1.61346 5.00027 2.09929 5.00027H4.41386V2.6857C4.41386 2.22279 4.03803 1.84698 3.57512 1.84698H2.09929Z" fill="#292D32"/>
<path d="M2.67672 9.84027C2.55755 9.84027 2.44297 9.78069 2.3788 9.67069C2.28255 9.50569 2.33755 9.29487 2.49797 9.19862C3.97838 8.31862 4.40921 7.95197 4.40921 5.33948C4.40921 5.15156 4.56504 4.99573 4.75296 4.99573C4.94088 4.99573 5.09671 5.15156 5.09671 5.33948C5.09671 8.20405 4.51463 8.80444 2.85088 9.78986C2.79588 9.82652 2.7363 9.84027 2.67672 9.84027Z" fill="#292D32"/>
</svg>
