<svg width="11" height="11" viewBox="0 0 11 11" fill="none" xmlns="http://www.w3.org/2000/svg">
<path d="M6.87501 10.427H4.12502C1.63628 10.427 0.572955 9.36369 0.572955 6.87495V4.12496C0.572955 1.63622 1.63628 0.57289 4.12502 0.57289H6.87501C9.36375 0.57289 10.4271 1.63622 10.4271 4.12496V6.87495C10.4271 9.36369 9.36375 10.427 6.87501 10.427ZM4.12502 1.26039C2.01212 1.26039 1.26045 2.01205 1.26045 4.12496V6.87495C1.26045 8.98786 2.01212 9.73952 4.12502 9.73952H6.87501C8.98792 9.73952 9.73959 8.98786 9.73959 6.87495V4.12496C9.73959 2.01205 8.98792 1.26039 6.87501 1.26039H4.12502Z" fill="#292D32"/>
<path d="M4.43666 7.69068H3.75374C3.26333 7.69068 2.86458 7.29193 2.86458 6.80151V5.57775C2.86458 5.38983 3.02041 5.234 3.20833 5.234H4.43666C4.93624 5.234 5.32582 5.62358 5.32582 6.12316V6.80607C5.32124 7.29649 4.93165 7.69068 4.43666 7.69068ZM3.55208 5.91691V6.79692C3.55208 6.90692 3.64374 6.99859 3.75374 6.99859H4.43666C4.58332 6.99859 4.63832 6.88859 4.63832 6.79692V6.11401C4.63832 6.02235 4.5879 5.91235 4.43666 5.91235H3.55208V5.91691Z" fill="#292D32"/>
<path d="M3.20833 5.91695C3.02041 5.91695 2.86458 5.76112 2.86458 5.5732C2.86458 4.16154 3.17166 3.84531 3.99207 3.35948C4.15249 3.26323 4.3679 3.31824 4.46415 3.47865C4.5604 3.63907 4.50541 3.85447 4.34499 3.95072C3.72166 4.32197 3.55208 4.41821 3.55208 5.5732C3.55208 5.7657 3.39624 5.91695 3.20833 5.91695Z" fill="#292D32"/>
<path d="M7.24616 7.69068H6.56324C6.07283 7.69068 5.67408 7.29193 5.67408 6.80151V5.57775C5.67408 5.38983 5.82991 5.234 6.01783 5.234H7.24616C7.74574 5.234 8.13532 5.62358 8.13532 6.12316V6.80607C8.13532 7.29649 7.74574 7.69068 7.24616 7.69068ZM6.36616 5.91691V6.79692C6.36616 6.90692 6.45783 6.99859 6.56783 6.99859H7.25074C7.39741 6.99859 7.45241 6.88859 7.45241 6.79692V6.11401C7.45241 6.02235 7.40199 5.91235 7.25074 5.91235H6.36616V5.91691Z" fill="#292D32"/>
<path d="M6.02258 5.91695C5.83467 5.91695 5.67883 5.76112 5.67883 5.5732C5.67883 4.16154 5.98591 3.84531 6.80633 3.35948C6.97133 3.26323 7.18216 3.31824 7.27841 3.47865C7.37466 3.63907 7.31966 3.85447 7.15924 3.95072C6.53591 4.32197 6.36633 4.41821 6.36633 5.5732C6.36633 5.7657 6.2105 5.91695 6.02258 5.91695Z" fill="#292D32"/>
</svg>
