<svg width="11" height="11" viewBox="0 0 11 11" fill="none" xmlns="http://www.w3.org/2000/svg">
<path d="M7.79163 5.77035H6.56331C6.06373 5.77035 5.67415 5.38077 5.67415 4.88119V4.19825C5.67415 3.69867 6.06373 3.30909 6.56331 3.30909H7.24622C7.73663 3.30909 8.13538 3.70784 8.13538 4.19825V5.42202C8.13538 5.61452 7.97955 5.77035 7.79163 5.77035ZM6.56331 3.99659C6.41664 3.99659 6.36164 4.10659 6.36164 4.19825V4.88119C6.36164 4.97286 6.41206 5.08286 6.56331 5.08286H7.44789V4.20284C7.44789 4.09284 7.35622 4.00117 7.24622 4.00117H6.56331V3.99659Z" fill="#292D32"/>
<path d="M6.83375 7.69074C6.71458 7.69074 6.6 7.63113 6.53583 7.52113C6.43958 7.35613 6.49459 7.14531 6.655 7.04906C7.27833 6.67782 7.44791 6.58158 7.44791 5.42658C7.44791 5.23866 7.60375 5.08283 7.79166 5.08283C7.97958 5.08283 8.13541 5.23866 8.13541 5.42658C8.13541 6.83824 7.82832 7.15447 7.00791 7.6403C6.95291 7.67238 6.89333 7.69074 6.83375 7.69074Z" fill="#292D32"/>
<path d="M4.97764 5.77035H3.74931C3.24973 5.77035 2.86015 5.38077 2.86015 4.88119V4.19825C2.86015 3.69867 3.24973 3.30909 3.74931 3.30909H4.43222C4.92264 3.30909 5.32139 3.70784 5.32139 4.19825V5.42202C5.32139 5.61452 5.17014 5.77035 4.97764 5.77035ZM3.7539 3.99659C3.60723 3.99659 3.55223 4.10659 3.55223 4.19825V4.88119C3.55223 4.97286 3.60265 5.08286 3.7539 5.08286H4.63847V4.20284C4.63847 4.09284 4.5468 4.00117 4.43681 4.00117H3.7539V3.99659Z" fill="#292D32"/>
<path d="M4.0195 7.69074C3.90033 7.69074 3.78574 7.63113 3.72158 7.52113C3.62533 7.35613 3.68033 7.14531 3.84075 7.04906C4.46408 6.67782 4.63366 6.58158 4.63366 5.42658C4.63366 5.23866 4.78949 5.08283 4.97741 5.08283C5.16532 5.08283 5.32116 5.23866 5.32116 5.42658C5.32116 6.83824 5.01407 7.15447 4.19366 7.6403C4.13866 7.67238 4.07908 7.69074 4.0195 7.69074Z" fill="#292D32"/>
<path d="M5.50002 10.427C2.78211 10.427 0.572955 8.21786 0.572955 5.49995C0.572955 2.78205 2.78211 0.57289 5.50002 0.57289C8.21792 0.57289 10.4271 2.78205 10.4271 5.49995C10.4271 8.21786 8.21792 10.427 5.50002 10.427ZM5.50002 1.26039C3.16253 1.26039 1.26045 3.16246 1.26045 5.49995C1.26045 7.83744 3.16253 9.73952 5.50002 9.73952C7.83751 9.73952 9.73959 7.83744 9.73959 5.49995C9.73959 3.16246 7.83751 1.26039 5.50002 1.26039Z" fill="#292D32"/>
</svg>
