<svg width="11" height="11" viewBox="0 0 11 11" fill="none" xmlns="http://www.w3.org/2000/svg">
<path d="M4.43672 7.69068H3.75381C3.26339 7.69068 2.86464 7.29193 2.86464 6.80151V5.57775C2.86464 5.38983 3.02048 5.234 3.20839 5.234H4.43672C4.9363 5.234 5.32588 5.62358 5.32588 6.12316V6.80607C5.3213 7.29649 4.93171 7.69068 4.43672 7.69068ZM3.55214 5.91691V6.79692C3.55214 6.90692 3.64381 6.99859 3.75381 6.99859H4.43672C4.58338 6.99859 4.63838 6.88859 4.63838 6.79692V6.11401C4.63838 6.02235 4.58797 5.91235 4.43672 5.91235H3.55214V5.91691Z" fill="#292D32"/>
<path d="M3.20839 5.91695C3.02048 5.91695 2.86464 5.76112 2.86464 5.5732C2.86464 4.16154 3.17173 3.84531 3.99214 3.35948C4.15256 3.26323 4.36797 3.31824 4.46422 3.47865C4.56047 3.63907 4.50547 3.85447 4.34505 3.95072C3.72172 4.32197 3.55214 4.41821 3.55214 5.5732C3.55214 5.7657 3.39631 5.91695 3.20839 5.91695Z" fill="#292D32"/>
<path d="M7.24622 7.69068H6.56331C6.07289 7.69068 5.67415 7.29193 5.67415 6.80151V5.57775C5.67415 5.38983 5.82998 5.234 6.01789 5.234H7.24622C7.7458 5.234 8.13538 5.62358 8.13538 6.12316V6.80607C8.13538 7.29649 7.7458 7.69068 7.24622 7.69068ZM6.36622 5.91691V6.79692C6.36622 6.90692 6.45789 6.99859 6.56789 6.99859H7.25081C7.39747 6.99859 7.45247 6.88859 7.45247 6.79692V6.11401C7.45247 6.02235 7.40206 5.91235 7.25081 5.91235H6.36622V5.91691Z" fill="#292D32"/>
<path d="M6.02258 5.91695C5.83467 5.91695 5.67883 5.76112 5.67883 5.5732C5.67883 4.16154 5.98592 3.84531 6.80633 3.35948C6.97133 3.26323 7.18216 3.31824 7.27841 3.47865C7.37466 3.64365 7.31966 3.85447 7.15924 3.95072C6.53591 4.32197 6.36633 4.41821 6.36633 5.5732C6.36633 5.7657 6.2105 5.91695 6.02258 5.91695Z" fill="#292D32"/>
<path d="M5.50002 10.427C2.78211 10.427 0.572955 8.21786 0.572955 5.49995C0.572955 2.78205 2.78211 0.57289 5.50002 0.57289C8.21792 0.57289 10.4271 2.78205 10.4271 5.49995C10.4271 8.21786 8.21792 10.427 5.50002 10.427ZM5.50002 1.26039C3.16253 1.26039 1.26045 3.16246 1.26045 5.49995C1.26045 7.83744 3.16253 9.73952 5.50002 9.73952C7.83751 9.73952 9.73959 7.83744 9.73959 5.49995C9.73959 3.16246 7.83751 1.26039 5.50002 1.26039Z" fill="#292D32"/>
</svg>
