<svg width="11" height="11" viewBox="0 0 11 11" fill="none" xmlns="http://www.w3.org/2000/svg">
<path d="M3.57502 9.84028H2.09921C1.26046 9.84028 0.572955 9.15738 0.572955 8.31405V5.65574C0.572955 5.46782 0.728787 5.31199 0.916703 5.31199H3.57502C4.44585 5.31199 5.10127 5.96738 5.10127 6.83821V8.31405C5.09669 9.18488 4.44127 9.84028 3.57502 9.84028ZM1.26045 6.00405V8.31864C1.26045 8.78156 1.63629 9.15737 2.09921 9.15737H3.57502C4.06085 9.15737 4.41377 8.80447 4.41377 8.31864V6.8428C4.41377 6.35697 4.06085 6.00405 3.57502 6.00405H1.26045Z" fill="#292D32"/>
<path d="M0.916703 6.00411C0.728787 6.00411 0.572955 5.84827 0.572955 5.66036C0.572955 2.79579 1.15505 2.19539 2.81879 1.20998C2.98379 1.11373 3.19461 1.16873 3.29086 1.32915C3.38711 1.49415 3.3321 1.70496 3.17169 1.80121C1.68669 2.68121 1.26045 3.04787 1.26045 5.66036C1.26045 5.84827 1.10462 6.00411 0.916703 6.00411Z" fill="#292D32"/>
<path d="M8.90088 9.84028H7.42506C6.58631 9.84028 5.89881 9.15738 5.89881 8.31405V5.65574C5.89881 5.46782 6.05464 5.31199 6.24256 5.31199H8.90088C9.7717 5.31199 10.4271 5.96738 10.4271 6.83821V8.31405C10.4271 9.18488 9.7717 9.84028 8.90088 9.84028ZM6.59089 6.00405V8.31864C6.59089 8.78156 6.96673 9.15737 7.42965 9.15737H8.90546C9.39129 9.15737 9.74422 8.80447 9.74422 8.31864V6.8428C9.74422 6.35697 9.39129 6.00405 8.90546 6.00405H6.59089Z" fill="#292D32"/>
<path d="M6.24705 6.00411C6.05913 6.00411 5.9033 5.84827 5.9033 5.66036C5.9033 2.79579 6.48539 2.19539 8.14914 1.20998C8.31414 1.11373 8.52495 1.16873 8.6212 1.32915C8.71745 1.49415 8.66245 1.70496 8.50203 1.80121C7.01704 2.68121 6.5908 3.04787 6.5908 5.66036C6.5908 5.84827 6.43497 6.00411 6.24705 6.00411Z" fill="#292D32"/>
</svg>
