<svg width="11" height="11" viewBox="0 0 11 11" fill="none" xmlns="http://www.w3.org/2000/svg">
<path d="M8.52955 3.0617C8.34163 3.0617 8.1858 2.90586 8.1858 2.71795V2.02587C8.1858 1.75087 7.96122 1.5217 7.68164 1.5217H1.75541C1.48041 1.5217 1.25125 1.74628 1.25125 2.02587V2.71795C1.25125 2.90586 1.09541 3.0617 0.907498 3.0617C0.719582 3.0617 0.568332 2.90586 0.568332 2.71795V2.02587C0.568332 1.37045 1.10458 0.834205 1.75999 0.834205H7.68164C8.33705 0.834205 8.8733 1.36587 8.8733 2.02587V2.71795C8.8733 2.90586 8.71747 3.0617 8.52955 3.0617Z" fill="#292D32"/>
<path d="M4.72082 8.63958C4.5329 8.63958 4.37707 8.48374 4.37707 8.29583V1.52169C4.37707 1.33377 4.5329 1.17794 4.72082 1.17794C4.90874 1.17794 5.06457 1.33377 5.06457 1.52169V8.29583C5.06457 8.48833 4.90874 8.63958 4.72082 8.63958Z" fill="#292D32"/>
<path d="M5.71998 8.63959H3.1625C2.97458 8.63959 2.81875 8.48376 2.81875 8.29585C2.81875 8.10793 2.97458 7.9521 3.1625 7.9521H5.71998C5.9079 7.9521 6.06373 8.10793 6.06373 8.29585C6.06373 8.48376 5.9079 8.63959 5.71998 8.63959Z" fill="#292D32"/>
<path d="M10.0879 6.04997C9.89995 6.04997 9.74412 5.89413 9.74412 5.70622V5.33955C9.74412 5.19747 9.62495 5.0783 9.48287 5.0783H6.26997C6.08205 5.0783 5.92622 4.92247 5.92622 4.73456C5.92622 4.54664 6.08205 4.39081 6.26997 4.39081H9.48287C10.0054 4.39081 10.4316 4.81706 10.4316 5.33955V5.70622C10.4316 5.89872 10.2804 6.04997 10.0879 6.04997Z" fill="#292D32"/>
<path d="M7.36998 10.1658C7.18206 10.1658 7.02623 10.01 7.02623 9.82205V4.98207C7.02623 4.79415 7.18206 4.63832 7.36998 4.63832C7.55789 4.63832 7.71373 4.79415 7.71373 4.98207V9.82205C7.71373 10.01 7.55789 10.1658 7.36998 10.1658Z" fill="#292D32"/>
<path d="M8.35082 10.1658H6.38917C6.20125 10.1658 6.04542 10.01 6.04542 9.82208C6.04542 9.63416 6.20125 9.47833 6.38917 9.47833H8.35082C8.53874 9.47833 8.69457 9.63416 8.69457 9.82208C8.69457 10.01 8.53874 10.1658 8.35082 10.1658Z" fill="#292D32"/>
</svg>
