<svg width="11" height="11" viewBox="0 0 11 11" fill="none" xmlns="http://www.w3.org/2000/svg">
<path d="M9.62498 2.4063H1.37501C1.1871 2.4063 1.03127 2.25046 1.03127 2.06255C1.03127 1.87463 1.1871 1.7188 1.37501 1.7188H9.62498C9.8129 1.7188 9.96873 1.87463 9.96873 2.06255C9.96873 2.25046 9.8129 2.4063 9.62498 2.4063Z" fill="#292D32"/>
<path d="M5.71541 4.69798H1.37501C1.1871 4.69798 1.03127 4.54215 1.03127 4.35424C1.03127 4.16632 1.1871 4.01049 1.37501 4.01049H5.71541C5.90333 4.01049 6.05916 4.16632 6.05916 4.35424C6.05916 4.54215 5.90791 4.69798 5.71541 4.69798Z" fill="#292D32"/>
<path d="M9.62498 6.98954H1.37501C1.1871 6.98954 1.03127 6.83371 1.03127 6.64579C1.03127 6.45788 1.1871 6.30205 1.37501 6.30205H9.62498C9.8129 6.30205 9.96873 6.45788 9.96873 6.64579C9.96873 6.83371 9.8129 6.98954 9.62498 6.98954Z" fill="#292D32"/>
<path d="M5.71541 9.28123H1.37501C1.1871 9.28123 1.03127 9.1254 1.03127 8.93748C1.03127 8.74957 1.1871 8.59373 1.37501 8.59373H5.71541C5.90333 8.59373 6.05916 8.74957 6.05916 8.93748C6.05916 9.1254 5.90791 9.28123 5.71541 9.28123Z" fill="#292D32"/>
</svg>
