<svg width="11" height="11" viewBox="0 0 11 11" fill="none" xmlns="http://www.w3.org/2000/svg">
<path d="M5.5 2.4063H1.37501C1.1871 2.4063 1.03127 2.25046 1.03127 2.06255C1.03127 1.87463 1.1871 1.7188 1.37501 1.7188H5.5C5.68791 1.7188 5.84375 1.87463 5.84375 2.06255C5.84375 2.25046 5.68791 2.4063 5.5 2.4063Z" fill="#292D32"/>
<path d="M5.5 4.69798H1.37501C1.1871 4.69798 1.03127 4.54215 1.03127 4.35424C1.03127 4.16632 1.1871 4.01049 1.37501 4.01049H5.5C5.68791 4.01049 5.84375 4.16632 5.84375 4.35424C5.84375 4.54215 5.68791 4.69798 5.5 4.69798Z" fill="#292D32"/>
<path d="M9.62498 6.98954H1.37501C1.1871 6.98954 1.03127 6.83371 1.03127 6.64579C1.03127 6.45788 1.1871 6.30205 1.37501 6.30205H9.62498C9.8129 6.30205 9.96873 6.45788 9.96873 6.64579C9.96873 6.83371 9.8129 6.98954 9.62498 6.98954Z" fill="#292D32"/>
<path d="M9.62498 9.28123H1.37501C1.1871 9.28123 1.03127 9.1254 1.03127 8.93748C1.03127 8.74957 1.1871 8.59373 1.37501 8.59373H9.62498C9.8129 8.59373 9.96873 8.74957 9.96873 8.93748C9.96873 9.1254 9.8129 9.28123 9.62498 9.28123Z" fill="#292D32"/>
</svg>
