<svg width="11" height="11" viewBox="0 0 11 11" fill="none" xmlns="http://www.w3.org/2000/svg">
<path d="M8.70828 9.9687H2.29164C2.10372 9.9687 1.94789 9.81287 1.94789 9.62495C1.94789 9.43703 2.10372 9.2812 2.29164 9.2812H8.70828C8.89619 9.2812 9.05203 9.43703 9.05203 9.62495C9.05203 9.81287 8.89619 9.9687 8.70828 9.9687Z" fill="#292D32"/>
<path d="M5.49996 8.13534C3.54288 8.13534 1.94789 6.54035 1.94789 4.58327V1.37495C1.94789 1.18703 2.10372 1.0312 2.29164 1.0312C2.47955 1.0312 2.63539 1.18703 2.63539 1.37495V4.58327C2.63539 6.16451 3.91872 7.44784 5.49996 7.44784C7.0812 7.44784 8.36453 6.16451 8.36453 4.58327V1.37495C8.36453 1.18703 8.52036 1.0312 8.70828 1.0312C8.89619 1.0312 9.05203 1.18703 9.05203 1.37495V4.58327C9.05203 6.54035 7.45703 8.13534 5.49996 8.13534Z" fill="#292D32"/>
</svg>
