<svg width="11" height="11" viewBox="0 0 11 11" fill="none" xmlns="http://www.w3.org/2000/svg">
<path d="M9.62498 2.4063H1.37501C1.1871 2.4063 1.03127 2.25046 1.03127 2.06255C1.03127 1.87463 1.1871 1.7188 1.37501 1.7188H9.62498C9.8129 1.7188 9.96873 1.87463 9.96873 2.06255C9.96873 2.25046 9.8129 2.4063 9.62498 2.4063Z" fill="#292D32"/>
<path d="M7.67244 4.69798H3.32746C3.13955 4.69798 2.98371 4.54215 2.98371 4.35424C2.98371 4.16632 3.13955 4.01049 3.32746 4.01049H7.66786C7.85578 4.01049 8.01161 4.16632 8.01161 4.35424C8.01161 4.54215 7.86036 4.69798 7.67244 4.69798Z" fill="#292D32"/>
<path d="M9.62498 6.98954H1.37501C1.1871 6.98954 1.03127 6.83371 1.03127 6.64579C1.03127 6.45788 1.1871 6.30205 1.37501 6.30205H9.62498C9.8129 6.30205 9.96873 6.45788 9.96873 6.64579C9.96873 6.83371 9.8129 6.98954 9.62498 6.98954Z" fill="#292D32"/>
<path d="M7.67244 9.28123H3.32746C3.13955 9.28123 2.98371 9.1254 2.98371 8.93748C2.98371 8.74957 3.13955 8.59373 3.32746 8.59373H7.66786C7.85578 8.59373 8.01161 8.74957 8.01161 8.93748C8.01161 9.1254 7.86036 9.28123 7.67244 9.28123Z" fill="#292D32"/>
</svg>
