<svg width="11" height="11" viewBox="0 0 11 11" fill="none" xmlns="http://www.w3.org/2000/svg">
<path d="M9.62493 2.4063H5.49995C5.31203 2.4063 5.1562 2.25046 5.1562 2.06255C5.1562 1.87463 5.31203 1.7188 5.49995 1.7188H9.62493C9.81285 1.7188 9.96868 1.87463 9.96868 2.06255C9.96868 2.25046 9.81285 2.4063 9.62493 2.4063Z" fill="#292D32"/>
<path d="M9.62493 4.69798H5.49995C5.31203 4.69798 5.1562 4.54215 5.1562 4.35424C5.1562 4.16632 5.31203 4.01049 5.49995 4.01049H9.62493C9.81285 4.01049 9.96868 4.16632 9.96868 4.35424C9.96868 4.54215 9.81285 4.69798 9.62493 4.69798Z" fill="#292D32"/>
<path d="M9.62498 6.98954H1.37501C1.1871 6.98954 1.03127 6.83371 1.03127 6.64579C1.03127 6.45788 1.1871 6.30205 1.37501 6.30205H9.62498C9.8129 6.30205 9.96873 6.45788 9.96873 6.64579C9.96873 6.83371 9.8129 6.98954 9.62498 6.98954Z" fill="#292D32"/>
<path d="M9.62498 9.28123H1.37501C1.1871 9.28123 1.03127 9.1254 1.03127 8.93748C1.03127 8.74957 1.1871 8.59373 1.37501 8.59373H9.62498C9.8129 8.59373 9.96873 8.74957 9.96873 8.93748C9.96873 9.1254 9.8129 9.28123 9.62498 9.28123Z" fill="#292D32"/>
</svg>
