<svg width="11" height="11" viewBox="0 0 11 11" fill="none" xmlns="http://www.w3.org/2000/svg">
<path d="M9.62498 2.4063H1.37501C1.1871 2.4063 1.03127 2.25046 1.03127 2.06255C1.03127 1.87463 1.1871 1.7188 1.37501 1.7188H9.62498C9.8129 1.7188 9.96873 1.87463 9.96873 2.06255C9.96873 2.25046 9.8129 2.4063 9.62498 2.4063Z" fill="#292D32"/>
<path d="M9.62499 4.69798H5.2846C5.09668 4.69798 4.94085 4.54215 4.94085 4.35424C4.94085 4.16632 5.09668 4.01049 5.2846 4.01049H9.62499C9.81291 4.01049 9.96874 4.16632 9.96874 4.35424C9.96874 4.54215 9.81291 4.69798 9.62499 4.69798Z" fill="#292D32"/>
<path d="M9.62498 6.98954H1.37501C1.1871 6.98954 1.03127 6.83371 1.03127 6.64579C1.03127 6.45788 1.1871 6.30205 1.37501 6.30205H9.62498C9.8129 6.30205 9.96873 6.45788 9.96873 6.64579C9.96873 6.83371 9.8129 6.98954 9.62498 6.98954Z" fill="#292D32"/>
<path d="M9.62499 9.28123H5.2846C5.09668 9.28123 4.94085 9.1254 4.94085 8.93748C4.94085 8.74957 5.09668 8.59373 5.2846 8.59373H9.62499C9.81291 8.59373 9.96874 8.74957 9.96874 8.93748C9.96874 9.1254 9.81291 9.28123 9.62499 9.28123Z" fill="#292D32"/>
</svg>
