<svg width="11" height="11" viewBox="0 0 11 11" fill="none" xmlns="http://www.w3.org/2000/svg">
<path d="M9.77619 3.62999C9.58827 3.62999 9.43244 3.47415 9.43244 3.28624V2.45208C9.43244 2.11749 9.16202 1.84708 8.82744 1.84708H2.17247C1.83788 1.84708 1.56747 2.11749 1.56747 2.45208V3.29082C1.56747 3.47874 1.41164 3.63457 1.22372 3.63457C1.0358 3.63457 0.879971 3.47874 0.879971 3.28624V2.45208C0.879971 1.73708 1.46205 1.15958 2.17247 1.15958H8.82744C9.54244 1.15958 10.1199 1.74166 10.1199 2.45208V3.29082C10.1199 3.47874 9.96868 3.62999 9.77619 3.62999Z" fill="#292D32"/>
<path d="M5.49995 9.84041C5.31203 9.84041 5.1562 9.68458 5.1562 9.49667V1.88378C5.1562 1.69586 5.31203 1.54003 5.49995 1.54003C5.68787 1.54003 5.8437 1.69586 5.8437 1.88378V9.49667C5.8437 9.68916 5.68787 9.84041 5.49995 9.84041Z" fill="#292D32"/>
<path d="M7.30583 9.84032H3.69418C3.50626 9.84032 3.35043 9.68449 3.35043 9.49657C3.35043 9.30865 3.50626 9.15282 3.69418 9.15282H7.30583C7.49374 9.15282 7.64958 9.30865 7.64958 9.49657C7.64958 9.68449 7.49374 9.84032 7.30583 9.84032Z" fill="#292D32"/>
</svg>
