<svg width="11" height="11" viewBox="0 0 11 11" fill="none" xmlns="http://www.w3.org/2000/svg">
<path d="M5.50001 5.84369H2.23669C2.04878 5.84369 1.89294 5.68786 1.89294 5.49994V2.06246C1.89294 1.36579 2.45669 0.802045 3.15336 0.802045H5.50001C6.88876 0.802045 8.02084 1.93412 8.02084 3.32287C8.02084 4.71161 6.88876 5.84369 5.50001 5.84369ZM2.57586 5.15619H5.50001C6.51293 5.15619 7.33334 4.33578 7.33334 3.32287C7.33334 2.30996 6.51293 1.48954 5.50001 1.48954H3.15336C2.83711 1.48954 2.58044 1.74621 2.58044 2.06246V5.15619H2.57586Z" fill="#292D32"/>
<path d="M6.59084 10.1979H3.15336C2.45669 10.1979 1.89294 9.63416 1.89294 8.9375V5.50001C1.89294 5.3121 2.04878 5.15627 2.23669 5.15627H6.59084C7.97959 5.15627 9.11166 6.28835 9.11166 7.67709C9.11166 9.06583 7.97959 10.1979 6.59084 10.1979ZM2.57586 5.84376V8.9375C2.57586 9.25375 2.83252 9.51041 3.14877 9.51041H6.58626C7.59917 9.51041 8.41959 8.69 8.41959 7.67709C8.41959 6.66418 7.59917 5.84376 6.58626 5.84376H2.57586Z" fill="#292D32"/>
</svg>
