<svg width="11" height="11" viewBox="0 0 11 11" fill="none" xmlns="http://www.w3.org/2000/svg">
<path d="M8.6533 1.7187H4.40915C4.22124 1.7187 4.06999 1.56287 4.06999 1.37495C4.06999 1.18703 4.22582 1.0312 4.41374 1.0312H8.6533C8.84122 1.0312 8.99705 1.18703 8.99705 1.37495C8.99705 1.56287 8.84122 1.7187 8.6533 1.7187Z" fill="#292D32"/>
<path d="M6.5908 9.9687H2.34665C2.15873 9.9687 2.0029 9.81287 2.0029 9.62495C2.0029 9.43703 2.15873 9.2812 2.34665 9.2812H6.58622C6.77413 9.2812 6.92996 9.43703 6.92996 9.62495C6.92996 9.81287 6.77871 9.9687 6.5908 9.9687Z" fill="#292D32"/>
<path d="M4.46871 9.96869C4.44121 9.96869 4.41371 9.96411 4.38621 9.95953C4.20288 9.91369 4.0883 9.72578 4.13413 9.54245L6.19662 1.29248C6.24245 1.10915 6.42579 0.994563 6.6137 1.0404C6.79704 1.08623 6.91162 1.27415 6.86579 1.45748L4.80329 9.70745C4.76204 9.86328 4.62454 9.96869 4.46871 9.96869Z" fill="#292D32"/>
</svg>
