<svg width="11" height="11" viewBox="0 0 11 11" fill="none" xmlns="http://www.w3.org/2000/svg">
<path d="M6.87495 10.427H4.12496C1.63622 10.427 0.57289 9.36369 0.57289 6.87495V4.12496C0.57289 1.63622 1.63622 0.57289 4.12496 0.57289H6.87495C9.36369 0.57289 10.427 1.63622 10.427 4.12496V6.87495C10.427 9.36369 9.36369 10.427 6.87495 10.427ZM4.12496 1.26039C2.01205 1.26039 1.26039 2.01205 1.26039 4.12496V6.87495C1.26039 8.98786 2.01205 9.73952 4.12496 9.73952H6.87495C8.98786 9.73952 9.73952 8.98786 9.73952 6.87495V4.12496C9.73952 2.01205 8.98786 1.26039 6.87495 1.26039H4.12496Z" fill="#292D32"/>
<path d="M3.20835 4.4138C3.0846 4.4138 2.96085 4.34505 2.90127 4.22589C2.81418 4.0563 2.88293 3.85005 3.05252 3.76297C4.58334 2.99756 6.41209 2.99756 7.94291 3.76297C8.1125 3.85005 8.18125 4.0563 8.09875 4.22589C8.01166 4.39547 7.81 4.46422 7.63583 4.38172C6.2975 3.71256 4.69793 3.71256 3.3596 4.38172C3.31377 4.40464 3.25877 4.4138 3.20835 4.4138Z" fill="#292D32"/>
<path d="M5.49995 7.81001C5.31203 7.81001 5.1562 7.65418 5.1562 7.46626V3.63461C5.1562 3.44669 5.31203 3.29086 5.49995 3.29086C5.68787 3.29086 5.8437 3.44669 5.8437 3.63461V7.47084C5.8437 7.65876 5.68787 7.81001 5.49995 7.81001Z" fill="#292D32"/>
</svg>
