<svg width="11" height="11" viewBox="0 0 11 11" fill="none" xmlns="http://www.w3.org/2000/svg">
<path d="M6.77873 8.90077C6.72832 8.90077 6.67332 8.88704 6.62749 8.86412C6.45791 8.77704 6.38915 8.57078 6.47165 8.4012L7.45248 6.44412C7.51207 6.32953 7.63123 6.25621 7.75956 6.25621C7.8879 6.25621 8.00707 6.32954 8.06665 6.44871L9.04748 8.40579C9.13456 8.57537 9.06581 8.7816 8.89164 8.86868C8.72206 8.95576 8.51581 8.88703 8.42873 8.71286L7.75956 7.36996L7.0904 8.71286C7.02624 8.83203 6.90248 8.90077 6.77873 8.90077Z" fill="#292D32"/>
<path d="M8.56171 8.55236H6.94838C6.76047 8.55236 6.60464 8.39653 6.60464 8.20861C6.60464 8.02069 6.76047 7.86486 6.94838 7.86486H8.56171C8.74962 7.86486 8.90545 8.02069 8.90545 8.20861C8.90545 8.39653 8.7542 8.55236 8.56171 8.55236Z" fill="#292D32"/>
<path d="M7.75491 10.427C6.28366 10.427 5.08283 9.23071 5.08283 7.75488C5.08283 6.27906 6.27908 5.08283 7.75491 5.08283C9.22615 5.08283 10.427 6.27906 10.427 7.75488C10.427 9.23071 9.23073 10.427 7.75491 10.427ZM7.75491 5.77489C6.65949 5.77489 5.77033 6.66406 5.77033 7.75947C5.77033 8.85488 6.65949 9.74406 7.75491 9.74406C8.84573 9.74406 9.73948 8.85488 9.73948 7.75947C9.73948 6.66406 8.85032 5.77489 7.75491 5.77489Z" fill="#292D32"/>
<path d="M2.22753 5.82069C1.71878 5.82069 1.31545 5.67859 1.03129 5.40359C0.728787 5.11026 0.572955 4.66569 0.572955 4.09277V2.29612C0.572955 1.18238 1.18712 0.568202 2.30087 0.568202H4.09753C4.67044 0.568202 5.11044 0.719452 5.40835 1.02653C5.6971 1.32445 5.83919 1.7553 5.82544 2.3053V4.09277C5.83919 4.65194 5.6971 5.09194 5.39918 5.38986C5.10127 5.68777 4.66127 5.82527 4.09294 5.8161H2.30545C2.27336 5.82069 2.25045 5.82069 2.22753 5.82069ZM2.30087 1.26029C1.56295 1.26029 1.26045 1.56279 1.26045 2.30071V4.09736C1.26045 4.47778 1.34295 4.75276 1.50795 4.91318C1.66836 5.06901 1.92504 5.13778 2.28712 5.13319H4.09294C4.47794 5.14236 4.74377 5.06444 4.90419 4.90403C5.0646 4.74361 5.13794 4.4732 5.12877 4.10195V2.29612C5.13794 1.92946 5.06461 1.66819 4.90877 1.50778C4.74836 1.34278 4.47335 1.26029 4.09294 1.26029H2.30087Z" fill="#292D32"/>
<path d="M4.12499 3.02489H2.26417C2.07625 3.02489 1.92042 2.86905 1.92042 2.68114C1.92042 2.49322 2.07625 2.33739 2.26417 2.33739H4.12499C4.31291 2.33739 4.46874 2.49322 4.46874 2.68114C4.46874 2.86905 4.31749 3.02489 4.12499 3.02489Z" fill="#292D32"/>
<path d="M3.19915 3.02484C3.01123 3.02484 2.8554 2.86901 2.8554 2.6811V2.36943C2.8554 2.18152 3.01123 2.02569 3.19915 2.02569C3.38706 2.02569 3.5429 2.18152 3.5429 2.36943V2.6811C3.5429 2.86901 3.38706 3.02484 3.19915 3.02484Z" fill="#292D32"/>
<path d="M2.26417 4.47323C2.07625 4.47323 1.92042 4.3174 1.92042 4.12948C1.92042 3.94157 2.07625 3.78574 2.26417 3.78574C2.84625 3.78574 3.31833 3.29075 3.31833 2.67658C3.31833 2.48866 3.47416 2.33283 3.66208 2.33283C3.84999 2.33283 4.00583 2.48866 4.00583 2.67658C4.00583 3.66658 3.22666 4.47323 2.26417 4.47323Z" fill="#292D32"/>
<path d="M4.12954 4.47328C3.70329 4.47328 3.29537 4.25787 3.00662 3.87746C2.89204 3.72621 2.92413 3.51077 3.07538 3.39619C3.22663 3.2816 3.44204 3.3137 3.55662 3.46495C3.71245 3.67578 3.9187 3.79037 4.12954 3.79037C4.31745 3.79037 4.47328 3.94621 4.47328 4.13412C4.47328 4.32204 4.31745 4.47328 4.12954 4.47328Z" fill="#292D32"/>
<path d="M4.12502 10.427C2.16795 10.427 0.572955 8.83203 0.572955 6.87495C0.572955 6.68703 0.728787 6.5312 0.916703 6.5312C1.10462 6.5312 1.26045 6.68703 1.26045 6.87495C1.26045 8.23161 2.20462 9.36829 3.47419 9.6662L3.35044 9.45995C3.25419 9.29495 3.30461 9.0841 3.46961 8.98785C3.63003 8.8916 3.84544 8.94202 3.94169 9.10702L4.42294 9.9091C4.4871 10.0145 4.48711 10.1474 4.42752 10.2529C4.36336 10.3583 4.24877 10.427 4.12502 10.427Z" fill="#292D32"/>
<path d="M10.0833 4.46871C9.89537 4.46871 9.73954 4.31287 9.73954 4.12496C9.73954 2.7683 8.79537 1.63162 7.5258 1.33371L7.64955 1.53996C7.7458 1.70496 7.69538 1.91581 7.53038 2.01206C7.36996 2.10831 7.15454 2.05789 7.0583 1.89289L6.57705 1.09081C6.51289 0.98539 6.51288 0.852474 6.57246 0.747058C6.63205 0.637058 6.74664 0.57289 6.87038 0.57289C8.82746 0.57289 10.4225 2.16788 10.4225 4.12496C10.427 4.31287 10.2712 4.46871 10.0833 4.46871Z" fill="#292D32"/>
</svg>
