<svg width="11" height="11" viewBox="0 0 11 11" fill="none" xmlns="http://www.w3.org/2000/svg">
<path d="M6.87495 10.4271H4.12496C1.63622 10.4271 0.57289 9.36375 0.57289 6.87501V4.12502C0.57289 1.63628 1.63622 0.572955 4.12496 0.572955H6.87495C9.36369 0.572955 10.427 1.63628 10.427 4.12502V6.87501C10.427 9.36375 9.36369 10.4271 6.87495 10.4271ZM4.12496 1.26045C2.01205 1.26045 1.26039 2.01212 1.26039 4.12502V6.87501C1.26039 8.98792 2.01205 9.73959 4.12496 9.73959H6.87495C8.98786 9.73959 9.73952 8.98792 9.73952 6.87501V4.12502C9.73952 2.01212 8.98786 1.26045 6.87495 1.26045H4.12496Z" fill="#292D32"/>
<path d="M4.40914 8.27287C3.68498 8.27287 3.09373 7.68162 3.09373 6.95746C3.09373 6.2333 3.68498 5.64205 4.40914 5.64205C5.13331 5.64205 5.72455 6.2333 5.72455 6.95746C5.72455 7.68162 5.13331 8.27287 4.40914 8.27287ZM4.40914 6.33414C4.06539 6.33414 3.78123 6.61372 3.78123 6.96205C3.78123 7.3058 4.06081 7.58996 4.40914 7.58996C4.75289 7.58996 5.03705 7.31038 5.03705 6.96205C5.03705 6.61372 4.75289 6.33414 4.40914 6.33414Z" fill="#292D32"/>
<path d="M5.38088 7.30128C5.19296 7.30128 5.03713 7.14544 5.03713 6.95753V3.5613C5.03713 3.37339 5.19296 3.21756 5.38088 3.21756C5.5688 3.21756 5.72463 3.37339 5.72463 3.5613V6.95753C5.72463 7.15003 5.5688 7.30128 5.38088 7.30128Z" fill="#292D32"/>
<path d="M7.11339 5.23872C7.01714 5.23872 6.91629 5.2204 6.81546 5.18831L5.74298 4.8308C5.33965 4.69788 5.03713 4.27624 5.03713 3.84999V3.56583C5.03713 3.27708 5.15631 3.02499 5.36714 2.87374C5.57798 2.72249 5.85296 2.68582 6.12796 2.77748L7.20047 3.135C7.6038 3.26791 7.90629 3.68956 7.90629 4.1158V4.39997C7.90629 4.68872 7.78714 4.9408 7.57631 5.09205C7.44339 5.1883 7.28297 5.23872 7.11339 5.23872ZM5.82548 3.41457C5.80256 3.41457 5.77964 3.41914 5.76589 3.42831C5.73839 3.44664 5.72004 3.49707 5.72004 3.56124V3.8454C5.72004 3.97374 5.83922 4.13414 5.95838 4.17539L7.03089 4.5329C7.09047 4.55124 7.14547 4.55124 7.17297 4.5329C7.20047 4.51457 7.21879 4.46413 7.21879 4.39997V4.1158C7.21879 3.98747 7.09962 3.82707 6.98045 3.78582L5.90797 3.42831C5.88047 3.41914 5.84839 3.41457 5.82548 3.41457Z" fill="#292D32"/>
</svg>
