<svg width="11" height="11" viewBox="0 0 11 11" fill="none" xmlns="http://www.w3.org/2000/svg">
<path d="M9.18944 8.41496C8.97861 8.41496 8.76321 8.35996 8.57071 8.24538L5.66487 6.56788C5.53196 6.48996 5.42655 6.3983 5.34864 6.29747C5.29822 6.23788 5.27071 6.15997 5.27071 6.08205V4.90872C5.27071 4.83081 5.29822 4.75289 5.34864 4.69331C5.43114 4.59247 5.53654 4.50081 5.66487 4.42748L8.57528 2.7454C8.96028 2.52082 9.4232 2.52082 9.81278 2.7454C10.2024 2.96998 10.4315 3.36873 10.4315 3.81789V7.17288C10.4315 7.62205 10.2024 8.02079 9.81278 8.24538C9.6157 8.35996 9.40028 8.41496 9.18944 8.41496ZM5.95362 5.93997C5.97196 5.95372 5.99029 5.96748 6.00862 5.97664L8.90987 7.64955C9.08403 7.75038 9.29029 7.75038 9.45987 7.64955C9.63404 7.54872 9.73486 7.36996 9.73486 7.17288V3.81789C9.73486 3.62081 9.63404 3.44207 9.45987 3.34124C9.2857 3.2404 9.08403 3.2404 8.90987 3.34124L6.00405 5.01873C5.98571 5.0279 5.96737 5.04164 5.95362 5.05539V5.93997Z" fill="#292D32"/>
<path d="M4.71621 8.41496C4.50538 8.41496 4.28996 8.35996 4.09746 8.24538L1.19164 6.56788C0.806641 6.3433 0.57289 5.94455 0.57289 5.49539C0.57289 5.04622 0.802058 4.64748 1.19164 4.42289L4.09746 2.7454C4.48246 2.52082 4.94538 2.52082 5.33496 2.7454C5.72454 2.96998 5.9537 3.36873 5.9537 3.81789V7.17288C5.9537 7.62205 5.72454 8.02079 5.33496 8.24538C5.14246 8.35996 4.92704 8.41496 4.71621 8.41496ZM4.71621 3.27249C4.61996 3.27249 4.52829 3.29539 4.44121 3.34581L1.53539 5.02331C1.36122 5.12414 1.26039 5.30289 1.26039 5.49997C1.26039 5.69706 1.36122 5.87581 1.53539 5.97664L4.44121 7.65414C4.61537 7.75497 4.82163 7.75497 4.99121 7.65414C5.16538 7.55331 5.2662 7.37914 5.2662 7.17747V3.82248C5.2662 3.6254 5.16538 3.44664 4.99121 3.34581C4.90413 3.29539 4.81246 3.27249 4.71621 3.27249Z" fill="#292D32"/>
</svg>
