<svg width="11" height="11" viewBox="0 0 11 11" fill="none" xmlns="http://www.w3.org/2000/svg">
<path d="M6.61361 7.75497H5.56404C5.37613 7.75497 5.2203 7.59913 5.2203 7.41122C5.2203 7.2233 5.37613 7.06747 5.56404 7.06747H6.61361C6.8107 7.06747 6.97112 6.90707 6.97112 6.70998C6.97112 6.5129 6.8107 6.35247 6.61361 6.35247H5.56404C5.45404 6.35247 5.34863 6.29747 5.28447 6.21039C5.2203 6.12331 5.20195 6.00415 5.23862 5.89873L5.58695 4.84916C5.63279 4.70708 5.76571 4.61541 5.91238 4.61541H7.31487C7.50279 4.61541 7.65862 4.77124 7.65862 4.95916C7.65862 5.14707 7.50279 5.3029 7.31487 5.3029H6.15987L6.0407 5.66498H6.61361C7.19111 5.66498 7.65862 6.13249 7.65862 6.70998C7.65862 7.28748 7.18653 7.75497 6.61361 7.75497Z" fill="#292D32"/>
<path d="M4.37247 7.75497C4.18456 7.75497 4.02872 7.59913 4.02872 7.41122V5.8575L3.94164 5.95832C3.81331 6.1004 3.59789 6.10956 3.45581 5.98581C3.31373 5.85748 3.30456 5.64207 3.42831 5.49998L4.11581 4.73458C4.21206 4.62916 4.36331 4.59249 4.49623 4.64291C4.62915 4.69332 4.71622 4.82166 4.71622 4.96374V7.41581C4.71622 7.60372 4.56497 7.75497 4.37247 7.75497Z" fill="#292D32"/>
<path d="M4.59248 2.39241C4.51456 2.39241 4.44121 2.36951 4.37705 2.31451C4.23038 2.19534 4.20747 1.97993 4.32205 1.83326L5.22954 0.701197C5.3487 0.554531 5.56414 0.531589 5.71081 0.646172C5.85747 0.760755 5.88039 0.980776 5.76581 1.12744L4.85829 2.25951C4.79412 2.34659 4.69331 2.39241 4.59248 2.39241Z" fill="#292D32"/>
<path d="M5.49991 10.427C3.06617 10.427 1.08159 8.447 1.08159 6.00868C1.08159 5.05993 1.38868 4.14785 1.97534 3.36868C2.08992 3.21743 2.30533 3.18537 2.45658 3.29995C2.60783 3.41453 2.63993 3.62994 2.52534 3.78119C2.03035 4.44119 1.76909 5.21118 1.76909 6.00868C1.76909 8.06658 3.442 9.7395 5.49991 9.7395C7.55782 9.7395 9.23074 8.06658 9.23074 6.00868C9.23074 3.95077 7.55782 2.27785 5.49991 2.27785C5.23408 2.27785 4.96366 2.30995 4.67033 2.3787C4.48242 2.41995 4.29907 2.30537 4.25782 2.12203C4.21657 1.9387 4.33116 1.75077 4.51449 1.70953C4.85824 1.63161 5.18366 1.59035 5.49991 1.59035C7.93365 1.59035 9.91823 3.57035 9.91823 6.00868C9.91823 8.447 7.93365 10.427 5.49991 10.427Z" fill="#292D32"/>
</svg>
