<svg width="11" height="11" viewBox="0 0 11 11" fill="none" xmlns="http://www.w3.org/2000/svg">
<path d="M4.37247 7.64035C4.18456 7.64035 4.02872 7.48452 4.02872 7.29661V5.74288L3.94164 5.83912C3.81331 5.9812 3.59789 5.99036 3.45581 5.86661C3.31373 5.73828 3.30456 5.52287 3.42831 5.38078L4.11581 4.61538C4.21206 4.50996 4.3633 4.47329 4.49622 4.52371C4.62913 4.57412 4.71622 4.70246 4.71622 4.84454V7.29661C4.71622 7.48911 4.56497 7.64035 4.37247 7.64035Z" fill="#292D32"/>
<path d="M4.59246 2.39241C4.51455 2.39241 4.44121 2.36951 4.37705 2.31451C4.23038 2.19534 4.20747 1.97993 4.32205 1.83326L5.22955 0.701197C5.34872 0.554531 5.56413 0.531589 5.71079 0.646172C5.85746 0.760755 5.88037 0.980776 5.76579 1.12744L4.8583 2.25951C4.79414 2.34659 4.6933 2.39241 4.59246 2.39241Z" fill="#292D32"/>
<path d="M5.49991 10.427C3.06617 10.427 1.08159 8.447 1.08159 6.00868C1.08159 5.05993 1.38868 4.14785 1.97534 3.36868C2.08992 3.21743 2.30533 3.18537 2.45658 3.29995C2.60783 3.41453 2.63993 3.62994 2.52534 3.78119C2.03035 4.44119 1.76909 5.21118 1.76909 6.00868C1.76909 8.06658 3.442 9.7395 5.49991 9.7395C7.55782 9.7395 9.23074 8.06658 9.23074 6.00868C9.23074 3.95077 7.55782 2.27785 5.49991 2.27785C5.23408 2.27785 4.96366 2.30995 4.67033 2.3787C4.487 2.41995 4.29909 2.30537 4.25784 2.12203C4.21659 1.9387 4.33117 1.75077 4.5145 1.70953C4.85825 1.63161 5.18366 1.59035 5.49991 1.59035C7.93365 1.59035 9.91823 3.57035 9.91823 6.00868C9.91823 8.447 7.93365 10.427 5.49991 10.427Z" fill="#292D32"/>
<path d="M6.41668 7.64039C5.72001 7.64039 5.15627 7.07664 5.15627 6.37998V5.76124C5.15627 5.06458 5.72001 4.50083 6.41668 4.50083C7.11334 4.50083 7.67709 5.06458 7.67709 5.76124V6.37998C7.67709 7.07664 7.11334 7.64039 6.41668 7.64039ZM6.41668 5.19291C6.10043 5.19291 5.84376 5.44958 5.84376 5.76583V6.38456C5.84376 6.70081 6.10043 6.95748 6.41668 6.95748C6.73293 6.95748 6.98959 6.70081 6.98959 6.38456V5.76583C6.98959 5.44958 6.73293 5.19291 6.41668 5.19291Z" fill="#292D32"/>
</svg>
