<svg width="11" height="11" viewBox="0 0 11 11" fill="none" xmlns="http://www.w3.org/2000/svg">
<path d="M5.67421 7.75497H4.62462C4.43671 7.75497 4.28088 7.59913 4.28088 7.41122C4.28088 7.2233 4.43671 7.06747 4.62462 7.06747H5.67421C5.87129 7.06747 6.03171 6.90707 6.03171 6.70998C6.03171 6.5129 5.87129 6.35247 5.67421 6.35247H4.62462C4.51463 6.35247 4.40922 6.29747 4.34505 6.21039C4.28088 6.12331 4.26255 6.00415 4.29921 5.89873L4.64755 4.84916C4.69338 4.70708 4.8263 4.61541 4.97296 4.61541H6.37545C6.56337 4.61541 6.7192 4.77124 6.7192 4.95916C6.7192 5.14707 6.56337 5.3029 6.37545 5.3029H5.22046L5.10129 5.66498H5.67421C6.25171 5.66498 6.7192 6.13249 6.7192 6.70998C6.7192 7.28748 6.25171 7.75497 5.67421 7.75497Z" fill="#292D32"/>
<path d="M4.59246 2.39241C4.51455 2.39241 4.44121 2.36951 4.37705 2.31451C4.23038 2.19534 4.20747 1.97993 4.32205 1.83326L5.22955 0.701197C5.34872 0.554531 5.56413 0.531589 5.71079 0.646172C5.85746 0.765338 5.88037 0.980776 5.76579 1.12744L4.8583 2.25951C4.79414 2.34659 4.6933 2.39241 4.59246 2.39241Z" fill="#292D32"/>
<path d="M5.49991 10.427C3.06617 10.427 1.08159 8.447 1.08159 6.00868C1.08159 5.05993 1.38868 4.14785 1.97534 3.36868C2.08992 3.21743 2.30533 3.18537 2.45658 3.29995C2.60783 3.41453 2.63993 3.62994 2.52534 3.78119C2.03035 4.44119 1.76909 5.21118 1.76909 6.00868C1.76909 8.06658 3.442 9.7395 5.49991 9.7395C7.55782 9.7395 9.23074 8.06658 9.23074 6.00868C9.23074 3.95077 7.55782 2.27785 5.49991 2.27785C5.23408 2.27785 4.96366 2.30995 4.67033 2.3787C4.487 2.41995 4.29909 2.30537 4.25784 2.12203C4.21659 1.9387 4.33117 1.75077 4.5145 1.70953C4.85825 1.63161 5.18366 1.59035 5.49991 1.59035C7.93365 1.59035 9.91823 3.57035 9.91823 6.00868C9.91823 8.447 7.93365 10.427 5.49991 10.427Z" fill="#292D32"/>
</svg>
