<svg width="11" height="11" viewBox="0 0 11 11" fill="none" xmlns="http://www.w3.org/2000/svg">
<path d="M7.90164 10.4271H3.09833C1.815 10.4271 0.999168 9.66167 0.925835 8.38292L0.687502 4.60169C0.650836 4.02877 0.847918 3.47878 1.24208 3.06169C1.63167 2.64461 2.18166 2.40628 2.74999 2.40628C2.89666 2.40628 3.03874 2.3192 3.10749 2.1817L3.43749 1.52628C3.70791 0.990036 4.38624 0.572955 4.97748 0.572955H6.02706C6.61831 0.572955 7.29206 0.990036 7.56248 1.5217L7.89247 2.19086C7.96122 2.3192 8.09872 2.40628 8.24997 2.40628C8.8183 2.40628 9.3683 2.64461 9.75788 3.06169C10.152 3.48336 10.3491 4.02877 10.3125 4.60169L10.0741 8.38751C9.99163 9.68458 9.19872 10.4271 7.90164 10.4271ZM4.97748 1.26045C4.63832 1.26045 4.20749 1.52628 4.05166 1.83337L3.72166 2.49336C3.52916 2.86461 3.15791 3.09378 2.74999 3.09378C2.365 3.09378 2.0075 3.24961 1.74166 3.52919C1.48042 3.80878 1.3475 4.17544 1.375 4.55586L1.61333 8.34167C1.66833 9.2675 2.16791 9.73959 3.09833 9.73959H7.90164C8.82747 9.73959 9.32705 9.2675 9.38663 8.34167L9.62497 4.55586C9.64788 4.17544 9.51955 3.80878 9.2583 3.52919C8.99247 3.24961 8.63497 3.09378 8.24997 3.09378C7.84206 3.09378 7.47081 2.86461 7.27831 2.50253L6.94373 1.83337C6.79248 1.53087 6.36165 1.26504 6.02248 1.26504H4.97748V1.26045Z" fill="#292D32"/>
<path d="M6.18754 4.01045H4.81255C4.62463 4.01045 4.4688 3.85462 4.4688 3.6667C4.4688 3.47879 4.62463 3.32295 4.81255 3.32295H6.18754C6.37546 3.32295 6.53129 3.47879 6.53129 3.6667C6.53129 3.85462 6.37546 4.01045 6.18754 4.01045Z" fill="#292D32"/>
<path d="M5.49995 8.59376C4.48704 8.59376 3.66662 7.77335 3.66662 6.76044C3.66662 5.74752 4.48704 4.92711 5.49995 4.92711C6.51286 4.92711 7.33328 5.74752 7.33328 6.76044C7.33328 7.77335 6.51286 8.59376 5.49995 8.59376ZM5.49995 5.61461C4.86745 5.61461 4.35412 6.12794 4.35412 6.76044C4.35412 7.39293 4.86745 7.90627 5.49995 7.90627C6.13245 7.90627 6.64578 7.39293 6.64578 6.76044C6.64578 6.12794 6.13245 5.61461 5.49995 5.61461Z" fill="#292D32"/>
</svg>
