<svg width="11" height="11" viewBox="0 0 11 11" fill="none" xmlns="http://www.w3.org/2000/svg">
<path d="M4.12501 4.92708H2.75001C2.5621 4.92708 2.40627 4.77124 2.40627 4.58333C2.40627 4.39541 2.5621 4.23958 2.75001 4.23958H4.12501C4.31293 4.23958 4.46876 4.39541 4.46876 4.58333C4.46876 4.77124 4.31293 4.92708 4.12501 4.92708Z" fill="#292D32"/>
<path d="M7.90162 10.4271H3.09831C2.91039 10.4271 2.75456 10.2712 2.75456 10.0833C2.75456 9.89541 2.91039 9.73957 3.09831 9.73957H7.90162C8.82745 9.73957 9.32703 9.26749 9.38661 8.34166L9.62495 4.55584C9.64786 4.23043 9.55161 3.9096 9.35453 3.64835C9.23995 3.4971 9.27203 3.28168 9.42328 3.1671C9.57453 3.05252 9.78995 3.0846 9.90453 3.23585C10.1979 3.63002 10.3445 4.11126 10.3124 4.60168L10.0741 8.3875C9.99161 9.68457 9.1987 10.4271 7.90162 10.4271Z" fill="#292D32"/>
<path d="M1.57667 9.72125C1.46667 9.72125 1.35667 9.66625 1.28792 9.56542C1.07708 9.24459 0.953335 8.84584 0.925835 8.38292L0.687502 4.60169C0.650836 4.02877 0.847918 3.47878 1.24208 3.06169C1.63167 2.64461 2.18166 2.40628 2.74999 2.40628C2.89666 2.40628 3.03874 2.3192 3.10749 2.1817L3.43749 1.52628C3.70791 0.990036 4.38624 0.572955 4.97748 0.572955H6.02706C6.61831 0.572955 7.29206 0.990036 7.56247 1.5217L7.89247 2.19086C7.96122 2.3192 8.09872 2.40628 8.24997 2.40628C8.43789 2.40628 8.59372 2.56211 8.59372 2.75003C8.59372 2.93795 8.43789 3.09378 8.24997 3.09378C7.84206 3.09378 7.47081 2.86461 7.27831 2.50253L6.94373 1.83337C6.79248 1.53087 6.36165 1.26504 6.02248 1.26504H4.9729C4.63374 1.26504 4.2029 1.53087 4.04707 1.83795L3.72166 2.49336C3.52916 2.86461 3.15791 3.09378 2.74999 3.09378C2.365 3.09378 2.0075 3.24961 1.74166 3.52919C1.48042 3.80878 1.3475 4.17544 1.375 4.55586L1.61333 8.34167C1.63167 8.67626 1.71875 8.96959 1.86541 9.185C1.97083 9.34542 1.925 9.55625 1.76916 9.66167C1.70958 9.70292 1.64083 9.72125 1.57667 9.72125Z" fill="#292D32"/>
<path d="M5.49992 8.59377C5.09201 8.59377 4.69326 8.45627 4.37243 8.20419C4.22118 8.08503 4.19826 7.86961 4.31285 7.72294C4.43201 7.57169 4.64743 7.54878 4.79409 7.66336C4.99576 7.81919 5.24326 7.90628 5.49992 7.90628C6.13242 7.90628 6.64575 7.39295 6.64575 6.76045C6.64575 6.54045 6.58617 6.32962 6.47159 6.15087C6.37075 5.99045 6.41659 5.77962 6.577 5.6742C6.73742 5.57337 6.94825 5.6192 7.05367 5.77962C7.237 6.06837 7.33783 6.40753 7.33783 6.75586C7.33325 7.77336 6.51284 8.59377 5.49992 8.59377Z" fill="#292D32"/>
<path d="M0.916664 10.427C0.829581 10.427 0.742498 10.395 0.673748 10.3262C0.540832 10.1933 0.540832 9.97329 0.673748 9.84038L9.84038 0.673748C9.97329 0.540832 10.1933 0.540832 10.3262 0.673748C10.4591 0.806665 10.4591 1.02666 10.3262 1.15958L1.15958 10.3262C1.09083 10.395 1.00375 10.427 0.916664 10.427Z" fill="#292D32"/>
</svg>
