<svg width="11" height="11" viewBox="0 0 11 11" fill="none" xmlns="http://www.w3.org/2000/svg">
<path d="M5.49986 8.90079C4.79403 8.90079 4.0882 8.63037 3.55195 8.09412C2.47487 7.01705 2.47487 5.27083 3.55195 4.19375C4.07445 3.67125 4.76653 3.38708 5.49986 3.38708C6.23319 3.38708 6.92985 3.67583 7.44777 4.19375C8.52485 5.27083 8.52485 7.01705 7.44777 8.09412C6.91152 8.63037 6.20569 8.90079 5.49986 8.90079ZM5.49986 4.07916C4.94986 4.07916 4.42736 4.29456 4.03778 4.68414C3.23112 5.4908 3.23112 6.80163 4.03778 7.60829C4.84444 8.41496 6.15527 8.41037 6.96194 7.60829C7.7686 6.80163 7.7686 5.4908 6.96194 4.68414C6.57236 4.29456 6.04986 4.07916 5.49986 4.07916Z" fill="#292D32"/>
<path d="M4.7713 7.21876C4.68422 7.21876 4.59255 7.18669 4.52838 7.11794C4.39547 6.98502 4.39547 6.76502 4.52838 6.62752L5.25713 5.89876C5.39005 5.76585 5.61005 5.76585 5.74755 5.89876C5.88046 6.03168 5.88046 6.25168 5.74755 6.38918L5.0188 7.11794C4.94547 7.18669 4.85838 7.21876 4.7713 7.21876Z" fill="#292D32"/>
<path d="M8.61206 3.44209C8.50206 3.44209 8.40123 3.40083 8.32331 3.32292C8.16289 3.1625 8.16289 2.90125 8.32331 2.74541C8.40123 2.6675 8.50206 2.62624 8.61206 2.62624C8.72206 2.62624 8.82289 2.6675 8.90081 2.74541C8.97873 2.82333 9.01997 2.92417 9.01997 3.03416C9.01997 3.14416 8.97873 3.245 8.90081 3.32292C8.82748 3.40083 8.72206 3.44209 8.61206 3.44209ZM8.57997 2.99749V3.06625C8.58914 3.07542 8.60288 3.07999 8.61663 3.07999C8.67163 3.0479 8.67164 3.01582 8.64872 2.99749H8.57997Z" fill="#292D32"/>
<path d="M8.61196 3.5567C8.46987 3.5567 8.34154 3.50169 8.24071 3.40086C8.03904 3.19919 8.03904 2.86461 8.24071 2.65837C8.34154 2.55753 8.46987 2.50711 8.61196 2.50711C8.75404 2.50711 8.88237 2.56212 8.9832 2.66295C9.08404 2.76379 9.13445 2.89212 9.13445 3.0342C9.13445 3.17628 9.07945 3.30461 8.97862 3.40545C8.88695 3.5017 8.75404 3.5567 8.61196 3.5567ZM8.49737 3.14878C8.52946 3.18087 8.57071 3.19461 8.61196 3.19461C8.65321 3.19461 8.69446 3.17628 8.72654 3.14878C8.79071 3.08462 8.79071 2.98378 8.72654 2.91962C8.66696 2.86003 8.55696 2.86003 8.49737 2.91962C8.46987 2.94712 8.45154 2.98837 8.45154 3.0342C8.45154 3.07545 8.46529 3.1167 8.49737 3.14878Z" fill="#292D32"/>
<path d="M2.38789 9.66627C2.28248 9.66627 2.17706 9.62502 2.09914 9.5471C2.02122 9.46918 1.97998 9.36377 1.97998 9.25835C1.97998 9.14835 2.02122 9.04751 2.09914 8.9696C2.17706 8.89168 2.27789 8.85043 2.38789 8.85043C2.49789 8.85043 2.59873 8.89168 2.67664 8.9696C2.83706 9.13001 2.83706 9.39127 2.67664 9.5471C2.59873 9.62502 2.49331 9.66627 2.38789 9.66627ZM2.37873 9.2125C2.36956 9.2125 2.3604 9.2171 2.35123 9.22626C2.3329 9.2446 2.3329 9.27669 2.35123 9.29502C2.3604 9.30419 2.37415 9.30876 2.38332 9.30876L2.42914 9.26294C2.41539 9.22169 2.39706 9.2125 2.37873 9.2125Z" fill="#292D32"/>
<path d="M2.38793 9.78086C2.25501 9.78086 2.11751 9.73043 2.01668 9.6296C1.91585 9.52877 1.86085 9.39585 1.86085 9.25835C1.86085 9.11627 1.91585 8.98794 2.01668 8.88711C2.11293 8.79086 2.24585 8.73585 2.38793 8.73585C2.53001 8.73585 2.65834 8.79086 2.75918 8.89169C2.96542 9.09794 2.96542 9.42794 2.75918 9.63419C2.65834 9.73044 2.52084 9.78086 2.38793 9.78086ZM2.38793 9.09336C2.34668 9.09336 2.30543 9.1071 2.27334 9.13918C2.20918 9.20335 2.20918 9.30418 2.27334 9.36835C2.30543 9.40043 2.34668 9.41417 2.38793 9.41417C2.42918 9.41417 2.47501 9.39584 2.50251 9.36376C2.53001 9.33626 2.54835 9.29501 2.54835 9.24918C2.54835 9.20793 2.53001 9.1621 2.50251 9.1346C2.47043 9.11168 2.42918 9.09336 2.38793 9.09336Z" fill="#292D32"/>
<path d="M9.90002 6.55418C9.7946 6.55418 9.68919 6.51293 9.61127 6.43501C9.45085 6.27459 9.45085 6.01336 9.61127 5.85295C9.68919 5.77503 9.7946 5.75669 9.90002 5.73378C10.01 5.73378 10.1109 5.77503 10.1888 5.85295C10.3492 6.01336 10.3492 6.27459 10.1888 6.43501C10.1109 6.51293 10.0054 6.55418 9.90002 6.55418ZM9.86793 6.17835C9.8771 6.18751 9.89084 6.19211 9.90459 6.19211C9.95501 6.16003 9.95501 6.12795 9.93668 6.10961C9.91835 6.09128 9.88627 6.09128 9.86793 6.10961C9.8496 6.12795 9.8496 6.16001 9.86793 6.17835Z" fill="#292D32"/>
<path d="M9.89997 6.66877C9.76705 6.66877 9.62956 6.61834 9.52872 6.51751C9.32247 6.31126 9.32247 5.98127 9.52872 5.77502C9.62956 5.67418 9.75789 5.6192 9.89997 5.6192C10.0421 5.6192 10.1704 5.67418 10.2712 5.77502C10.4775 5.98127 10.4775 6.31126 10.2712 6.51751C10.1704 6.61834 10.0375 6.66877 9.89997 6.66877ZM9.78539 6.26085C9.81747 6.29293 9.85872 6.3067 9.89997 6.3067C9.94122 6.3067 9.98247 6.28835 10.0146 6.26085C10.0787 6.19668 10.0787 6.09585 10.0146 6.03168C9.95039 5.96752 9.84955 5.96752 9.78539 6.03168C9.7258 6.09126 9.72122 6.19668 9.78539 6.26085Z" fill="#292D32"/>
<path d="M1.09992 6.55422C0.9945 6.55422 0.889081 6.51296 0.811165 6.43505C0.650749 6.27463 0.650749 6.0134 0.811165 5.85298C0.971581 5.69257 1.23284 5.69257 1.39325 5.85298C1.55367 6.0134 1.55367 6.27463 1.39325 6.43505C1.30617 6.51296 1.20075 6.55422 1.09992 6.55422ZM1.06326 6.17838C1.08159 6.19671 1.11367 6.19671 1.132 6.17838C1.15034 6.16005 1.15034 6.12798 1.132 6.10965C1.11367 6.09131 1.08159 6.09131 1.06326 6.10965C1.04492 6.12798 1.04492 6.16005 1.06326 6.17838Z" fill="#292D32"/>
<path d="M1.1 6.66872C0.967079 6.66872 0.829581 6.6183 0.728748 6.51747C0.522499 6.31122 0.522499 5.98122 0.728748 5.77497C0.934997 5.56872 1.26958 5.57331 1.47124 5.77497C1.67749 5.98122 1.67749 6.31122 1.47124 6.51747C1.36583 6.6183 1.23291 6.66872 1.1 6.66872ZM0.980839 6.2608C1.04501 6.32497 1.14584 6.32497 1.21 6.2608C1.27417 6.19664 1.27417 6.09122 1.21 6.03164C1.14584 5.96747 1.04501 5.96747 0.980839 6.03164C0.921256 6.09122 0.921256 6.19664 0.980839 6.2608Z" fill="#292D32"/>
<path d="M8.61206 9.66627C8.50664 9.66627 8.40123 9.62502 8.32331 9.5471C8.16289 9.38668 8.16289 9.12543 8.32331 8.96501C8.48373 8.80459 8.74497 8.80459 8.90538 8.96501C8.9833 9.04293 9.02456 9.14376 9.02456 9.25376C9.02456 9.36376 8.9833 9.4646 8.90538 9.54251C8.82289 9.62501 8.71748 9.66627 8.61206 9.66627ZM8.61206 9.20794C8.59831 9.20794 8.58914 9.21251 8.57997 9.22167V9.29044C8.59831 9.30877 8.63039 9.30877 8.64872 9.29044C8.66705 9.2721 8.66705 9.24001 8.64872 9.22167C8.63497 9.21251 8.62581 9.20794 8.61206 9.20794Z" fill="#292D32"/>
<path d="M8.61214 9.78084C8.47922 9.78084 8.34173 9.73041 8.24089 9.62958C8.03464 9.42333 8.03464 9.09334 8.24089 8.88709C8.44714 8.68084 8.77714 8.68084 8.98339 8.88709C9.08422 8.98792 9.13922 9.11625 9.13922 9.25833C9.13922 9.40042 9.08422 9.52875 8.98339 9.62958C8.88255 9.73041 8.74506 9.78084 8.61214 9.78084ZM8.49756 9.37292C8.56172 9.43708 8.66256 9.43708 8.72672 9.37292C8.79089 9.30875 8.79089 9.20792 8.72672 9.14375C8.66256 9.07958 8.56172 9.07958 8.49756 9.14375C8.46547 9.17583 8.45172 9.21708 8.45172 9.25833C8.45172 9.29958 8.46547 9.34083 8.49756 9.37292Z" fill="#292D32"/>
<path d="M2.38789 3.44209C2.27789 3.44209 2.17706 3.40083 2.09914 3.32292C2.02122 3.245 1.97998 3.14416 1.97998 3.03416C1.97998 2.92417 2.02122 2.82333 2.09914 2.74541C2.17706 2.6675 2.27789 2.62624 2.38789 2.62624C2.49789 2.62624 2.59873 2.6675 2.67664 2.74541C2.83706 2.90583 2.83706 3.16709 2.67664 3.3275C2.59873 3.40084 2.49789 3.44209 2.38789 3.44209ZM2.35123 3.06625C2.3604 3.07542 2.37415 3.07999 2.38332 3.07999L2.42914 3.03416L2.38332 2.98834C2.3329 3.01584 2.3329 3.04792 2.35123 3.06625Z" fill="#292D32"/>
<path d="M2.38777 3.5567C2.24568 3.5567 2.11735 3.50169 2.01652 3.40086C1.92027 3.30461 1.86528 3.1717 1.86528 3.02961C1.86528 2.88753 1.92027 2.7592 2.02111 2.65837C2.11736 2.56212 2.25027 2.50711 2.39235 2.50711C2.53444 2.50711 2.66277 2.56212 2.7636 2.66295C2.96527 2.8692 2.96527 3.1992 2.7636 3.40545C2.65819 3.5017 2.52985 3.5567 2.38777 3.5567ZM2.27318 3.14878C2.30527 3.18087 2.34652 3.19919 2.38777 3.19919C2.42902 3.19919 2.47027 3.18087 2.50235 3.15337C2.53443 3.12587 2.54819 3.08004 2.54819 3.03879C2.54819 2.99754 2.52986 2.95171 2.49778 2.92421C2.44278 2.86462 2.32819 2.86462 2.26861 2.92421C2.20903 2.9792 2.20902 3.08462 2.27318 3.14878Z" fill="#292D32"/>
<path d="M5.49987 2.15416C5.38987 2.15416 5.28903 2.11291 5.21112 2.03499C5.1332 1.95707 5.09195 1.85624 5.09195 1.74624C5.09195 1.63624 5.1332 1.5354 5.21112 1.45749C5.37153 1.29707 5.63279 1.29707 5.79321 1.45749C5.95362 1.6179 5.95362 1.87916 5.79321 2.03499C5.71529 2.10832 5.60987 2.15416 5.49987 2.15416ZM5.53195 1.70957L5.46321 1.77833C5.48154 1.79666 5.51362 1.79666 5.53195 1.77833V1.70957ZM5.46778 1.70957C5.44945 1.7279 5.44945 1.75999 5.46778 1.77833L5.53653 1.70957H5.46778Z" fill="#292D32"/>
<path d="M5.49987 2.26879C5.35779 2.26879 5.22946 2.21378 5.12863 2.11294C5.03238 2.01669 4.97737 1.88378 4.97737 1.7417C4.97737 1.59961 5.03238 1.47128 5.13321 1.37045C5.33946 1.1642 5.66946 1.1642 5.87571 1.37045C6.07737 1.5767 6.07737 1.9067 5.87571 2.11294C5.77488 2.21378 5.64196 2.26879 5.49987 2.26879ZM5.61446 1.62711L5.38529 1.85628C5.44946 1.92045 5.55029 1.92045 5.61446 1.85628C5.64654 1.8242 5.66029 1.78295 5.66029 1.7417C5.66029 1.70045 5.64654 1.6592 5.61446 1.62711ZM5.49987 1.58129C5.45862 1.58129 5.41279 1.59962 5.38529 1.6317C5.32112 1.69587 5.32112 1.7967 5.38529 1.86087L5.61446 1.6317C5.58696 1.59962 5.54571 1.58129 5.49987 1.58129Z" fill="#292D32"/>
</svg>
