<svg width="11" height="11" viewBox="0 0 11 11" fill="none" xmlns="http://www.w3.org/2000/svg">
<path d="M6.40729 2.39244C6.30646 2.39244 6.20562 2.34662 6.14145 2.26412L5.23397 1.13203C5.1148 0.98536 5.13771 0.765367 5.28896 0.650784C5.43563 0.531618 5.65104 0.554532 5.77021 0.705781L6.67771 1.83787C6.79687 1.98454 6.77396 2.20453 6.62271 2.31912C6.55854 2.36495 6.48063 2.39244 6.40729 2.39244Z" fill="#292D32"/>
<path d="M5.49991 10.427C3.06617 10.427 1.08159 8.447 1.08159 6.00868C1.08159 3.57035 3.06159 1.59035 5.49991 1.59035C5.81616 1.59035 6.13699 1.62703 6.48532 1.70953C6.66865 1.75077 6.78782 1.9387 6.74199 2.12203C6.70074 2.30537 6.51741 2.42453 6.32949 2.3787C6.03616 2.30995 5.76116 2.27785 5.49991 2.27785C3.442 2.27785 1.76909 3.95077 1.76909 6.00868C1.76909 8.06658 3.442 9.7395 5.49991 9.7395C7.55782 9.7395 9.23074 8.06658 9.23074 6.00868C9.23074 5.21118 8.96948 4.44119 8.47448 3.78119C8.3599 3.62994 8.39199 3.41453 8.54324 3.29995C8.69449 3.18537 8.9099 3.21743 9.02448 3.36868C9.61115 4.14785 9.91823 5.05993 9.91823 6.00868C9.91823 8.447 7.93365 10.427 5.49991 10.427Z" fill="#292D32"/>
<path d="M4.37247 7.64035C4.18456 7.64035 4.02872 7.48452 4.02872 7.29661V5.74288L3.94164 5.83912C3.81331 5.9812 3.59789 5.99036 3.45581 5.86661C3.31373 5.73828 3.30456 5.52287 3.42831 5.38078L4.11581 4.61538C4.21206 4.50996 4.3633 4.47329 4.49622 4.52371C4.62913 4.57412 4.71622 4.70246 4.71622 4.84454V7.29661C4.71622 7.48911 4.56497 7.64035 4.37247 7.64035Z" fill="#292D32"/>
<path d="M6.41668 7.64032C5.72001 7.64032 5.15627 7.07658 5.15627 6.37991V5.76118C5.15627 5.06451 5.72001 4.50076 6.41668 4.50076C7.11334 4.50076 7.67709 5.06451 7.67709 5.76118V6.37991C7.67709 7.07658 7.11334 7.64032 6.41668 7.64032ZM6.41668 5.19285C6.10043 5.19285 5.84376 5.44951 5.84376 5.76576V6.3845C5.84376 6.70075 6.10043 6.95741 6.41668 6.95741C6.73293 6.95741 6.98959 6.70075 6.98959 6.3845V5.76576C6.98959 5.44951 6.73293 5.19285 6.41668 5.19285Z" fill="#292D32"/>
</svg>
