<svg width="11" height="11" viewBox="0 0 11 11" fill="none" xmlns="http://www.w3.org/2000/svg">
<path d="M1.81039 8.41496C1.59956 8.41496 1.38414 8.35996 1.19164 8.24538C0.802058 8.02079 0.57289 7.62205 0.57289 7.17288V3.81789C0.57289 3.36873 0.802058 2.96998 1.19164 2.7454C1.58122 2.52082 2.04413 2.52082 2.42913 2.7454L5.33496 4.42289C5.46788 4.50081 5.57328 4.59247 5.65578 4.69331C5.7062 4.75289 5.73371 4.83081 5.73371 4.90872V6.08205C5.73371 6.15997 5.7062 6.23788 5.65578 6.29747C5.57328 6.3983 5.46787 6.48997 5.34412 6.56331L2.42913 8.24996C2.23663 8.35996 2.02581 8.41496 1.81039 8.41496ZM1.81039 3.27249C1.71414 3.27249 1.62247 3.29539 1.53539 3.34581C1.36122 3.44664 1.26039 3.6254 1.26039 3.82248V7.17747C1.26039 7.37455 1.36122 7.55331 1.53539 7.65414C1.70955 7.75497 1.91121 7.75497 2.08538 7.65414L4.99121 5.97664C5.00955 5.96748 5.02787 5.95372 5.04162 5.93997V5.05539C5.02329 5.04164 5.00496 5.0279 4.98662 5.01873L2.08538 3.34581C1.99829 3.29539 1.90664 3.27249 1.81039 3.27249Z" fill="#292D32"/>
<path d="M6.2836 8.41496C6.07277 8.41496 5.85735 8.35996 5.66485 8.24538C5.27527 8.02079 5.04612 7.62205 5.04612 7.17288V3.81789C5.04612 3.36873 5.27527 2.96998 5.66485 2.7454C6.05443 2.52082 6.51735 2.52082 6.90235 2.7454L9.80817 4.42289C10.1932 4.64748 10.4269 5.04622 10.4269 5.49539C10.4269 5.94455 10.1978 6.3433 9.80817 6.56788L6.90235 8.24538C6.70985 8.35996 6.49443 8.41496 6.2836 8.41496ZM6.2836 3.27249C6.18735 3.27249 6.09568 3.29539 6.0086 3.34581C5.83443 3.44664 5.73361 3.62081 5.73361 3.82248V7.17747C5.73361 7.37455 5.83443 7.55331 6.0086 7.65414C6.18277 7.75497 6.38902 7.75497 6.5586 7.65414L9.46442 5.97664C9.63859 5.87581 9.73942 5.69706 9.73942 5.49997C9.73942 5.30289 9.63859 5.12414 9.46442 5.02331L6.5586 3.34581C6.47152 3.29539 6.37985 3.27249 6.2836 3.27249Z" fill="#292D32"/>
</svg>
