<svg width="11" height="11" viewBox="0 0 11 11" fill="none" xmlns="http://www.w3.org/2000/svg">
<path d="M6.40742 2.3924C6.30659 2.3924 6.20578 2.34659 6.14161 2.26409L5.2341 1.13199C5.11493 0.985326 5.13784 0.765333 5.28909 0.65075C5.44034 0.536167 5.6512 0.554498 5.77036 0.705748L6.67785 1.83784C6.79702 1.98451 6.7741 2.2045 6.62285 2.31908C6.55869 2.36492 6.48076 2.3924 6.40742 2.3924Z" fill="#292D32"/>
<path d="M5.49991 10.427C3.06617 10.427 1.08159 8.447 1.08159 6.00868C1.08159 3.57035 3.06159 1.59035 5.49991 1.59035C5.81616 1.59035 6.137 1.62703 6.48534 1.70953C6.66867 1.75077 6.78783 1.9387 6.742 2.12203C6.70075 2.30537 6.51741 2.42453 6.32949 2.3787C6.03616 2.30995 5.76116 2.27785 5.49991 2.27785C3.442 2.27785 1.76909 3.95077 1.76909 6.00868C1.76909 8.06658 3.442 9.7395 5.49991 9.7395C7.55782 9.7395 9.23074 8.06658 9.23074 6.00868C9.23074 5.21118 8.96948 4.44119 8.47448 3.78119C8.3599 3.62994 8.39199 3.41453 8.54324 3.29995C8.69449 3.18537 8.9099 3.21743 9.02448 3.36868C9.61115 4.14785 9.91823 5.05993 9.91823 6.00868C9.91823 8.447 7.93365 10.427 5.49991 10.427Z" fill="#292D32"/>
<path d="M5.67421 7.7549H4.62464C4.43673 7.7549 4.28089 7.59907 4.28089 7.41115C4.28089 7.22324 4.43673 7.0674 4.62464 7.0674H5.67421C5.87129 7.0674 6.0317 6.907 6.0317 6.70992C6.0317 6.51284 5.87129 6.35241 5.67421 6.35241H4.62464C4.51464 6.35241 4.40921 6.29741 4.34504 6.21033C4.28087 6.12324 4.26255 6.00408 4.29922 5.89866L4.64755 4.84909C4.69339 4.70701 4.82629 4.61534 4.97295 4.61534H6.37544C6.56336 4.61534 6.71919 4.77117 6.71919 4.95909C6.71919 5.14701 6.56336 5.30284 6.37544 5.30284H5.22047L5.1013 5.66491H5.67421C6.25171 5.66491 6.71919 6.13242 6.71919 6.70992C6.71919 7.28742 6.25171 7.7549 5.67421 7.7549Z" fill="#292D32"/>
</svg>
