<svg width="11" height="11" viewBox="0 0 11 11" fill="none" xmlns="http://www.w3.org/2000/svg">
<path d="M6.61374 7.7549H5.56417C5.37626 7.7549 5.22043 7.59907 5.22043 7.41115C5.22043 7.22324 5.37626 7.0674 5.56417 7.0674H6.61374C6.81083 7.0674 6.97126 6.907 6.97126 6.70992C6.97126 6.51284 6.81083 6.35241 6.61374 6.35241H5.56417C5.45417 6.35241 5.34876 6.29741 5.2846 6.21033C5.22043 6.12324 5.20208 6.00408 5.23875 5.89866L5.58708 4.84909C5.63292 4.70701 5.76584 4.61534 5.91251 4.61534H7.315C7.50292 4.61534 7.65875 4.77117 7.65875 4.95909C7.65875 5.14701 7.50292 5.30284 7.315 5.30284H6.16L6.04083 5.66491H6.61374C7.19124 5.66491 7.65875 6.13242 7.65875 6.70992C7.65875 7.28742 7.18666 7.7549 6.61374 7.7549Z" fill="#292D32"/>
<path d="M4.37247 7.7549C4.18456 7.7549 4.02872 7.59907 4.02872 7.41115V5.85743L3.94164 5.95825C3.81331 6.10033 3.59789 6.1095 3.45581 5.98575C3.31373 5.85742 3.30456 5.642 3.42831 5.49992L4.11581 4.73451C4.21206 4.6291 4.36331 4.59242 4.49623 4.64284C4.62915 4.69326 4.71622 4.8216 4.71622 4.96368V7.41574C4.71622 7.60366 4.56497 7.7549 4.37247 7.7549Z" fill="#292D32"/>
<path d="M6.40742 2.39244C6.30659 2.39244 6.20578 2.34662 6.14161 2.26412L5.2341 1.13203C5.11493 0.98536 5.13784 0.765367 5.28909 0.650784C5.43576 0.531618 5.6512 0.554532 5.77036 0.705781L6.67785 1.83787C6.79702 1.98454 6.7741 2.20453 6.62285 2.31912C6.55869 2.36495 6.48076 2.39244 6.40742 2.39244Z" fill="#292D32"/>
<path d="M5.49991 10.427C3.06617 10.427 1.08159 8.447 1.08159 6.00868C1.08159 3.57035 3.06159 1.59035 5.49991 1.59035C5.81616 1.59035 6.137 1.62703 6.48534 1.70953C6.66867 1.75077 6.78783 1.9387 6.742 2.12203C6.70075 2.30537 6.51282 2.42453 6.32949 2.3787C6.03616 2.30995 5.76116 2.27785 5.49991 2.27785C3.442 2.27785 1.76909 3.95077 1.76909 6.00868C1.76909 8.06658 3.442 9.7395 5.49991 9.7395C7.55782 9.7395 9.23074 8.06658 9.23074 6.00868C9.23074 5.21118 8.96948 4.44119 8.47448 3.78119C8.3599 3.62994 8.39199 3.41453 8.54324 3.29995C8.69449 3.18537 8.9099 3.21743 9.02448 3.36868C9.61115 4.14785 9.91823 5.05993 9.91823 6.00868C9.91823 8.447 7.93365 10.427 5.49991 10.427Z" fill="#292D32"/>
</svg>
