<svg width="11" height="11" viewBox="0 0 11 11" fill="none" xmlns="http://www.w3.org/2000/svg">
<path d="M4.12499 4.92709C3.42833 4.92709 2.86458 4.36334 2.86458 3.66668C2.86458 2.97001 3.42833 2.40627 4.12499 2.40627C4.82165 2.40627 5.3854 2.97001 5.3854 3.66668C5.3854 4.36334 4.82165 4.92709 4.12499 4.92709ZM4.12499 3.09376C3.80874 3.09376 3.55208 3.35043 3.55208 3.66668C3.55208 3.98293 3.80874 4.23959 4.12499 4.23959C4.44124 4.23959 4.6979 3.98293 4.6979 3.66668C4.6979 3.35043 4.44124 3.09376 4.12499 3.09376Z" fill="#292D32"/>
<path d="M6.87495 10.4271H4.12496C1.63622 10.4271 0.57289 9.36375 0.57289 6.87501V4.12502C0.57289 1.63628 1.63622 0.572955 4.12496 0.572955H5.95828C6.1462 0.572955 6.30203 0.728787 6.30203 0.916703C6.30203 1.10462 6.1462 1.26045 5.95828 1.26045H4.12496C2.01205 1.26045 1.26039 2.01212 1.26039 4.12502V6.87501C1.26039 8.98792 2.01205 9.73959 4.12496 9.73959H6.87495C8.98786 9.73959 9.73952 8.98792 9.73952 6.87501V4.58336C9.73952 4.39544 9.89535 4.23961 10.0833 4.23961C10.2712 4.23961 10.427 4.39544 10.427 4.58336V6.87501C10.427 9.36375 9.36369 10.4271 6.87495 10.4271Z" fill="#292D32"/>
<path d="M7.58992 3.52461C7.50283 3.52461 7.41575 3.49253 7.347 3.42378C7.21408 3.29087 7.21408 3.07087 7.347 2.93795L9.12991 1.15504C9.26283 1.02212 9.48282 1.02212 9.61574 1.15504C9.74866 1.28796 9.74866 1.50796 9.61574 1.64087L7.83283 3.42378C7.76408 3.49253 7.677 3.52461 7.58992 3.52461Z" fill="#292D32"/>
<path d="M9.36827 3.52461C9.28119 3.52461 9.1941 3.49253 9.12535 3.42378L7.34244 1.64087C7.20953 1.50796 7.20953 1.28796 7.34244 1.15504C7.47536 1.02212 7.69536 1.02212 7.82827 1.15504L9.61118 2.93795C9.7441 3.07087 9.7441 3.29087 9.61118 3.42378C9.54702 3.49253 9.45993 3.52461 9.36827 3.52461Z" fill="#292D32"/>
<path d="M1.22378 9.02921C1.11378 9.02921 1.00379 8.97421 0.939619 8.87796C0.834202 8.72212 0.875452 8.50671 1.03129 8.40129L3.29086 6.88422C3.78586 6.55422 4.46877 6.59088 4.91794 6.9713L5.06919 7.10421C5.29835 7.3013 5.68793 7.3013 5.91252 7.10421L7.81917 5.46797C8.305 5.05089 9.07042 5.05089 9.56083 5.46797L10.3079 6.10963C10.45 6.23338 10.4683 6.4488 10.3446 6.59547C10.2208 6.73755 10.0054 6.75588 9.85875 6.63213L9.11167 5.99047C8.8825 5.79339 8.49292 5.79339 8.26834 5.99047L6.36168 7.62671C5.87585 8.04379 5.11043 8.04379 4.62002 7.62671L4.46877 7.4938C4.25794 7.31505 3.90961 7.29671 3.67586 7.45713L1.42087 8.97421C1.3567 9.01087 1.28795 9.02921 1.22378 9.02921Z" fill="#292D32"/>
</svg>
