<svg width="11" height="11" viewBox="0 0 11 11" fill="none" xmlns="http://www.w3.org/2000/svg">
<path d="M4.12499 4.92709C3.42833 4.92709 2.86458 4.36334 2.86458 3.66668C2.86458 2.97001 3.42833 2.40627 4.12499 2.40627C4.82165 2.40627 5.3854 2.97001 5.3854 3.66668C5.3854 4.36334 4.82165 4.92709 4.12499 4.92709ZM4.12499 3.09376C3.80874 3.09376 3.55208 3.35043 3.55208 3.66668C3.55208 3.98293 3.80874 4.23959 4.12499 4.23959C4.44124 4.23959 4.6979 3.98293 4.6979 3.66668C4.6979 3.35043 4.44124 3.09376 4.12499 3.09376Z" fill="#292D32"/>
<path d="M6.87495 10.4271H4.12496C1.63622 10.4271 0.57289 9.36375 0.57289 6.87501V4.12502C0.57289 1.63628 1.63622 0.572955 4.12496 0.572955H5.95828C6.1462 0.572955 6.30203 0.728787 6.30203 0.916703C6.30203 1.10462 6.1462 1.26045 5.95828 1.26045H4.12496C2.01205 1.26045 1.26039 2.01212 1.26039 4.12502V6.87501C1.26039 8.98792 2.01205 9.73959 4.12496 9.73959H6.87495C8.98786 9.73959 9.73952 8.98792 9.73952 6.87501V4.58336C9.73952 4.39544 9.89535 4.23961 10.0833 4.23961C10.2712 4.23961 10.427 4.39544 10.427 4.58336V6.87501C10.427 9.36375 9.36369 10.4271 6.87495 10.4271Z" fill="#292D32"/>
<path d="M7.18207 4.4688C7.00332 4.4688 6.83832 4.40463 6.71915 4.28088C6.57707 4.1388 6.50832 3.92797 6.5404 3.71255L6.63207 3.07547C6.65499 2.91505 6.75124 2.71797 6.8704 2.60339L8.53415 0.939645C9.19873 0.275064 9.77622 0.655479 10.0604 0.939645C10.3308 1.21006 10.4546 1.49423 10.4271 1.78756C10.4041 2.02131 10.285 2.24589 10.0604 2.46589L8.39665 4.12963C8.28206 4.24422 8.08498 4.34046 7.92457 4.36796L7.28748 4.45963C7.25082 4.4688 7.21415 4.4688 7.18207 4.4688ZM9.01539 1.43006L7.35165 3.0938C7.3379 3.10755 7.31498 3.15797 7.3104 3.18089L7.22332 3.77672L7.82373 3.69422C7.84207 3.68963 7.89248 3.66672 7.91082 3.64838L9.57456 1.98464C9.67539 1.88381 9.73497 1.79214 9.73956 1.72339C9.74872 1.62714 9.65247 1.50798 9.57456 1.43006C9.33623 1.19173 9.22623 1.21923 9.01539 1.43006Z" fill="#292D32"/>
<path d="M9.57909 2.80957C9.54701 2.80957 9.51493 2.80499 9.48743 2.79582C8.87326 2.62166 8.38285 2.13124 8.20868 1.51708C8.15826 1.33374 8.26368 1.14583 8.44701 1.09541C8.63035 1.04499 8.81826 1.15041 8.86868 1.33374C8.97868 1.71874 9.28576 2.03041 9.67534 2.14041C9.85868 2.19082 9.96409 2.38332 9.91367 2.56207C9.86326 2.70874 9.72576 2.80957 9.57909 2.80957Z" fill="#292D32"/>
<path d="M1.22378 9.02921C1.11378 9.02921 1.00379 8.97421 0.939619 8.87796C0.834202 8.72212 0.875452 8.50671 1.03129 8.40129L3.29086 6.88422C3.78586 6.55422 4.46877 6.59088 4.91794 6.9713L5.06919 7.10421C5.29835 7.3013 5.68793 7.3013 5.91252 7.10421L7.81917 5.46797C8.305 5.05089 9.07042 5.05089 9.56083 5.46797L10.3079 6.10963C10.45 6.23338 10.4683 6.4488 10.3446 6.59547C10.2208 6.73755 10.0054 6.75588 9.85875 6.63213L9.11167 5.99047C8.8825 5.79339 8.49292 5.79339 8.26834 5.99047L6.36168 7.62671C5.87585 8.04379 5.11043 8.04379 4.62002 7.62671L4.46877 7.4938C4.25794 7.31505 3.90961 7.29671 3.67586 7.45713L1.42087 8.97421C1.3567 9.01087 1.28795 9.02921 1.22378 9.02921Z" fill="#292D32"/>
</svg>
