<svg width="11" height="11" viewBox="0 0 11 11" fill="none" xmlns="http://www.w3.org/2000/svg">
<path d="M1.54914 9.55625C1.45289 9.55625 1.35205 9.515 1.28789 9.4325C0.797472 8.85959 0.57289 8.04376 0.57289 6.87501V4.12502C0.57289 1.63628 1.63622 0.572955 4.12496 0.572955H6.87495C7.97036 0.572955 8.77244 0.779204 9.34077 1.20545C9.49202 1.32004 9.5241 1.53545 9.40952 1.6867C9.29494 1.83795 9.07952 1.87003 8.92827 1.75545C8.48369 1.42087 7.81453 1.26045 6.87495 1.26045H4.12496C2.01205 1.26045 1.26039 2.01212 1.26039 4.12502V6.87501C1.26039 7.86043 1.43914 8.55251 1.81038 8.9925C1.93413 9.13917 1.9158 9.35459 1.76913 9.47834C1.70497 9.52875 1.62705 9.55625 1.54914 9.55625Z" fill="#292D32"/>
<path d="M6.87499 10.4271H4.125C3.76292 10.4271 3.4375 10.4042 3.13959 10.363C2.95167 10.3355 2.82334 10.1613 2.85084 9.9734C2.87834 9.78548 3.05709 9.65715 3.24042 9.68465C3.50167 9.72132 3.79959 9.74423 4.125 9.74423H6.87499C8.9879 9.74423 9.73956 8.99257 9.73956 6.87966V4.12509C9.73956 3.97384 9.73498 3.82259 9.72581 3.68509C9.71206 3.49718 9.85873 3.33218 10.0466 3.31843C10.2437 3.30926 10.3996 3.45134 10.4133 3.63926C10.4225 3.79509 10.4271 3.95551 10.4271 4.12509V6.87508C10.4271 9.36382 9.36373 10.4271 6.87499 10.4271Z" fill="#292D32"/>
<path d="M3.66668 4.92709C2.97001 4.92709 2.40627 4.36334 2.40627 3.66668C2.40627 2.97001 2.97001 2.40627 3.66668 2.40627C4.36334 2.40627 4.92709 2.97001 4.92709 3.66668C4.92709 4.36334 4.36334 4.92709 3.66668 4.92709ZM3.66668 3.09376C3.35043 3.09376 3.09376 3.35043 3.09376 3.66668C3.09376 3.98293 3.35043 4.23959 3.66668 4.23959C3.98293 4.23959 4.23959 3.98293 4.23959 3.66668C4.23959 3.35043 3.98293 3.09376 3.66668 3.09376Z" fill="#292D32"/>
<path d="M0.916664 10.427C0.829581 10.427 0.742498 10.395 0.673748 10.3262C0.540832 10.1933 0.540832 9.97329 0.673748 9.84038L9.84038 0.673748C9.97329 0.540832 10.1933 0.540832 10.3262 0.673748C10.4591 0.806665 10.4591 1.02666 10.3262 1.15958L1.15958 10.3262C1.09083 10.395 1.00375 10.427 0.916664 10.427Z" fill="#292D32"/>
<path d="M5.49078 7.98875C5.31203 7.98875 5.13328 7.92 5.00037 7.78709C4.86745 7.65417 4.86745 7.43417 5.00037 7.30125C5.13328 7.16834 5.35328 7.16834 5.4862 7.30125C5.49078 7.30584 5.49536 7.30584 5.49995 7.30125L7.80536 4.99126C8.28202 4.5146 9.1116 4.5146 9.58368 4.99126L10.3308 5.73834C10.4637 5.87126 10.4637 6.09126 10.3308 6.22418C10.1978 6.35709 9.97785 6.35709 9.84493 6.22418L9.09785 5.47709C8.88243 5.26168 8.5066 5.26168 8.29119 5.47709L5.98578 7.78709C5.84828 7.92 5.66953 7.98875 5.49078 7.98875Z" fill="#292D32"/>
</svg>
