<svg width="11" height="11" viewBox="0 0 11 11" fill="none" xmlns="http://www.w3.org/2000/svg">
<path d="M4.12499 4.92709C3.42833 4.92709 2.86458 4.36334 2.86458 3.66668C2.86458 2.97001 3.42833 2.40627 4.12499 2.40627C4.82165 2.40627 5.3854 2.97001 5.3854 3.66668C5.3854 4.36334 4.82165 4.92709 4.12499 4.92709ZM4.12499 3.09376C3.80874 3.09376 3.55208 3.35043 3.55208 3.66668C3.55208 3.98293 3.80874 4.23959 4.12499 4.23959C4.44124 4.23959 4.6979 3.98293 4.6979 3.66668C4.6979 3.35043 4.44124 3.09376 4.12499 3.09376Z" fill="#292D32"/>
<path d="M6.87495 10.4271H4.12496C1.63622 10.4271 0.57289 9.36375 0.57289 6.87501V4.12502C0.57289 1.63628 1.63622 0.572955 4.12496 0.572955H5.95828C6.1462 0.572955 6.30203 0.728787 6.30203 0.916703C6.30203 1.10462 6.1462 1.26045 5.95828 1.26045H4.12496C2.01205 1.26045 1.26039 2.01212 1.26039 4.12502V6.87501C1.26039 8.98792 2.01205 9.73959 4.12496 9.73959H6.87495C8.98786 9.73959 9.73952 8.98792 9.73952 6.87501V4.58336C9.73952 4.39544 9.89535 4.23961 10.0833 4.23961C10.2712 4.23961 10.427 4.39544 10.427 4.58336V6.87501C10.427 9.36375 9.36369 10.4271 6.87495 10.4271Z" fill="#292D32"/>
<path d="M8.25001 4.01044C8.20418 4.01044 8.16293 4.00127 8.1171 3.98294C7.98877 3.93252 7.90627 3.80419 7.90627 3.66669V0.916703C7.90627 0.728787 8.0621 0.572955 8.25001 0.572955C8.43793 0.572955 8.59376 0.728787 8.59376 0.916703V2.83711L8.92376 2.50711C9.05668 2.3742 9.27668 2.3742 9.40959 2.50711C9.54251 2.64003 9.54251 2.86003 9.40959 2.99295L8.49293 3.90961C8.42876 3.97377 8.34168 4.01044 8.25001 4.01044Z" fill="#292D32"/>
<path d="M8.24995 4.01045C8.16287 4.01045 8.07578 3.97837 8.00703 3.90962L7.09037 2.99296C6.95746 2.86004 6.95746 2.64004 7.09037 2.50713C7.22329 2.37421 7.44329 2.37421 7.5762 2.50713L8.49287 3.42379C8.62578 3.5567 8.62578 3.7767 8.49287 3.90962C8.42412 3.97837 8.33703 4.01045 8.24995 4.01045Z" fill="#292D32"/>
<path d="M1.22381 9.02921C1.11381 9.02921 1.00381 8.97421 0.93964 8.87796C0.834224 8.72212 0.875474 8.50671 1.03589 8.40129L3.29546 6.88422C3.79046 6.54963 4.47338 6.59088 4.92254 6.9713L5.07379 7.10421C5.30296 7.3013 5.69254 7.3013 5.91712 7.10421L7.82378 5.46797C8.30961 5.05089 9.07502 5.05089 9.56544 5.46797L10.3125 6.10963C10.4546 6.23338 10.4729 6.4488 10.3492 6.59547C10.2254 6.73755 10.01 6.75588 9.86335 6.63213L9.11627 5.99047C8.88711 5.79339 8.49753 5.79339 8.26836 5.99047L6.3617 7.62671C5.87587 8.04379 5.11046 8.04379 4.62004 7.62671L4.46879 7.4938C4.25796 7.31505 3.90963 7.29671 3.67588 7.45713L1.4163 8.97421C1.35672 9.01087 1.28797 9.02921 1.22381 9.02921Z" fill="#292D32"/>
</svg>
