<svg width="11" height="11" viewBox="0 0 11 11" fill="none" xmlns="http://www.w3.org/2000/svg">
<path d="M4.12499 4.92709C3.42833 4.92709 2.86458 4.36334 2.86458 3.66668C2.86458 2.97001 3.42833 2.40627 4.12499 2.40627C4.82165 2.40627 5.3854 2.97001 5.3854 3.66668C5.3854 4.36334 4.82165 4.92709 4.12499 4.92709ZM4.12499 3.09376C3.80874 3.09376 3.55208 3.35043 3.55208 3.66668C3.55208 3.98293 3.80874 4.23959 4.12499 4.23959C4.44124 4.23959 4.6979 3.98293 4.6979 3.66668C4.6979 3.35043 4.44124 3.09376 4.12499 3.09376Z" fill="#292D32"/>
<path d="M6.87495 10.4271H4.12496C1.63622 10.4271 0.57289 9.36375 0.57289 6.87501V4.12502C0.57289 1.63628 1.63622 0.572955 4.12496 0.572955H5.95828C6.1462 0.572955 6.30203 0.728787 6.30203 0.916703C6.30203 1.10462 6.1462 1.26045 5.95828 1.26045H4.12496C2.01205 1.26045 1.26039 2.01212 1.26039 4.12502V6.87501C1.26039 8.98792 2.01205 9.73959 4.12496 9.73959H6.87495C8.98786 9.73959 9.73952 8.98792 9.73952 6.87501V4.58336C9.73952 4.39544 9.89535 4.23961 10.0833 4.23961C10.2712 4.23961 10.427 4.39544 10.427 4.58336V6.87501C10.427 9.36375 9.36369 10.4271 6.87495 10.4271Z" fill="#292D32"/>
<path d="M8.25001 4.0104C8.0621 4.0104 7.90627 3.85456 7.90627 3.66665V0.916659C7.90627 0.77916 7.98877 0.650827 8.1171 0.60041C8.24543 0.549994 8.3921 0.577494 8.49293 0.673743L9.40959 1.59041C9.54251 1.72332 9.54251 1.94332 9.40959 2.07624C9.27668 2.20915 9.05668 2.20915 8.92376 2.07624L8.59376 1.74624V3.66665C8.59376 3.85456 8.43793 4.0104 8.25001 4.0104Z" fill="#292D32"/>
<path d="M7.33329 2.17708C7.2462 2.17708 7.15912 2.14499 7.09037 2.07624C6.95746 1.94333 6.95746 1.72333 7.09037 1.59041L8.00703 0.673748C8.13995 0.540832 8.35995 0.540832 8.49287 0.673748C8.62578 0.806665 8.62578 1.02666 8.49287 1.15958L7.5762 2.07624C7.50745 2.14499 7.42037 2.17708 7.33329 2.17708Z" fill="#292D32"/>
<path d="M1.22378 9.02921C1.11378 9.02921 1.00379 8.97421 0.939619 8.87796C0.834202 8.72212 0.875452 8.50671 1.03129 8.40129L3.29086 6.88422C3.78586 6.55422 4.46877 6.59088 4.91794 6.9713L5.06919 7.10421C5.29835 7.3013 5.68793 7.3013 5.91252 7.10421L7.81917 5.46797C8.305 5.05089 9.07042 5.05089 9.56083 5.46797L10.3079 6.10963C10.45 6.23338 10.4683 6.4488 10.3446 6.59547C10.2208 6.73755 10.0008 6.75588 9.85875 6.63213L9.11167 5.99047C8.8825 5.79339 8.49751 5.79339 8.26834 5.99047L6.36168 7.62671C5.87585 8.04379 5.11043 8.04379 4.62002 7.62671L4.46877 7.4938C4.25794 7.31505 3.90961 7.29671 3.67586 7.45713L1.42087 8.97421C1.3567 9.01087 1.28795 9.02921 1.22378 9.02921Z" fill="#292D32"/>
</svg>
