<svg width="11" height="11" viewBox="0 0 11 11" fill="none" xmlns="http://www.w3.org/2000/svg">
<path d="M4.12499 4.92709C3.42833 4.92709 2.86458 4.36334 2.86458 3.66668C2.86458 2.97001 3.42833 2.40627 4.12499 2.40627C4.82165 2.40627 5.3854 2.97001 5.3854 3.66668C5.3854 4.36334 4.82165 4.92709 4.12499 4.92709ZM4.12499 3.09376C3.80874 3.09376 3.55208 3.35043 3.55208 3.66668C3.55208 3.98293 3.80874 4.23959 4.12499 4.23959C4.44124 4.23959 4.6979 3.98293 4.6979 3.66668C4.6979 3.35043 4.44124 3.09376 4.12499 3.09376Z" fill="#292D32"/>
<path d="M6.87495 10.4271H4.12496C1.63622 10.4271 0.57289 9.36375 0.57289 6.87501V4.12502C0.57289 1.63628 1.63622 0.572955 4.12496 0.572955H5.49995C5.68787 0.572955 5.8437 0.728787 5.8437 0.916703C5.8437 1.10462 5.68787 1.26045 5.49995 1.26045H4.12496C2.01205 1.26045 1.26039 2.01212 1.26039 4.12502V6.87501C1.26039 8.98792 2.01205 9.73959 4.12496 9.73959H6.87495C8.98786 9.73959 9.73952 8.98792 9.73952 6.87501V5.04169C9.73952 4.85377 9.89535 4.69794 10.0833 4.69794C10.2712 4.69794 10.427 4.85377 10.427 5.04169V6.87501C10.427 9.36375 9.36369 10.4271 6.87495 10.4271Z" fill="#292D32"/>
<path d="M8.6808 3.8317C8.28205 3.8317 7.34706 3.34129 7.05831 2.44754C6.86123 1.82879 7.09039 1.01755 7.80539 0.788382C8.10789 0.692133 8.42414 0.733383 8.67622 0.889215C8.92372 0.733383 9.24913 0.68755 9.55622 0.788382C10.2712 1.01755 10.5004 1.82879 10.3033 2.44754C10.0145 3.35962 9.03372 3.8317 8.6808 3.8317ZM7.71372 2.23671C7.91081 2.84629 8.5708 3.13046 8.68997 3.14421C8.82288 3.13046 9.46913 2.80962 9.64788 2.23671C9.74413 1.92963 9.64788 1.54005 9.34538 1.43921C9.21705 1.39796 9.04747 1.42088 8.96955 1.54005C8.90538 1.6363 8.79997 1.69588 8.68997 1.69588C8.58455 1.69588 8.46997 1.64546 8.4058 1.5538C8.30955 1.42088 8.13997 1.40255 8.02081 1.43921C7.71372 1.54005 7.61747 1.92963 7.71372 2.23671Z" fill="#292D32"/>
<path d="M1.22368 9.02921C1.11368 9.02921 1.00368 8.97421 0.93951 8.87796C0.834094 8.72212 0.875344 8.50671 1.03576 8.40129L3.29533 6.88422C3.79033 6.54963 4.47325 6.59088 4.92241 6.9713L5.07366 7.10421C5.30283 7.3013 5.69241 7.3013 5.91699 7.10421L7.82365 5.46797C8.30948 5.05089 9.07489 5.05089 9.56531 5.46797L10.3124 6.10963C10.4545 6.23338 10.4728 6.4488 10.3491 6.59547C10.2253 6.73755 10.0099 6.75588 9.86322 6.63213L9.11614 5.99047C8.88698 5.79339 8.4974 5.79339 8.26823 5.99047L6.36157 7.62671C5.87574 8.04379 5.11033 8.04379 4.61991 7.62671L4.46866 7.4938C4.25783 7.31505 3.9095 7.29671 3.67575 7.45713L1.41617 8.97421C1.35659 9.01087 1.28784 9.02921 1.22368 9.02921Z" fill="#292D32"/>
</svg>
