<svg width="11" height="11" viewBox="0 0 11 11" fill="none" xmlns="http://www.w3.org/2000/svg">
<path d="M8.415 10.4271H2.56211C1.86545 10.4271 1.22836 10.0742 0.8617 9.47832C0.495034 8.88249 0.462951 8.15833 0.774617 7.53041L1.56295 5.94917C1.81961 5.43584 2.23211 5.11501 2.69503 5.06459C3.15794 5.01417 3.63002 5.24334 3.98752 5.68792L4.08835 5.81625C4.29002 6.06375 4.52377 6.19667 4.75293 6.17375C4.9821 6.15542 5.19293 5.99042 5.34877 5.71084L6.21501 4.14793C6.57251 3.50168 7.04917 3.1671 7.56709 3.19001C8.08042 3.21751 8.52042 3.60251 8.81375 4.28084L10.2483 7.63125C10.5142 8.24999 10.45 8.95582 10.0787 9.51957C9.71208 10.0925 9.08875 10.4271 8.415 10.4271ZM2.82336 5.75209C2.80503 5.75209 2.78669 5.75209 2.76836 5.75667C2.53919 5.77959 2.32836 5.96292 2.17711 6.26084L1.38878 7.84208C1.18253 8.24999 1.20545 8.73124 1.44378 9.12082C1.68211 9.51041 2.10378 9.74415 2.56211 9.74415H8.41042C8.85958 9.74415 9.25833 9.52874 9.50583 9.15291C9.75333 8.77708 9.79458 8.32791 9.61583 7.91541L8.18125 4.56501C8.00709 4.15251 7.76417 3.90043 7.53042 3.89126C7.31501 3.87751 7.03542 4.10668 6.81543 4.49626L5.94918 6.05917C5.68335 6.53583 5.26627 6.83375 4.81252 6.875C4.35877 6.91167 3.89585 6.69167 3.55211 6.26084L3.45127 6.1325C3.25877 5.88042 3.03877 5.75209 2.82336 5.75209Z" fill="#292D32"/>
<path d="M3.19458 4.01044C2.25042 4.01044 1.47584 3.24044 1.47584 2.2917C1.47584 1.34295 2.24584 0.572955 3.19458 0.572955C4.14333 0.572955 4.91333 1.34295 4.91333 2.2917C4.91333 3.24044 4.14333 4.01044 3.19458 4.01044ZM3.19458 1.26045C2.62625 1.26045 2.16334 1.72337 2.16334 2.2917C2.16334 2.86003 2.62625 3.32294 3.19458 3.32294C3.76292 3.32294 4.22583 2.86003 4.22583 2.2917C4.22583 1.72337 3.76292 1.26045 3.19458 1.26045Z" fill="#292D32"/>
</svg>
