<svg width="11" height="11" viewBox="0 0 11 11" fill="none" xmlns="http://www.w3.org/2000/svg">
<path d="M9.6249 3.55209C9.43698 3.55209 9.28115 3.39626 9.28115 3.20834V1.71876H7.79157C7.60366 1.71876 7.44782 1.56293 7.44782 1.37501C7.44782 1.1871 7.60366 1.03127 7.79157 1.03127H9.6249C9.81281 1.03127 9.96865 1.1871 9.96865 1.37501V3.20834C9.96865 3.39626 9.81281 3.55209 9.6249 3.55209Z" fill="#292D32"/>
<path d="M6.87499 4.46873C6.78791 4.46873 6.70081 4.43666 6.63206 4.36791C6.49914 4.23499 6.49914 4.01497 6.63206 3.88205L9.38205 1.13206C9.51497 0.999144 9.73499 0.999144 9.86791 1.13206C10.0008 1.26498 10.0008 1.485 9.86791 1.61792L7.11792 4.36791C7.04917 4.43666 6.96207 4.46873 6.87499 4.46873Z" fill="#292D32"/>
<path d="M3.20828 9.96871H1.37495C1.18703 9.96871 1.0312 9.81288 1.0312 9.62496V7.79164C1.0312 7.60372 1.18703 7.44789 1.37495 7.44789C1.56287 7.44789 1.7187 7.60372 1.7187 7.79164V9.28122H3.20828C3.39619 9.28122 3.55202 9.43705 3.55202 9.62496C3.55202 9.81288 3.39619 9.96871 3.20828 9.96871Z" fill="#292D32"/>
<path d="M1.37499 9.96873C1.28791 9.96873 1.20081 9.93666 1.13206 9.86791C0.999144 9.73499 0.999144 9.51497 1.13206 9.38205L3.88205 6.63206C4.01497 6.49914 4.23499 6.49914 4.36791 6.63206C4.50082 6.76498 4.50082 6.985 4.36791 7.11792L1.61792 9.86791C1.54917 9.93666 1.46207 9.96873 1.37499 9.96873Z" fill="#292D32"/>
<path d="M1.00831 6.76036C0.847894 6.76036 0.705792 6.64579 0.673709 6.48538C0.609543 6.16455 0.57289 5.82995 0.57289 5.49995C0.57289 2.78205 2.78205 0.57289 5.49995 0.57289C5.83453 0.57289 6.16911 0.604959 6.49452 0.673709C6.68244 0.710376 6.80162 0.89371 6.76495 1.07704C6.72829 1.26496 6.54037 1.37955 6.36162 1.34747C6.08204 1.29247 5.79329 1.26039 5.50454 1.26039C3.16705 1.26039 1.26497 3.16246 1.26497 5.49995C1.26497 5.78412 1.29248 6.07286 1.35206 6.34786C1.38873 6.53577 1.26955 6.71452 1.08163 6.75119C1.05413 6.76036 1.03123 6.76036 1.00831 6.76036Z" fill="#292D32"/>
<path d="M5.49993 10.427C5.16535 10.427 4.83078 10.395 4.50536 10.3262C4.31745 10.2896 4.19827 10.1062 4.23493 9.92288C4.2716 9.73497 4.45952 9.62037 4.63827 9.65246C4.91785 9.70746 5.2066 9.73954 5.49535 9.73954C7.83284 9.73954 9.73491 7.83746 9.73491 5.49997C9.73491 5.21581 9.70742 4.93165 9.65242 4.65207C9.61575 4.46416 9.73493 4.2854 9.92284 4.24874C10.1062 4.21207 10.2895 4.33122 10.3262 4.51914C10.3903 4.83997 10.4224 5.16997 10.4224 5.49997C10.427 8.21788 8.21784 10.427 5.49993 10.427Z" fill="#292D32"/>
</svg>
