<svg width="11" height="11" viewBox="0 0 11 11" fill="none" xmlns="http://www.w3.org/2000/svg">
<path d="M3.66664 5.38537C3.47872 5.38537 3.32289 5.22954 3.32289 5.04162V2.74996C3.32289 1.54914 4.29914 0.57289 5.49996 0.57289C6.70079 0.57289 7.67704 1.54914 7.67704 2.74996V2.88746C7.67704 3.07538 7.52121 3.23121 7.33329 3.23121C7.14537 3.23121 6.98954 3.07538 6.98954 2.88746V2.74996C6.98954 1.92955 6.32038 1.26039 5.49996 1.26039C4.67955 1.26039 4.01039 1.92955 4.01039 2.74996V5.04162C4.01039 5.22954 3.85455 5.38537 3.66664 5.38537Z" fill="#292D32"/>
<path d="M5.50003 7.44781C4.88586 7.44781 4.2992 7.18656 3.8867 6.73282C3.75837 6.59073 3.77212 6.37532 3.90962 6.24698C4.0517 6.11865 4.26711 6.1324 4.39545 6.2699C4.67503 6.58157 5.07836 6.76032 5.50003 6.76032C6.32044 6.76032 6.9896 6.09115 6.9896 5.27074V5.04157C6.9896 4.85366 7.14544 4.69782 7.33335 4.69782C7.52127 4.69782 7.6771 4.85366 7.6771 5.04157V5.27074C7.6771 6.47157 6.70085 7.44781 5.50003 7.44781Z" fill="#292D32"/>
<path d="M5.49994 9.052C4.5237 9.052 3.5887 8.68534 2.8737 8.02075C2.7362 7.89242 2.72704 7.67242 2.85537 7.53492C2.98829 7.39284 3.20828 7.38826 3.34578 7.51659C3.93245 8.062 4.69786 8.3645 5.49994 8.3645C7.2416 8.3645 8.66243 6.94368 8.66243 5.20202V4.42285C8.66243 4.23494 8.81826 4.0791 9.00618 4.0791C9.19409 4.0791 9.34993 4.23494 9.34993 4.42285V5.20202C9.34993 7.32409 7.62202 9.052 5.49994 9.052Z" fill="#292D32"/>
<path d="M2.26867 6.91159C2.13575 6.91159 2.00742 6.83368 1.95242 6.70076C1.75075 6.2241 1.64992 5.72451 1.64992 5.20202V4.42285C1.64992 4.23494 1.80575 4.0791 1.99367 4.0791C2.18159 4.0791 2.33742 4.23494 2.33742 4.42285V5.20202C2.33742 5.62826 2.41992 6.04076 2.58492 6.43034C2.65825 6.60451 2.57575 6.80618 2.40159 6.87951C2.36034 6.90243 2.3145 6.91159 2.26867 6.91159Z" fill="#292D32"/>
<path d="M1.79657 9.04741C1.70949 9.04741 1.6224 9.01533 1.55365 8.94658C1.42074 8.81366 1.42074 8.59366 1.55365 8.46074L8.95571 1.05869C9.08862 0.925775 9.30862 0.925775 9.44154 1.05869C9.57446 1.19161 9.57446 1.41161 9.44154 1.54452L2.04407 8.94658C1.97532 9.01533 1.88824 9.04741 1.79657 9.04741Z" fill="#292D32"/>
<path d="M5.04157 3.09369C4.85366 3.09369 4.69782 2.93786 4.69782 2.74994V1.37495C4.69782 1.18703 4.85366 1.0312 5.04157 1.0312C5.22949 1.0312 5.38532 1.18703 5.38532 1.37495V2.74994C5.38532 2.93786 5.22949 3.09369 5.04157 3.09369Z" fill="#292D32"/>
<path d="M5.50001 10.427C5.3121 10.427 5.15627 10.2712 5.15627 10.0833V8.70826C5.15627 8.52035 5.3121 8.36451 5.50001 8.36451C5.68793 8.36451 5.84376 8.52035 5.84376 8.70826V10.0833C5.84376 10.2712 5.68793 10.427 5.50001 10.427Z" fill="#292D32"/>
</svg>
