<svg width="11" height="11" viewBox="0 0 11 11" fill="none" xmlns="http://www.w3.org/2000/svg">
<path d="M5.49996 7.44786C4.29914 7.44786 3.32289 6.47162 3.32289 5.27079V2.74996C3.32289 1.54914 4.29914 0.57289 5.49996 0.57289C6.70079 0.57289 7.67704 1.54914 7.67704 2.74996V5.27079C7.67704 6.47162 6.70079 7.44786 5.49996 7.44786ZM5.49996 1.26039C4.67955 1.26039 4.01039 1.92955 4.01039 2.74996V5.27079C4.01039 6.0912 4.67955 6.76036 5.49996 6.76036C6.32038 6.76036 6.98954 6.0912 6.98954 5.27079V2.74996C6.98954 1.92955 6.32038 1.26039 5.49996 1.26039Z" fill="#292D32"/>
<path d="M5.50004 9.052C3.37796 9.052 1.65005 7.32409 1.65005 5.20202V4.42285C1.65005 4.23494 1.80588 4.0791 1.9938 4.0791C2.18172 4.0791 2.33755 4.23494 2.33755 4.42285V5.20202C2.33755 6.94368 3.75838 8.3645 5.50004 8.3645C7.2417 8.3645 8.66252 6.94368 8.66252 5.20202V4.42285C8.66252 4.23494 8.81836 4.0791 9.00627 4.0791C9.19419 4.0791 9.35002 4.23494 9.35002 4.42285V5.20202C9.35002 7.32409 7.62211 9.052 5.50004 9.052Z" fill="#292D32"/>
<path d="M6.13712 3.29072C6.10045 3.29072 6.0592 3.28614 6.01795 3.27239C5.68337 3.14864 5.3167 3.14864 4.98212 3.27239C4.80337 3.33656 4.60629 3.24489 4.54212 3.06614C4.47796 2.88739 4.56962 2.69031 4.74837 2.62614C5.2342 2.45198 5.77045 2.45198 6.25628 2.62614C6.43503 2.69031 6.5267 2.88739 6.46253 3.06614C6.40753 3.20364 6.27462 3.29072 6.13712 3.29072Z" fill="#292D32"/>
<path d="M5.86665 4.26241C5.83457 4.26241 5.80707 4.25783 5.77498 4.24866C5.59165 4.19824 5.40374 4.19824 5.2204 4.24866C5.03707 4.29907 4.84915 4.18908 4.79874 4.00574C4.74832 3.82699 4.85832 3.63908 5.04165 3.58866C5.33957 3.50616 5.6604 3.50616 5.95832 3.58866C6.14165 3.63908 6.25165 3.82699 6.20123 4.01033C6.15998 4.16158 6.0179 4.26241 5.86665 4.26241Z" fill="#292D32"/>
<path d="M5.50001 10.427C5.3121 10.427 5.15627 10.2712 5.15627 10.0833V8.70826C5.15627 8.52035 5.3121 8.36451 5.50001 8.36451C5.68793 8.36451 5.84376 8.52035 5.84376 8.70826V10.0833C5.84376 10.2712 5.68793 10.427 5.50001 10.427Z" fill="#292D32"/>
</svg>
