<svg width="11" height="11" viewBox="0 0 11 11" fill="none" xmlns="http://www.w3.org/2000/svg">
<path d="M5.5 9.05202C3.79501 9.05202 2.40627 7.66328 2.40627 5.95828V3.66663C2.40627 1.96163 3.79501 0.57289 5.5 0.57289C7.205 0.57289 8.59374 1.96163 8.59374 3.66663V5.95828C8.59374 7.66328 7.205 9.05202 5.5 9.05202ZM5.5 1.26039C4.17543 1.26039 3.09376 2.33747 3.09376 3.66663V5.95828C3.09376 7.28745 4.17543 8.36452 5.5 8.36452C6.82458 8.36452 7.90624 7.28745 7.90624 5.95828V3.66663C7.90624 2.33747 6.82458 1.26039 5.5 1.26039Z" fill="#292D32"/>
<path d="M5.49993 10.427C3.03411 10.427 1.0312 8.42406 1.0312 5.95824V5.04157C1.0312 4.85366 1.18703 4.69782 1.37495 4.69782C1.56287 4.69782 1.7187 4.85366 1.7187 5.04157V5.95824C1.7187 8.04364 3.41452 9.73947 5.49993 9.73947C7.58534 9.73947 9.28117 8.04364 9.28117 5.95824V5.04157C9.28117 4.85366 9.437 4.69782 9.62492 4.69782C9.81283 4.69782 9.96867 4.85366 9.96867 5.04157V5.95824C9.96867 8.42406 7.96576 10.427 5.49993 10.427Z" fill="#292D32"/>
<path d="M6.69618 3.772C6.65951 3.772 6.61826 3.76741 6.57701 3.75366C5.8391 3.48783 5.02785 3.48783 4.28994 3.75366C4.11577 3.81783 3.91869 3.72616 3.85452 3.54741C3.79036 3.36866 3.88202 3.17158 4.06077 3.10742C4.94994 2.78658 5.92618 2.78658 6.81535 3.10742C6.99409 3.17158 7.08576 3.36866 7.02159 3.54741C6.97118 3.6895 6.83826 3.772 6.69618 3.772Z" fill="#292D32"/>
<path d="M6.2792 5.14699C6.2517 5.14699 6.21961 5.14241 6.18753 5.13324C5.69712 5.00033 5.1792 5.00033 4.68879 5.13324C4.50087 5.18366 4.31754 5.07366 4.26712 4.89033C4.21671 4.70699 4.32671 4.51908 4.51004 4.46866C5.11962 4.30366 5.76128 4.30366 6.37086 4.46866C6.5542 4.51908 6.6642 4.70699 6.61378 4.89033C6.56795 5.05074 6.43045 5.14699 6.2792 5.14699Z" fill="#292D32"/>
</svg>
