<svg width="11" height="11" viewBox="0 0 11 11" fill="none" xmlns="http://www.w3.org/2000/svg">
<path d="M3.3871 8.06203C3.29085 8.06203 3.19001 8.02078 3.12126 7.93828C2.65835 7.3837 2.40627 6.68245 2.40627 5.95828V3.66663C2.40627 1.96163 3.79501 0.57289 5.5 0.57289C6.92083 0.57289 8.15374 1.53539 8.50207 2.91038C8.54791 3.09371 8.43791 3.28163 8.25458 3.32746C8.07583 3.3733 7.88333 3.2633 7.83749 3.07996C7.5625 2.00747 6.60458 1.26039 5.5 1.26039C4.17543 1.26039 3.09376 2.33747 3.09376 3.66663V5.95828C3.09376 6.52203 3.29085 7.06745 3.64834 7.49828C3.77209 7.64494 3.74918 7.86036 3.60251 7.98411C3.54293 8.03453 3.46501 8.06203 3.3871 8.06203Z" fill="#292D32"/>
<path d="M5.49997 9.05198C5.12872 9.05198 4.76664 8.98781 4.42747 8.85948C4.24872 8.79532 4.15705 8.59365 4.2258 8.41948C4.28997 8.24073 4.49164 8.14907 4.6658 8.21782C4.93164 8.31865 5.2158 8.36907 5.49997 8.36907C6.82454 8.36907 7.90621 7.29199 7.90621 5.96283V4.57408C7.90621 4.38617 8.06204 4.23033 8.24995 4.23033C8.43787 4.23033 8.5937 4.38617 8.5937 4.57408V5.95824C8.5937 7.66324 7.20496 9.05198 5.49997 9.05198Z" fill="#292D32"/>
<path d="M5.50001 10.427C4.36335 10.427 3.28169 10.0007 2.45211 9.22617C2.31461 9.09783 2.30544 8.87783 2.43378 8.74033C2.56211 8.60283 2.78211 8.59367 2.91961 8.722C3.62085 9.37742 4.53752 9.73491 5.49543 9.73491C7.58084 9.73491 9.27666 8.03909 9.27666 5.95368V5.03702C9.27666 4.8491 9.4325 4.69327 9.62041 4.69327C9.80833 4.69327 9.96416 4.8491 9.96416 5.03702V5.95368C9.96875 8.42409 7.96584 10.427 5.50001 10.427Z" fill="#292D32"/>
<path d="M1.14582 10.4225C1.05874 10.4225 0.971654 10.3904 0.902904 10.3216C0.769988 10.1887 0.769988 9.96872 0.902904 9.8358L9.6112 1.1275C9.74412 0.994587 9.96412 0.994587 10.097 1.1275C10.23 1.26042 10.23 1.48042 10.097 1.61333L1.38874 10.3216C1.31999 10.3904 1.2329 10.4225 1.14582 10.4225Z" fill="#292D32"/>
<path d="M5.29377 2.86452C5.10586 2.86452 4.95003 2.70868 4.95003 2.52077V1.03577C4.95003 0.847857 5.10586 0.692025 5.29377 0.692025C5.48169 0.692025 5.63752 0.847857 5.63752 1.03577V2.52077C5.63752 2.71327 5.48169 2.86452 5.29377 2.86452Z" fill="#292D32"/>
<path d="M3.89579 3.78118C3.70788 3.78118 3.55205 3.62535 3.55205 3.43743V1.60411C3.55205 1.41619 3.70788 1.26036 3.89579 1.26036C4.08371 1.26036 4.23954 1.41619 4.23954 1.60411V3.43743C4.23954 3.62535 4.08371 3.78118 3.89579 3.78118Z" fill="#292D32"/>
</svg>
