<svg width="11" height="11" viewBox="0 0 11 11" fill="none" xmlns="http://www.w3.org/2000/svg">
<path d="M5.04162 10.4271H4.12496C1.63622 10.4271 0.57289 9.36375 0.57289 6.87501V4.12502C0.57289 1.63628 1.63622 0.572955 4.12496 0.572955H6.87495C9.36369 0.572955 10.427 1.63628 10.427 4.12502V4.58336C10.427 4.77127 10.2712 4.9271 10.0833 4.9271C9.89535 4.9271 9.73952 4.77127 9.73952 4.58336V4.12502C9.73952 2.01212 8.98786 1.26045 6.87495 1.26045H4.12496C2.01205 1.26045 1.26039 2.01212 1.26039 4.12502V6.87501C1.26039 8.98792 2.01205 9.73959 4.12496 9.73959H5.04162C5.22954 9.73959 5.38537 9.89542 5.38537 10.0833C5.38537 10.2712 5.22954 10.4271 5.04162 10.4271Z" fill="#292D32"/>
<path d="M6.99877 10.4271C6.44419 10.4271 5.99503 9.97798 5.99503 9.4234C5.99503 8.86882 6.44419 8.41965 6.99877 8.41965C7.55336 8.41965 8.00252 8.86882 8.00252 9.4234C8.00252 9.97798 7.55336 10.4271 6.99877 10.4271ZM6.99877 9.10256C6.82461 9.10256 6.68253 9.24465 6.68253 9.41881C6.68253 9.59298 6.82461 9.73506 6.99877 9.73506C7.17294 9.73506 7.31502 9.59298 7.31502 9.41881C7.31502 9.24465 7.17294 9.10256 6.99877 9.10256Z" fill="#292D32"/>
<path d="M7.65877 9.76706C7.47085 9.76706 7.31502 9.61123 7.31502 9.42331V6.75582C7.31502 6.33874 7.57168 5.99957 7.97502 5.89415L9.29959 5.53208C9.71209 5.4175 9.96876 5.52749 10.1154 5.63749C10.2575 5.74749 10.4271 5.9675 10.4271 6.39375V8.97874C10.4271 9.16666 10.2713 9.32249 10.0833 9.32249C9.89542 9.32249 9.73959 9.16666 9.73959 8.97874V6.39375C9.73959 6.24708 9.70751 6.19207 9.69376 6.18291C9.68001 6.17374 9.61584 6.15541 9.47376 6.19208L8.14918 6.55415C8.01168 6.59082 7.99793 6.68707 7.99793 6.75582V9.42331C8.00252 9.61123 7.84668 9.76706 7.65877 9.76706Z" fill="#292D32"/>
<path d="M9.4234 9.98706C8.86882 9.98706 8.41965 9.5379 8.41965 8.98332C8.41965 8.42874 8.86882 7.97957 9.4234 7.97957C9.97798 7.97957 10.4271 8.42874 10.4271 8.98332C10.4271 9.5379 9.97798 9.98706 9.4234 9.98706ZM9.4234 8.66251C9.24923 8.66251 9.10715 8.80459 9.10715 8.97876C9.10715 9.15292 9.24923 9.29501 9.4234 9.29501C9.59756 9.29501 9.73965 9.15292 9.73965 8.97876C9.73965 8.80459 9.59756 8.66251 9.4234 8.66251Z" fill="#292D32"/>
<path d="M7.65882 7.87419C7.50758 7.87419 7.37008 7.77336 7.32883 7.62211C7.27841 7.43878 7.38841 7.25087 7.57174 7.20045L9.99632 6.54045C10.1796 6.49004 10.3676 6.60002 10.418 6.78335C10.4684 6.96669 10.3584 7.15459 10.1751 7.20501L7.75049 7.86501C7.71841 7.86959 7.68632 7.87419 7.65882 7.87419Z" fill="#292D32"/>
</svg>
