<svg width="11" height="11" viewBox="0 0 11 11" fill="none" xmlns="http://www.w3.org/2000/svg">
<path d="M1.18256 4.31743C1.1459 4.31743 1.10465 4.31286 1.06798 4.29911C0.889231 4.23494 0.797568 4.03785 0.857151 3.8591C1.16423 2.99744 1.6959 2.2412 2.40631 1.66829C2.55298 1.54912 2.76839 1.57203 2.88756 1.7187C3.00672 1.86536 2.98381 2.08078 2.83715 2.20453C2.22757 2.69494 1.76924 3.34577 1.50799 4.08826C1.45757 4.23035 1.32465 4.31743 1.18256 4.31743Z" fill="#292D32"/>
<path d="M1.18246 7.36995C1.04038 7.36995 0.907469 7.28287 0.857053 7.14078C0.669137 6.60454 0.57289 6.05453 0.57289 5.49995C0.57289 5.31203 0.728722 5.1562 0.916638 5.1562C1.10455 5.1562 1.26039 5.31203 1.26039 5.49995C1.26039 5.97661 1.34289 6.45329 1.50789 6.91162C1.57206 7.09037 1.4758 7.28743 1.29705 7.3516C1.26038 7.36535 1.21913 7.36995 1.18246 7.36995Z" fill="#292D32"/>
<path d="M5.50004 10.427C5.01421 10.427 4.53296 10.3537 4.06546 10.2116C3.88213 10.1566 3.78129 9.96409 3.83629 9.78076C3.89129 9.59743 4.08379 9.49659 4.26713 9.55159C4.66587 9.67534 5.08296 9.73491 5.50004 9.73491C7.83753 9.73491 9.7396 7.83283 9.7396 5.49534C9.7396 5.25701 9.71669 5.00951 9.67086 4.74826C9.63877 4.56035 9.76252 4.3816 9.95043 4.34951C10.1383 4.31743 10.3171 4.44117 10.3492 4.62909C10.4042 4.93159 10.4317 5.21577 10.4317 5.49993C10.4271 8.21784 8.21794 10.427 5.50004 10.427Z" fill="#292D32"/>
<path d="M2.62177 9.39578C2.54385 9.39578 2.47052 9.37287 2.40635 9.31787C2.1451 9.10704 1.93426 8.90536 1.75551 8.69911C1.63176 8.55703 1.6501 8.33703 1.79219 8.21328C1.93427 8.08953 2.15427 8.10787 2.27802 8.24995C2.42927 8.42412 2.6126 8.59827 2.83718 8.78161C2.98385 8.90077 3.00676 9.11621 2.88759 9.26288C2.82343 9.34996 2.7226 9.39578 2.62177 9.39578Z" fill="#292D32"/>
<path d="M9.27656 3.24955C9.16656 3.24955 9.06115 3.19913 8.9924 3.0983C8.19949 1.9433 6.89324 1.2558 5.49992 1.2558C5.08283 1.2558 4.66575 1.31539 4.267 1.43914C4.08825 1.49414 3.89575 1.39331 3.83617 1.20997C3.77659 1.02664 3.882 0.83414 4.06534 0.779141C4.53283 0.637058 5.01408 0.56371 5.49992 0.56371C7.12241 0.56371 8.63948 1.36581 9.56073 2.70414C9.66614 2.85997 9.62949 3.07538 9.47366 3.18079C9.41407 3.23121 9.34531 3.24955 9.27656 3.24955Z" fill="#292D32"/>
<path d="M3.93707 8.18572C3.34582 8.18572 2.86458 7.70449 2.86458 7.11324C2.86458 6.52199 3.34582 6.04073 3.93707 6.04073C4.52832 6.04073 5.00957 6.52199 5.00957 7.11324C5.00957 7.70449 4.52832 8.18572 3.93707 8.18572ZM3.93707 6.72823C3.72624 6.72823 3.55208 6.90241 3.55208 7.11324C3.55208 7.32407 3.72624 7.49822 3.93707 7.49822C4.1479 7.49822 4.32207 7.32407 4.32207 7.11324C4.32207 6.90241 4.1479 6.72823 3.93707 6.72823Z" fill="#292D32"/>
<path d="M4.66594 7.457C4.47802 7.457 4.32219 7.30117 4.32219 7.11325V4.17992C4.32219 3.73992 4.59719 3.37784 5.02344 3.26326L6.48094 2.86451C6.92094 2.74534 7.19593 2.85992 7.34718 2.9745C7.56718 3.14409 7.67718 3.41451 7.67718 3.78117V6.62742C7.67718 6.81534 7.52135 6.97117 7.33343 6.97117C7.14552 6.97117 6.98968 6.81534 6.98968 6.62742V3.78117C6.98968 3.62534 6.95759 3.54284 6.92551 3.52451C6.89343 3.50159 6.79718 3.49243 6.6551 3.5291L5.19761 3.92784C5.06927 3.96451 5.00511 4.047 5.00511 4.17992V7.11325C5.0097 7.30117 4.85386 7.457 4.66594 7.457Z" fill="#292D32"/>
<path d="M6.60452 7.69987C6.01328 7.69987 5.53203 7.21864 5.53203 6.62739C5.53203 6.03614 6.01328 5.55488 6.60452 5.55488C7.19577 5.55488 7.67702 6.03614 7.67702 6.62739C7.67702 7.21864 7.19577 7.69987 6.60452 7.69987ZM6.60452 6.24238C6.39369 6.24238 6.21953 6.41656 6.21953 6.62739C6.21953 6.83822 6.39369 7.01237 6.60452 7.01237C6.81536 7.01237 6.98952 6.83822 6.98952 6.62739C6.98952 6.41656 6.81536 6.24238 6.60452 6.24238Z" fill="#292D32"/>
<path d="M4.66574 5.27074C4.51449 5.27074 4.37699 5.16991 4.33574 5.01867C4.28532 4.83533 4.39532 4.64742 4.57865 4.59701L7.24615 3.86825C7.42948 3.81783 7.6174 3.92782 7.66782 4.11115C7.71823 4.29448 7.60824 4.48242 7.4249 4.53284L4.75741 5.26157C4.72533 5.27073 4.69324 5.27074 4.66574 5.27074Z" fill="#292D32"/>
</svg>
