<svg width="11" height="11" viewBox="0 0 11 11" fill="none" xmlns="http://www.w3.org/2000/svg">
<path d="M3.65292 10.427C2.45209 10.427 1.47584 9.45079 1.47584 8.24996C1.47584 7.04914 2.45209 6.07289 3.65292 6.07289C4.85374 6.07289 5.82999 7.04914 5.82999 8.24996C5.82999 9.45079 4.85374 10.427 3.65292 10.427ZM3.65292 6.76039C2.8325 6.76039 2.16334 7.42955 2.16334 8.24996C2.16334 9.07038 2.8325 9.73954 3.65292 9.73954C4.47333 9.73954 5.14249 9.07038 5.14249 8.24996C5.14249 7.42955 4.47791 6.76039 3.65292 6.76039Z" fill="#292D32"/>
<path d="M5.48621 8.59372C5.2983 8.59372 5.14246 8.43788 5.14246 8.24997V1.83333C5.14246 1.64541 5.2983 1.48958 5.48621 1.48958C5.67413 1.48958 5.82996 1.64541 5.82996 1.83333V8.24997C5.82996 8.43788 5.67871 8.59372 5.48621 8.59372Z" fill="#292D32"/>
<path d="M8.76784 4.68873C8.61659 4.68873 8.45618 4.66123 8.30034 4.61082L6.27452 3.93707C5.64202 3.72624 5.14702 3.03874 5.14702 2.37416V1.83333C5.14702 1.38875 5.33035 1.00375 5.64202 0.774582C5.95827 0.545416 6.37993 0.499583 6.8016 0.637083L8.82742 1.31083C9.45992 1.52166 9.95492 2.20916 9.95492 2.87374V3.40999C9.95492 3.85457 9.77159 4.23957 9.45992 4.46873C9.26284 4.61998 9.01992 4.68873 8.76784 4.68873ZM6.3341 1.24666C6.2241 1.24666 6.12327 1.27416 6.04535 1.33375C5.90785 1.43 5.83452 1.60875 5.83452 1.83333V2.36958C5.83452 2.73624 6.1416 3.16249 6.48993 3.28166L8.51576 3.9554C8.72659 4.02874 8.92367 4.0104 9.05659 3.91415C9.19409 3.8179 9.26742 3.63915 9.26742 3.41457V2.87832C9.26742 2.51166 8.96034 2.08541 8.61201 1.96624L6.58618 1.2925C6.4991 1.26041 6.41202 1.24666 6.3341 1.24666Z" fill="#292D32"/>
</svg>
