<svg width="11" height="11" viewBox="0 0 11 11" fill="none" xmlns="http://www.w3.org/2000/svg">
<path d="M6.87495 10.4271H4.12496C1.63622 10.4271 0.57289 9.36375 0.57289 6.87501V4.12502C0.57289 1.63628 1.63622 0.572955 4.12496 0.572955H6.87495C9.36369 0.572955 10.427 1.63628 10.427 4.12502V6.87501C10.427 9.36375 9.36369 10.4271 6.87495 10.4271ZM4.12496 1.26045C2.01205 1.26045 1.26039 2.01212 1.26039 4.12502V6.87501C1.26039 8.98792 2.01205 9.73959 4.12496 9.73959H6.87495C8.98786 9.73959 9.73952 8.98792 9.73952 6.87501V4.12502C9.73952 2.01212 8.98786 1.26045 6.87495 1.26045H4.12496Z" fill="#292D32"/>
<path d="M3.85916 8.18582C3.2725 8.18582 2.79583 7.70915 2.79583 7.12249C2.79583 6.53582 3.2725 6.05915 3.85916 6.05915C4.44583 6.05915 4.9225 6.53582 4.9225 7.12249C4.9225 7.70915 4.44583 8.18582 3.85916 8.18582ZM3.85916 6.74665C3.65291 6.74665 3.48333 6.91624 3.48333 7.12249C3.48333 7.32873 3.65291 7.49832 3.85916 7.49832C4.06541 7.49832 4.235 7.32873 4.235 7.12249C4.235 6.91624 4.06541 6.74665 3.85916 6.74665Z" fill="#292D32"/>
<path d="M4.57883 7.46626C4.39092 7.46626 4.23509 7.31042 4.23509 7.12251V4.22129C4.23509 3.78129 4.51009 3.42377 4.93176 3.30919L6.37093 2.91503C6.80634 2.79586 7.08134 2.91044 7.23259 3.02502C7.45259 3.19461 7.56258 3.46046 7.56258 3.82254V6.63668C7.56258 6.82459 7.40674 6.98043 7.21883 6.98043C7.03091 6.98043 6.87508 6.82459 6.87508 6.63668V3.82254C6.87508 3.67129 6.84299 3.58877 6.81549 3.57044C6.79258 3.5521 6.71007 3.53378 6.54965 3.57503L5.11051 3.96918C4.98218 4.00585 4.92258 4.08379 4.92258 4.2167V7.11795C4.92258 7.31045 4.76675 7.46626 4.57883 7.46626Z" fill="#292D32"/>
<path d="M6.49901 7.70459C5.91235 7.70459 5.43568 7.22792 5.43568 6.64126C5.43568 6.05459 5.91235 5.57793 6.49901 5.57793C7.08568 5.57793 7.56235 6.05459 7.56235 6.64126C7.56235 7.22792 7.08568 7.70459 6.49901 7.70459ZM6.49901 6.26542C6.29276 6.26542 6.12318 6.43501 6.12318 6.64126C6.12318 6.84751 6.29276 7.01709 6.49901 7.01709C6.70526 7.01709 6.87485 6.84751 6.87485 6.64126C6.87485 6.43501 6.70526 6.26542 6.49901 6.26542Z" fill="#292D32"/>
<path d="M4.57862 5.40381C4.42737 5.40381 4.28988 5.30298 4.24863 5.15173C4.19822 4.9684 4.3082 4.78049 4.49154 4.73008L7.13153 4.01049C7.31945 3.96008 7.50277 4.07009 7.55319 4.25342C7.6036 4.43675 7.49362 4.62466 7.31029 4.67508L4.67029 5.39466C4.63821 5.39925 4.60612 5.40381 4.57862 5.40381Z" fill="#292D32"/>
</svg>
