<svg width="11" height="11" viewBox="0 0 11 11" fill="none" xmlns="http://www.w3.org/2000/svg">
<path d="M6.57703 9.96862H3.96454C1.5858 9.96862 0.57289 8.9557 0.57289 6.57696V3.96449C0.57289 1.58575 1.5858 0.572824 3.96454 0.572824H6.57703C8.95577 0.572824 9.96868 1.58575 9.96868 3.96449V6.57696C9.96868 6.74195 9.9641 6.8978 9.95494 7.04905C9.94577 7.18655 9.8541 7.3057 9.72118 7.35154C9.58827 7.39737 9.44619 7.35614 9.34994 7.25531C9.07494 6.94364 8.67161 6.7603 8.24536 6.7603C7.42494 6.7603 6.75578 7.42946 6.75578 8.24988C6.75578 8.52029 6.82911 8.78612 6.9712 9.01528C7.04453 9.14362 7.14078 9.25819 7.25078 9.35444C7.3562 9.44611 7.39745 9.5928 7.35161 9.72113C7.30578 9.85405 7.18661 9.94569 7.04911 9.95486C6.90245 9.96402 6.74661 9.96862 6.57703 9.96862ZM3.96454 1.26032C1.96622 1.26032 1.26039 1.96616 1.26039 3.96449V6.57696C1.26039 8.57528 1.96622 9.28112 3.96454 9.28112H6.33412C6.16453 8.96946 6.07287 8.61654 6.07287 8.24988C6.07287 7.04905 7.04911 6.0728 8.24994 6.0728C8.61661 6.0728 8.96952 6.16447 9.28119 6.32947V3.96449C9.28119 1.96616 8.57536 1.26032 6.57703 1.26032H3.96454Z" fill="#292D32"/>
<path d="M3.07998 6.9528C2.5254 6.9528 2.07165 6.49905 2.07165 5.94447C2.07165 5.38989 2.5254 4.93616 3.07998 4.93616C3.63456 4.93616 4.08831 5.38989 4.08831 5.94447C4.08831 6.49905 3.63456 6.9528 3.07998 6.9528ZM3.07998 5.62366C2.90581 5.62366 2.75914 5.76572 2.75914 5.94447C2.75914 6.11863 2.90123 6.2653 3.07998 6.2653C3.25873 6.2653 3.40081 6.12322 3.40081 5.94447C3.40081 5.76572 3.25873 5.62366 3.07998 5.62366Z" fill="#292D32"/>
<path d="M3.7445 6.28816C3.55658 6.28816 3.40075 6.13232 3.40075 5.94441V3.27236C3.40075 2.85527 3.662 2.5161 4.06075 2.4061L5.38991 2.04403C5.80241 1.92945 6.06366 2.03944 6.20574 2.14944C6.34782 2.25944 6.52199 2.47945 6.52199 2.9057V5.49984C6.52199 5.68776 6.36616 5.84359 6.17824 5.84359C5.99033 5.84359 5.83449 5.68776 5.83449 5.49984V2.9057C5.83449 2.75903 5.80241 2.70402 5.78866 2.69485C5.77491 2.68569 5.70616 2.66736 5.56866 2.70403L4.24408 3.0661C4.10658 3.10277 4.08825 3.19902 4.08825 3.26777V5.93985C4.08825 6.13235 3.93241 6.28816 3.7445 6.28816Z" fill="#292D32"/>
<path d="M5.51371 6.50819C4.95913 6.50819 4.50539 6.05444 4.50539 5.49985C4.50539 4.94527 4.95913 4.49152 5.51371 4.49152C6.06829 4.49152 6.52204 4.94527 6.52204 5.49985C6.52204 6.05902 6.06829 6.50819 5.51371 6.50819ZM5.51371 5.1836C5.33955 5.1836 5.19288 5.32569 5.19288 5.50444C5.19288 5.67861 5.33496 5.82528 5.51371 5.82528C5.69246 5.82528 5.83455 5.68319 5.83455 5.50444C5.83455 5.32569 5.68788 5.1836 5.51371 5.1836Z" fill="#292D32"/>
<path d="M3.74456 4.39075C3.59331 4.39075 3.45581 4.28992 3.41456 4.13868C3.36414 3.95534 3.47414 3.76741 3.65748 3.71699L6.09122 3.0524C6.27455 3.00657 6.46246 3.112 6.51288 3.29533C6.5633 3.47867 6.4533 3.66657 6.26997 3.71699L3.83623 4.38158C3.80414 4.38616 3.77206 4.39075 3.74456 4.39075Z" fill="#292D32"/>
<path d="M8.24996 10.427C7.70913 10.427 7.1958 10.2253 6.79705 9.86323C6.63664 9.72574 6.49455 9.55614 6.38456 9.36823C6.18289 9.03823 6.07289 8.64865 6.07289 8.2499C6.07289 7.04907 7.04914 6.07282 8.24996 6.07282C8.8733 6.07282 9.46454 6.33866 9.86787 6.797C10.2254 7.19574 10.427 7.70907 10.427 8.2499C10.427 8.64865 10.317 9.03823 10.1108 9.37282C9.72579 10.0236 9.01079 10.427 8.24996 10.427ZM8.24996 6.76032C7.42955 6.76032 6.76039 7.42949 6.76039 8.2499C6.76039 8.52031 6.83372 8.78614 6.9758 9.0153C7.04914 9.14364 7.14539 9.25822 7.25539 9.35447C7.53038 9.60655 7.8833 9.74406 8.24996 9.74406C8.77705 9.74406 9.25371 9.47365 9.52413 9.02448C9.66621 8.79073 9.73954 8.52949 9.73954 8.25449C9.73954 7.88782 9.60204 7.53491 9.35454 7.25992C9.07955 6.93908 8.67621 6.76032 8.24996 6.76032Z" fill="#292D32"/>
<path d="M8.74032 9.07031C8.65324 9.07031 8.56615 9.03824 8.4974 8.96949L7.53032 8.00242C7.39741 7.8695 7.39741 7.6495 7.53032 7.51659C7.66324 7.38367 7.88324 7.38367 8.01616 7.51659L8.98323 8.48366C9.11615 8.61658 9.11615 8.83658 8.98323 8.96949C8.91449 9.03824 8.8274 9.07031 8.74032 9.07031Z" fill="#292D32"/>
<path d="M7.75957 9.08401C7.67249 9.08401 7.5854 9.05191 7.51665 8.98316C7.38374 8.85025 7.38374 8.63025 7.51665 8.49733L8.48373 7.53026C8.61665 7.39734 8.83665 7.39734 8.96956 7.53026C9.10248 7.66318 9.10248 7.88317 8.96956 8.01609L8.00248 8.98316C7.93373 9.05191 7.84665 9.08401 7.75957 9.08401Z" fill="#292D32"/>
</svg>
