<svg width="11" height="11" viewBox="0 0 11 11" fill="none" xmlns="http://www.w3.org/2000/svg">
<path d="M7.79161 10.427H3.2083C1.53539 10.427 0.57289 9.46455 0.57289 7.79164V5.49998C0.57289 3.82707 1.53539 2.86458 3.2083 2.86458H7.79161C9.46452 2.86458 10.427 3.82707 10.427 5.49998V7.79164C10.427 9.46455 9.46452 10.427 7.79161 10.427ZM3.2083 3.55208C1.89747 3.55208 1.26039 4.18916 1.26039 5.49998V7.79164C1.26039 9.10247 1.89747 9.73955 3.2083 9.73955H7.79161C9.10244 9.73955 9.73952 9.10247 9.73952 7.79164V5.49998C9.73952 4.18916 9.10244 3.55208 7.79161 3.55208H3.2083Z" fill="#292D32"/>
<path d="M8.24999 2.4063H2.75001C2.5621 2.4063 2.40627 2.25046 2.40627 2.06255C2.40627 1.87463 2.5621 1.7188 2.75001 1.7188H8.24999C8.43791 1.7188 8.59374 1.87463 8.59374 2.06255C8.59374 2.25046 8.43791 2.4063 8.24999 2.4063Z" fill="#292D32"/>
<path d="M6.87494 1.26045H4.12495C3.93703 1.26045 3.7812 1.10462 3.7812 0.916703C3.7812 0.728787 3.93703 0.572955 4.12495 0.572955H6.87494C7.06285 0.572955 7.21869 0.728787 7.21869 0.916703C7.21869 1.10462 7.06285 1.26045 6.87494 1.26045Z" fill="#292D32"/>
<path d="M4.07451 9.10249C3.53826 9.10249 3.10285 8.66707 3.10285 8.13083C3.10285 7.59458 3.53826 7.15917 4.07451 7.15917C4.61076 7.15917 5.04617 7.59458 5.04617 8.13083C5.04617 8.66707 4.61076 9.10249 4.07451 9.10249ZM4.07451 7.84666C3.91868 7.84666 3.79035 7.97499 3.79035 8.13083C3.79035 8.28666 3.91868 8.41499 4.07451 8.41499C4.23034 8.41499 4.35867 8.28666 4.35867 8.13083C4.35867 7.97499 4.23034 7.84666 4.07451 7.84666Z" fill="#292D32"/>
<path d="M4.7024 8.47458C4.51448 8.47458 4.35865 8.31875 4.35865 8.13083V5.60542C4.35865 5.20209 4.61074 4.87667 4.99574 4.77125L6.25156 4.4275C6.65031 4.3175 6.90238 4.42294 7.03988 4.53294C7.17738 4.63836 7.34239 4.85376 7.34239 5.26167V7.71376C7.34239 7.90168 7.18656 8.05751 6.99864 8.05751C6.81073 8.05751 6.65489 7.90168 6.65489 7.71376V5.26167C6.65489 5.13334 6.62739 5.08294 6.61822 5.07835C6.60905 5.07377 6.55406 5.05542 6.42573 5.09209L5.17446 5.43584C5.05988 5.46792 5.04156 5.54584 5.04156 5.61001V8.13542C5.04614 8.31875 4.89031 8.47458 4.7024 8.47458Z" fill="#292D32"/>
<path d="M6.37544 8.68538C5.83919 8.68538 5.40378 8.24997 5.40378 7.71372C5.40378 7.17748 5.83919 6.74206 6.37544 6.74206C6.91169 6.74206 7.34713 7.17748 7.34713 7.71372C7.34713 8.24997 6.91169 8.68538 6.37544 8.68538ZM6.37544 7.42956C6.21961 7.42956 6.09128 7.55789 6.09128 7.71372C6.09128 7.86956 6.21961 7.99789 6.37544 7.99789C6.53127 7.99789 6.65963 7.86956 6.65963 7.71372C6.65963 7.55789 6.53127 7.42956 6.37544 7.42956Z" fill="#292D32"/>
<path d="M4.70247 6.68248C4.55122 6.68248 4.4137 6.58165 4.37245 6.4304C4.32204 6.24707 4.43205 6.05913 4.61538 6.00872L6.91163 5.38081C7.09954 5.33039 7.28287 5.4404 7.33329 5.62373C7.3837 5.80707 7.27369 5.99498 7.09036 6.04539L4.79414 6.6733C4.76206 6.67789 4.73455 6.68248 4.70247 6.68248Z" fill="#292D32"/>
</svg>
