<svg width="11" height="11" viewBox="0 0 11 11" fill="none" xmlns="http://www.w3.org/2000/svg">
<path d="M10.0833 1.7187H0.916638C0.728722 1.7187 0.57289 1.56287 0.57289 1.37495C0.57289 1.18703 0.728722 1.0312 0.916638 1.0312H10.0833C10.2712 1.0312 10.427 1.18703 10.427 1.37495C10.427 1.56287 10.2712 1.7187 10.0833 1.7187Z" fill="#292D32"/>
<path d="M5.04162 4.46863H0.916638C0.728722 4.46863 0.57289 4.3128 0.57289 4.12488C0.57289 3.93697 0.728722 3.78114 0.916638 3.78114H5.04162C5.22954 3.78114 5.38537 3.93697 5.38537 4.12488C5.38537 4.3128 5.22954 4.46863 5.04162 4.46863Z" fill="#292D32"/>
<path d="M3.66663 7.21863H0.916638C0.728722 7.21863 0.57289 7.0628 0.57289 6.87488C0.57289 6.68697 0.728722 6.53114 0.916638 6.53114H3.66663C3.85454 6.53114 4.01038 6.68697 4.01038 6.87488C4.01038 7.0628 3.85454 7.21863 3.66663 7.21863Z" fill="#292D32"/>
<path d="M2.74996 9.96863H0.916638C0.728722 9.96863 0.57289 9.8128 0.57289 9.62488C0.57289 9.43697 0.728722 9.28114 0.916638 9.28114H2.74996C2.93788 9.28114 3.09371 9.43697 3.09371 9.62488C3.09371 9.8128 2.93788 9.96863 2.74996 9.96863Z" fill="#292D32"/>
<path d="M5.4267 10.4271C4.68879 10.4271 4.08379 9.82664 4.08379 9.08414C4.08379 8.34623 4.68421 7.74124 5.4267 7.74124C6.1692 7.74124 6.76961 8.34165 6.76961 9.08414C6.76961 9.82664 6.1692 10.4271 5.4267 10.4271ZM5.4267 8.43332C5.06462 8.43332 4.77129 8.72665 4.77129 9.08873C4.77129 9.45081 5.06462 9.74414 5.4267 9.74414C5.78878 9.74414 6.08212 9.45081 6.08212 9.08873C6.08212 8.72665 5.78878 8.43332 5.4267 8.43332Z" fill="#292D32"/>
<path d="M6.42575 9.42788C6.23784 9.42788 6.082 9.27205 6.082 9.08413V5.06455C6.082 4.50997 6.412 4.07457 6.94825 3.93249L8.94199 3.38707C9.37741 3.26791 9.75324 3.31373 10.0191 3.51998C10.2849 3.72623 10.4224 4.06081 10.4224 4.52373V8.42413C10.4224 8.61205 10.2666 8.76788 10.0787 8.76788C9.89074 8.76788 9.73491 8.61205 9.73491 8.42413V4.52373C9.73491 4.29456 9.68907 4.13415 9.60199 4.06998C9.51491 4.00123 9.33616 3.99664 9.12074 4.05622L7.127 4.60163C6.99408 4.6383 6.7695 4.74831 6.7695 5.07373V9.0933C6.7695 9.27664 6.61367 9.42788 6.42575 9.42788Z" fill="#292D32"/>
<path d="M9.08421 9.76243C8.3463 9.76243 7.7413 9.16202 7.7413 8.41953C7.7413 7.68161 8.34171 7.07662 9.08421 7.07662C9.82671 7.07662 10.4271 7.67703 10.4271 8.41953C10.4271 9.16202 9.82671 9.76243 9.08421 9.76243ZM9.08421 7.7687C8.72213 7.7687 8.4288 8.06203 8.4288 8.42411C8.4288 8.7862 8.72213 9.07952 9.08421 9.07952C9.44629 9.07952 9.73963 8.7862 9.73963 8.42411C9.73963 8.06203 9.44629 7.7687 9.08421 7.7687Z" fill="#292D32"/>
<path d="M6.42581 6.57703C6.27456 6.57703 6.13706 6.4762 6.09581 6.32495C6.0454 6.14162 6.15539 5.95371 6.33873 5.9033L9.99621 4.90414C10.1795 4.85372 10.3675 4.96371 10.4179 5.14704C10.4683 5.33037 10.3583 5.51831 10.175 5.56872L6.51748 6.56788C6.48539 6.57247 6.45331 6.57703 6.42581 6.57703Z" fill="#292D32"/>
</svg>
