<svg width="11" height="11" viewBox="0 0 11 11" fill="none" xmlns="http://www.w3.org/2000/svg">
<path d="M6.87495 10.427H4.12496C1.63622 10.427 0.57289 9.36362 0.57289 6.87488V4.12489C0.57289 1.63615 1.63622 0.572824 4.12496 0.572824H6.87495C9.36369 0.572824 10.427 1.63615 10.427 4.12489V6.87488C10.427 9.36362 9.36369 10.427 6.87495 10.427ZM4.12496 1.26032C2.01205 1.26032 1.26039 2.01199 1.26039 4.12489V6.87488C1.26039 8.98779 2.01205 9.73945 4.12496 9.73945H6.87495C8.98786 9.73945 9.73952 8.98779 9.73952 6.87488V4.12489C9.73952 2.01199 8.98786 1.26032 6.87495 1.26032H4.12496Z" fill="#292D32"/>
<path d="M3.20833 10.1978C3.02041 10.1978 2.86458 10.0419 2.86458 9.85403V1.14573C2.86458 0.957813 3.02041 0.80198 3.20833 0.80198C3.39624 0.80198 3.55208 0.957813 3.55208 1.14573V9.85403C3.55208 10.0419 3.39624 10.1978 3.20833 10.1978Z" fill="#292D32"/>
<path d="M5.25706 8.04366C4.68873 8.04366 4.2304 7.58075 4.2304 7.017C4.2304 6.45325 4.69331 5.99034 5.25706 5.99034C5.82081 5.99034 6.28372 6.45325 6.28372 7.017C6.28372 7.58075 5.82081 8.04366 5.25706 8.04366ZM5.25706 6.67325C5.06915 6.67325 4.9179 6.8245 4.9179 7.01241C4.9179 7.20033 5.06915 7.35157 5.25706 7.35157C5.44498 7.35157 5.59623 7.20033 5.59623 7.01241C5.59623 6.8245 5.44039 6.67325 5.25706 6.67325Z" fill="#292D32"/>
<path d="M5.93997 7.36074C5.75205 7.36074 5.59622 7.20491 5.59622 7.01699V4.26242C5.59622 3.84075 5.86205 3.49243 6.26997 3.38243L7.63579 3.01118C8.05746 2.8966 8.32329 3.00659 8.46996 3.12117C8.68079 3.28159 8.79079 3.54284 8.79079 3.89576V6.56784C8.79079 6.75575 8.63496 6.91158 8.44704 6.91158C8.25913 6.91158 8.10329 6.75575 8.10329 6.56784V3.89576C8.10329 3.74451 8.07121 3.68034 8.05288 3.67118C8.02996 3.65284 7.95204 3.64369 7.81913 3.68035L6.4533 4.0516C6.3433 4.08368 6.2883 4.15242 6.2883 4.27159V7.02617C6.28372 7.20492 6.12788 7.36074 5.93997 7.36074Z" fill="#292D32"/>
<path d="M7.75955 7.58535C7.19122 7.58535 6.73288 7.12244 6.73288 6.55869C6.73288 5.99036 7.1958 5.53203 7.75955 5.53203C8.3233 5.53203 8.78621 5.99494 8.78621 6.55869C8.79079 7.12702 8.32788 7.58535 7.75955 7.58535ZM7.75955 6.21953C7.57163 6.21953 7.42038 6.37077 7.42038 6.55869C7.42038 6.7466 7.57163 6.89785 7.75955 6.89785C7.94746 6.89785 8.09871 6.7466 8.09871 6.55869C8.09871 6.37077 7.94746 6.21953 7.75955 6.21953Z" fill="#292D32"/>
<path d="M5.94002 5.40359C5.78878 5.40359 5.65128 5.30277 5.61003 5.15152C5.55961 4.96819 5.66961 4.78028 5.85294 4.72986L8.36002 4.04695C8.54335 3.99653 8.73126 4.10652 8.78168 4.28985C8.8321 4.47319 8.7221 4.66112 8.53877 4.71154L6.03169 5.39445C5.99961 5.39903 5.96752 5.40359 5.94002 5.40359Z" fill="#292D32"/>
</svg>
