<svg width="11" height="11" viewBox="0 0 11 11" fill="none" xmlns="http://www.w3.org/2000/svg">
<path d="M5.66037 9.96862H3.96454C1.5858 9.96862 0.57289 8.9557 0.57289 6.57696V3.96449C0.57289 1.58575 1.5858 0.572824 3.96454 0.572824H6.57703C8.95578 0.572824 9.96868 1.58575 9.96868 3.96449V5.66029C9.96868 5.84821 9.81285 6.00404 9.62494 6.00404C9.43702 6.00404 9.28119 5.84821 9.28119 5.66029V3.96449C9.28119 1.96616 8.57536 1.26032 6.57703 1.26032H3.96454C1.96621 1.26032 1.26039 1.96616 1.26039 3.96449V6.57696C1.26039 8.57528 1.96621 9.28112 3.96454 9.28112H5.66037C5.84829 9.28112 6.00412 9.43696 6.00412 9.62487C6.00412 9.81279 5.84829 9.96862 5.66037 9.96862Z" fill="#292D32"/>
<path d="M3.07997 6.9528C2.52539 6.9528 2.07165 6.49905 2.07165 5.94447C2.07165 5.38989 2.52539 4.93616 3.07997 4.93616C3.63456 4.93616 4.0883 5.38989 4.0883 5.94447C4.0883 6.49905 3.63456 6.9528 3.07997 6.9528ZM3.07997 5.62366C2.90581 5.62366 2.75914 5.76572 2.75914 5.94447C2.75914 6.11863 2.90123 6.2653 3.07997 6.2653C3.25872 6.2653 3.40081 6.12322 3.40081 5.94447C3.40081 5.76572 3.25872 5.62366 3.07997 5.62366Z" fill="#292D32"/>
<path d="M3.7445 6.28816C3.55658 6.28816 3.40075 6.13232 3.40075 5.94441V3.27236C3.40075 2.85527 3.662 2.5161 4.06075 2.4061L5.38991 2.04403C5.80241 1.92945 6.06365 2.03944 6.20574 2.14944C6.34782 2.25944 6.52199 2.47945 6.52199 2.9057V5.49984C6.52199 5.68776 6.36615 5.84359 6.17824 5.84359C5.99032 5.84359 5.83449 5.68776 5.83449 5.49984V2.9057C5.83449 2.75903 5.80241 2.70402 5.78866 2.69485C5.77491 2.68569 5.71074 2.66736 5.56866 2.70403L4.24408 3.0661C4.10658 3.10277 4.08825 3.19902 4.08825 3.26777V5.93985C4.08825 6.13235 3.93241 6.28816 3.7445 6.28816Z" fill="#292D32"/>
<path d="M5.51371 6.50819C4.95913 6.50819 4.50539 6.05444 4.50539 5.49985C4.50539 4.94527 4.95913 4.49152 5.51371 4.49152C6.06829 4.49152 6.52204 4.94527 6.52204 5.49985C6.52204 6.05902 6.06829 6.50819 5.51371 6.50819ZM5.51371 5.1836C5.33955 5.1836 5.19288 5.32569 5.19288 5.50444C5.19288 5.67861 5.33496 5.82528 5.51371 5.82528C5.69246 5.82528 5.83454 5.68319 5.83454 5.50444C5.83454 5.32569 5.68788 5.1836 5.51371 5.1836Z" fill="#292D32"/>
<path d="M3.74456 4.39075C3.59331 4.39075 3.45581 4.28992 3.41456 4.13868C3.36414 3.95534 3.47414 3.76741 3.65747 3.71699L6.09121 3.0524C6.27455 3.00657 6.46247 3.112 6.51288 3.29533C6.5633 3.47867 6.45329 3.66657 6.26996 3.71699L3.83622 4.38158C3.80414 4.38616 3.77206 4.39075 3.74456 4.39075Z" fill="#292D32"/>
<path d="M8.2226 10.097C7.22344 10.097 6.4122 9.2857 6.4122 8.28654C6.4122 7.28738 7.22344 6.47613 8.2226 6.47613C9.22177 6.47613 10.033 7.28738 10.033 8.28654C10.033 9.2857 9.22177 10.097 8.2226 10.097ZM8.2226 7.16362C7.60386 7.16362 7.09969 7.66779 7.09969 8.28654C7.09969 8.90529 7.60386 9.40946 8.2226 9.40946C8.84135 9.40946 9.34552 8.90529 9.34552 8.28654C9.34552 7.66779 8.84135 7.16362 8.2226 7.16362Z" fill="#292D32"/>
<path d="M9.96417 10.3719C9.87709 10.3719 9.79001 10.3398 9.72126 10.2711L9.26293 9.81275C9.13001 9.67983 9.13001 9.45984 9.26293 9.32692C9.39584 9.194 9.61584 9.194 9.74876 9.32692L10.2071 9.78525C10.34 9.91817 10.34 10.1382 10.2071 10.2711C10.1383 10.3352 10.0513 10.3719 9.96417 10.3719Z" fill="#292D32"/>
</svg>
