<svg width="11" height="11" viewBox="0 0 11 11" fill="none" xmlns="http://www.w3.org/2000/svg">
<path d="M2.87825 10.427C1.902 10.427 1.1045 9.62955 1.1045 8.6533C1.1045 7.67705 1.902 6.87956 2.87825 6.87956C3.85449 6.87956 4.65199 7.67705 4.65199 8.6533C4.65199 9.62955 3.85449 10.427 2.87825 10.427ZM2.87825 7.56705C2.27783 7.56705 1.792 8.05289 1.792 8.6533C1.792 9.25371 2.27783 9.73955 2.87825 9.73955C3.47866 9.73955 3.96449 9.25371 3.96449 8.6533C3.96449 8.05289 3.47866 7.56705 2.87825 7.56705Z" fill="#292D32"/>
<path d="M4.30827 8.9971C4.12036 8.9971 3.96453 8.84126 3.96453 8.65335V2.88754C3.96453 2.16337 4.39994 1.59504 5.0966 1.40713L7.95659 0.627963C8.53867 0.467547 9.02909 0.52713 9.37284 0.792963C9.72117 1.05879 9.89534 1.50338 9.89534 2.11296V7.7046C9.89534 7.89252 9.7395 8.04835 9.55159 8.04835C9.36367 8.04835 9.20784 7.89252 9.20784 7.7046V2.10837C9.20784 1.84254 9.16201 1.49421 8.95576 1.33838C8.73117 1.16421 8.34617 1.23296 8.13534 1.29254L5.27535 2.07171C4.87661 2.18171 4.65202 2.47962 4.65202 2.89212V8.65793C4.65202 8.84126 4.49619 8.9971 4.30827 8.9971Z" fill="#292D32"/>
<path d="M8.12162 9.47377C7.14537 9.47377 6.34788 8.67627 6.34788 7.70002C6.34788 6.72378 7.14537 5.92628 8.12162 5.92628C9.09787 5.92628 9.89536 6.72378 9.89536 7.70002C9.89536 8.67627 9.09787 9.47377 8.12162 9.47377ZM8.12162 6.61378C7.5212 6.61378 7.03537 7.09961 7.03537 7.70002C7.03537 8.30044 7.5212 8.78627 8.12162 8.78627C8.72203 8.78627 9.20787 8.30044 9.20787 7.70002C9.20787 7.09961 8.72203 6.61378 8.12162 6.61378Z" fill="#292D32"/>
<path d="M4.30828 4.7071C4.15703 4.7071 4.01953 4.60627 3.97828 4.45502C3.92787 4.27169 4.03328 4.07919 4.21661 4.02877L9.45993 2.59878C9.64326 2.54836 9.83118 2.65836 9.88159 2.84169C9.93201 3.02502 9.82201 3.21294 9.63868 3.26336L4.39995 4.69335C4.36786 4.70252 4.33578 4.7071 4.30828 4.7071Z" fill="#292D32"/>
</svg>
