<svg width="11" height="11" viewBox="0 0 11 11" fill="none" xmlns="http://www.w3.org/2000/svg">
<path d="M7.79161 10.4271H3.2083C1.53539 10.4271 0.57289 9.4646 0.57289 7.79169V5.95836C0.57289 4.30837 1.4529 3.6942 2.19081 3.46504C2.48873 3.36879 2.83246 3.32295 3.2083 3.32295H7.79161C8.16744 3.32295 8.51118 3.37337 8.81368 3.46962C9.54701 3.69421 10.427 4.31295 10.427 5.95836V7.79169C10.427 9.4646 9.46452 10.4271 7.79161 10.4271ZM3.2083 4.01045C2.9058 4.01045 2.63079 4.04712 2.39704 4.12503C1.63163 4.35878 1.26039 4.9592 1.26039 5.95836V7.79169C1.26039 9.10251 1.89747 9.7396 3.2083 9.7396H7.79161C9.10244 9.7396 9.73952 9.10251 9.73952 7.79169V5.95836C9.73952 4.9592 9.36828 4.35878 8.60745 4.12503C8.36912 4.04712 8.09411 4.01045 7.79161 4.01045H3.2083Z" fill="#292D32"/>
<path d="M8.70834 4.13879C8.67168 4.13879 8.6396 4.13419 8.60294 4.12044C8.36919 4.04711 8.09418 4.00586 7.79168 4.00586H3.20837C2.90587 4.00586 2.63086 4.04252 2.39711 4.12044C2.29169 4.15252 2.17712 4.1342 2.09004 4.07003C2.00295 4.00587 1.94795 3.90046 1.94795 3.79046V3.20837C1.94795 2.5117 2.5117 1.94795 3.20837 1.94795H7.79168C8.48835 1.94795 9.05209 2.5117 9.05209 3.20837V3.79504C9.05209 3.90504 9.00168 4.00587 8.91001 4.07462C8.85043 4.11587 8.78168 4.13879 8.70834 4.13879ZM3.20837 2.63545C2.89212 2.63545 2.63545 2.89212 2.63545 3.20837V3.36421C2.8142 3.33671 3.0067 3.32295 3.20837 3.32295H7.79168C7.99335 3.32295 8.18585 3.33671 8.3646 3.36421V3.20837C8.3646 2.89212 8.10793 2.63545 7.79168 2.63545H3.20837Z" fill="#292D32"/>
<path d="M7.33329 2.63545H3.66664C3.47872 2.63545 3.32289 2.47961 3.32289 2.2917V1.60879C3.32289 1.03587 3.78581 0.572955 4.35872 0.572955H6.64121C7.21412 0.572955 7.67704 1.03587 7.67704 1.60879V2.2917C7.67704 2.47961 7.52121 2.63545 7.33329 2.63545ZM4.01039 1.94795H6.98954V1.60879C6.98954 1.41629 6.8337 1.26045 6.64121 1.26045H4.35872C4.16622 1.26045 4.01039 1.41629 4.01039 1.60879V1.94795Z" fill="#292D32"/>
<path d="M4.15706 9.26297C3.63456 9.26297 3.20831 8.83672 3.20831 8.31422C3.20831 7.79172 3.63456 7.36547 4.15706 7.36547C4.67956 7.36547 5.10581 7.79172 5.10581 8.31422C5.10581 8.83672 4.68414 9.26297 4.15706 9.26297ZM4.15706 8.04838C4.0104 8.04838 3.89581 8.16755 3.89581 8.30963C3.89581 8.45172 4.01498 8.57089 4.15706 8.57089C4.29914 8.57089 4.41831 8.45172 4.41831 8.30963C4.41831 8.16755 4.30373 8.04838 4.15706 8.04838Z" fill="#292D32"/>
<path d="M4.76659 8.65336C4.57867 8.65336 4.42284 8.49753 4.42284 8.30961V5.8667C4.42284 5.47253 4.67033 5.15171 5.05075 5.0463L6.26531 4.71628C6.65489 4.61087 6.90239 4.71171 7.03989 4.81713C7.17739 4.92255 7.33782 5.12879 7.33782 5.53213V7.90169C7.33782 8.08961 7.18199 8.24544 6.99407 8.24544C6.80615 8.24544 6.65032 8.08961 6.65032 7.90169V5.53213C6.65032 5.41754 6.6274 5.37171 6.61824 5.36255C6.60907 5.35796 6.55407 5.34878 6.44407 5.37628L5.22948 5.70629C5.12406 5.73379 5.11033 5.80253 5.11033 5.86211V8.30503C5.11033 8.50211 4.9545 8.65336 4.76659 8.65336Z" fill="#292D32"/>
<path d="M6.38456 8.85498C5.86206 8.85498 5.43581 8.42873 5.43581 7.90623C5.43581 7.38373 5.86206 6.95748 6.38456 6.95748C6.90706 6.95748 7.33331 7.38373 7.33331 7.90623C7.33331 8.42873 6.90706 8.85498 6.38456 8.85498ZM6.38456 7.64498C6.23789 7.64498 6.12331 7.76415 6.12331 7.90623C6.12331 8.04832 6.24248 8.16749 6.38456 8.16749C6.52664 8.16749 6.64581 8.04832 6.64581 7.90623C6.64581 7.76415 6.52664 7.64498 6.38456 7.64498Z" fill="#292D32"/>
<path d="M4.76666 6.92079C4.61541 6.92079 4.47789 6.81996 4.43664 6.66871C4.38623 6.48538 4.49624 6.29747 4.67957 6.24706L6.90247 5.64206C7.0858 5.59164 7.27371 5.70165 7.32413 5.88499C7.37454 6.06832 7.26456 6.25623 7.08123 6.30664L4.8583 6.91164C4.82622 6.91623 4.79416 6.92079 4.76666 6.92079Z" fill="#292D32"/>
</svg>
