<svg width="11" height="11" viewBox="0 0 11 11" fill="none" xmlns="http://www.w3.org/2000/svg">
<path d="M2.89198 9.20786C2.63073 9.20786 2.37407 9.13912 2.13574 9.00162C1.65907 8.72662 1.37949 8.24078 1.37949 7.69079V3.30455C1.37949 2.75914 1.66365 2.26873 2.13574 1.99373C2.6124 1.71873 3.17614 1.71873 3.64822 1.99373L7.4478 4.18455C7.91988 4.45955 8.20404 4.94996 8.20404 5.49538C8.20404 6.04079 7.91988 6.53121 7.4478 6.80621L3.64822 8.99703C3.40989 9.13912 3.15323 9.20786 2.89198 9.20786ZM2.89198 2.47956C2.7499 2.47956 2.60782 2.51622 2.47948 2.58956C2.22282 2.7408 2.06699 3.00664 2.06699 3.30455V7.69079C2.06699 7.9887 2.22282 8.25453 2.47948 8.40578C2.73615 8.55245 3.04781 8.55703 3.30448 8.40578L7.10405 6.21496C7.36071 6.06371 7.51654 5.79788 7.51654 5.49996C7.51654 5.20205 7.36071 4.93622 7.10405 4.78497L3.30448 2.59414C3.17614 2.52081 3.03406 2.47956 2.89198 2.47956Z" fill="#292D32"/>
<path d="M9.27666 8.67625C9.08874 8.67625 8.93291 8.52042 8.93291 8.3325V2.66753C8.93291 2.47962 9.08874 2.32378 9.27666 2.32378C9.46457 2.32378 9.62041 2.47962 9.62041 2.66753V8.3325C9.62041 8.52042 9.46916 8.67625 9.27666 8.67625Z" fill="#292D32"/>
</svg>
