<svg width="11" height="11" viewBox="0 0 11 11" fill="none" xmlns="http://www.w3.org/2000/svg">
<path d="M5.04162 10.4271H4.12496C1.63622 10.4271 0.57289 9.36375 0.57289 6.87501V4.12502C0.57289 1.63628 1.63622 0.572955 4.12496 0.572955H6.87495C9.36369 0.572955 10.427 1.63628 10.427 4.12502V4.58336C10.427 4.77127 10.2712 4.9271 10.0833 4.9271C9.89535 4.9271 9.73952 4.77127 9.73952 4.58336V4.12502C9.73952 2.01212 8.98786 1.26045 6.87495 1.26045H4.12496C2.01205 1.26045 1.26039 2.01212 1.26039 4.12502V6.87501C1.26039 8.98792 2.01205 9.73959 4.12496 9.73959H5.04162C5.22954 9.73959 5.38537 9.89542 5.38537 10.0833C5.38537 10.2712 5.22954 10.4271 5.04162 10.4271Z" fill="#292D32"/>
<path d="M7.10857 10.4271C6.41649 10.4271 5.84816 9.86334 5.84816 9.16668C5.84816 8.47001 6.41191 7.90627 7.10857 7.90627C7.80524 7.90627 8.36898 8.47001 8.36898 9.16668C8.36898 9.86334 7.80065 10.4271 7.10857 10.4271ZM7.10857 8.59835C6.79232 8.59835 6.53566 8.85502 6.53566 9.17127C6.53566 9.48751 6.79232 9.74418 7.10857 9.74418C7.42482 9.74418 7.68149 9.48751 7.68149 9.17127C7.68149 8.85502 7.42482 8.59835 7.10857 8.59835Z" fill="#292D32"/>
<path d="M8.02529 9.51043C7.83737 9.51043 7.68154 9.3546 7.68154 9.16668V5.96295C7.68154 5.77503 7.83737 5.6192 8.02529 5.6192C8.2132 5.6192 8.36903 5.77503 8.36903 5.96295V9.16668C8.36903 9.35918 8.2132 9.51043 8.02529 9.51043Z" fill="#292D32"/>
<path d="M9.66153 7.56249C9.56528 7.56249 9.46903 7.54875 9.37278 7.51208L8.35986 7.17748C7.97028 7.04915 7.68154 6.64123 7.68154 6.23332V5.96292C7.68154 5.68333 7.79613 5.44041 8.00237 5.29374C8.20862 5.14708 8.47445 5.11499 8.73569 5.20207L9.74862 5.54126C10.1382 5.66959 10.4269 6.07751 10.4269 6.48542V6.75582C10.4269 7.0354 10.3123 7.27833 10.1061 7.42499C9.97777 7.51666 9.82195 7.56249 9.66153 7.56249ZM8.44694 5.84375C8.42861 5.84375 8.41029 5.84834 8.40112 5.85292C8.38279 5.86667 8.36903 5.89875 8.36903 5.96292V6.23332C8.36903 6.34332 8.47443 6.48999 8.57985 6.52666L9.59277 6.86123C9.65235 6.87956 9.6936 6.87498 9.70735 6.86582C9.72569 6.85207 9.74403 6.81999 9.74403 6.75582V6.48542C9.74403 6.37542 9.6386 6.22875 9.53319 6.19208L8.52029 5.85751C8.48821 5.84834 8.46528 5.84375 8.44694 5.84375Z" fill="#292D32"/>
</svg>
