<svg width="11" height="11" viewBox="0 0 11 11" fill="none" xmlns="http://www.w3.org/2000/svg">
<path d="M3.95994 9.96873H2.2962C1.4437 9.96873 1.0312 9.57457 1.0312 8.75874V2.24126C1.0312 1.42543 1.4437 1.03127 2.2962 1.03127H3.95994C4.81244 1.03127 5.22493 1.42543 5.22493 2.24126V8.75874C5.22493 9.57457 4.81244 9.96873 3.95994 9.96873ZM2.2962 1.71876C1.8012 1.71876 1.7187 1.84251 1.7187 2.24126V8.75874C1.7187 9.15748 1.79661 9.28123 2.2962 9.28123H3.95994C4.45494 9.28123 4.53744 9.15748 4.53744 8.75874V2.24126C4.53744 1.84251 4.45952 1.71876 3.95994 1.71876H2.2962Z" fill="#292D32"/>
<path d="M8.70373 9.96873H7.03998C6.18748 9.96873 5.77499 9.57457 5.77499 8.75874V2.24126C5.77499 1.42543 6.18748 1.03127 7.03998 1.03127H8.70373C9.55622 1.03127 9.96872 1.42543 9.96872 2.24126V8.75874C9.96872 9.57457 9.55622 9.96873 8.70373 9.96873ZM7.03998 1.71876C6.54498 1.71876 6.46248 1.84251 6.46248 2.24126V8.75874C6.46248 9.15748 6.5404 9.28123 7.03998 9.28123H8.70373C9.19872 9.28123 9.28122 9.15748 9.28122 8.75874V2.24126C9.28122 1.84251 9.20331 1.71876 8.70373 1.71876H7.03998Z" fill="#292D32"/>
</svg>
