<svg width="11" height="11" viewBox="0 0 11 11" fill="none" xmlns="http://www.w3.org/2000/svg">
<path d="M5.48615 10.427C2.77283 10.427 0.559088 8.21786 0.559088 5.49995C0.559088 2.78205 2.77283 0.57289 5.48615 0.57289C8.19947 0.57289 10.4132 2.78205 10.4132 5.49995C10.4132 8.21786 8.20406 10.427 5.48615 10.427ZM5.48615 1.26039C3.14866 1.26039 1.24659 3.16246 1.24659 5.49995C1.24659 7.83744 3.14866 9.73952 5.48615 9.73952C7.82364 9.73952 9.72572 7.83744 9.72572 5.49995C9.72572 3.16246 7.82364 1.26039 5.48615 1.26039Z" fill="#292D32"/>
<path d="M4.58788 7.31042H3.99205C3.57039 7.31042 3.32289 7.06751 3.32289 6.65959V4.34043C3.32289 3.93252 3.57497 3.6896 3.99205 3.6896H4.5833C5.00497 3.6896 5.25247 3.93252 5.25247 4.34043V6.65959C5.25705 7.06751 5.00497 7.31042 4.58788 7.31042ZM4.01039 6.62293H4.56955V4.3771H4.01497L4.01039 6.62293Z" fill="#292D32"/>
<path d="M7.00793 7.31042H6.41668C5.99501 7.31042 5.74751 7.06751 5.74751 6.65959V4.34043C5.74751 3.93252 5.9996 3.6896 6.41668 3.6896H7.00793C7.42959 3.6896 7.67709 3.93252 7.67709 4.34043V6.65959C7.67709 7.06751 7.42501 7.31042 7.00793 7.31042ZM6.43043 6.62293H6.98959V4.3771H6.43501L6.43043 6.62293Z" fill="#292D32"/>
</svg>
