<svg width="11" height="11" viewBox="0 0 11 11" fill="none" xmlns="http://www.w3.org/2000/svg">
<path d="M5.48628 10.427C2.77296 10.427 0.559218 8.21786 0.559218 5.49995C0.559218 2.78205 2.77296 0.57289 5.48628 0.57289C8.1996 0.57289 10.4133 2.78205 10.4133 5.49995C10.4133 8.21786 8.20419 10.427 5.48628 10.427ZM5.48628 1.26039C3.14879 1.26039 1.24672 3.16246 1.24672 5.49995C1.24672 7.83744 3.14879 9.73952 5.48628 9.73952C7.82377 9.73952 9.72585 7.83744 9.72585 5.49995C9.72585 3.16246 7.82377 1.26039 5.48628 1.26039Z" fill="#292D32"/>
<path d="M4.83998 7.78705C4.63831 7.78705 4.44581 7.73663 4.27623 7.64039C3.88207 7.41122 3.66207 6.96205 3.66207 6.37539V4.83998C3.66207 4.25332 3.87748 3.80415 4.27165 3.57498C4.66581 3.34582 5.16539 3.38249 5.67414 3.67582L7.0033 4.44123C7.51205 4.73456 7.79163 5.14706 7.79163 5.60539C7.79163 6.05914 7.51205 6.47622 7.0033 6.76956L5.67414 7.53497C5.38998 7.70455 5.10123 7.78705 4.83998 7.78705ZM4.83998 4.11123C4.75748 4.11123 4.67956 4.12957 4.61998 4.16623C4.44581 4.26707 4.34956 4.50998 4.34956 4.83998V6.37539C4.34956 6.70081 4.44581 6.9483 4.61998 7.04455C4.78956 7.14539 5.05081 7.10414 5.33498 6.94372L6.66414 6.17831C6.9483 6.01331 7.10872 5.80706 7.10872 5.60998C7.10872 5.41289 6.94372 5.20664 6.66414 5.04165L5.33498 4.27623C5.15164 4.16623 4.98206 4.11123 4.83998 4.11123Z" fill="#292D32"/>
</svg>
