<svg width="11" height="11" viewBox="0 0 11 11" fill="none" xmlns="http://www.w3.org/2000/svg">
<path d="M3.60713 9.7533C3.24505 9.7533 2.9013 9.66621 2.59881 9.49205C1.88381 9.07955 1.48964 8.2408 1.48964 7.13622V3.86832C1.48964 2.75916 1.88381 1.92499 2.59881 1.5125C3.3138 1.1 4.23505 1.17791 5.19754 1.73249L8.02545 3.36416C8.98336 3.91874 9.51503 4.67957 9.51503 5.50456C9.51503 6.32956 8.98795 7.09039 8.02545 7.64497L5.19754 9.27663C4.64296 9.59288 4.10213 9.7533 3.60713 9.7533ZM3.60713 1.93416C3.35964 1.93416 3.13964 1.98916 2.94255 2.10374C2.44756 2.38791 2.17714 3.01582 2.17714 3.86832V7.13164C2.17714 7.98414 2.44756 8.60747 2.94255 8.89622C3.43755 9.18496 4.11588 9.10247 4.8538 8.67622L7.6817 7.04456C8.41962 6.61831 8.82753 6.07289 8.82753 5.49998C8.82753 4.92707 8.41962 4.38165 7.6817 3.9554L4.8538 2.32374C4.40463 2.06708 3.98297 1.93416 3.60713 1.93416Z" fill="#292D32"/>
</svg>
