<svg width="11" height="11" viewBox="0 0 11 11" fill="none" xmlns="http://www.w3.org/2000/svg">
<path d="M5.49995 10.427C2.78205 10.427 0.57289 8.21786 0.57289 5.49995C0.57289 2.78205 2.78205 0.57289 5.49995 0.57289C8.21786 0.57289 10.427 2.78205 10.427 5.49995C10.427 6.14162 10.3079 6.75578 10.0695 7.33328C10.0283 7.42953 9.95035 7.50286 9.84951 7.53036C9.74868 7.56244 9.64327 7.54412 9.55619 7.48454C9.01536 7.11329 8.2866 7.14079 7.77327 7.54412C7.42036 7.8237 7.21411 8.24994 7.21411 8.70369C7.21411 8.9741 7.28744 9.23993 7.42952 9.46909C7.44327 9.49201 7.45245 9.50578 7.4662 9.51953C7.53953 9.60203 7.56702 9.7166 7.54411 9.8266C7.52119 9.9366 7.44328 10.0237 7.33787 10.0649C6.75579 10.3079 6.13703 10.427 5.49995 10.427ZM5.49995 1.26039C3.16246 1.26039 1.26039 3.16246 1.26039 5.49995C1.26039 7.83744 3.16246 9.73952 5.49995 9.73952C5.91245 9.73952 6.31579 9.67993 6.70537 9.56076C6.59078 9.29493 6.5312 9.00619 6.5312 8.70827C6.5312 8.03911 6.82911 7.42035 7.34703 7.00785C7.97036 6.51286 8.84577 6.39829 9.56076 6.70537C9.67535 6.32037 9.73493 5.91245 9.73493 5.49537C9.73951 3.16246 7.83744 1.26039 5.49995 1.26039Z" fill="#292D32"/>
<path d="M4.98653 7.36538C4.80778 7.36538 4.63819 7.32412 4.49152 7.23704C4.15236 7.03996 3.95528 6.64122 3.95528 6.13706V4.86288C3.95528 4.35872 4.15236 3.95999 4.49152 3.76291C4.83527 3.56582 5.27986 3.59791 5.71527 3.84999L6.81527 4.48705C7.25068 4.73913 7.49818 5.11039 7.49818 5.49997C7.49818 5.88955 7.25068 6.2654 6.81527 6.51289L5.71527 7.14995C5.46777 7.29204 5.22028 7.36538 4.98653 7.36538ZM4.99112 4.32206C4.93153 4.32206 4.8811 4.33581 4.83527 4.35873C4.71152 4.43206 4.64278 4.61539 4.64278 4.86288V6.13706C4.64278 6.38456 4.71152 6.57246 4.83527 6.64121C4.95902 6.70996 5.15152 6.68246 5.37152 6.55413L6.47152 5.91704C6.68693 5.79329 6.81068 5.63747 6.81068 5.49538C6.81068 5.3533 6.68693 5.20206 6.47152 5.07373L5.37152 4.43664C5.22944 4.36331 5.10111 4.32206 4.99112 4.32206Z" fill="#292D32"/>
<path d="M8.70828 10.8854C7.94745 10.8854 7.23245 10.482 6.84745 9.82661C6.6412 9.49661 6.5312 9.10702 6.5312 8.70828C6.5312 8.03911 6.82912 7.42035 7.34703 7.00786C7.73203 6.70077 8.21786 6.5312 8.70828 6.5312C9.9091 6.5312 10.8854 7.50745 10.8854 8.70828C10.8854 9.10702 10.7753 9.49661 10.5691 9.83119C10.4545 10.0237 10.3078 10.1979 10.1337 10.3445C9.75326 10.6929 9.24452 10.8854 8.70828 10.8854ZM8.70828 7.2187C8.36911 7.2187 8.04828 7.33327 7.77786 7.54868C7.42495 7.82827 7.2187 8.25453 7.2187 8.70828C7.2187 8.97869 7.29203 9.24452 7.43411 9.47368C7.69995 9.92285 8.19036 10.1979 8.70828 10.1979C9.07036 10.1979 9.41869 10.0649 9.68452 9.82661C9.80369 9.72577 9.90452 9.6066 9.97785 9.47827C10.1245 9.24452 10.1979 8.97869 10.1979 8.70828C10.1979 7.88786 9.52869 7.2187 8.70828 7.2187Z" fill="#292D32"/>
<path d="M9.39569 9.04283H8.02529C7.83737 9.04283 7.68154 8.887 7.68154 8.69908C7.68154 8.51117 7.83737 8.35533 8.02529 8.35533H9.39569C9.58361 8.35533 9.73944 8.51117 9.73944 8.69908C9.73944 8.887 9.58361 9.04283 9.39569 9.04283Z" fill="#292D32"/>
<path d="M8.70833 9.74406C8.52041 9.74406 8.36458 9.58823 8.36458 9.40031V8.02991C8.36458 7.84199 8.52041 7.68616 8.70833 7.68616C8.89624 7.68616 9.05208 7.84199 9.05208 8.02991V9.40031C9.05208 9.59281 8.89624 9.74406 8.70833 9.74406Z" fill="#292D32"/>
</svg>
