<svg width="11" height="11" viewBox="0 0 11 11" fill="none" xmlns="http://www.w3.org/2000/svg">
<path d="M5.49995 10.427C2.78205 10.427 0.57289 8.21786 0.57289 5.49995C0.57289 2.78205 2.78205 0.57289 5.49995 0.57289C8.21786 0.57289 10.427 2.78205 10.427 5.49995C10.427 6.14162 10.3079 6.75578 10.0695 7.33328C10.0283 7.42953 9.95035 7.50286 9.84951 7.53036C9.74868 7.56244 9.64327 7.54412 9.55619 7.48454C9.01536 7.11329 8.28202 7.14079 7.77327 7.54412C7.42036 7.8237 7.21411 8.24994 7.21411 8.70369C7.21411 8.9741 7.28744 9.23993 7.42952 9.46909C7.44327 9.49201 7.45245 9.50578 7.4662 9.51953C7.53953 9.60203 7.56702 9.7166 7.54411 9.8266C7.52119 9.9366 7.44328 10.0237 7.33787 10.0649C6.75579 10.3079 6.13703 10.427 5.49995 10.427ZM5.49995 1.26039C3.16246 1.26039 1.26039 3.16246 1.26039 5.49995C1.26039 7.83744 3.16246 9.73952 5.49995 9.73952C5.91245 9.73952 6.31579 9.67993 6.70537 9.56076C6.59078 9.29493 6.5312 9.00619 6.5312 8.70827C6.5312 8.03911 6.82911 7.42035 7.34703 7.00785C7.96578 6.51286 8.84577 6.39829 9.56076 6.70537C9.67535 6.32037 9.73493 5.91245 9.73493 5.49537C9.73951 3.16246 7.83744 1.26039 5.49995 1.26039Z" fill="#292D32"/>
<path d="M4.98666 7.36538C4.80791 7.36538 4.63832 7.32412 4.49165 7.23704C4.15249 7.03996 3.95541 6.64122 3.95541 6.13706V4.86288C3.95541 4.35872 4.15249 3.95999 4.49165 3.76291C4.8354 3.56582 5.27999 3.59791 5.7154 3.84999L6.8154 4.48705C7.25081 4.73913 7.49831 5.11039 7.49831 5.49997C7.49831 5.88955 7.25081 6.2654 6.8154 6.51289L5.7154 7.14995C5.4679 7.29204 5.22041 7.36538 4.98666 7.36538ZM4.99125 4.32206C4.93166 4.32206 4.88123 4.33581 4.8354 4.35873C4.71165 4.43206 4.64291 4.61539 4.64291 4.86288V6.13706C4.64291 6.38456 4.71165 6.57246 4.8354 6.64121C4.95915 6.70996 5.15166 6.68246 5.37165 6.55413L6.47165 5.91704C6.68706 5.79329 6.81081 5.63747 6.81081 5.49538C6.81081 5.3533 6.68706 5.20206 6.47165 5.07373L5.37165 4.43664C5.22957 4.36331 5.10124 4.32206 4.99125 4.32206Z" fill="#292D32"/>
<path d="M8.70828 10.8853C7.9887 10.8853 7.32411 10.5324 6.92536 9.94117C6.90703 9.92742 6.87036 9.87242 6.84286 9.822C6.6412 9.49659 6.5312 9.10701 6.5312 8.70826C6.5312 8.0391 6.82912 7.42034 7.34703 7.00784C8.08494 6.42118 9.1712 6.37993 9.94578 6.92076C10.5324 7.32867 10.8808 7.99326 10.8808 8.70826C10.8808 9.10701 10.7708 9.4966 10.5645 9.83118C10.4499 10.0237 10.3033 10.1978 10.1291 10.3445C9.75327 10.6928 9.24452 10.8853 8.70828 10.8853ZM8.70828 7.21868C8.36911 7.21868 8.04828 7.33325 7.77786 7.54867C7.42495 7.82825 7.2187 8.25451 7.2187 8.70826C7.2187 8.97868 7.29203 9.2445 7.43411 9.47367C7.44786 9.49658 7.45703 9.51035 7.47078 9.5241C7.76869 9.95952 8.22245 10.1978 8.71286 10.1978C9.07495 10.1978 9.42328 10.0649 9.68911 9.82659C9.80828 9.72576 9.9091 9.60659 9.98244 9.47825C10.1291 9.24451 10.2024 8.97868 10.2024 8.70826C10.2024 8.22243 9.9641 7.76411 9.56077 7.48911C9.3041 7.31036 9.01077 7.21868 8.70828 7.21868Z" fill="#292D32"/>
<path d="M9.19864 9.52862C9.11156 9.52862 9.02447 9.49655 8.95572 9.4278L7.98864 8.46073C7.85572 8.32781 7.85572 8.10782 7.98864 7.9749C8.12155 7.84198 8.34155 7.84198 8.47447 7.9749L9.44155 8.94197C9.57447 9.07489 9.57447 9.29489 9.44155 9.4278C9.3728 9.49655 9.28572 9.52862 9.19864 9.52862Z" fill="#292D32"/>
<path d="M8.21801 9.54239C8.13093 9.54239 8.04385 9.51029 7.9751 9.44154C7.84218 9.30862 7.84218 9.08863 7.9751 8.95571L8.94218 7.98864C9.0751 7.85572 9.2951 7.85572 9.42801 7.98864C9.56093 8.12155 9.56093 8.34155 9.42801 8.47447L8.46093 9.44154C8.39218 9.51029 8.30509 9.54239 8.21801 9.54239Z" fill="#292D32"/>
</svg>
