<svg width="11" height="11" viewBox="0 0 11 11" fill="none" xmlns="http://www.w3.org/2000/svg">
<path d="M8.74025 9.08405C8.65317 9.08405 8.56609 9.05195 8.49734 8.98321C8.36442 8.85029 8.36442 8.63029 8.49734 8.49737C10.1519 6.8428 10.1519 4.15241 8.49734 2.50242C8.36442 2.3695 8.36442 2.1495 8.49734 2.01659C8.63025 1.88367 8.85025 1.88367 8.98317 2.01659C10.9036 3.937 10.9036 7.0628 8.98317 8.98321C8.91442 9.05195 8.82733 9.08405 8.74025 9.08405Z" fill="#292D32"/>
<path d="M2.2595 9.08405C2.17241 9.08405 2.08533 9.05195 2.01658 8.98321C0.0961725 7.0628 0.0961725 3.937 2.01658 2.01659C2.1495 1.88367 2.3695 1.88367 2.50241 2.01659C2.63533 2.1495 2.63533 2.3695 2.50241 2.50242C0.847835 4.157 0.847835 6.84738 2.50241 8.49737C2.63533 8.63029 2.63533 8.85029 2.50241 8.98321C2.43366 9.05195 2.34658 9.08405 2.2595 9.08405Z" fill="#292D32"/>
<path d="M5.49985 10.4087C4.92694 10.4041 4.38153 10.3124 3.87278 10.1336C3.69403 10.0695 3.59777 9.87241 3.66194 9.69366C3.7261 9.51491 3.91861 9.41865 4.10195 9.48282C4.54194 9.63407 5.00944 9.71657 5.50444 9.71657C5.99485 9.71657 6.46693 9.63407 6.90234 9.48282C7.08109 9.42324 7.27817 9.51491 7.34234 9.69366C7.40651 9.87241 7.31026 10.0695 7.13151 10.1336C6.61818 10.3124 6.07277 10.4087 5.49985 10.4087Z" fill="#292D32"/>
<path d="M7.01249 1.53085C6.97582 1.53085 6.93457 1.52625 6.89791 1.5125C6.45791 1.36125 5.98583 1.27875 5.49541 1.27875C5.005 1.27875 4.5375 1.36125 4.09751 1.5125C3.91876 1.57208 3.72168 1.48043 3.65751 1.30168C3.59335 1.12293 3.68959 0.925842 3.86834 0.861676C4.37709 0.682927 4.92708 0.591248 5.49541 0.591248C6.06374 0.591248 6.61375 0.682927 7.1225 0.861676C7.30125 0.925842 7.39749 1.12293 7.33333 1.30168C7.28749 1.44377 7.15457 1.53085 7.01249 1.53085Z" fill="#292D32"/>
<path d="M4.84011 7.68159C4.63845 7.68159 4.44594 7.63117 4.27636 7.53492C3.88219 7.30576 3.6622 6.85659 3.6622 6.26993V4.73453C3.6622 4.14786 3.87761 3.69869 4.27636 3.46953C4.67052 3.24036 5.17012 3.27701 5.67887 3.57035L7.00802 4.33578C7.51677 4.62911 7.79636 5.0416 7.79636 5.49993C7.79636 5.95826 7.51677 6.37075 7.00802 6.66408L5.67887 7.42952C5.39012 7.5991 5.10136 7.68159 4.84011 7.68159ZM4.84011 4.00577C4.75761 4.00577 4.67969 4.0241 4.62011 4.06076C4.45052 4.1616 4.34969 4.40452 4.34969 4.72994V6.26534C4.34969 6.59075 4.44594 6.83826 4.62011 6.93451C4.78969 7.03076 5.05095 6.99408 5.33512 6.83366L6.66428 6.06826C6.94844 5.90326 7.10886 5.69701 7.10886 5.49993C7.10886 5.30285 6.94844 5.0966 6.66428 4.9316L5.33512 4.1662C5.15178 4.06078 4.98219 4.00577 4.84011 4.00577Z" fill="#292D32"/>
</svg>
