<svg width="11" height="11" viewBox="0 0 11 11" fill="none" xmlns="http://www.w3.org/2000/svg">
<path d="M8.10789 9.20785C7.84664 9.20785 7.58998 9.1391 7.35165 9.00161L3.55208 6.81077C3.07999 6.53577 2.79583 6.04536 2.79583 5.49995C2.79583 4.95453 3.07999 4.46412 3.55208 4.18912L7.35165 1.99829C7.82373 1.72329 8.38747 1.72329 8.86414 1.99829C9.3408 2.27329 9.62038 2.75912 9.62038 3.30912V7.69536C9.62038 8.24077 9.33622 8.73118 8.86414 9.00618C8.6258 9.1391 8.36914 9.20785 8.10789 9.20785ZM8.10789 2.47954C7.96581 2.47954 7.82373 2.51621 7.6954 2.58954L3.89582 4.78036C3.63916 4.93161 3.48333 5.19744 3.48333 5.49536C3.48333 5.79327 3.63916 6.0591 3.89582 6.21035L7.6954 8.40118C7.95206 8.55243 8.26372 8.55243 8.52039 8.40118C8.77705 8.24993 8.93288 7.9841 8.93288 7.68618V3.29996C8.93288 3.00205 8.77705 2.73621 8.52039 2.58496C8.39205 2.5208 8.24997 2.47954 8.10789 2.47954Z" fill="#292D32"/>
<path d="M1.72311 8.67625C1.53519 8.67625 1.37936 8.52042 1.37936 8.3325V2.66753C1.37936 2.47962 1.53519 2.32378 1.72311 2.32378C1.91103 2.32378 2.06686 2.47962 2.06686 2.66753V8.3325C2.06686 8.52042 1.91103 8.67625 1.72311 8.67625Z" fill="#292D32"/>
</svg>
