<svg width="11" height="11" viewBox="0 0 11 11" fill="none" xmlns="http://www.w3.org/2000/svg">
<path d="M7.79161 10.427H3.2083C1.63164 10.427 0.57289 9.36828 0.57289 7.79162V4.5833C0.57289 3.00664 1.63164 1.94789 3.2083 1.94789H7.79161C9.36827 1.94789 10.427 3.00664 10.427 4.5833V7.79162C10.427 9.36828 9.36827 10.427 7.79161 10.427ZM3.2083 2.63539C2.0258 2.63539 1.26039 3.4008 1.26039 4.5833V7.79162C1.26039 8.97411 2.0258 9.73952 3.2083 9.73952H7.79161C8.97411 9.73952 9.73952 8.97411 9.73952 7.79162V4.5833C9.73952 3.4008 8.97411 2.63539 7.79161 2.63539H3.2083Z" fill="#292D32"/>
<path d="M3.2082 2.63538C3.02028 2.63538 2.86445 2.47955 2.86445 2.29163V0.916638C2.86445 0.728722 3.02028 0.57289 3.2082 0.57289C3.39611 0.57289 3.55194 0.728722 3.55194 0.916638V2.29163C3.55194 2.47955 3.39611 2.63538 3.2082 2.63538Z" fill="#292D32"/>
<path d="M3.89571 7.67704C3.0753 7.67704 2.40614 7.00788 2.40614 6.18747C2.40614 5.36705 3.0753 4.69789 3.89571 4.69789C4.71613 4.69789 5.38529 5.36705 5.38529 6.18747C5.38529 7.00788 4.71613 7.67704 3.89571 7.67704ZM3.89571 5.38539C3.45572 5.38539 3.09363 5.74747 3.09363 6.18747C3.09363 6.62747 3.45572 6.98955 3.89571 6.98955C4.33571 6.98955 4.69779 6.62747 4.69779 6.18747C4.69779 5.74747 4.33571 5.38539 3.89571 5.38539Z" fill="#292D32"/>
<path d="M8.47912 5.38539H6.64579C6.45788 5.38539 6.30205 5.22955 6.30205 5.04164C6.30205 4.85372 6.45788 4.69789 6.64579 4.69789H8.47912C8.66704 4.69789 8.82287 4.85372 8.82287 5.04164C8.82287 5.22955 8.66704 5.38539 8.47912 5.38539Z" fill="#292D32"/>
<path d="M6.87496 7.2187H6.64579C6.45788 7.2187 6.30205 7.06287 6.30205 6.87495C6.30205 6.68703 6.45788 6.5312 6.64579 6.5312H6.87496C7.06288 6.5312 7.21871 6.68703 7.21871 6.87495C7.21871 7.06287 7.06288 7.2187 6.87496 7.2187Z" fill="#292D32"/>
<path d="M8.47905 7.2187H8.24988C8.06197 7.2187 7.90614 7.06287 7.90614 6.87495C7.90614 6.68703 8.06197 6.5312 8.24988 6.5312H8.47905C8.66697 6.5312 8.8228 6.68703 8.8228 6.87495C8.8228 7.06287 8.66697 7.2187 8.47905 7.2187Z" fill="#292D32"/>
</svg>
