<svg width="11" height="11" viewBox="0 0 11 11" fill="none" xmlns="http://www.w3.org/2000/svg">
<path d="M5.48615 10.427C2.77283 10.427 0.559088 8.21786 0.559088 5.49995C0.559088 2.78205 2.77283 0.57289 5.48615 0.57289C8.19947 0.57289 10.4132 2.78205 10.4132 5.49995C10.4132 8.21786 8.20406 10.427 5.48615 10.427ZM5.48615 1.26039C3.14866 1.26039 1.24659 3.16246 1.24659 5.49995C1.24659 7.83744 3.14866 9.73952 5.48615 9.73952C7.82364 9.73952 9.72572 7.83744 9.72572 5.49995C9.72572 3.16246 7.82364 1.26039 5.48615 1.26039Z" fill="#292D32"/>
<path d="M5.49992 7.78247C4.2395 7.78247 3.21743 6.76039 3.21743 5.49998C3.21743 4.23957 4.2395 3.21749 5.49992 3.21749C6.76033 3.21749 7.78241 4.23957 7.78241 5.49998C7.78241 6.76039 6.76033 7.78247 5.49992 7.78247ZM5.49992 3.90499C4.61992 3.90499 3.90492 4.61999 3.90492 5.49998C3.90492 6.37998 4.61992 7.09497 5.49992 7.09497C6.37991 7.09497 7.09491 6.37998 7.09491 5.49998C7.09491 4.61999 6.37991 3.90499 5.49992 3.90499Z" fill="#292D32"/>
</svg>
