<svg width="11" height="11" viewBox="0 0 11 11" fill="none" xmlns="http://www.w3.org/2000/svg">
<path d="M1.79205 7.87401C1.70497 7.87401 1.61789 7.84194 1.54914 7.77319C0.921224 7.14069 0.57289 6.30653 0.57289 5.42195C0.57289 3.58404 2.06247 2.08987 3.89579 2.08987L6.67787 2.09904L6.17828 1.62236C6.04078 1.48944 6.0362 1.27403 6.16912 1.13653C6.30204 0.99903 6.51745 0.994466 6.65495 1.12738L7.77328 2.19986C7.87411 2.29611 7.90619 2.44736 7.85578 2.5757C7.80536 2.70403 7.67703 2.79113 7.53495 2.79113L3.89121 2.78195C2.4383 2.78195 1.25581 3.96904 1.25581 5.42653C1.25581 6.12778 1.5308 6.79234 2.03038 7.29192C2.1633 7.42484 2.1633 7.64483 2.03038 7.77775C1.96621 7.84192 1.87914 7.87401 1.79205 7.87401Z" fill="#292D32"/>
<path d="M4.58323 9.96863C4.49615 9.96863 4.41365 9.93653 4.3449 9.87237L3.22657 8.79989C3.12574 8.70364 3.09366 8.55238 3.14407 8.42405C3.19449 8.29572 3.32282 8.20862 3.4649 8.20862L7.10864 8.2178C8.56155 8.2178 9.74404 7.03071 9.74404 5.57322C9.74404 4.87197 9.46905 4.20741 8.96947 3.70783C8.83655 3.57491 8.83655 3.35492 8.96947 3.222C9.10238 3.08908 9.32238 3.08908 9.4553 3.222C10.0832 3.8545 10.4315 4.68864 10.4315 5.57322C10.4315 7.41112 8.94196 8.90529 7.10864 8.90529L4.32657 8.89612L4.82615 9.3728C4.96365 9.50572 4.96823 9.72113 4.83532 9.85863C4.76198 9.93196 4.6749 9.96863 4.58323 9.96863Z" fill="#292D32"/>
<path d="M6.87494 5.84363H4.12495C3.93703 5.84363 3.7812 5.6878 3.7812 5.49988C3.7812 5.31197 3.93703 5.15614 4.12495 5.15614H6.87494C7.06285 5.15614 7.21869 5.31197 7.21869 5.49988C7.21869 5.6878 7.06285 5.84363 6.87494 5.84363Z" fill="#292D32"/>
</svg>
