<svg width="11" height="11" viewBox="0 0 11 11" fill="none" xmlns="http://www.w3.org/2000/svg">
<path d="M1.79205 7.87401C1.70497 7.87401 1.61789 7.84194 1.54914 7.77319C0.921224 7.14069 0.57289 6.30653 0.57289 5.42195C0.57289 3.58404 2.06247 2.08987 3.89579 2.08987L6.67787 2.09904L6.17829 1.62236C6.04079 1.48944 6.0362 1.27403 6.16911 1.13653C6.30203 0.99903 6.51744 0.994466 6.65494 1.12738L7.77327 2.19986C7.87411 2.29611 7.9062 2.44736 7.85578 2.5757C7.80537 2.70403 7.67703 2.79113 7.53495 2.79113L3.89121 2.78195C2.43829 2.78195 1.2558 3.96904 1.2558 5.42653C1.2558 6.12778 1.5308 6.79234 2.03038 7.29192C2.1633 7.42484 2.1633 7.64483 2.03038 7.77775C1.96621 7.84192 1.87914 7.87401 1.79205 7.87401Z" fill="#292D32"/>
<path d="M4.58324 9.96863C4.49615 9.96863 4.41366 9.93653 4.34491 9.87237L3.22658 8.79989C3.12575 8.70364 3.09365 8.55238 3.14407 8.42405C3.19448 8.29572 3.32282 8.20862 3.46491 8.20862L7.10865 8.2178C8.56156 8.2178 9.74405 7.03071 9.74405 5.57322C9.74405 4.87197 9.46905 4.20741 8.96947 3.70783C8.83656 3.57491 8.83656 3.35492 8.96947 3.222C9.10239 3.08908 9.32239 3.08908 9.4553 3.222C10.0832 3.8545 10.4316 4.68864 10.4316 5.57322C10.4316 7.41112 8.94197 8.90529 7.10865 8.90529L4.32657 8.89612L4.82615 9.3728C4.96365 9.50572 4.96823 9.72113 4.83531 9.85863C4.76198 9.93196 4.6749 9.96863 4.58324 9.96863Z" fill="#292D32"/>
<path d="M5.6146 7.0674C5.42669 7.0674 5.27085 6.91157 5.27085 6.72365V5.16993L5.18377 5.26616C5.05544 5.40824 4.84002 5.41741 4.69794 5.29366C4.55586 5.16991 4.54669 4.94991 4.67044 4.80783L5.35794 4.04242C5.45419 3.93701 5.60543 3.90033 5.73835 3.95075C5.87126 4.00117 5.95835 4.12951 5.95835 4.27159V6.72365C5.95835 6.91615 5.80252 7.0674 5.6146 7.0674Z" fill="#292D32"/>
</svg>
