<svg width="11" height="11" viewBox="0 0 11 11" fill="none" xmlns="http://www.w3.org/2000/svg">
<path d="M6.87495 10.427H4.12496C1.63622 10.427 0.57289 9.36369 0.57289 6.87495V4.12496C0.57289 1.63622 1.63622 0.57289 4.12496 0.57289H6.87495C9.36369 0.57289 10.427 1.63622 10.427 4.12496V6.87495C10.427 9.36369 9.36369 10.427 6.87495 10.427ZM4.12496 1.26039C2.01205 1.26039 1.26039 2.01205 1.26039 4.12496V6.87495C1.26039 8.98786 2.01205 9.73952 4.12496 9.73952H6.87495C8.98786 9.73952 9.73952 8.98786 9.73952 6.87495V4.12496C9.73952 2.01205 8.98786 1.26039 6.87495 1.26039H4.12496Z" fill="#292D32"/>
<path d="M3.85916 5.33956C3.18541 5.33956 2.63542 4.78957 2.63542 4.11582C2.63542 3.44207 3.18541 2.88749 3.85916 2.88749C4.53291 2.88749 5.08292 3.43749 5.08292 4.11582C5.08292 4.79415 4.53749 5.33956 3.85916 5.33956ZM3.85916 3.57499C3.56124 3.57499 3.32292 3.8179 3.32292 4.11582C3.32292 4.41373 3.56583 4.65207 3.85916 4.65207C4.15249 4.65207 4.39543 4.40915 4.39543 4.11582C4.39543 3.82249 4.15707 3.57499 3.85916 3.57499Z" fill="#292D32"/>
<path d="M3.85916 8.11248C3.18541 8.11248 2.63542 7.56248 2.63542 6.88415C2.63542 6.20582 3.18541 5.66041 3.85916 5.66041C4.53291 5.66041 5.08292 6.21041 5.08292 6.88415C5.08292 7.5579 4.53749 8.11248 3.85916 8.11248ZM3.85916 6.34791C3.56124 6.34791 3.32292 6.59082 3.32292 6.88415C3.32292 7.17749 3.56583 7.42498 3.85916 7.42498C4.15249 7.42498 4.39543 7.18207 4.39543 6.88415C4.39543 6.58624 4.15707 6.34791 3.85916 6.34791Z" fill="#292D32"/>
<path d="M4.65654 6.84744C4.55113 6.84744 4.45031 6.8016 4.38156 6.70994C4.26697 6.55869 4.29907 6.34327 4.45032 6.22869L7.81446 3.71245C7.9657 3.59787 8.18111 3.62995 8.2957 3.7812C8.41028 3.93245 8.37821 4.14787 8.22696 4.26245L4.8628 6.77869C4.79863 6.82452 4.72988 6.84744 4.65654 6.84744Z" fill="#292D32"/>
<path d="M8.02071 7.34709C7.94738 7.34709 7.87862 7.32418 7.81446 7.27834L4.45032 4.7621C4.29907 4.64752 4.26697 4.4321 4.38156 4.28085C4.49614 4.1296 4.71155 4.09752 4.8628 4.2121L8.22696 6.72834C8.37821 6.84292 8.41028 7.05834 8.2957 7.20959C8.22695 7.30126 8.12613 7.34709 8.02071 7.34709Z" fill="#292D32"/>
</svg>
