<svg width="11" height="11" viewBox="0 0 11 11" fill="none" xmlns="http://www.w3.org/2000/svg">
<path d="M6.87495 10.4271H4.12496C1.63622 10.4271 0.57289 9.36375 0.57289 6.87501V4.12502C0.57289 1.63628 1.63622 0.572955 4.12496 0.572955H6.87495C9.36369 0.572955 10.427 1.63628 10.427 4.12502V6.87501C10.427 9.36375 9.36369 10.4271 6.87495 10.4271ZM4.12496 1.26045C2.01205 1.26045 1.26039 2.01212 1.26039 4.12502V6.87501C1.26039 8.98792 2.01205 9.73959 4.12496 9.73959H6.87495C8.98786 9.73959 9.73952 8.98792 9.73952 6.87501V4.12502C9.73952 2.01212 8.98786 1.26045 6.87495 1.26045H4.12496Z" fill="#292D32"/>
<path d="M7.51657 8.82291H5.77491C4.89492 8.82291 4.46867 8.39666 4.46867 7.51666V6.69167C4.46867 5.81167 4.89492 5.38542 5.77491 5.38542H7.51657C8.39657 5.38542 8.82282 5.81167 8.82282 6.69167V7.51666C8.82282 8.39666 8.39657 8.82291 7.51657 8.82291ZM5.77491 6.07292C5.27992 6.07292 5.15617 6.19667 5.15617 6.69167V7.51666C5.15617 8.01166 5.27992 8.13541 5.77491 8.13541H7.51657C8.01157 8.13541 8.13532 8.01166 8.13532 7.51666V6.69167C8.13532 6.19667 8.01157 6.07292 7.51657 6.07292H5.77491Z" fill="#292D32"/>
</svg>
