<svg width="11" height="11" viewBox="0 0 11 11" fill="none" xmlns="http://www.w3.org/2000/svg">
<path d="M2.54844 8.58909C2.54844 8.58909 2.54386 8.58909 2.53928 8.58909L1.37052 8.5845C1.18261 8.5845 1.02677 8.42867 1.02677 8.24075C1.02677 8.05284 1.18261 7.897 1.37052 7.897L2.53928 7.90159H2.54385C2.84177 7.90159 3.12136 7.75493 3.28636 7.50285L6.21509 3.11202C6.50842 2.67202 6.99883 2.4062 7.5305 2.4062C7.5305 2.4062 7.53509 2.4062 7.53967 2.4062L9.62508 2.41538C9.81299 2.41538 9.96883 2.57121 9.96883 2.75913C9.96883 2.94704 9.81299 3.10287 9.62508 3.10287L7.53967 3.0937H7.53509C7.23717 3.0937 6.95759 3.24036 6.79259 3.49244L3.86385 7.88327C3.57052 8.32785 3.0801 8.58909 2.54844 8.58909Z" fill="#292D32"/>
<path d="M8.70822 9.50106C8.62114 9.50106 8.53406 9.46899 8.46531 9.40024C8.33239 9.26733 8.33239 9.04733 8.46531 8.91441L9.38197 7.99775C9.51489 7.86483 9.73488 7.86483 9.8678 7.99775C10.0007 8.13067 10.0007 8.35066 9.8678 8.48358L8.95114 9.40024C8.88239 9.46899 8.7953 9.50106 8.70822 9.50106Z" fill="#292D32"/>
<path d="M4.07453 4.29908C3.96911 4.29908 3.86369 4.24867 3.79494 4.157L3.29995 3.4695C3.13037 3.23575 2.85077 3.09826 2.57119 3.09826L1.37495 3.10284C1.16412 3.09826 1.0312 2.95159 1.0312 2.75909C1.0312 2.57118 1.18245 2.41535 1.37495 2.41535L2.57119 2.41076C2.57577 2.41076 2.57578 2.41076 2.58036 2.41076C3.08911 2.41076 3.56577 2.65825 3.86369 3.06617L4.35869 3.75367C4.46869 3.9095 4.4366 4.12033 4.28077 4.23491C4.2166 4.27616 4.14786 4.29908 4.07453 4.29908Z" fill="#292D32"/>
<path d="M7.47999 8.59364C6.99416 8.59364 6.52666 8.36446 6.22874 7.97947L5.66958 7.25991C5.55499 7.10866 5.5825 6.89322 5.72916 6.77864C5.88041 6.66406 6.09582 6.69156 6.21041 6.83822L6.76957 7.55781C6.93915 7.77781 7.20958 7.88781 7.47999 7.90614L9.62039 7.89697C9.80831 7.89697 9.96414 8.04822 9.96414 8.24072C9.96414 8.42863 9.81289 8.58447 9.62039 8.58447L7.47999 8.59364C7.48458 8.59364 7.47999 8.59364 7.47999 8.59364Z" fill="#292D32"/>
<path d="M9.62488 3.10283C9.5378 3.10283 9.45072 3.07073 9.38197 3.00198L8.46531 2.08532C8.33239 1.9524 8.33239 1.7324 8.46531 1.59949C8.59822 1.46657 8.81822 1.46657 8.95114 1.59949L9.8678 2.51615C10.0007 2.64906 10.0007 2.86906 9.8678 3.00198C9.79905 3.07073 9.71197 3.10283 9.62488 3.10283Z" fill="#292D32"/>
</svg>
