<svg width="11" height="11" viewBox="0 0 11 11" fill="none" xmlns="http://www.w3.org/2000/svg">
<path d="M6.73743 9.96873H4.26244C1.99828 9.96873 1.0312 9.00165 1.0312 6.73749V4.2625C1.0312 1.99835 1.99828 1.03127 4.26244 1.03127H6.73743C9.00159 1.03127 9.96867 1.99835 9.96867 4.2625V6.73749C9.96867 9.00165 9.00159 9.96873 6.73743 9.96873ZM4.26244 1.71876C2.38328 1.71876 1.7187 2.38334 1.7187 4.2625V6.73749C1.7187 8.61665 2.38328 9.28123 4.26244 9.28123H6.73743C8.61659 9.28123 9.28117 8.61665 9.28117 6.73749V4.2625C9.28117 2.38334 8.61659 1.71876 6.73743 1.71876H4.26244Z" fill="#292D32"/>
</svg>
