<svg width="11" height="11" viewBox="0 0 11 11" fill="none" xmlns="http://www.w3.org/2000/svg">
<path d="M5.48628 10.427C2.77296 10.427 0.559218 8.21786 0.559218 5.49995C0.559218 2.78205 2.77296 0.57289 5.48628 0.57289C8.1996 0.57289 10.4133 2.78205 10.4133 5.49995C10.4133 8.21786 8.20419 10.427 5.48628 10.427ZM5.48628 1.26039C3.14879 1.26039 1.24672 3.16246 1.24672 5.49995C1.24672 7.83744 3.14879 9.73952 5.48628 9.73952C7.82377 9.73952 9.72585 7.83744 9.72585 5.49995C9.72585 3.16246 7.82377 1.26039 5.48628 1.26039Z" fill="#292D32"/>
<path d="M6.08213 7.78247H4.91797C3.75839 7.78247 3.21756 7.24164 3.21756 6.08206V4.9179C3.21756 3.75832 3.75839 3.21749 4.91797 3.21749H6.08213C7.24171 3.21749 7.78254 3.75832 7.78254 4.9179V6.08206C7.78254 7.24164 7.24171 7.78247 6.08213 7.78247ZM4.91797 3.90499C4.14339 3.90499 3.90505 4.14332 3.90505 4.9179V6.08206C3.90505 6.85664 4.14339 7.09497 4.91797 7.09497H6.08213C6.85671 7.09497 7.09504 6.85664 7.09504 6.08206V4.9179C7.09504 4.14332 6.85671 3.90499 6.08213 3.90499H4.91797Z" fill="#292D32"/>
</svg>
