<svg width="11" height="11" viewBox="0 0 11 11" fill="none" xmlns="http://www.w3.org/2000/svg">
<path d="M6.87495 10.427H4.12496C1.63622 10.427 0.57289 9.36369 0.57289 6.87495V4.12496C0.57289 1.63622 1.63622 0.57289 4.12496 0.57289H6.87495C9.36369 0.57289 10.427 1.63622 10.427 4.12496V6.87495C10.427 9.36369 9.36369 10.427 6.87495 10.427ZM4.12496 1.26039C2.01205 1.26039 1.26039 2.01205 1.26039 4.12496V6.87495C1.26039 8.98786 2.01205 9.73952 4.12496 9.73952H6.87495C8.98786 9.73952 9.73952 8.98786 9.73952 6.87495V4.12496C9.73952 2.01205 8.98786 1.26039 6.87495 1.26039H4.12496Z" fill="#292D32"/>
<path d="M8.02077 8.17204H7.17285C6.98494 8.17204 6.8291 8.01621 6.8291 7.82829C6.8291 7.64037 6.98494 7.48454 7.17285 7.48454H8.02077C8.20868 7.48454 8.36451 7.64037 8.36451 7.82829C8.36451 8.01621 8.20868 8.17204 8.02077 8.17204Z" fill="#292D32"/>
<path d="M5.94458 8.17204H2.97917C2.79125 8.17204 2.63542 8.01621 2.63542 7.82829C2.63542 7.64037 2.79125 7.48454 2.97917 7.48454H5.94458C6.13249 7.48454 6.28832 7.64037 6.28832 7.82829C6.28832 8.01621 6.13707 8.17204 5.94458 8.17204Z" fill="#292D32"/>
<path d="M8.02079 6.44868H5.48621C5.2983 6.44868 5.14246 6.29285 5.14246 6.10493C5.14246 5.91702 5.2983 5.76119 5.48621 5.76119H8.02079C8.2087 5.76119 8.36454 5.91702 8.36454 6.10493C8.36454 6.29285 8.2087 6.44868 8.02079 6.44868Z" fill="#292D32"/>
<path d="M4.24875 6.44868H2.97917C2.79125 6.44868 2.63542 6.29285 2.63542 6.10493C2.63542 5.91702 2.79125 5.76119 2.97917 5.76119H4.24875C4.43667 5.76119 4.5925 5.91702 4.5925 6.10493C4.5925 6.29285 4.43667 6.44868 4.24875 6.44868Z" fill="#292D32"/>
</svg>
