<svg width="11" height="11" viewBox="0 0 11 11" fill="none" xmlns="http://www.w3.org/2000/svg">
<path d="M6.87495 10.4271H4.12496C1.63622 10.4271 0.57289 9.36375 0.57289 6.87501V4.12502C0.57289 1.63628 1.63622 0.572955 4.12496 0.572955H6.87495C9.36369 0.572955 10.427 1.63628 10.427 4.12502V6.87501C10.427 9.36375 9.36369 10.4271 6.87495 10.4271ZM4.12496 1.26045C2.01205 1.26045 1.26039 2.01212 1.26039 4.12502V6.87501C1.26039 8.98792 2.01205 9.73959 4.12496 9.73959H6.87495C8.98786 9.73959 9.73952 8.98792 9.73952 6.87501V4.12502C9.73952 2.01212 8.98786 1.26045 6.87495 1.26045H4.12496Z" fill="#292D32"/>
<path d="M4.93164 7.50298C4.73914 7.50298 4.56039 7.45715 4.39997 7.36548C4.03331 7.15465 3.82248 6.72382 3.82248 6.17841V4.82174C3.82248 4.28091 4.03331 3.8455 4.39997 3.63467C4.76664 3.42383 5.2433 3.45592 5.71538 3.73092L6.8933 4.40925C7.36079 4.67966 7.63121 5.07841 7.63121 5.50007C7.63121 5.92174 7.36079 6.32049 6.8933 6.5909L5.71538 7.26923C5.44955 7.42507 5.17914 7.50298 4.93164 7.50298ZM4.93622 4.18466C4.86289 4.18466 4.79872 4.19841 4.7483 4.2305C4.60164 4.31758 4.51456 4.533 4.51456 4.82174V6.17841C4.51456 6.46715 4.59706 6.68257 4.7483 6.76965C4.89497 6.85674 5.12414 6.82007 5.37622 6.6734L6.55413 5.99507C6.80621 5.84841 6.9483 5.66966 6.9483 5.50007C6.9483 5.33049 6.80621 5.14716 6.55413 5.00508L5.37622 4.32675C5.21122 4.2305 5.05997 4.18466 4.93622 4.18466Z" fill="#292D32"/>
</svg>
