<svg width="11" height="11" viewBox="0 0 11 11" fill="none" xmlns="http://www.w3.org/2000/svg">
<path d="M6.87495 10.427H4.12496C1.63622 10.427 0.57289 9.36369 0.57289 6.87495V4.12496C0.57289 1.63622 1.63622 0.57289 4.12496 0.57289H6.87495C9.36369 0.57289 10.427 1.63622 10.427 4.12496V6.87495C10.427 9.36369 9.36369 10.427 6.87495 10.427ZM4.12496 1.26039C2.01205 1.26039 1.26039 2.01205 1.26039 4.12496V6.87495C1.26039 8.98786 2.01205 9.73952 4.12496 9.73952H6.87495C8.98786 9.73952 9.73952 8.98786 9.73952 6.87495V4.12496C9.73952 2.01205 8.98786 1.26039 6.87495 1.26039H4.12496Z" fill="#292D32"/>
<path d="M3.15794 10.1887C2.97002 10.1887 2.81419 10.0329 2.81419 9.84494V1.15497C2.81419 0.967057 2.97002 0.811225 3.15794 0.811225C3.34585 0.811225 3.50169 0.962474 3.50169 1.15497V9.84494C3.50169 10.0374 3.34585 10.1887 3.15794 10.1887Z" fill="#292D32"/>
<path d="M7.74118 10.1887C7.55327 10.1887 7.39744 10.0329 7.39744 9.84494V1.15497C7.39744 0.967057 7.55327 0.811225 7.74118 0.811225C7.9291 0.811225 8.08493 0.967057 8.08493 1.15497V9.84494C8.08493 10.0374 7.9291 10.1887 7.74118 10.1887Z" fill="#292D32"/>
<path d="M3.15789 3.53827H1.16415C0.976237 3.53827 0.820404 3.38244 0.820404 3.19453C0.820404 3.00661 0.976237 2.85078 1.16415 2.85078H3.15789C3.34581 2.85078 3.50164 3.00661 3.50164 3.19453C3.50164 3.38244 3.34581 3.53827 3.15789 3.53827Z" fill="#292D32"/>
<path d="M3.15793 5.8437H0.93044C0.742524 5.8437 0.586691 5.68787 0.586691 5.49995C0.586691 5.31203 0.742524 5.1562 0.93044 5.1562H3.15793C3.34585 5.1562 3.50168 5.31203 3.50168 5.49995C3.50168 5.68787 3.34585 5.8437 3.15793 5.8437Z" fill="#292D32"/>
<path d="M3.15792 8.12159H1.13668C0.948764 8.12159 0.792931 7.96575 0.792931 7.77784C0.792931 7.58992 0.948764 7.43409 1.13668 7.43409H3.15792C3.34584 7.43409 3.50167 7.58992 3.50167 7.77784C3.50167 7.96575 3.34584 8.12159 3.15792 8.12159Z" fill="#292D32"/>
<path d="M10.033 3.53827H8.03922C7.8513 3.53827 7.69547 3.38244 7.69547 3.19453C7.69547 3.00661 7.8513 2.85078 8.03922 2.85078H10.033C10.2209 2.85078 10.3767 3.00661 10.3767 3.19453C10.3767 3.38244 10.2209 3.53827 10.033 3.53827Z" fill="#292D32"/>
<path d="M10.0329 5.8437H7.80537C7.61746 5.8437 7.46163 5.68787 7.46163 5.49995C7.46163 5.31203 7.61746 5.1562 7.80537 5.1562H10.0329C10.2208 5.1562 10.3766 5.31203 10.3766 5.49995C10.3766 5.68787 10.2208 5.8437 10.0329 5.8437Z" fill="#292D32"/>
<path d="M7.77786 5.8437H2.73621C2.5483 5.8437 2.39246 5.68787 2.39246 5.49995C2.39246 5.31203 2.5483 5.1562 2.73621 5.1562H7.77786C7.96578 5.1562 8.12161 5.31203 8.12161 5.49995C8.12161 5.68787 7.97036 5.8437 7.77786 5.8437Z" fill="#292D32"/>
<path d="M10.0329 8.12159H8.01161C7.8237 8.12159 7.66787 7.96575 7.66787 7.77784C7.66787 7.58992 7.8237 7.43409 8.01161 7.43409H10.0329C10.2208 7.43409 10.3766 7.58992 10.3766 7.77784C10.3766 7.96575 10.2208 8.12159 10.0329 8.12159Z" fill="#292D32"/>
</svg>
