<svg width="11" height="11" viewBox="0 0 11 11" fill="none" xmlns="http://www.w3.org/2000/svg">
<path d="M6.87495 10.4271H4.12496C1.63622 10.4271 0.57289 9.36375 0.57289 6.87501V4.12502C0.57289 1.63628 1.63622 0.572955 4.12496 0.572955H6.87495C9.36369 0.572955 10.427 1.63628 10.427 4.12502V6.87501C10.427 6.9896 10.427 7.10417 10.4178 7.21417C10.4041 7.36084 10.3033 7.48002 10.1612 7.51669C10.0191 7.55335 9.87244 7.49836 9.78994 7.37461C9.77619 7.36086 9.74868 7.32876 9.73035 7.30585C9.40035 6.95293 8.95119 6.76043 8.47911 6.76043C8.01161 6.76043 7.57161 6.94376 7.2462 7.27835C6.93453 7.59918 6.76036 8.02542 6.76036 8.47917C6.76036 8.78625 6.84744 9.09333 7.00786 9.36375C7.09036 9.50125 7.1912 9.62958 7.30578 9.73041C7.32411 9.74416 7.33786 9.75792 7.34703 9.76708L7.3837 9.79917C7.48911 9.88625 7.53953 10.0375 7.49828 10.1704C7.45703 10.3033 7.34703 10.4042 7.20953 10.4179C7.10869 10.4271 6.98953 10.4271 6.87495 10.4271ZM4.12496 1.26045C2.01205 1.26045 1.26039 2.01212 1.26039 4.12502V6.87501C1.26039 8.98792 2.01205 9.73959 4.12496 9.73959H6.43037C6.42578 9.73042 6.4212 9.72584 6.41662 9.71667C6.19203 9.34084 6.06829 8.91 6.06829 8.47917C6.06829 7.84668 6.3112 7.25086 6.74662 6.80169C7.19578 6.33878 7.82828 6.07293 8.47453 6.07293C8.92369 6.07293 9.36369 6.1967 9.73494 6.43044V4.12502C9.73494 2.01212 8.98328 1.26045 6.87037 1.26045H4.12496Z" fill="#292D32"/>
<path d="M9.845 3.60253H1.15504C0.967122 3.60253 0.81129 3.4467 0.81129 3.25878C0.81129 3.07086 0.967122 2.91503 1.15504 2.91503H9.845C10.0329 2.91503 10.1887 3.07086 10.1887 3.25878C10.1887 3.4467 10.0375 3.60253 9.845 3.60253Z" fill="#292D32"/>
<path d="M3.90504 3.53832C3.71712 3.53832 3.56129 3.38249 3.56129 3.19458V0.967092C3.56129 0.779176 3.71712 0.623343 3.90504 0.623343C4.09295 0.623343 4.24879 0.779176 4.24879 0.967092V3.19458C4.24879 3.38249 4.09295 3.53832 3.90504 3.53832Z" fill="#292D32"/>
<path d="M7.09499 3.3321C6.90708 3.3321 6.75124 3.17626 6.75124 2.98835V0.967091C6.75124 0.779176 6.90708 0.623343 7.09499 0.623343C7.28291 0.623343 7.43874 0.779176 7.43874 0.967091V2.98835C7.43874 3.18085 7.28749 3.3321 7.09499 3.3321Z" fill="#292D32"/>
<path d="M8.47898 10.8854C7.93814 10.8854 7.41107 10.702 6.99857 10.3629C6.98482 10.3537 6.97107 10.3445 6.9619 10.3354C6.92982 10.3079 6.9069 10.2895 6.88857 10.2712C6.8794 10.2666 6.87482 10.262 6.87023 10.2529C6.70065 10.1016 6.54482 9.9183 6.42565 9.71663C6.20107 9.3408 6.07732 8.90996 6.07732 8.47913C6.07732 7.84663 6.32024 7.25081 6.75565 6.80165C7.20482 6.33873 7.83731 6.07289 8.48356 6.07289C9.16189 6.07289 9.80814 6.35707 10.2573 6.85665C10.2619 6.86123 10.2711 6.87039 10.2756 6.87956C10.3077 6.91164 10.3398 6.95289 10.3627 6.98955C10.6927 7.3883 10.8898 7.92455 10.8898 8.47913C10.8898 8.6808 10.8669 8.86871 10.8211 9.04746C10.7661 9.27662 10.6744 9.50121 10.546 9.71663C10.1061 10.4408 9.31772 10.8854 8.47898 10.8854ZM7.3744 9.78536C7.38815 9.79453 7.39732 9.79914 7.40648 9.8083C7.70898 10.0604 8.07564 10.1933 8.47898 10.1933C9.07939 10.1933 9.63856 9.87245 9.95022 9.35912C10.0419 9.20787 10.1061 9.04287 10.1473 8.87329C10.1794 8.74496 10.1977 8.61662 10.1977 8.47454C10.1977 8.08038 10.0602 7.69997 9.80813 7.39747L9.76689 7.34248C9.75314 7.32873 9.73939 7.31496 9.73022 7.29663C9.40022 6.94829 8.95106 6.7558 8.47898 6.7558C8.01148 6.7558 7.57148 6.93913 7.24606 7.27372C6.9344 7.59455 6.76023 8.02079 6.76023 8.47454C6.76023 8.78162 6.84731 9.0887 7.00773 9.35912C7.09023 9.49662 7.19107 9.62495 7.30565 9.72578C7.32398 9.73953 7.33773 9.75329 7.3469 9.76245L7.3744 9.78536Z" fill="#292D32"/>
<path d="M9.24901 8.81374H7.70902C7.52111 8.81374 7.36528 8.65791 7.36528 8.46999C7.36528 8.28208 7.52111 8.12624 7.70902 8.12624H9.24901C9.43693 8.12624 9.59276 8.28208 9.59276 8.46999C9.59276 8.65791 9.44151 8.81374 9.24901 8.81374Z" fill="#292D32"/>
<path d="M8.47917 9.60214C8.29125 9.60214 8.13542 9.4463 8.13542 9.25839V7.7184C8.13542 7.53048 8.29125 7.37465 8.47917 7.37465C8.66709 7.37465 8.82292 7.53048 8.82292 7.7184V9.25839C8.82292 9.45089 8.66709 9.60214 8.47917 9.60214Z" fill="#292D32"/>
</svg>
