<svg width="11" height="11" viewBox="0 0 11 11" fill="none" xmlns="http://www.w3.org/2000/svg">
<path d="M6.87495 10.4271H4.12496C1.63622 10.4271 0.57289 9.36375 0.57289 6.87501V4.12502C0.57289 1.63628 1.63622 0.572955 4.12496 0.572955H6.87495C9.36369 0.572955 10.427 1.63628 10.427 4.12502V6.87501C10.427 6.9896 10.427 7.10417 10.4178 7.21417C10.4041 7.36084 10.3033 7.48002 10.1612 7.51669C10.0191 7.55335 9.87244 7.49836 9.78994 7.37461C9.78535 7.37002 9.75785 7.33792 9.75327 7.32876C9.43702 6.96667 8.9741 6.76043 8.48369 6.76043C8.01619 6.76043 7.5762 6.94376 7.25078 7.27835C6.93912 7.59918 6.76495 8.02542 6.76495 8.47917C6.76495 8.78625 6.85203 9.09333 7.01245 9.36375C7.09953 9.51042 7.20953 9.63876 7.33328 9.74876L7.38828 9.79917C7.49369 9.88625 7.54411 10.0375 7.50286 10.1704C7.46161 10.3033 7.35161 10.4042 7.21412 10.4179C7.1087 10.4271 6.98953 10.4271 6.87495 10.4271ZM4.12496 1.26045C2.01205 1.26045 1.26039 2.01212 1.26039 4.12502V6.87501C1.26039 8.98792 2.01205 9.73959 4.12496 9.73959H6.43037C6.42578 9.735 6.4212 9.72584 6.41662 9.72126C6.18745 9.34085 6.06829 8.91459 6.06829 8.47917C6.06829 7.84668 6.3112 7.25086 6.74662 6.80169C7.19578 6.33878 7.82828 6.07293 8.47453 6.07293C8.92828 6.07293 9.36369 6.1967 9.73494 6.43044V4.12502C9.73494 2.01212 8.98328 1.26045 6.87037 1.26045H4.12496Z" fill="#292D32"/>
<path d="M9.845 3.60253H1.15504C0.967122 3.60253 0.81129 3.4467 0.81129 3.25878C0.81129 3.07086 0.967122 2.91503 1.15504 2.91503H9.845C10.0329 2.91503 10.1887 3.07086 10.1887 3.25878C10.1887 3.4467 10.0375 3.60253 9.845 3.60253Z" fill="#292D32"/>
<path d="M3.90504 3.53832C3.71712 3.53832 3.56129 3.38249 3.56129 3.19458V0.967092C3.56129 0.779176 3.71712 0.623343 3.90504 0.623343C4.09295 0.623343 4.24879 0.779176 4.24879 0.967092V3.19458C4.24879 3.38249 4.09295 3.53832 3.90504 3.53832Z" fill="#292D32"/>
<path d="M7.09499 3.3321C6.90708 3.3321 6.75124 3.17626 6.75124 2.98835V0.967091C6.75124 0.779176 6.90708 0.623343 7.09499 0.623343C7.28291 0.623343 7.43874 0.779176 7.43874 0.967091V2.98835C7.43874 3.18085 7.28749 3.3321 7.09499 3.3321Z" fill="#292D32"/>
<path d="M8.47911 10.8854C7.93827 10.8854 7.4112 10.702 6.9987 10.3629C6.98495 10.3537 6.9712 10.3445 6.96203 10.3354C6.92078 10.2987 6.89328 10.2804 6.87037 10.2529C6.70995 10.1154 6.55412 9.93205 6.42578 9.72122C6.19662 9.3408 6.07745 8.91454 6.07745 8.47913C6.07745 7.84663 6.32037 7.25081 6.75578 6.80165C7.20495 6.33873 7.83744 6.07289 8.48369 6.07289C9.17577 6.07289 9.8266 6.36623 10.2758 6.87956C10.2987 6.89789 10.3353 6.94372 10.3674 6.98955C10.6974 7.3883 10.8945 7.92455 10.8945 8.47913C10.8945 8.6808 10.8716 8.86871 10.8258 9.04746C10.7708 9.27662 10.6791 9.50121 10.5508 9.71663C10.1062 10.4408 9.31785 10.8854 8.47911 10.8854ZM7.37453 9.78536C7.38369 9.79453 7.39745 9.79914 7.40661 9.8083C7.70911 10.0604 8.07577 10.1933 8.47911 10.1933C9.07952 10.1933 9.63869 9.87245 9.95035 9.35912C10.042 9.20787 10.1062 9.04287 10.1474 8.87329C10.1795 8.74496 10.1978 8.61662 10.1978 8.47454C10.1978 8.08038 10.0603 7.69997 9.80826 7.39747C9.80368 7.39289 9.75327 7.33329 9.74869 7.32413C9.43244 6.96204 8.96952 6.7558 8.47911 6.7558C8.01161 6.7558 7.57161 6.93913 7.24619 7.27372C6.93453 7.59455 6.76036 8.02079 6.76036 8.47454C6.76036 8.78162 6.84744 9.0887 7.00786 9.35912C7.09494 9.50578 7.20495 9.63413 7.3287 9.74413L7.37453 9.78536Z" fill="#292D32"/>
<path d="M9.02904 9.36372C8.94195 9.36372 8.85487 9.33165 8.78612 9.2629L7.69529 8.17207C7.56237 8.03916 7.56237 7.81916 7.69529 7.68624C7.82821 7.55333 8.04821 7.55333 8.18113 7.68624L9.27195 8.77707C9.40487 8.90999 9.40487 9.12999 9.27195 9.2629C9.20779 9.32707 9.11612 9.36372 9.02904 9.36372Z" fill="#292D32"/>
<path d="M7.92922 9.37293C7.84214 9.37293 7.75506 9.34083 7.68631 9.27208C7.55339 9.13917 7.55339 8.91917 7.68631 8.78625L8.77713 7.69542C8.91005 7.56251 9.13005 7.56251 9.26297 7.69542C9.39588 7.82834 9.39588 8.04834 9.26297 8.18125L8.17214 9.27208C8.10339 9.34083 8.01631 9.37293 7.92922 9.37293Z" fill="#292D32"/>
</svg>
