<svg width="11" height="11" viewBox="0 0 11 11" fill="none" xmlns="http://www.w3.org/2000/svg">
<path d="M5.90327 9.56089H3.1212C1.49412 9.56089 0.916623 8.41964 0.916623 7.35631V3.64383C0.916623 2.058 1.53537 1.43925 3.1212 1.43925H5.90327C7.4891 1.43925 8.10784 2.058 8.10784 3.64383V7.35631C8.10784 8.94214 7.4891 9.56089 5.90327 9.56089ZM3.1212 2.13592C1.92495 2.13592 1.61329 2.44758 1.61329 3.64383V7.35631C1.61329 7.92006 1.81037 8.86422 3.1212 8.86422H5.90327C7.09952 8.86422 7.41118 8.55256 7.41118 7.35631V3.64383C7.41118 2.44758 7.09952 2.13592 5.90327 2.13592H3.1212Z" fill="#292D32"/>
<path d="M9.52412 8.30041C9.32704 8.30041 9.07495 8.23624 8.78621 8.03457L7.56246 7.17749C7.47079 7.11333 7.41579 7.00791 7.41579 6.89333V4.10667C7.41579 3.99209 7.47079 3.88667 7.56246 3.82251L8.78621 2.96543C9.33162 2.58501 9.73037 2.69501 9.91828 2.79126C10.1062 2.89209 10.427 3.15334 10.427 3.81792V7.17749C10.427 7.84208 10.1062 8.10791 9.91828 8.20416C9.8312 8.25457 9.6937 8.30041 9.52412 8.30041ZM8.10788 6.71L9.18495 7.46166C9.3912 7.60374 9.53787 7.61749 9.59745 7.58541C9.66162 7.55333 9.73037 7.42499 9.73037 7.17749V3.82251C9.73037 3.57043 9.65704 3.44668 9.59745 3.41459C9.53787 3.38251 9.3912 3.39626 9.18495 3.53834L8.10788 4.29001V6.71Z" fill="#292D32"/>
<path d="M5.27076 5.38545C4.70243 5.38545 4.23951 4.92253 4.23951 4.3542C4.23951 3.78587 4.70243 3.32295 5.27076 3.32295C5.83909 3.32295 6.302 3.78587 6.302 4.3542C6.302 4.92253 5.83909 5.38545 5.27076 5.38545ZM5.27076 4.01045C5.08284 4.01045 4.92701 4.16628 4.92701 4.3542C4.92701 4.54212 5.08284 4.69795 5.27076 4.69795C5.45867 4.69795 5.61451 4.54212 5.61451 4.3542C5.61451 4.16628 5.45867 4.01045 5.27076 4.01045Z" fill="#292D32"/>
</svg>
