<svg width="11" height="11" viewBox="0 0 11 11" fill="none" xmlns="http://www.w3.org/2000/svg">
<path d="M6.87495 10.427H4.12496C1.63622 10.427 0.57289 9.36369 0.57289 6.87495V4.12496C0.57289 1.63622 1.63622 0.57289 4.12496 0.57289H6.87495C9.36369 0.57289 10.427 1.63622 10.427 4.12496V6.87495C10.427 9.36369 9.36369 10.427 6.87495 10.427ZM4.12496 1.26039C2.01205 1.26039 1.26039 2.01205 1.26039 4.12496V6.87495C1.26039 8.98786 2.01205 9.73952 4.12496 9.73952H6.87495C8.98786 9.73952 9.73952 8.98786 9.73952 6.87495V4.12496C9.73952 2.01205 8.98786 1.26039 6.87495 1.26039H4.12496Z" fill="#292D32"/>
<path d="M9.845 8.18577H1.15504C0.967122 8.18577 0.81129 8.02994 0.81129 7.84203C0.81129 7.65411 0.967122 7.49828 1.15504 7.49828H9.845C10.0329 7.49828 10.1888 7.65411 10.1888 7.84203C10.1888 8.02994 10.0375 8.18577 9.845 8.18577Z" fill="#292D32"/>
<path d="M9.845 3.60246H1.15504C0.967122 3.60246 0.81129 3.44663 0.81129 3.25871C0.81129 3.0708 0.962539 2.91497 1.15504 2.91497H9.845C10.0329 2.91497 10.1888 3.0708 10.1888 3.25871C10.1888 3.44663 10.0375 3.60246 9.845 3.60246Z" fill="#292D32"/>
<path d="M3.19453 10.1795C3.00661 10.1795 2.85078 10.0237 2.85078 9.83577V7.84203C2.85078 7.65411 3.00661 7.49828 3.19453 7.49828C3.38244 7.49828 3.53827 7.65411 3.53827 7.84203V9.83577C3.53827 10.0283 3.38244 10.1795 3.19453 10.1795Z" fill="#292D32"/>
<path d="M5.50001 10.4133C5.3121 10.4133 5.15627 10.2574 5.15627 10.0695V7.84203C5.15627 7.65411 5.3121 7.49828 5.50001 7.49828C5.68793 7.49828 5.84376 7.65411 5.84376 7.84203V10.0695C5.84376 10.2574 5.68793 10.4133 5.50001 10.4133Z" fill="#292D32"/>
<path d="M7.7779 10.207C7.58999 10.207 7.43415 10.0512 7.43415 9.86327V7.84203C7.43415 7.65411 7.58999 7.49828 7.7779 7.49828C7.96582 7.49828 8.12165 7.65411 8.12165 7.84203V9.86327C8.12165 10.0558 7.96582 10.207 7.7779 10.207Z" fill="#292D32"/>
<path d="M3.19453 3.30458C3.00661 3.30458 2.85078 3.14875 2.85078 2.96083V0.967091C2.85078 0.779176 3.00661 0.623343 3.19453 0.623343C3.38244 0.623343 3.53827 0.779176 3.53827 0.967091V2.96083C3.53827 3.15333 3.38244 3.30458 3.19453 3.30458Z" fill="#292D32"/>
<path d="M5.50001 3.53833C5.3121 3.53833 5.15627 3.3825 5.15627 3.19458V0.967091C5.15627 0.779176 5.3121 0.623343 5.50001 0.623343C5.68793 0.623343 5.84376 0.779176 5.84376 0.967091V3.19458C5.84376 3.3825 5.68793 3.53833 5.50001 3.53833Z" fill="#292D32"/>
<path d="M5.50001 8.60746C5.3121 8.60746 5.15627 8.45163 5.15627 8.26371V3.22206C5.15627 3.03415 5.3121 2.87831 5.50001 2.87831C5.68793 2.87831 5.84376 3.03415 5.84376 3.22206V8.26371C5.84376 8.45163 5.68793 8.60746 5.50001 8.60746Z" fill="#292D32"/>
<path d="M7.7779 3.33208C7.58999 3.33208 7.43415 3.17625 7.43415 2.98833V0.967091C7.43415 0.779176 7.58999 0.623343 7.7779 0.623343C7.96582 0.623343 8.12165 0.779176 8.12165 0.967091V2.98833C8.12165 3.18083 7.96582 3.33208 7.7779 3.33208Z" fill="#292D32"/>
</svg>
