<svg width="11" height="11" viewBox="0 0 11 11" fill="none" xmlns="http://www.w3.org/2000/svg">
<path d="M6.87495 10.427H4.12496C1.63622 10.427 0.57289 9.36369 0.57289 6.87495V4.12496C0.57289 1.63622 1.63622 0.57289 4.12496 0.57289H6.87495C9.36369 0.57289 10.427 1.63622 10.427 4.12496V6.87495C10.427 9.36369 9.36369 10.427 6.87495 10.427ZM4.12496 1.26039C2.01205 1.26039 1.26039 2.01205 1.26039 4.12496V6.87495C1.26039 8.98786 2.01205 9.73952 4.12496 9.73952H6.87495C8.98786 9.73952 9.73952 8.98786 9.73952 6.87495V4.12496C9.73952 2.01205 8.98786 1.26039 6.87495 1.26039H4.12496Z" fill="#292D32"/>
<path d="M9.845 3.60246H1.15504C0.967122 3.60246 0.81129 3.44663 0.81129 3.25871C0.81129 3.0708 0.962539 2.91497 1.15504 2.91497H9.845C10.0329 2.91497 10.1888 3.0708 10.1888 3.25871C10.1888 3.44663 10.0375 3.60246 9.845 3.60246Z" fill="#292D32"/>
<path d="M3.90504 3.53833C3.71712 3.53833 3.56129 3.3825 3.56129 3.19458V0.967091C3.56129 0.779176 3.71712 0.623343 3.90504 0.623343C4.09295 0.623343 4.24879 0.779176 4.24879 0.967091V3.19458C4.24879 3.3825 4.09295 3.53833 3.90504 3.53833Z" fill="#292D32"/>
<path d="M7.09499 3.33208C6.90708 3.33208 6.75124 3.17625 6.75124 2.98833V0.967091C6.75124 0.779176 6.90708 0.623343 7.09499 0.623343C7.28291 0.623343 7.43874 0.779176 7.43874 0.967091V2.98833C7.43874 3.18083 7.28749 3.33208 7.09499 3.33208Z" fill="#292D32"/>
<path d="M5.08285 8.30496C4.91785 8.30496 4.76202 8.26371 4.61993 8.18579C4.30827 8.00246 4.12493 7.63579 4.12493 7.17288V6.07288C4.12493 5.60997 4.30827 5.23872 4.62452 5.05539C4.94076 4.87205 5.35326 4.89955 5.75201 5.1333L6.70534 5.6833C7.10409 5.91247 7.33784 6.25622 7.33784 6.62288C7.33784 6.98955 7.10409 7.3333 6.70076 7.56246L5.74743 8.11246C5.52743 8.24079 5.29826 8.30496 5.08285 8.30496ZM5.08743 5.62372C5.0416 5.62372 5.00035 5.63289 4.96826 5.65122C4.87202 5.70622 4.81243 5.86205 4.81243 6.07288V7.17288C4.81243 7.37913 4.87202 7.53496 4.96826 7.59454C5.06451 7.64954 5.22951 7.62204 5.40826 7.51663L6.36159 6.96663C6.54034 6.86121 6.65034 6.73288 6.65034 6.62288C6.65034 6.51288 6.54493 6.38455 6.36159 6.27913L5.40826 5.72913C5.2891 5.66039 5.17451 5.62372 5.08743 5.62372Z" fill="#292D32"/>
</svg>
