<svg width="11" height="11" viewBox="0 0 11 11" fill="none" xmlns="http://www.w3.org/2000/svg">
<path d="M6.87495 10.4271H4.12496C1.63622 10.4271 0.57289 9.36375 0.57289 6.87501V4.12502C0.57289 1.63628 1.63622 0.572955 4.12496 0.572955H6.87495C9.36369 0.572955 10.427 1.63628 10.427 4.12502V6.87501C10.427 6.98501 10.427 7.09958 10.4179 7.205C10.4041 7.3425 10.3079 7.46167 10.1749 7.50292C10.042 7.54417 9.89535 7.49834 9.80827 7.38834C9.48285 6.98959 9.00161 6.76043 8.47911 6.76043C8.08953 6.76043 7.70911 6.89335 7.40661 7.13626C6.99412 7.46168 6.76036 7.94751 6.76036 8.47917C6.76036 8.99709 6.98953 9.48293 7.38828 9.80835C7.49828 9.89543 7.53953 10.0421 7.50286 10.175C7.46161 10.3079 7.34703 10.4042 7.20495 10.4179C7.09953 10.4271 6.98495 10.4271 6.87495 10.4271ZM4.12496 1.26045C2.01205 1.26045 1.26039 2.01212 1.26039 4.12502V6.87501C1.26039 8.98792 2.01205 9.73959 4.12496 9.73959H6.42578C6.19661 9.36834 6.07287 8.93292 6.07287 8.47917C6.07287 7.73668 6.40287 7.05377 6.98037 6.60003C7.75037 5.97669 8.91911 5.92169 9.73952 6.42586V4.12502C9.73952 2.01212 8.98786 1.26045 6.87495 1.26045H4.12496Z" fill="#292D32"/>
<path d="M9.84488 3.60253H1.15491C0.966992 3.60253 0.81116 3.4467 0.81116 3.25878C0.81116 3.07086 0.966992 2.91503 1.15491 2.91503H9.84488C10.0328 2.91503 10.1886 3.07086 10.1886 3.25878C10.1886 3.4467 10.0374 3.60253 9.84488 3.60253Z" fill="#292D32"/>
<path d="M3.90491 3.53832C3.71699 3.53832 3.56116 3.38249 3.56116 3.19458V0.967092C3.56116 0.779176 3.71699 0.623343 3.90491 0.623343C4.09282 0.623343 4.24866 0.779176 4.24866 0.967092V3.19458C4.24866 3.38249 4.09282 3.53832 3.90491 3.53832Z" fill="#292D32"/>
<path d="M7.09486 3.3321C6.90695 3.3321 6.75111 3.17626 6.75111 2.98835V0.967091C6.75111 0.779176 6.90695 0.623343 7.09486 0.623343C7.28278 0.623343 7.43861 0.779176 7.43861 0.967091V2.98835C7.43861 3.18085 7.28736 3.3321 7.09486 3.3321Z" fill="#292D32"/>
<path d="M8.47913 10.8854C7.91997 10.8854 7.37914 10.6929 6.95289 10.34C6.39373 9.88621 6.07289 9.20788 6.07289 8.47913C6.07289 7.73663 6.40289 7.05373 6.98039 6.59998C7.40206 6.26082 7.93372 6.07289 8.47913 6.07289C9.20788 6.07289 9.88621 6.39372 10.34 6.95747C10.6883 7.37913 10.8854 7.91997 10.8854 8.47913C10.8854 9.16204 10.5875 9.82204 10.0695 10.285C9.62038 10.6745 9.05663 10.8854 8.47913 10.8854ZM8.47913 6.76039C8.08955 6.76039 7.70913 6.89331 7.40664 7.13622C6.99414 7.46164 6.76039 7.94747 6.76039 8.47913C6.76039 8.99704 6.98955 9.48289 7.3883 9.8083C8.01163 10.3262 8.97872 10.3216 9.6158 9.76704C9.98246 9.43704 10.1979 8.96496 10.1979 8.47913C10.1979 8.08038 10.0604 7.69539 9.80829 7.39289C9.48287 6.98955 8.99704 6.76039 8.47913 6.76039Z" fill="#292D32"/>
<path d="M7.96564 9.34084C7.85105 9.34084 7.73646 9.28127 7.6723 9.17585C7.57605 9.01085 7.62647 8.80001 7.79147 8.70376L8.26814 8.41959V7.84209C8.26814 7.65418 8.42397 7.49834 8.61189 7.49834C8.7998 7.49834 8.95563 7.65418 8.95563 7.84209V8.61667C8.95563 8.73584 8.89146 8.85043 8.79063 8.91001L8.14438 9.29502C8.0848 9.32252 8.02522 9.34084 7.96564 9.34084Z" fill="#292D32"/>
</svg>
