<svg width="11" height="11" viewBox="0 0 11 11" fill="none" xmlns="http://www.w3.org/2000/svg">
<path d="M1.97078 9.13003C1.89286 9.13003 1.81495 9.10253 1.75078 9.05211C1.28787 8.6717 1.0312 8.06212 1.0312 7.33337V3.66672C1.0312 2.09922 1.64078 1.48964 3.20828 1.48964H5.95826C6.89326 1.48964 7.87409 1.66381 8.08492 2.97005C8.11701 3.15797 7.98867 3.33214 7.80076 3.36422C7.61284 3.3963 7.43868 3.26797 7.40659 3.08005C7.31034 2.48422 7.05826 2.17714 5.95826 2.17714H3.20828C2.02578 2.17714 1.7187 2.48422 1.7187 3.66672V7.33337C1.7187 7.63128 1.77828 8.18587 2.1862 8.52045C2.33286 8.63961 2.35578 8.85961 2.23203 9.00628C2.16786 9.08878 2.06703 9.13003 1.97078 9.13003Z" fill="#292D32"/>
<path d="M5.9583 9.51044H3.66664C3.47872 9.51044 3.32289 9.3546 3.32289 9.16669C3.32289 8.97877 3.47872 8.82294 3.66664 8.82294H5.9583C7.14079 8.82294 7.44787 8.51586 7.44787 7.33336V5.0417C7.44787 4.85379 7.60371 4.69795 7.79162 4.69795C7.97954 4.69795 8.13537 4.85379 8.13537 5.0417V7.33336C8.13537 8.90085 7.52579 9.51044 5.9583 9.51044Z" fill="#292D32"/>
<path d="M9.53325 8.26837C9.33617 8.26837 9.09326 8.2042 8.80451 8.00254L7.59451 7.15463C7.43868 7.04463 7.40201 6.82921 7.51201 6.67796C7.62201 6.52213 7.83285 6.48546 7.98868 6.59546L9.19867 7.44337C9.40034 7.58546 9.547 7.59921 9.60659 7.56712C9.66617 7.53504 9.7395 7.41129 9.7395 7.16379V3.20839C9.7395 3.02048 9.89534 2.86464 10.0833 2.86464C10.2712 2.86464 10.427 3.02048 10.427 3.20839V7.15921C10.427 7.81462 10.1108 8.07587 9.92284 8.17212C9.83575 8.21796 9.70284 8.26837 9.53325 8.26837Z" fill="#292D32"/>
<path d="M0.925778 10.5142C0.838695 10.5142 0.751612 10.4821 0.682863 10.4134C0.549946 10.2805 0.549946 10.0605 0.682863 9.92755L9.84949 0.760919C9.98241 0.628003 10.2024 0.628003 10.3353 0.760919C10.4682 0.893835 10.4682 1.11383 10.3353 1.24675L1.16869 10.4134C1.10453 10.4821 1.01286 10.5142 0.925778 10.5142Z" fill="#292D32"/>
</svg>
