<svg width="11" height="11" viewBox="0 0 11 11" fill="none" xmlns="http://www.w3.org/2000/svg">
<path d="M6.87495 10.4271H4.12496C1.63622 10.4271 0.57289 9.36375 0.57289 6.87501V4.12502C0.57289 1.63628 1.63622 0.572955 4.12496 0.572955H6.87495C9.36369 0.572955 10.427 1.63628 10.427 4.12502V6.87501C10.427 6.98501 10.427 7.09958 10.4178 7.205C10.4041 7.3425 10.3078 7.46167 10.1749 7.50292C10.042 7.54417 9.89535 7.49834 9.80827 7.38834C9.48285 6.98959 9.00161 6.76043 8.47911 6.76043C8.08953 6.76043 7.70911 6.89335 7.40661 7.13626C6.99412 7.46168 6.76036 7.94751 6.76036 8.47917C6.76036 8.78625 6.84744 9.09333 7.00786 9.36375C7.10869 9.53333 7.24162 9.68459 7.39286 9.80376C7.50286 9.89084 7.5487 10.0375 7.50745 10.1704C7.4662 10.3033 7.35161 10.3996 7.20953 10.4133C7.10411 10.4271 6.98953 10.4271 6.87495 10.4271ZM4.12496 1.26045C2.01205 1.26045 1.26039 2.01212 1.26039 4.12502V6.87501C1.26039 8.98792 2.01205 9.73959 4.12496 9.73959H6.43037C6.42578 9.735 6.4212 9.72584 6.41662 9.72126C6.18745 9.34543 6.06829 8.91459 6.06829 8.47917C6.06829 7.73668 6.39828 7.05377 6.97578 6.60003C7.74578 5.97669 8.91453 5.92169 9.73494 6.42586V4.12502C9.73494 2.01212 8.98328 1.26045 6.87037 1.26045H4.12496Z" fill="#292D32"/>
<path d="M9.845 3.60253H1.15504C0.967122 3.60253 0.81129 3.4467 0.81129 3.25878C0.81129 3.07086 0.967122 2.91503 1.15504 2.91503H9.845C10.0329 2.91503 10.1887 3.07086 10.1887 3.25878C10.1887 3.4467 10.0375 3.60253 9.845 3.60253Z" fill="#292D32"/>
<path d="M3.90504 3.53832C3.71712 3.53832 3.56129 3.38249 3.56129 3.19458V0.967092C3.56129 0.779176 3.71712 0.623343 3.90504 0.623343C4.09295 0.623343 4.24879 0.779176 4.24879 0.967092V3.19458C4.24879 3.38249 4.09295 3.53832 3.90504 3.53832Z" fill="#292D32"/>
<path d="M7.09499 3.3321C6.90708 3.3321 6.75124 3.17626 6.75124 2.98835V0.967091C6.75124 0.779176 6.90708 0.623343 7.09499 0.623343C7.28291 0.623343 7.43874 0.779176 7.43874 0.967091V2.98835C7.43874 3.18085 7.28749 3.3321 7.09499 3.3321Z" fill="#292D32"/>
<path d="M8.47913 10.8854C7.9383 10.8854 7.4158 10.702 6.99413 10.3675C6.98497 10.3583 6.97122 10.3537 6.96205 10.3445C6.74664 10.1704 6.5633 9.96413 6.42122 9.72122C6.19205 9.34539 6.07289 8.91454 6.07289 8.47913C6.07289 7.73663 6.40289 7.05373 6.98038 6.59998C7.40205 6.26082 7.93372 6.07289 8.47913 6.07289C9.20788 6.07289 9.88621 6.39372 10.34 6.95747C10.6883 7.37913 10.8854 7.91997 10.8854 8.47913C10.8854 8.91454 10.7662 9.3408 10.537 9.72122C10.4041 9.94122 10.2437 10.1291 10.0604 10.2895C9.62496 10.6745 9.06579 10.8854 8.47913 10.8854ZM7.36539 9.78536C7.37914 9.79453 7.3883 9.8037 7.40205 9.81286C7.70455 10.0649 8.08496 10.2025 8.47913 10.2025C8.90079 10.2025 9.29038 10.0558 9.60663 9.77622C9.73954 9.66163 9.85413 9.52413 9.95038 9.37288C10.1108 9.10247 10.1979 8.79539 10.1979 8.48831C10.1979 8.08956 10.0604 7.70456 9.80829 7.40206C9.48287 6.99873 8.99704 6.76956 8.47913 6.76956C8.08955 6.76956 7.70913 6.90248 7.40664 7.1454C6.99414 7.47081 6.76039 7.95664 6.76039 8.48831C6.76039 8.79539 6.84747 9.10247 7.00788 9.37288C7.10413 9.52413 7.2233 9.6662 7.36539 9.78536Z" fill="#292D32"/>
<path d="M8.18134 9.3316C8.09426 9.3316 8.00718 9.29953 7.93843 9.23078L7.42968 8.72204C7.29676 8.58913 7.29676 8.3691 7.42968 8.23618C7.56259 8.10327 7.78259 8.10327 7.91551 8.23618L8.1905 8.5112L9.04759 7.7183C9.18509 7.58996 9.40509 7.59912 9.53342 7.73662C9.66175 7.87412 9.65258 8.09412 9.51508 8.22245L8.41509 9.23993C8.35092 9.29951 8.26842 9.3316 8.18134 9.3316Z" fill="#292D32"/>
</svg>
