<svg width="11" height="11" viewBox="0 0 11 11" fill="none" xmlns="http://www.w3.org/2000/svg">
<path d="M5.50004 10.427C5.19296 10.427 4.88128 10.3491 4.60629 10.1887L1.8838 8.61661C1.3338 8.29577 0.990057 7.70452 0.990057 7.06744V3.93247C0.990057 3.29539 1.3338 2.70414 1.8838 2.38331L4.60629 0.811235C5.15628 0.490403 5.83921 0.490403 6.39379 0.811235L9.11628 2.38331C9.66628 2.70414 10.01 3.29539 10.01 3.93247V7.06744C10.01 7.70452 9.66628 8.29577 9.11628 8.61661L6.39379 10.1887C6.11879 10.3491 5.80712 10.427 5.50004 10.427ZM5.50004 1.26039C5.31212 1.26039 5.11962 1.31081 4.95003 1.40706L2.22754 2.97913C1.88838 3.17622 1.67755 3.53831 1.67755 3.93247V7.06744C1.67755 7.45703 1.88838 7.8237 2.22754 8.02078L4.95003 9.59285C5.2892 9.78994 5.71088 9.78994 6.05004 9.59285L8.77253 8.02078C9.1117 7.8237 9.32252 7.46161 9.32252 7.06744V3.93247C9.32252 3.54289 9.1117 3.17622 8.77253 2.97913L6.05004 1.40706C5.88046 1.31081 5.68795 1.26039 5.50004 1.26039Z" fill="#292D32"/>
<path d="M5.08301 7.18205C4.91801 7.18205 4.76217 7.14079 4.62009 7.06288C4.30384 6.87954 4.12051 6.50831 4.12051 6.04539V4.94539C4.12051 4.48247 4.30384 4.11124 4.62009 3.92791C4.93634 3.74457 5.34884 3.77206 5.74759 4.00581L6.70092 4.55582C7.09966 4.78498 7.33342 5.12873 7.33342 5.49539C7.33342 5.86206 7.10425 6.20122 6.70092 6.43496L5.74759 6.98497C5.52759 7.11788 5.29842 7.18205 5.08301 7.18205ZM5.08759 4.50082C5.04176 4.50082 5.00051 4.50998 4.96842 4.52832C4.87217 4.58332 4.81259 4.73914 4.81259 4.94998V6.04998C4.81259 6.25623 4.87217 6.41206 4.96842 6.47164C5.06467 6.52664 5.22967 6.49915 5.40842 6.39373L6.36176 5.84373C6.5405 5.73831 6.64592 5.60998 6.64592 5.49998C6.64592 5.38998 6.5405 5.26165 6.36176 5.15623L5.40842 4.60623C5.28925 4.53748 5.17468 4.50082 5.08759 4.50082Z" fill="#292D32"/>
</svg>
