<svg width="11" height="11" viewBox="0 0 11 11" fill="none" xmlns="http://www.w3.org/2000/svg">
<path d="M2.74988 6.82459C2.56197 6.82459 2.40614 6.66876 2.40614 6.48084V4.51458C2.40614 4.32666 2.56197 4.17083 2.74988 4.17083C2.9378 4.17083 3.09363 4.32666 3.09363 4.51458V6.48084C3.09363 6.67334 2.9378 6.82459 2.74988 6.82459Z" fill="#292D32"/>
<path d="M4.12495 7.47994C3.93703 7.47994 3.7812 7.32411 3.7812 7.13619V3.8637C3.7812 3.67578 3.93703 3.51995 4.12495 3.51995C4.31287 3.51995 4.4687 3.67578 4.4687 3.8637V7.13619C4.4687 7.32869 4.31287 7.47994 4.12495 7.47994Z" fill="#292D32"/>
<path d="M5.49988 8.13539C5.31197 8.13539 5.15614 7.97956 5.15614 7.79164V3.20833C5.15614 3.02041 5.31197 2.86458 5.49988 2.86458C5.6878 2.86458 5.84363 3.02041 5.84363 3.20833V7.79164C5.84363 7.97956 5.6878 8.13539 5.49988 8.13539Z" fill="#292D32"/>
<path d="M6.87495 7.47994C6.68703 7.47994 6.5312 7.32411 6.5312 7.13619V3.8637C6.5312 3.67578 6.68703 3.51995 6.87495 3.51995C7.06287 3.51995 7.2187 3.67578 7.2187 3.8637V7.13619C7.2187 7.32869 7.06287 7.47994 6.87495 7.47994Z" fill="#292D32"/>
<path d="M8.24988 6.82459C8.06197 6.82459 7.90614 6.66876 7.90614 6.48084V4.51458C7.90614 4.32666 8.06197 4.17083 8.24988 4.17083C8.4378 4.17083 8.59363 4.32666 8.59363 4.51458V6.48084C8.59363 6.67334 8.4378 6.82459 8.24988 6.82459Z" fill="#292D32"/>
<path d="M6.87495 10.4271H4.12496C1.63622 10.4271 0.57289 9.36375 0.57289 6.87501V4.12502C0.57289 1.63628 1.63622 0.572955 4.12496 0.572955H6.87495C9.36369 0.572955 10.427 1.63628 10.427 4.12502V6.87501C10.427 9.36375 9.36369 10.4271 6.87495 10.4271ZM4.12496 1.26045C2.01205 1.26045 1.26039 2.01212 1.26039 4.12502V6.87501C1.26039 8.98792 2.01205 9.73959 4.12496 9.73959H6.87495C8.98786 9.73959 9.73952 8.98792 9.73952 6.87501V4.12502C9.73952 2.01212 8.98786 1.26045 6.87495 1.26045H4.12496Z" fill="#292D32"/>
</svg>
