<svg width="11" height="11" viewBox="0 0 11 11" fill="none" xmlns="http://www.w3.org/2000/svg">
<path d="M2.75001 6.82459C2.5621 6.82459 2.40627 6.66876 2.40627 6.48084V4.51458C2.40627 4.32666 2.5621 4.17083 2.75001 4.17083C2.93793 4.17083 3.09376 4.32666 3.09376 4.51458V6.48084C3.09376 6.67334 2.93793 6.82459 2.75001 6.82459Z" fill="#292D32"/>
<path d="M4.12495 7.47994C3.93703 7.47994 3.7812 7.32411 3.7812 7.13619V3.8637C3.7812 3.67578 3.93703 3.51995 4.12495 3.51995C4.31287 3.51995 4.4687 3.67578 4.4687 3.8637V7.13619C4.4687 7.32869 4.31287 7.47994 4.12495 7.47994Z" fill="#292D32"/>
<path d="M5.49988 8.13539C5.31197 8.13539 5.15614 7.97956 5.15614 7.79164V3.20833C5.15614 3.02041 5.31197 2.86458 5.49988 2.86458C5.6878 2.86458 5.84363 3.02041 5.84363 3.20833V7.79164C5.84363 7.97956 5.6878 8.13539 5.49988 8.13539Z" fill="#292D32"/>
<path d="M6.87495 7.47994C6.68703 7.47994 6.5312 7.32411 6.5312 7.13619V3.8637C6.5312 3.67578 6.68703 3.51995 6.87495 3.51995C7.06287 3.51995 7.2187 3.67578 7.2187 3.8637V7.13619C7.2187 7.32869 7.06287 7.47994 6.87495 7.47994Z" fill="#292D32"/>
<path d="M8.24988 6.82459C8.06197 6.82459 7.90614 6.66876 7.90614 6.48084V4.51458C7.90614 4.32666 8.06197 4.17083 8.24988 4.17083C8.4378 4.17083 8.59363 4.32666 8.59363 4.51458V6.48084C8.59363 6.67334 8.4378 6.82459 8.24988 6.82459Z" fill="#292D32"/>
<path d="M5.49995 10.4271C2.78205 10.4271 0.57289 8.21792 0.57289 5.50002C0.57289 2.78211 2.78205 0.572955 5.49995 0.572955C8.21786 0.572955 10.427 2.78211 10.427 5.50002C10.427 8.21792 8.21786 10.4271 5.49995 10.4271ZM5.49995 1.26045C3.16246 1.26045 1.26039 3.16253 1.26039 5.50002C1.26039 7.83751 3.16246 9.73959 5.49995 9.73959C7.83744 9.73959 9.73952 7.83751 9.73952 5.50002C9.73952 3.16253 7.83744 1.26045 5.49995 1.26045Z" fill="#292D32"/>
</svg>
