<svg width="11" height="11" viewBox="0 0 11 11" fill="none" xmlns="http://www.w3.org/2000/svg">
<path d="M3.2083 8.13532H2.29163C1.18247 8.13532 0.57289 7.52574 0.57289 6.41657V4.58325C0.57289 3.47409 1.18247 2.86451 2.29163 2.86451H2.94705C3.05246 2.86451 3.15788 2.83242 3.24955 2.77742L4.58787 1.93868C5.25704 1.52159 5.90787 1.44368 6.4212 1.72784C6.93453 2.01201 7.21411 2.60326 7.21411 3.39617V3.83617C7.21411 4.02408 7.05828 4.17992 6.87036 4.17992C6.68245 4.17992 6.52662 4.02408 6.52662 3.83617V3.39617C6.52662 2.87367 6.3662 2.48409 6.08662 2.33284C5.80704 2.17701 5.39454 2.24576 4.94996 2.52534L3.61163 3.3595C3.41454 3.48784 3.1808 3.552 2.94705 3.552H2.29163C1.56747 3.552 1.26039 3.85909 1.26039 4.58325V6.41657C1.26039 7.14074 1.56747 7.44782 2.29163 7.44782H3.2083C3.39621 7.44782 3.55204 7.60365 3.55204 7.79157C3.55204 7.97949 3.39621 8.13532 3.2083 8.13532Z" fill="#292D32"/>
<path d="M5.75203 9.437C5.38994 9.437 4.9912 9.30867 4.59245 9.05658C4.43203 8.95575 4.38162 8.74492 4.48245 8.5845C4.58328 8.42409 4.79411 8.37367 4.95453 8.4745C5.39911 8.7495 5.81161 8.82283 6.09119 8.667C6.37077 8.51117 6.53119 8.12159 6.53119 7.60367V5.93535C6.53119 5.74743 6.68702 5.5916 6.87494 5.5916C7.06285 5.5916 7.21869 5.74743 7.21869 5.93535V7.60367C7.21869 8.392 6.93452 8.98783 6.42577 9.272C6.21952 9.382 5.99036 9.437 5.75203 9.437Z" fill="#292D32"/>
<path d="M8.25001 7.67696C8.17668 7.67696 8.10793 7.65404 8.04376 7.60821C7.89251 7.49363 7.86043 7.27821 7.97501 7.12696C8.55251 6.35697 8.67626 5.33489 8.30501 4.45031C8.23168 4.27614 8.31418 4.07447 8.48834 4.00114C8.66251 3.92781 8.86417 4.01031 8.93751 4.18447C9.40501 5.29364 9.24459 6.58155 8.52501 7.54404C8.45626 7.63113 8.35543 7.67696 8.25001 7.67696Z" fill="#292D32"/>
<path d="M9.08864 8.82281C9.01531 8.82281 8.94656 8.79989 8.88239 8.75406C8.73114 8.63948 8.69906 8.42406 8.81364 8.27281C9.79447 6.96657 10.0099 5.21574 9.37739 3.70783C9.30406 3.53366 9.38656 3.332 9.56072 3.25866C9.73947 3.18533 9.93656 3.26783 10.0099 3.442C10.7386 5.17449 10.4911 7.18198 9.36364 8.68531C9.29947 8.77698 9.19406 8.82281 9.08864 8.82281Z" fill="#292D32"/>
<path d="M0.916664 10.427C0.829581 10.427 0.742498 10.3949 0.673748 10.3261C0.540832 10.1932 0.540832 9.97323 0.673748 9.84031L9.84038 0.673683C9.97329 0.540767 10.1933 0.540767 10.3262 0.673683C10.4591 0.806599 10.4591 1.0266 10.3262 1.15951L1.15958 10.3261C1.09083 10.3949 1.00375 10.427 0.916664 10.427Z" fill="#292D32"/>
</svg>
