<svg width="11" height="11" viewBox="0 0 11 11" fill="none" xmlns="http://www.w3.org/2000/svg">
<path d="M7.35613 9.43701C6.99404 9.43701 6.5953 9.30867 6.19655 9.05659L4.85822 8.21784C4.76655 8.16284 4.66114 8.13076 4.55572 8.13076H3.89572C2.78656 8.13076 2.17698 7.52118 2.17698 6.41202V4.57869C2.17698 3.46953 2.78656 2.85995 3.89572 2.85995H4.55114C4.65655 2.85995 4.76197 2.82787 4.85364 2.77287L6.19196 1.93412C6.86113 1.51704 7.51196 1.43912 8.02529 1.72329C8.53862 2.00745 8.8182 2.5987 8.8182 3.39161V7.59451C8.8182 8.38284 8.53404 8.97867 8.02529 9.26284C7.82362 9.38201 7.59446 9.43701 7.35613 9.43701ZM3.89572 3.55203C3.17156 3.55203 2.86448 3.85911 2.86448 4.58328V6.4166C2.86448 7.14077 3.17156 7.44785 3.89572 7.44785H4.55114C4.78947 7.44785 5.01864 7.51201 5.2203 7.64035L6.55863 8.47909C7.00321 8.75409 7.41571 8.82743 7.69529 8.67159C7.97487 8.51576 8.13529 8.12618 8.13529 7.60826V3.3962C8.13529 2.8737 7.97487 2.48412 7.69529 2.33287C7.41571 2.17704 7.00321 2.24579 6.55863 2.52537L5.2203 3.36411C5.01864 3.48786 4.78947 3.55661 4.55114 3.55661H3.89572V3.55203Z" fill="#292D32"/>
</svg>
