<svg width="11" height="11" viewBox="0 0 11 11" fill="none" xmlns="http://www.w3.org/2000/svg">
<path d="M5.84829 9.51031C5.47704 9.51031 5.07829 9.38197 4.66579 9.12531L3.29996 8.27281C3.20371 8.21323 3.0983 8.18115 2.9883 8.18115H2.31913C1.19164 8.18115 0.57289 7.5624 0.57289 6.4349V4.56491C0.57289 3.43741 1.19164 2.81867 2.31913 2.81867H2.9883C3.0983 2.81867 3.2083 2.78658 3.29996 2.727L4.66579 1.8745C5.3487 1.44826 6.0087 1.37034 6.5312 1.66367C7.0537 1.95242 7.33786 2.55284 7.33786 3.3595V7.64948C7.33786 8.45156 7.04911 9.05656 6.5312 9.34531C6.32495 9.45531 6.09578 9.51031 5.84829 9.51031ZM2.31913 3.50616C1.57664 3.50616 1.26039 3.82241 1.26039 4.56491V6.4349C1.26039 7.1774 1.57664 7.49365 2.31913 7.49365H2.9883C3.22663 7.49365 3.46038 7.5624 3.66663 7.68615L5.03245 8.53864C5.4862 8.82281 5.91245 8.89156 6.2012 8.73573C6.48995 8.57531 6.65495 8.17656 6.65495 7.6449V3.35492C6.65495 2.81867 6.48995 2.41992 6.2012 2.26409C5.91245 2.10367 5.4862 2.177 5.03245 2.46117L3.66663 3.30908C3.46038 3.43741 3.22663 3.50616 2.9883 3.50616H2.31913Z" fill="#292D32"/>
<path d="M10.0833 5.8437H8.25001C8.0621 5.8437 7.90627 5.68787 7.90627 5.49995C7.90627 5.31203 8.0621 5.1562 8.25001 5.1562H10.0833C10.2713 5.1562 10.4271 5.31203 10.4271 5.49995C10.4271 5.68787 10.2713 5.8437 10.0833 5.8437Z" fill="#292D32"/>
<path d="M9.16664 6.76034C8.97872 6.76034 8.82289 6.6045 8.82289 6.41659V4.58326C8.82289 4.39535 8.97872 4.23951 9.16664 4.23951C9.35455 4.23951 9.51039 4.39535 9.51039 4.58326V6.41659C9.51039 6.6045 9.35455 6.76034 9.16664 6.76034Z" fill="#292D32"/>
</svg>
