<svg width="11" height="11" viewBox="0 0 11 11" fill="none" xmlns="http://www.w3.org/2000/svg">
<path d="M6.36164 9.43701C5.99956 9.43701 5.60081 9.30867 5.20206 9.05659L3.86374 8.21784C3.77207 8.16284 3.66665 8.13076 3.56124 8.13076H2.90124C1.79208 8.13076 1.1825 7.52118 1.1825 6.41202V4.57869C1.1825 3.46953 1.79208 2.85995 2.90124 2.85995H3.55665C3.66207 2.85995 3.76749 2.82787 3.85915 2.77287L5.19748 1.93412C5.86664 1.51704 6.51747 1.43912 7.03081 1.72329C7.54414 2.00745 7.82372 2.5987 7.82372 3.39161V7.59451C7.82372 8.38284 7.53955 8.97867 7.03081 9.26284C6.82914 9.38201 6.60456 9.43701 6.36164 9.43701ZM2.90124 3.55203C2.17708 3.55203 1.86999 3.85911 1.86999 4.58328V6.4166C1.86999 7.14077 2.17708 7.44785 2.90124 7.44785H3.55665C3.79499 7.44785 4.02415 7.51201 4.22582 7.64035L5.56414 8.47909C6.00873 8.75409 6.42122 8.82743 6.70081 8.67159C6.98039 8.51576 7.14081 8.12618 7.14081 7.60826V3.3962C7.14081 2.8737 6.98039 2.48412 6.70081 2.33287C6.42122 2.17704 6.00873 2.24579 5.56414 2.52537L4.22582 3.35953C4.02415 3.48786 3.79499 3.55203 3.55665 3.55203H2.90124Z" fill="#292D32"/>
<path d="M8.85962 7.67703C8.78628 7.67703 8.71753 7.65412 8.65337 7.60828C8.50212 7.4937 8.47003 7.27829 8.58462 7.12704C9.3042 6.16912 9.3042 4.83079 8.58462 3.87288C8.47003 3.72163 8.50212 3.50622 8.65337 3.39163C8.80462 3.27705 9.02003 3.30913 9.13462 3.46038C10.0375 4.66121 10.0375 6.33871 9.13462 7.53953C9.07045 7.6312 8.96503 7.67703 8.85962 7.67703Z" fill="#292D32"/>
</svg>
