<svg width="11" height="11" viewBox="0 0 11 11" fill="none" xmlns="http://www.w3.org/2000/svg">
<path d="M5.75204 9.43701C5.38995 9.43701 4.99121 9.30867 4.59246 9.05659L3.25413 8.21784C3.16246 8.16284 3.05705 8.13076 2.95163 8.13076H2.29163C1.18247 8.13076 0.57289 7.52118 0.57289 6.41202V4.57869C0.57289 3.46953 1.18247 2.85995 2.29163 2.85995H2.94705C3.05246 2.85995 3.15788 2.82787 3.24955 2.77287L4.58787 1.93412C5.25704 1.51704 5.90787 1.43912 6.4212 1.72329C6.93453 2.00745 7.21411 2.5987 7.21411 3.39161V7.59451C7.21411 8.38284 6.92995 8.97867 6.4212 9.26284C6.21953 9.38201 5.99037 9.43701 5.75204 9.43701ZM2.29163 3.55203C1.56747 3.55203 1.26039 3.85911 1.26039 4.58328V6.4166C1.26039 7.14077 1.56747 7.44785 2.29163 7.44785H2.94705C3.18538 7.44785 3.41454 7.51201 3.61621 7.64035L4.95454 8.47909C5.39912 8.75409 5.81162 8.82743 6.0912 8.67159C6.37078 8.51576 6.5312 8.12618 6.5312 7.60826V3.3962C6.5312 2.8737 6.37078 2.48412 6.0912 2.33287C5.81162 2.17704 5.39454 2.24579 4.95454 2.52537L3.61163 3.35953C3.41454 3.48786 3.1808 3.55203 2.94705 3.55203H2.29163Z" fill="#292D32"/>
<path d="M10.0833 6.74196C9.99618 6.74196 9.9091 6.70988 9.84035 6.64113L8.02535 4.82614C7.89244 4.69322 7.89244 4.47322 8.02535 4.34031C8.15827 4.20739 8.37827 4.20739 8.51118 4.34031L10.3262 6.1553C10.4591 6.28822 10.4591 6.50821 10.3262 6.64113C10.2574 6.7053 10.1703 6.74196 10.0833 6.74196Z" fill="#292D32"/>
<path d="M8.24991 6.76032C8.16283 6.76032 8.07574 6.72824 8.00699 6.65949C7.87408 6.52657 7.87408 6.30657 8.00699 6.17366L9.82199 4.35867C9.9549 4.22575 10.1749 4.22575 10.3078 4.35867C10.4407 4.49158 10.4407 4.71158 10.3078 4.8445L8.49283 6.65949C8.42408 6.72824 8.33699 6.76032 8.24991 6.76032Z" fill="#292D32"/>
</svg>
