<svg width="11" height="11" viewBox="0 0 11 11" fill="none" xmlns="http://www.w3.org/2000/svg">
<path d="M5.75204 9.43701C5.38995 9.43701 4.99121 9.30867 4.59246 9.05659L3.25413 8.21784C3.16246 8.16284 3.05705 8.13076 2.95163 8.13076H2.29163C1.18247 8.13076 0.57289 7.52118 0.57289 6.41202V4.57869C0.57289 3.46953 1.18247 2.85995 2.29163 2.85995H2.94705C3.05246 2.85995 3.15788 2.82787 3.24955 2.77287L4.58787 1.93412C5.25704 1.51704 5.90787 1.43912 6.4212 1.72329C6.93453 2.00745 7.21411 2.5987 7.21411 3.39161V7.59451C7.21411 8.38284 6.92995 8.97867 6.4212 9.26284C6.21953 9.38201 5.99037 9.43701 5.75204 9.43701ZM2.29163 3.55203C1.56747 3.55203 1.26039 3.85911 1.26039 4.58328V6.4166C1.26039 7.14077 1.56747 7.44785 2.29163 7.44785H2.94705C3.18538 7.44785 3.41454 7.51201 3.61621 7.64035L4.95454 8.47909C5.39454 8.75409 5.81162 8.82743 6.0912 8.67159C6.37078 8.51576 6.5312 8.12618 6.5312 7.60826V3.3962C6.5312 2.8737 6.37078 2.48412 6.0912 2.33287C5.81162 2.17704 5.39454 2.24579 4.95454 2.52537L3.61163 3.35953C3.41454 3.48786 3.1808 3.55203 2.94705 3.55203H2.29163Z" fill="#292D32"/>
<path d="M8.25001 7.67703C8.17668 7.67703 8.10793 7.65412 8.04376 7.60828C7.89251 7.4937 7.86043 7.27829 7.97501 7.12704C8.69459 6.16912 8.69459 4.83079 7.97501 3.87288C7.86043 3.72163 7.89251 3.50622 8.04376 3.39163C8.19501 3.27705 8.41043 3.30913 8.52501 3.46038C9.42334 4.66121 9.42334 6.33871 8.52501 7.53953C8.45626 7.6312 8.35543 7.67703 8.25001 7.67703Z" fill="#292D32"/>
<path d="M9.08864 8.82285C9.01531 8.82285 8.94656 8.79993 8.88239 8.7541C8.73114 8.63951 8.69906 8.4241 8.81364 8.27285C10.0374 6.64119 10.0374 4.3587 8.81364 2.72704C8.69906 2.57579 8.73114 2.36037 8.88239 2.24579C9.03364 2.13121 9.24906 2.16329 9.36364 2.31454C10.7707 4.18912 10.7707 6.81077 9.36364 8.68535C9.29947 8.77701 9.19406 8.82285 9.08864 8.82285Z" fill="#292D32"/>
</svg>
