<svg width="11" height="11" viewBox="0 0 11 11" fill="none" xmlns="http://www.w3.org/2000/svg">
<path d="M5.49995 10.427C2.78205 10.427 0.57289 8.21786 0.57289 5.49995C0.57289 2.78205 2.78205 0.57289 5.49995 0.57289C8.21786 0.57289 10.427 2.78205 10.427 5.49995C10.427 8.21786 8.21786 10.427 5.49995 10.427ZM5.49995 1.26039C3.16246 1.26039 1.26039 3.16246 1.26039 5.49995C1.26039 7.83744 3.16246 9.73952 5.49995 9.73952C7.83744 9.73952 9.73952 7.83744 9.73952 5.49995C9.73952 3.16246 7.83744 1.26039 5.49995 1.26039Z" fill="#292D32"/>
<path d="M6.64578 5.84376H3.89579C3.70788 5.84376 3.55205 5.68793 3.55205 5.50001C3.55205 5.3121 3.70788 5.15627 3.89579 5.15627H6.64578C6.8337 5.15627 6.98953 5.3121 6.98953 5.50001C6.98953 5.68793 6.8337 5.84376 6.64578 5.84376Z" fill="#292D32"/>
<path d="M5.72907 7.21871C5.64198 7.21871 5.5549 7.18663 5.48615 7.11788C5.35323 6.98496 5.35323 6.76497 5.48615 6.63205L6.61823 5.49997L5.48615 4.36789C5.35323 4.23498 5.35323 4.01498 5.48615 3.88206C5.61907 3.74914 5.83907 3.74914 5.97198 3.88206L7.34698 5.25705C7.47989 5.38997 7.47989 5.60997 7.34698 5.74289L5.97198 7.11788C5.90323 7.18663 5.81615 7.21871 5.72907 7.21871Z" fill="#292D32"/>
</svg>
