<svg width="11" height="11" viewBox="0 0 11 11" fill="none" xmlns="http://www.w3.org/2000/svg">
<path d="M6.87495 10.427H4.12496C1.63622 10.427 0.57289 9.36369 0.57289 6.87495V4.12496C0.57289 1.63622 1.63622 0.57289 4.12496 0.57289H6.87495C9.36369 0.57289 10.427 1.63622 10.427 4.12496V6.87495C10.427 9.36369 9.36369 10.427 6.87495 10.427ZM4.12496 1.26039C2.01205 1.26039 1.26039 2.01205 1.26039 4.12496V6.87495C1.26039 8.98786 2.01205 9.73952 4.12496 9.73952H6.87495C8.98786 9.73952 9.73952 8.98786 9.73952 6.87495V4.12496C9.73952 2.01205 8.98786 1.26039 6.87495 1.26039H4.12496Z" fill="#292D32"/>
<path d="M4.92246 7.46172C4.83538 7.46172 4.7483 7.42963 4.67955 7.36088C4.54663 7.22797 4.54663 7.00797 4.67955 6.87505L6.05454 5.50006L4.67955 4.12506C4.54663 3.99215 4.54663 3.77215 4.67955 3.63923C4.81246 3.50632 5.03246 3.50632 5.16538 3.63923L6.78329 5.25714C6.91621 5.39006 6.91621 5.61006 6.78329 5.74297L5.16538 7.36088C5.09663 7.42963 5.00955 7.46172 4.92246 7.46172Z" fill="#292D32"/>
</svg>
