<svg width="11" height="11" viewBox="0 0 11 11" fill="none" xmlns="http://www.w3.org/2000/svg">
<path d="M4.07918 8.77697C3.79043 8.77697 3.52001 8.70823 3.28168 8.57073C2.71793 8.24531 2.40627 7.5899 2.40627 6.72823V4.27616C2.40627 3.4145 2.71793 2.75908 3.28168 2.43367C3.84543 2.10825 4.56501 2.16783 5.31667 2.59867L7.43875 3.82241C8.18583 4.25324 8.59832 4.84907 8.59832 5.4999C8.59832 6.15074 8.18583 6.74657 7.43875 7.1774L5.31667 8.40114C4.88584 8.65323 4.46417 8.77697 4.07918 8.77697ZM4.07918 2.91491C3.90959 2.91491 3.75376 2.95158 3.62084 3.0295C3.28168 3.22658 3.09376 3.66658 3.09376 4.27616V6.72365C3.09376 7.32865 3.28168 7.77323 3.62543 7.97031C3.96918 8.16739 4.44584 8.10781 4.97292 7.80531L7.095 6.58157C7.62208 6.27907 7.91083 5.89407 7.91083 5.4999C7.91083 5.10574 7.62208 4.72074 7.095 4.41824L4.97292 3.1945C4.64751 3.00658 4.34501 2.91491 4.07918 2.91491Z" fill="#292D32"/>
</svg>
