<svg width="11" height="11" viewBox="0 0 11 11" fill="none" xmlns="http://www.w3.org/2000/svg">
<path d="M4.0837 9.47372C3.99662 9.47372 3.90954 9.44164 3.84079 9.37289C3.70787 9.23997 3.70787 9.01998 3.84079 8.88706L6.82911 5.89874C7.04911 5.67874 7.04911 5.32124 6.82911 5.10124L3.84079 2.11292C3.70787 1.98 3.70787 1.76 3.84079 1.62709C3.9737 1.49417 4.1937 1.49417 4.32662 1.62709L7.31494 4.61541C7.54869 4.84916 7.6816 5.16541 7.6816 5.49999C7.6816 5.83457 7.55327 6.15082 7.31494 6.38457L4.32662 9.37289C4.25787 9.43706 4.17078 9.47372 4.0837 9.47372Z" fill="#292D32"/>
</svg>
