<svg width="11" height="11" viewBox="0 0 11 11" fill="none" xmlns="http://www.w3.org/2000/svg">
<path d="M6.92083 8.77697C6.53583 8.77697 6.11417 8.65323 5.68792 8.40573L3.56585 7.18198C2.81876 6.74657 2.40627 6.15074 2.40627 5.4999C2.40627 4.84907 2.81876 4.25324 3.56585 3.82241L5.68792 2.59867C6.435 2.16783 7.15458 2.10825 7.72291 2.43367C8.28666 2.75908 8.59832 3.4145 8.59832 4.27616V6.72365C8.59832 7.58531 8.28666 8.24073 7.72291 8.56614C7.48 8.70823 7.20958 8.77697 6.92083 8.77697ZM6.92083 2.91491C6.655 2.91491 6.3525 3.00658 6.03167 3.1945L3.90959 4.41824C3.38251 4.72074 3.09376 5.10574 3.09376 5.4999C3.09376 5.89407 3.38251 6.27907 3.90959 6.58157L6.03167 7.80531C6.55875 8.10781 7.03541 8.16739 7.37916 7.97031C7.72291 7.77323 7.91083 7.32865 7.91083 6.72365V4.27616C7.91083 3.67116 7.72291 3.22658 7.37916 3.0295C7.24166 2.95158 7.08583 2.91491 6.92083 2.91491Z" fill="#292D32"/>
</svg>
