<svg width="11" height="11" viewBox="0 0 11 11" fill="none" xmlns="http://www.w3.org/2000/svg">
<path d="M4.3862 8.62577C4.29912 8.62577 4.21204 8.59369 4.14329 8.52494L1.36122 5.74287C1.2283 5.60995 1.2283 5.38995 1.36122 5.25704L4.14329 2.47497C4.2762 2.34205 4.4962 2.34205 4.62912 2.47497C4.76204 2.60788 4.76204 2.82788 4.62912 2.9608L2.08996 5.49995L4.62912 8.03911C4.76204 8.17203 4.76204 8.39202 4.62912 8.52494C4.56495 8.59369 4.47329 8.62577 4.3862 8.62577Z" fill="#292D32"/>
<path d="M9.39582 5.84376H1.6821C1.49418 5.84376 1.33835 5.68793 1.33835 5.50001C1.33835 5.3121 1.49418 5.15627 1.6821 5.15627H9.39582C9.58373 5.15627 9.73956 5.3121 9.73956 5.50001C9.73956 5.68793 9.58373 5.84376 9.39582 5.84376Z" fill="#292D32"/>
</svg>
