<svg width="11" height="11" viewBox="0 0 11 11" fill="none" xmlns="http://www.w3.org/2000/svg">
<path d="M6.72378 8.59374H4.27629C3.41463 8.59374 2.75921 8.28208 2.4338 7.71833C2.10838 7.15458 2.16796 6.43042 2.5988 5.68334L3.82254 3.56126C4.25337 2.81876 4.8492 2.40627 5.50003 2.40627C6.15087 2.40627 6.7467 2.81876 7.17753 3.56585L8.40127 5.68792C8.8321 6.435 8.89169 7.15916 8.56627 7.72291C8.24086 8.28208 7.58544 8.59374 6.72378 8.59374ZM5.50003 3.09376C5.10587 3.09376 4.72087 3.38251 4.41837 3.90959L3.19463 6.03167C2.89213 6.55875 2.83255 7.03541 3.02963 7.37916C3.22671 7.72291 3.67129 7.91083 4.27629 7.91083H6.72378C7.32878 7.91083 7.77336 7.72291 7.97044 7.37916C8.16752 7.03541 8.10794 6.55875 7.80544 6.03167L6.5817 3.90959C6.2792 3.38251 5.8942 3.09376 5.50003 3.09376Z" fill="#292D32"/>
</svg>
