<svg width="11" height="11" viewBox="0 0 11 11" fill="none" xmlns="http://www.w3.org/2000/svg">
<path d="M6.61379 8.62577C6.52671 8.62577 6.43962 8.59369 6.37087 8.52494C6.23796 8.39202 6.23796 8.17203 6.37087 8.03911L8.91003 5.49995L6.37087 2.9608C6.23796 2.82788 6.23796 2.60788 6.37087 2.47497C6.50379 2.34205 6.72379 2.34205 6.85671 2.47497L9.63878 5.25704C9.77169 5.38995 9.77169 5.60995 9.63878 5.74287L6.85671 8.52494C6.78796 8.59369 6.70087 8.62577 6.61379 8.62577Z" fill="#292D32"/>
<path d="M9.31795 5.84376H1.60424C1.41632 5.84376 1.26049 5.68793 1.26049 5.50001C1.26049 5.3121 1.41632 5.15627 1.60424 5.15627H9.31795C9.50587 5.15627 9.6617 5.3121 9.6617 5.50001C9.6617 5.68793 9.50587 5.84376 9.31795 5.84376Z" fill="#292D32"/>
</svg>
