<svg width="11" height="11" viewBox="0 0 11 11" fill="none" xmlns="http://www.w3.org/2000/svg">
<path d="M4.78966 3.42381C4.70258 3.42381 4.61548 3.39174 4.54673 3.32299L3.08466 1.86091L1.62258 3.32299C1.48966 3.45591 1.26966 3.45591 1.13675 3.32299C1.00383 3.19007 1.00383 2.97007 1.13675 2.83716L2.84176 1.13215C2.90592 1.06798 2.99299 1.03133 3.08466 1.03133C3.17632 1.03133 3.26342 1.06798 3.32759 1.13215L5.03257 2.83716C5.16548 2.97007 5.16548 3.19007 5.03257 3.32299C4.96382 3.39174 4.87675 3.42381 4.78966 3.42381Z" fill="#292D32"/>
<path d="M3.0845 9.9688C2.89659 9.9688 2.74076 9.81296 2.74076 9.62505V1.37508C2.74076 1.18716 2.89659 1.03133 3.0845 1.03133C3.27242 1.03133 3.42825 1.18716 3.42825 1.37508V9.62505C3.42825 9.81296 3.27242 9.9688 3.0845 9.9688Z" fill="#292D32"/>
<path d="M7.91997 9.96872C7.82831 9.96872 7.74121 9.93207 7.67705 9.8679L5.97207 8.16289C5.83915 8.02998 5.83915 7.80998 5.97207 7.67706C6.10498 7.54415 6.32498 7.54415 6.4579 7.67706L7.91997 9.13914L9.38202 7.67706C9.51494 7.54415 9.73497 7.54415 9.86788 7.67706C10.0008 7.80998 10.0008 8.02998 9.86788 8.16289L8.16288 9.8679C8.09871 9.93207 8.00706 9.96872 7.91997 9.96872Z" fill="#292D32"/>
<path d="M7.9154 9.9688C7.72748 9.9688 7.57165 9.81296 7.57165 9.62505V1.37508C7.57165 1.18716 7.72748 1.03133 7.9154 1.03133C8.10331 1.03133 8.25914 1.18716 8.25914 1.37508V9.62505C8.25914 9.81296 8.10789 9.9688 7.9154 9.9688Z" fill="#292D32"/>
</svg>
