<svg width="11" height="11" viewBox="0 0 11 11" fill="none" xmlns="http://www.w3.org/2000/svg">
<path d="M5.49995 10.427C2.78205 10.427 0.57289 8.21786 0.57289 5.49995C0.57289 2.78205 2.78205 0.57289 5.49995 0.57289C8.21786 0.57289 10.427 2.78205 10.427 5.49995C10.427 8.21786 8.21786 10.427 5.49995 10.427ZM5.49995 1.26039C3.16246 1.26039 1.26039 3.16246 1.26039 5.49995C1.26039 7.83744 3.16246 9.73952 5.49995 9.73952C7.83744 9.73952 9.73952 7.83744 9.73952 5.49995C9.73952 3.16246 7.83744 1.26039 5.49995 1.26039Z" fill="#292D32"/>
<path d="M5.50001 7.44784C5.3121 7.44784 5.15627 7.29201 5.15627 7.10409V4.35411C5.15627 4.16619 5.3121 4.01036 5.50001 4.01036C5.68793 4.01036 5.84376 4.16619 5.84376 4.35411V7.10409C5.84376 7.29201 5.68793 7.44784 5.50001 7.44784Z" fill="#292D32"/>
<path d="M6.87496 5.61456C6.78788 5.61456 6.7008 5.58248 6.63205 5.51373L5.49997 4.38165L4.36789 5.51373C4.23498 5.64665 4.01498 5.64665 3.88206 5.51373C3.74914 5.38081 3.74914 5.16082 3.88206 5.0279L5.25705 3.6529C5.38997 3.51999 5.60997 3.51999 5.74289 3.6529L7.11788 5.0279C7.2508 5.16082 7.2508 5.38081 7.11788 5.51373C7.04913 5.58248 6.96205 5.61456 6.87496 5.61456Z" fill="#292D32"/>
</svg>
