<svg width="11" height="11" viewBox="0 0 11 11" fill="none" xmlns="http://www.w3.org/2000/svg">
<path d="M7.91986 5.13328C7.83278 5.13328 7.74568 5.10118 7.67693 5.03243C7.54402 4.89952 7.54402 4.67952 7.67693 4.5466L9.13901 3.08453L7.67693 1.62245C7.54402 1.48953 7.54402 1.26953 7.67693 1.13662C7.80985 1.0037 8.02985 1.0037 8.16276 1.13662L9.86777 2.84162C9.93194 2.90579 9.96859 2.99286 9.96859 3.08453C9.96859 3.17619 9.93194 3.26329 9.86777 3.32746L8.16276 5.03243C8.09401 5.0966 8.00694 5.13328 7.91986 5.13328Z" fill="#292D32"/>
<path d="M9.62492 3.42838H1.37495C1.18703 3.42838 1.0312 3.27255 1.0312 3.08463C1.0312 2.89672 1.18703 2.74089 1.37495 2.74089H9.62492C9.81283 2.74089 9.96867 2.89672 9.96867 3.08463C9.96867 3.27255 9.81283 3.42838 9.62492 3.42838Z" fill="#292D32"/>
<path d="M3.07993 9.9687C2.99285 9.9687 2.90578 9.93663 2.83703 9.86788L1.13202 8.16288C1.06785 8.09871 1.0312 8.01164 1.0312 7.91997C1.0312 7.82831 1.06785 7.74121 1.13202 7.67705L2.83703 5.97207C2.96994 5.83915 3.18994 5.83915 3.32286 5.97207C3.45577 6.10498 3.45577 6.32498 3.32286 6.4579L1.86078 7.91997L3.32286 9.38202C3.45577 9.51494 3.45577 9.73497 3.32286 9.86788C3.25869 9.93663 3.1716 9.9687 3.07993 9.9687Z" fill="#292D32"/>
<path d="M9.62492 8.25914H1.37495C1.18703 8.25914 1.0312 8.10331 1.0312 7.9154C1.0312 7.72748 1.18703 7.57165 1.37495 7.57165H9.62492C9.81283 7.57165 9.96867 7.72748 9.96867 7.9154C9.96867 8.10331 9.81283 8.25914 9.62492 8.25914Z" fill="#292D32"/>
</svg>
