<svg width="11" height="11" viewBox="0 0 11 11" fill="none" xmlns="http://www.w3.org/2000/svg">
<path d="M5.50004 8.59374C4.84921 8.59374 4.25338 8.18124 3.82254 7.43416L2.5988 5.31209C2.16338 4.56501 2.10839 3.84543 2.4338 3.28168C2.75922 2.71793 3.41463 2.40627 4.27629 2.40627H6.72378C7.58545 2.40627 8.24086 2.71793 8.56628 3.28168C8.89169 3.84543 8.83211 4.56959 8.40128 5.31667L7.17753 7.43875C6.7467 8.18124 6.15087 8.59374 5.50004 8.59374ZM4.27629 3.09376C3.66671 3.09376 3.22671 3.28168 3.02963 3.62543C2.82797 3.96918 2.88755 4.44584 3.19005 4.96834L4.41379 7.09041C4.71629 7.6175 5.10129 7.90624 5.49545 7.90624C5.88962 7.90624 6.27462 7.6175 6.57712 7.09041L7.80086 4.96834C8.10336 4.44126 8.16294 3.96459 7.96586 3.62084C7.76878 3.2771 7.3242 3.08918 6.7192 3.08918H4.27629V3.09376Z" fill="#292D32"/>
</svg>
