<svg width="11" height="11" viewBox="0 0 11 11" fill="none" xmlns="http://www.w3.org/2000/svg">
<path d="M6.87495 10.427H4.12496C1.63622 10.427 0.57289 9.36369 0.57289 6.87495V4.12496C0.57289 1.63622 1.63622 0.57289 4.12496 0.57289H6.87495C9.36369 0.57289 10.427 1.63622 10.427 4.12496V6.87495C10.427 9.36369 9.36369 10.427 6.87495 10.427ZM4.12496 1.26039C2.01205 1.26039 1.26039 2.01205 1.26039 4.12496V6.87495C1.26039 8.98786 2.01205 9.73952 4.12496 9.73952H6.87495C8.98786 9.73952 9.73952 8.98786 9.73952 6.87495V4.12496C9.73952 2.01205 8.98786 1.26039 6.87495 1.26039H4.12496Z" fill="#292D32"/>
<path d="M5.49993 6.83373C5.41285 6.83373 5.32576 6.80165 5.25701 6.7329L3.6391 5.11499C3.50619 4.98208 3.50619 4.76208 3.6391 4.62916C3.77202 4.49624 3.99202 4.49624 4.12493 4.62916L5.49993 6.00415L6.87492 4.62916C7.00784 4.49624 7.22784 4.49624 7.36075 4.62916C7.49367 4.76208 7.49367 4.98208 7.36075 5.11499L5.74284 6.7329C5.67409 6.80165 5.58701 6.83373 5.49993 6.83373Z" fill="#292D32"/>
</svg>
