<svg width="11" height="11" viewBox="0 0 11 11" fill="none" xmlns="http://www.w3.org/2000/svg">
<path d="M5.49995 9.73961C5.41287 9.73961 5.32579 9.70753 5.25704 9.63878L2.47497 6.85671C2.34205 6.72379 2.34205 6.50379 2.47497 6.37087C2.60788 6.23796 2.82788 6.23796 2.9608 6.37087L5.49995 8.91003L8.03911 6.37087C8.17203 6.23796 8.39203 6.23796 8.52494 6.37087C8.65786 6.50379 8.65786 6.72379 8.52494 6.85671L5.74287 9.63878C5.67412 9.70753 5.58704 9.73961 5.49995 9.73961Z" fill="#292D32"/>
<path d="M5.50001 9.66157C5.3121 9.66157 5.15627 9.50574 5.15627 9.31782V1.60411C5.15627 1.41619 5.3121 1.26036 5.50001 1.26036C5.68793 1.26036 5.84376 1.41619 5.84376 1.60411V9.31782C5.84376 9.50574 5.68793 9.66157 5.50001 9.66157Z" fill="#292D32"/>
</svg>
