<svg width="11" height="11" viewBox="0 0 11 11" fill="none" xmlns="http://www.w3.org/2000/svg">
<path d="M6.99416 10.198H4.00584C1.75543 10.198 0.792931 9.23549 0.792931 6.98508V6.9255C0.792931 4.8905 1.59501 3.90968 3.39167 3.74009C3.575 3.72634 3.74917 3.86384 3.7675 4.05176C3.78584 4.23967 3.64834 4.40926 3.45584 4.42759C2.01668 4.56051 1.48043 5.23884 1.48043 6.93008V6.98966C1.48043 8.85507 2.14043 9.51507 4.00584 9.51507H6.99416C8.85957 9.51507 9.51956 8.85507 9.51956 6.98966V6.93008C9.51956 5.22967 8.97415 4.55134 7.50749 4.42759C7.31957 4.40926 7.17749 4.24426 7.19582 4.05634C7.21416 3.86843 7.37457 3.72634 7.56707 3.74468C9.39123 3.90051 10.2071 4.88592 10.2071 6.93466V6.99425C10.2071 9.23549 9.24456 10.198 6.99416 10.198Z" fill="#292D32"/>
<path d="M5.50001 7.21874C5.3121 7.21874 5.15627 7.06291 5.15627 6.87499V1.65918C5.15627 1.47127 5.3121 1.31543 5.50001 1.31543C5.68793 1.31543 5.84376 1.47127 5.84376 1.65918V6.87499C5.84376 7.06291 5.68793 7.21874 5.50001 7.21874Z" fill="#292D32"/>
<path d="M7.03539 3.02498C6.94831 3.02498 6.86122 2.9929 6.79247 2.92415L5.49998 1.63165L4.20748 2.92415C4.07457 3.05706 3.85457 3.05706 3.72165 2.92415C3.58873 2.79123 3.58873 2.57123 3.72165 2.43831L5.25706 0.902904C5.38998 0.769988 5.60998 0.769988 5.74289 0.902904L7.2783 2.43831C7.41122 2.57123 7.41122 2.79123 7.2783 2.92415C7.21414 2.9929 7.12247 3.02498 7.03539 3.02498Z" fill="#292D32"/>
</svg>
