<svg width="11" height="11" viewBox="0 0 11 11" fill="none" xmlns="http://www.w3.org/2000/svg">
<path d="M6.61837 3.32289C6.53129 3.32289 6.44421 3.29081 6.37546 3.22206L5.44504 2.29165L4.51463 3.22206C4.38171 3.35498 4.16171 3.35498 4.0288 3.22206C3.89588 3.08914 3.89588 2.86914 4.0288 2.73623L5.20213 1.5629C5.33504 1.42998 5.55504 1.42998 5.68796 1.5629L6.86129 2.73623C6.9942 2.86914 6.9942 3.08914 6.86129 3.22206C6.79254 3.29081 6.70545 3.32289 6.61837 3.32289Z" fill="#292D32"/>
<path d="M5.44494 6.84293C5.25702 6.84293 5.10119 6.6871 5.10119 6.49918V1.83795C5.10119 1.65003 5.25702 1.4942 5.44494 1.4942C5.63286 1.4942 5.78869 1.65003 5.78869 1.83795V6.49918C5.78869 6.69168 5.63286 6.84293 5.44494 6.84293Z" fill="#292D32"/>
<path d="M5.50004 9.51042C3.13964 9.51042 1.48964 7.86042 1.48964 5.50001C1.48964 5.3121 1.64548 5.15627 1.83339 5.15627C2.02131 5.15627 2.17714 5.3121 2.17714 5.50001C2.17714 7.45709 3.54297 8.82292 5.50004 8.82292C7.45712 8.82292 8.82295 7.45709 8.82295 5.50001C8.82295 5.3121 8.97878 5.15627 9.16669 5.15627C9.35461 5.15627 9.51044 5.3121 9.51044 5.50001C9.51044 7.86042 7.86045 9.51042 5.50004 9.51042Z" fill="#292D32"/>
</svg>
