<svg width="11" height="11" viewBox="0 0 11 11" fill="none" xmlns="http://www.w3.org/2000/svg">
<path d="M6.87495 10.427H4.12496C1.63622 10.427 0.57289 9.36369 0.57289 6.87495V4.12496C0.57289 1.63622 1.63622 0.57289 4.12496 0.57289H6.87495C9.36369 0.57289 10.427 1.63622 10.427 4.12496V6.87495C10.427 9.36369 9.36369 10.427 6.87495 10.427ZM4.12496 1.26039C2.01205 1.26039 1.26039 2.01205 1.26039 4.12496V6.87495C1.26039 8.98786 2.01205 9.73952 4.12496 9.73952H6.87495C8.98786 9.73952 9.73952 8.98786 9.73952 6.87495V4.12496C9.73952 2.01205 8.98786 1.26039 6.87495 1.26039H4.12496Z" fill="#292D32"/>
<path d="M6.87498 7.39279H4.61999C3.65291 7.39279 2.86458 6.60447 2.86458 5.63739C2.86458 4.67031 3.65291 3.88198 4.61999 3.88198H7.72289C7.91081 3.88198 8.06664 4.03781 8.06664 4.22573C8.06664 4.41364 7.91081 4.56947 7.72289 4.56947H4.61999C4.03332 4.56947 3.55208 5.04614 3.55208 5.63739C3.55208 6.22864 4.02874 6.7053 4.61999 6.7053H6.87498C7.06289 6.7053 7.21873 6.86113 7.21873 7.04905C7.21873 7.23696 7.06289 7.39279 6.87498 7.39279Z" fill="#292D32"/>
<path d="M7.0721 5.27992C6.98502 5.27992 6.89794 5.24784 6.82919 5.17909C6.69627 5.04617 6.69627 4.82617 6.82919 4.69326L7.30585 4.21659L6.82919 3.73993C6.69627 3.60701 6.69627 3.38701 6.82919 3.2541C6.9621 3.12118 7.18211 3.12118 7.31502 3.2541L8.0346 3.97368C8.16752 4.10659 8.16752 4.32659 8.0346 4.45951L7.31502 5.17909C7.24627 5.24326 7.15918 5.27992 7.0721 5.27992Z" fill="#292D32"/>
</svg>
