<svg width="11" height="11" viewBox="0 0 11 11" fill="none" xmlns="http://www.w3.org/2000/svg">
<path d="M6.99416 10.198H4.00584C1.75543 10.198 0.792931 9.23549 0.792931 6.98508V6.9255C0.792931 4.8905 1.59501 3.90968 3.39167 3.74009C3.575 3.72634 3.74917 3.86384 3.7675 4.05176C3.78584 4.23967 3.64834 4.40926 3.45584 4.42759C2.01668 4.56051 1.48043 5.23884 1.48043 6.93008V6.98966C1.48043 8.85507 2.14043 9.51507 4.00584 9.51507H6.99416C8.85957 9.51507 9.51956 8.85507 9.51956 6.98966V6.93008C9.51956 5.22967 8.97415 4.55134 7.50749 4.42759C7.31957 4.40926 7.17749 4.24426 7.19582 4.05634C7.21416 3.86843 7.37457 3.72634 7.56707 3.74468C9.39123 3.90051 10.2071 4.88592 10.2071 6.93466V6.99425C10.2071 9.23549 9.24456 10.198 6.99416 10.198Z" fill="#292D32"/>
<path d="M5.50001 7.16383C5.3121 7.16383 5.15627 7.00799 5.15627 6.82008V0.916768C5.15627 0.728852 5.3121 0.57302 5.50001 0.57302C5.68793 0.57302 5.84376 0.728852 5.84376 0.916768V6.82008C5.84376 7.01258 5.68793 7.16383 5.50001 7.16383Z" fill="#292D32"/>
<path d="M5.49998 7.6771C5.41289 7.6771 5.32581 7.64502 5.25706 7.57627L3.72165 6.04086C3.58873 5.90794 3.58873 5.68794 3.72165 5.55503C3.85457 5.42211 4.07457 5.42211 4.20748 5.55503L5.49998 6.84752L6.79247 5.55503C6.92539 5.42211 7.14539 5.42211 7.2783 5.55503C7.41122 5.68794 7.41122 5.90794 7.2783 6.04086L5.74289 7.57627C5.67414 7.64502 5.58706 7.6771 5.49998 7.6771Z" fill="#292D32"/>
</svg>
