<svg width="11" height="11" viewBox="0 0 11 11" fill="none" xmlns="http://www.w3.org/2000/svg">
<path d="M5.44491 6.87038C5.35783 6.87038 5.27075 6.8383 5.202 6.76955L4.02867 5.59622C3.89575 5.4633 3.89575 5.2433 4.02867 5.11039C4.16158 4.97747 4.38158 4.97747 4.5145 5.11039L5.44491 6.0408L6.37533 5.11039C6.50824 4.97747 6.72824 4.97747 6.86116 5.11039C6.99407 5.2433 6.99407 5.4633 6.86116 5.59622L5.68783 6.76955C5.61908 6.8383 5.532 6.87038 5.44491 6.87038Z" fill="#292D32"/>
<path d="M5.44494 6.83837C5.25702 6.83837 5.10119 6.68254 5.10119 6.49462V1.83339C5.10119 1.64548 5.25702 1.48964 5.44494 1.48964C5.63286 1.48964 5.78869 1.64548 5.78869 1.83339V6.49462C5.78869 6.68254 5.63286 6.83837 5.44494 6.83837Z" fill="#292D32"/>
<path d="M5.49991 9.59296C3.13951 9.59296 1.48951 7.94297 1.48951 5.58256C1.48951 5.39465 1.64535 5.23881 1.83326 5.23881C2.02118 5.23881 2.17701 5.39465 2.17701 5.58256C2.17701 7.53964 3.54284 8.90547 5.49991 8.90547C7.45699 8.90547 8.82282 7.53964 8.82282 5.58256C8.82282 5.39465 8.97865 5.23881 9.16656 5.23881C9.35448 5.23881 9.51031 5.39465 9.51031 5.58256C9.51031 7.94297 7.86032 9.59296 5.49991 9.59296Z" fill="#292D32"/>
</svg>
