<svg width="11" height="11" viewBox="0 0 11 11" fill="none" xmlns="http://www.w3.org/2000/svg">
<path d="M5.3533 7.04454C5.26622 7.04454 5.17914 7.01245 5.11039 6.9437C4.97747 6.81079 4.97747 6.59079 5.11039 6.45787L6.0408 5.52746L5.11039 4.59705C4.97747 4.46413 4.97747 4.24413 5.11039 4.11122C5.2433 3.9783 5.4633 3.9783 5.59622 4.11122L6.76955 5.28454C6.90246 5.41746 6.90246 5.63746 6.76955 5.77038L5.59622 6.9437C5.53205 7.01245 5.44039 7.04454 5.3533 7.04454Z" fill="#292D32"/>
<path d="M6.49449 5.87124H1.83326C1.64535 5.87124 1.48951 5.7154 1.48951 5.52749C1.48951 5.33957 1.64535 5.18374 1.83326 5.18374H6.49449C6.68241 5.18374 6.83824 5.33957 6.83824 5.52749C6.83824 5.7154 6.68241 5.87124 6.49449 5.87124Z" fill="#292D32"/>
<path d="M5.50001 9.51044C5.3121 9.51044 5.15627 9.35461 5.15627 9.16669C5.15627 8.97878 5.3121 8.82295 5.50001 8.82295C7.45709 8.82295 8.82292 7.45712 8.82292 5.50004C8.82292 3.54297 7.45709 2.17714 5.50001 2.17714C5.3121 2.17714 5.15627 2.02131 5.15627 1.83339C5.15627 1.64548 5.3121 1.48964 5.50001 1.48964C7.86042 1.48964 9.51042 3.13964 9.51042 5.50004C9.51042 7.86045 7.86042 9.51044 5.50001 9.51044Z" fill="#292D32"/>
</svg>
