<svg width="11" height="11" viewBox="0 0 11 11" fill="none" xmlns="http://www.w3.org/2000/svg">
<path d="M6.98498 10.2071H6.92539C4.8904 10.2071 3.90957 9.40498 3.73999 7.60832C3.72166 7.42041 3.85916 7.25082 4.05165 7.23249C4.23957 7.21416 4.40915 7.35624 4.42749 7.54415C4.5604 8.98331 5.23873 9.51956 6.92998 9.51956H6.98956C8.85497 9.51956 9.51497 8.85957 9.51497 6.99416V4.00584C9.51497 2.14043 8.85497 1.48043 6.98956 1.48043H6.92998C5.22957 1.48043 4.55124 2.02584 4.42749 3.4925C4.40457 3.68042 4.24874 3.8225 4.05165 3.80417C3.85916 3.79042 3.72166 3.62084 3.73541 3.43292C3.89124 1.60876 4.87665 0.792931 6.92539 0.792931H6.98498C9.23538 0.792931 10.1979 1.75543 10.1979 4.00584V6.99416C10.1979 9.24456 9.23538 10.2071 6.98498 10.2071Z" fill="#292D32"/>
<path d="M6.81995 5.84376H0.916638C0.728722 5.84376 0.57289 5.68793 0.57289 5.50001C0.57289 5.3121 0.728722 5.15627 0.916638 5.15627H6.81995C7.00786 5.15627 7.1637 5.3121 7.1637 5.50001C7.1637 5.68793 7.01245 5.84376 6.81995 5.84376Z" fill="#292D32"/>
<path d="M5.79781 7.37914C5.71073 7.37914 5.62365 7.34705 5.5549 7.2783C5.42198 7.14539 5.42198 6.92539 5.5549 6.79247L6.84739 5.49998L5.5549 4.20748C5.42198 4.07457 5.42198 3.85457 5.5549 3.72165C5.68781 3.58873 5.90781 3.58873 6.04073 3.72165L7.57614 5.25706C7.70906 5.38998 7.70906 5.60998 7.57614 5.74289L6.04073 7.2783C5.97198 7.34705 5.8849 7.37914 5.79781 7.37914Z" fill="#292D32"/>
</svg>
