<svg width="11" height="11" viewBox="0 0 11 11" fill="none" xmlns="http://www.w3.org/2000/svg">
<path d="M7.99328 7.04454C7.9062 7.04454 7.81912 7.01245 7.75037 6.9437C7.61745 6.81079 7.61745 6.59079 7.75037 6.45787L8.68078 5.52746L7.75037 4.59705C7.61745 4.46413 7.61745 4.24413 7.75037 4.11122C7.88328 3.9783 8.10328 3.9783 8.2362 4.11122L9.40953 5.28454C9.54244 5.41746 9.54244 5.63746 9.40953 5.77038L8.2362 6.9437C8.16745 7.01245 8.08037 7.04454 7.99328 7.04454Z" fill="#292D32"/>
<path d="M9.1346 5.87124H4.47337C4.28545 5.87124 4.12962 5.7154 4.12962 5.52749C4.12962 5.33957 4.28545 5.18374 4.47337 5.18374H9.1346C9.32252 5.18374 9.47835 5.33957 9.47835 5.52749C9.47835 5.7154 9.32252 5.87124 9.1346 5.87124Z" fill="#292D32"/>
<path d="M5.39002 9.51044C3.02962 9.51044 1.37962 7.86045 1.37962 5.50004C1.37962 3.13964 3.02962 1.48964 5.39002 1.48964C5.57794 1.48964 5.73377 1.64548 5.73377 1.83339C5.73377 2.02131 5.57794 2.17714 5.39002 2.17714C3.43295 2.17714 2.06712 3.54297 2.06712 5.50004C2.06712 7.45712 3.43295 8.82295 5.39002 8.82295C5.57794 8.82295 5.73377 8.97878 5.73377 9.16669C5.73377 9.35461 5.57794 9.51044 5.39002 9.51044Z" fill="#292D32"/>
</svg>
