<svg width="11" height="11" viewBox="0 0 11 11" fill="none" xmlns="http://www.w3.org/2000/svg">
<path d="M6.98498 10.2071H6.92539C4.8904 10.2071 3.90957 9.40498 3.73999 7.60832C3.72166 7.42041 3.85916 7.25082 4.05165 7.23249C4.23499 7.21416 4.40915 7.35624 4.42749 7.54415C4.5604 8.98331 5.23873 9.51956 6.92998 9.51956H6.98956C8.85497 9.51956 9.51497 8.85957 9.51497 6.99416V4.00584C9.51497 2.14043 8.85497 1.48043 6.98956 1.48043H6.92998C5.22957 1.48043 4.55124 2.02584 4.42749 3.4925C4.40457 3.68042 4.24415 3.8225 4.05165 3.80417C3.85916 3.79042 3.72166 3.62084 3.73541 3.43292C3.89124 1.60876 4.87665 0.792931 6.92539 0.792931H6.98498C9.23538 0.792931 10.1979 1.75543 10.1979 4.00584V6.99416C10.1979 9.24456 9.23538 10.2071 6.98498 10.2071Z" fill="#292D32"/>
<path d="M6.87499 5.84376H1.65918C1.47127 5.84376 1.31543 5.68793 1.31543 5.50001C1.31543 5.3121 1.47127 5.15627 1.65918 5.15627H6.87499C7.06291 5.15627 7.21874 5.3121 7.21874 5.50001C7.21874 5.68793 7.06291 5.84376 6.87499 5.84376Z" fill="#292D32"/>
<path d="M2.68123 7.37914C2.59415 7.37914 2.50706 7.34705 2.43831 7.2783L0.902904 5.74289C0.769988 5.60998 0.769988 5.38998 0.902904 5.25706L2.43831 3.72165C2.57123 3.58873 2.79123 3.58873 2.92415 3.72165C3.05706 3.85457 3.05706 4.07457 2.92415 4.20748L1.63165 5.49998L2.92415 6.79247C3.05706 6.92539 3.05706 7.14539 2.92415 7.2783C2.85998 7.34705 2.76831 7.37914 2.68123 7.37914Z" fill="#292D32"/>
</svg>
