<svg width="11" height="11" viewBox="0 0 11 11" fill="none" xmlns="http://www.w3.org/2000/svg">
<path d="M6.87495 10.427H4.12496C1.63622 10.427 0.57289 9.36369 0.57289 6.87495V4.12496C0.57289 1.63622 1.63622 0.57289 4.12496 0.57289H6.87495C9.36369 0.57289 10.427 1.63622 10.427 4.12496V6.87495C10.427 9.36369 9.36369 10.427 6.87495 10.427ZM4.12496 1.26039C2.01205 1.26039 1.26039 2.01205 1.26039 4.12496V6.87495C1.26039 8.98786 2.01205 9.73952 4.12496 9.73952H6.87495C8.98786 9.73952 9.73952 8.98786 9.73952 6.87495V4.12496C9.73952 2.01205 8.98786 1.26039 6.87495 1.26039H4.12496Z" fill="#292D32"/>
<path d="M5.49997 6.99405C5.41289 6.99405 5.3258 6.96197 5.25705 6.89322L3.88206 5.51823C3.74914 5.38531 3.74914 5.16531 3.88206 5.0324C4.01498 4.89948 4.23497 4.89948 4.36789 5.0324L5.49997 6.16448L6.63205 5.0324C6.76497 4.89948 6.98496 4.89948 7.11788 5.0324C7.2508 5.16531 7.2508 5.38531 7.11788 5.51823L5.74289 6.89322C5.67414 6.96197 5.58705 6.99405 5.49997 6.99405Z" fill="#292D32"/>
<path d="M5.49988 6.99413C5.31197 6.99413 5.15614 6.8383 5.15614 6.65038V2.98373C5.15614 2.79581 5.31197 2.63998 5.49988 2.63998C5.6878 2.63998 5.84363 2.79581 5.84363 2.98373V6.65038C5.84363 6.84288 5.6878 6.99413 5.49988 6.99413Z" fill="#292D32"/>
<path d="M5.49996 8.35534C4.53288 8.35534 3.56122 8.19951 2.63997 7.89242C2.46122 7.83284 2.36497 7.63576 2.42455 7.45701C2.48414 7.27826 2.67663 7.17743 2.85997 7.24159C4.56496 7.80993 6.43954 7.80993 8.14453 7.24159C8.32328 7.18201 8.52036 7.27826 8.57995 7.45701C8.63953 7.63576 8.54328 7.83284 8.36453 7.89242C7.4387 8.20409 6.46704 8.35534 5.49996 8.35534Z" fill="#292D32"/>
</svg>
