<svg width="11" height="11" viewBox="0 0 11 11" fill="none" xmlns="http://www.w3.org/2000/svg">
<path d="M2.2916 8.36465C2.20452 8.36465 2.11743 8.33257 2.04868 8.26382C1.91577 8.1309 1.91577 7.9109 2.04868 7.77799L8.46532 1.36135C8.59824 1.22843 8.81824 1.22843 8.95116 1.36135C9.08407 1.49426 9.08407 1.71426 8.95116 1.84718L2.53451 8.26382C2.46577 8.33257 2.37868 8.36465 2.2916 8.36465Z" fill="#292D32"/>
<path d="M6.99877 8.3646H2.2917C2.10379 8.3646 1.94795 8.20877 1.94795 8.02085V3.31379C1.94795 3.12587 2.10379 2.97004 2.2917 2.97004C2.47962 2.97004 2.63545 3.12587 2.63545 3.31379V7.67711H6.99877C7.18668 7.67711 7.34252 7.83294 7.34252 8.02085C7.34252 8.20877 7.18668 8.3646 6.99877 8.3646Z" fill="#292D32"/>
<path d="M9.39574 10.4271H1.60411C1.41619 10.4271 1.26036 10.2713 1.26036 10.0834C1.26036 9.89548 1.41619 9.73964 1.60411 9.73964H9.39574C9.58366 9.73964 9.73949 9.89548 9.73949 10.0834C9.73949 10.2713 9.58366 10.4271 9.39574 10.4271Z" fill="#292D32"/>
</svg>
