<svg width="11" height="11" viewBox="0 0 11 11" fill="none" xmlns="http://www.w3.org/2000/svg">
<path d="M6.6687 10.2758C6.51745 10.2758 6.37537 10.1749 6.33412 10.0191C6.2837 9.83577 6.3937 9.64785 6.58162 9.59744C8.44244 9.10702 9.73952 7.42036 9.73952 5.49537C9.73952 3.15788 7.83744 1.2558 5.49995 1.2558C3.51538 1.2558 2.21372 2.41538 1.60414 3.11663H2.95163C3.13955 3.11663 3.29538 3.27246 3.29538 3.46038C3.29538 3.64829 3.14413 3.80871 2.95163 3.80871H0.921221C0.898305 3.80871 0.857055 3.80413 0.824972 3.79496C0.783722 3.78121 0.747055 3.76288 0.714972 3.73996C0.673722 3.71246 0.641639 3.67579 0.618723 3.63454C0.595806 3.59329 0.577473 3.54288 0.57289 3.49246C0.57289 3.47871 0.57289 3.46954 0.57289 3.45579V1.37497C0.57289 1.18705 0.728722 1.03122 0.916638 1.03122C1.10455 1.03122 1.26039 1.18705 1.26039 1.37497V2.47038C2.00747 1.6683 3.41454 0.57289 5.49995 0.57289C8.21786 0.57289 10.427 2.78205 10.427 5.49995C10.427 7.73661 8.91911 9.69827 6.75578 10.2666C6.72828 10.2712 6.6962 10.2758 6.6687 10.2758Z" fill="#292D32"/>
<path d="M5.17454 10.4179C5.16537 10.4179 5.1562 10.4133 5.15162 10.4133C4.65662 10.3812 4.17079 10.2712 3.71246 10.0925C3.57954 10.0421 3.48788 9.90916 3.49246 9.76708C3.49246 9.72583 3.50163 9.68458 3.51538 9.64791C3.58413 9.47375 3.79038 9.38667 3.95996 9.45083C4.35871 9.60667 4.77579 9.69833 5.19745 9.73041C5.3762 9.73958 5.51829 9.89541 5.51829 10.0787L5.5137 10.0971C5.50454 10.2758 5.35329 10.4179 5.17454 10.4179ZM2.64913 9.4325C2.57122 9.4325 2.49788 9.405 2.43372 9.35917C2.04872 9.0475 1.70955 8.68542 1.43455 8.28209C1.3933 8.2225 1.37039 8.15834 1.37039 8.08959C1.37039 7.975 1.42539 7.86959 1.52164 7.80542C1.67289 7.70001 1.89288 7.74126 1.9983 7.88792C1.9983 7.8925 1.9983 7.8925 1.9983 7.8925C2.00288 7.89709 2.00747 7.90626 2.01205 7.91084C2.25038 8.25459 2.53913 8.56167 2.86455 8.81833C2.94246 8.8825 2.99288 8.97875 2.99288 9.08417C2.99288 9.16208 2.96996 9.24 2.91955 9.30417C2.8508 9.38667 2.75455 9.4325 2.64913 9.4325ZM1.1183 7.19584C0.967055 7.19584 0.834139 7.09959 0.792889 6.95751C0.646223 6.48543 0.57289 5.99501 0.57289 5.50001V5.49543C0.577473 5.30752 0.728722 5.15627 0.916638 5.15627C1.10455 5.15627 1.26039 5.3121 1.26039 5.50001C1.26039 5.93085 1.32455 6.35251 1.4483 6.75126C1.45747 6.78793 1.46205 6.82001 1.46205 6.85668C1.46205 7.00334 1.3658 7.13626 1.21914 7.18209C1.18705 7.19126 1.15497 7.19584 1.1183 7.19584Z" fill="#292D32"/>
</svg>
