<svg width="11" height="11" viewBox="0 0 11 11" fill="none" xmlns="http://www.w3.org/2000/svg">
<path d="M6.87495 10.427H4.12496C1.63622 10.427 0.57289 9.36369 0.57289 6.87495V4.12496C0.57289 1.63622 1.63622 0.57289 4.12496 0.57289H6.87495C9.36369 0.57289 10.427 1.63622 10.427 4.12496V6.87495C10.427 9.36369 9.36369 10.427 6.87495 10.427ZM4.12496 1.26039C2.01205 1.26039 1.26039 2.01205 1.26039 4.12496V6.87495C1.26039 8.98786 2.01205 9.73952 4.12496 9.73952H6.87495C8.98786 9.73952 9.73952 8.98786 9.73952 6.87495V4.12496C9.73952 2.01205 8.98786 1.26039 6.87495 1.26039H4.12496Z" fill="#292D32"/>
<path d="M8.0208 5.49998C8.0208 6.89331 6.89331 8.0208 5.49998 8.0208C4.10665 8.0208 3.25873 6.61831 3.25873 6.61831M3.25873 7.87872V6.61831H4.3954M2.97916 5.49998C2.97916 4.10665 4.09748 2.97916 5.49998 2.97916C7.18206 2.97916 8.0208 4.38165 8.0208 4.38165M6.90247 4.38165H8.0208V3.12124" stroke="#292D32" stroke-width="0.644559" stroke-linecap="round" stroke-linejoin="round"/>
</svg>
