<svg width="11" height="11" viewBox="0 0 11 11" fill="none" xmlns="http://www.w3.org/2000/svg">
<path d="M5.49998 8.25455C4.04707 8.25455 2.86458 7.07206 2.86458 5.61915C2.86458 5.09665 3.01583 4.5879 3.30916 4.15707C3.41458 4.00123 3.62999 3.9554 3.78582 4.06082C3.94165 4.16623 3.98749 4.38165 3.88207 4.53748C3.66666 4.85832 3.55666 5.23415 3.55666 5.61915C3.55666 6.69164 4.43207 7.56706 5.50456 7.56706C6.57706 7.56706 7.45247 6.69164 7.45247 5.61915C7.45247 4.54665 6.57706 3.67124 5.50456 3.67124C5.2754 3.67124 5.0554 3.70332 4.83999 3.76749C4.66124 3.82249 4.46874 3.72165 4.40915 3.53832C4.35415 3.35499 4.45499 3.16249 4.63832 3.10749C4.9179 3.02041 5.20665 2.97916 5.50456 2.97916C6.95748 2.97916 8.13997 4.16165 8.13997 5.61456C8.13997 7.06747 6.95289 8.25455 5.49998 8.25455Z" fill="#292D32"/>
<path d="M4.40922 3.84998C4.3313 3.84998 4.2488 3.82248 4.18464 3.76748C4.04255 3.64373 4.0288 3.42374 4.15255 3.28165L4.91796 2.40624C5.04171 2.26416 5.26171 2.24582 5.40379 2.37416C5.54588 2.49791 5.55963 2.7179 5.43588 2.85999L4.67047 3.7354C4.59713 3.80873 4.50547 3.84998 4.40922 3.84998Z" fill="#292D32"/>
<path d="M5.29814 4.50074C5.22939 4.50074 5.15606 4.47782 5.09648 4.43657L4.20731 3.78574C4.05606 3.67574 4.0194 3.46033 4.13398 3.30449C4.24398 3.15324 4.4594 3.11658 4.61523 3.23116L5.50439 3.88199C5.65564 3.99199 5.69231 4.2074 5.57773 4.36324C5.50898 4.45032 5.40356 4.50074 5.29814 4.50074Z" fill="#292D32"/>
<path d="M6.87495 10.427H4.12496C1.63622 10.427 0.57289 9.36369 0.57289 6.87495V4.12496C0.57289 1.63622 1.63622 0.57289 4.12496 0.57289H6.87495C9.36369 0.57289 10.427 1.63622 10.427 4.12496V6.87495C10.427 9.36369 9.36369 10.427 6.87495 10.427ZM4.12496 1.26039C2.01205 1.26039 1.26039 2.01205 1.26039 4.12496V6.87495C1.26039 8.98786 2.01205 9.73952 4.12496 9.73952H6.87495C8.98786 9.73952 9.73952 8.98786 9.73952 6.87495V4.12496C9.73952 2.01205 8.98786 1.26039 6.87495 1.26039H4.12496Z" fill="#292D32"/>
</svg>
