<svg width="11" height="11" viewBox="0 0 11 11" fill="none" xmlns="http://www.w3.org/2000/svg">
<path d="M6.87495 10.4271H4.12496C1.63622 10.4271 0.57289 9.36382 0.57289 6.87508V4.12509C0.57289 1.63635 1.63622 0.57302 4.12496 0.57302H6.87495C9.36369 0.57302 10.427 1.63635 10.427 4.12509V6.87508C10.427 9.36382 9.36369 10.4271 6.87495 10.4271ZM4.12496 1.26052C2.01205 1.26052 1.26039 2.01218 1.26039 4.12509V6.87508C1.26039 8.98799 2.01205 9.73965 4.12496 9.73965H6.87495C8.98786 9.73965 9.73952 8.98799 9.73952 6.87508V4.12509C9.73952 2.01218 8.98786 1.26052 6.87495 1.26052H4.12496Z" fill="#292D32"/>
<path d="M6.87496 4.7025C6.78788 4.7025 6.7008 4.67041 6.63205 4.60166L5.49997 3.46959L4.36789 4.60166C4.23497 4.73458 4.01498 4.73458 3.88206 4.60166C3.74914 4.46875 3.74914 4.24875 3.88206 4.11583L5.25705 2.74084C5.38997 2.60792 5.60997 2.60792 5.74289 2.74084L7.11788 4.11583C7.2508 4.24875 7.2508 4.46875 7.11788 4.60166C7.04913 4.67041 6.96205 4.7025 6.87496 4.7025Z" fill="#292D32"/>
<path d="M5.50001 6.99413C5.3121 6.99413 5.15627 6.8383 5.15627 6.65038V2.98373C5.15627 2.79581 5.3121 2.63998 5.50001 2.63998C5.68793 2.63998 5.84376 2.79581 5.84376 2.98373V6.65038C5.84376 6.84288 5.68793 6.99413 5.50001 6.99413Z" fill="#292D32"/>
<path d="M5.49996 8.35547C4.53288 8.35547 3.56122 8.19964 2.63997 7.89255C2.46122 7.83297 2.36497 7.63589 2.42455 7.45714C2.48414 7.27839 2.68123 7.17756 2.85997 7.24172C4.56497 7.81006 6.43954 7.81006 8.14454 7.24172C8.32329 7.18214 8.52037 7.27839 8.57995 7.45714C8.63953 7.63589 8.54328 7.83297 8.36453 7.89255C7.4387 8.20422 6.46704 8.35547 5.49996 8.35547Z" fill="#292D32"/>
</svg>
