<svg width="11" height="11" viewBox="0 0 11 11" fill="none" xmlns="http://www.w3.org/2000/svg">
<path d="M6.87495 10.4271H4.12496C1.63622 10.4271 0.57289 9.36382 0.57289 6.87508V4.12509C0.57289 1.63635 1.63622 0.57302 4.12496 0.57302H6.87495C9.36369 0.57302 10.427 1.63635 10.427 4.12509V6.87508C10.427 9.36382 9.36369 10.4271 6.87495 10.4271ZM4.12496 1.26052C2.01205 1.26052 1.26039 2.01218 1.26039 4.12509V6.87508C1.26039 8.98799 2.01205 9.73965 4.12496 9.73965H6.87495C8.98786 9.73965 9.73952 8.98799 9.73952 6.87508V4.12509C9.73952 2.01218 8.98786 1.26052 6.87495 1.26052H4.12496Z" fill="#292D32"/>
<path d="M6.79702 5.81166C6.6091 5.81166 6.45327 5.65582 6.45327 5.46791V3.86834H4.85369C4.66578 3.86834 4.50994 3.7125 4.50994 3.52459C4.50994 3.33667 4.66578 3.18084 4.85369 3.18084H6.79702C6.98494 3.18084 7.14077 3.33667 7.14077 3.52459V5.46791C7.14077 5.65582 6.98494 5.81166 6.79702 5.81166Z" fill="#292D32"/>
<path d="M4.20284 6.45796C4.11575 6.45796 4.02867 6.42588 3.95992 6.35713C3.827 6.22421 3.827 6.00421 3.95992 5.8713L6.55408 3.27714C6.687 3.14422 6.90699 3.14422 7.03991 3.27714C7.17283 3.41006 7.17283 3.63006 7.03991 3.76298L4.44575 6.35713C4.38158 6.42588 4.28992 6.45796 4.20284 6.45796Z" fill="#292D32"/>
<path d="M5.49996 8.35547C4.53288 8.35547 3.56122 8.19964 2.63997 7.89255C2.46122 7.83297 2.36497 7.63589 2.42455 7.45714C2.48414 7.27839 2.68123 7.17756 2.85997 7.24172C4.56497 7.81006 6.43954 7.81006 8.14454 7.24172C8.32329 7.18214 8.52037 7.27839 8.57995 7.45714C8.63953 7.63589 8.54328 7.83297 8.36453 7.89255C7.4387 8.20422 6.46704 8.35547 5.49996 8.35547Z" fill="#292D32"/>
</svg>
