<svg width="11" height="11" viewBox="0 0 11 11" fill="none" xmlns="http://www.w3.org/2000/svg">
<path d="M9.39574 10.4271H1.60411C1.41619 10.4271 1.26036 10.2713 1.26036 10.0834C1.26036 9.89548 1.41619 9.73964 1.60411 9.73964H9.39574C9.58366 9.73964 9.73949 9.89548 9.73949 10.0834C9.73949 10.2713 9.58366 10.4271 9.39574 10.4271Z" fill="#292D32"/>
<path d="M8.70824 8.36465C8.62116 8.36465 8.53407 8.33257 8.46532 8.26382L2.04868 1.84718C1.91577 1.71426 1.91577 1.49426 2.04868 1.36135C2.1816 1.22843 2.4016 1.22843 2.53451 1.36135L8.95115 7.77799C9.08407 7.9109 9.08407 8.1309 8.95115 8.26382C8.8824 8.33257 8.79532 8.36465 8.70824 8.36465Z" fill="#292D32"/>
<path d="M2.29157 6.65505C2.10366 6.65505 1.94782 6.49922 1.94782 6.3113V1.60424C1.94782 1.41632 2.10366 1.26049 2.29157 1.26049H6.99864C7.18655 1.26049 7.34239 1.41632 7.34239 1.60424C7.34239 1.79215 7.18655 1.94798 6.99864 1.94798H2.63532V6.3113C2.63532 6.49922 2.47949 6.65505 2.29157 6.65505Z" fill="#292D32"/>
</svg>
