<svg width="113" height="52" viewBox="0 0 113 52" fill="none" xmlns="http://www.w3.org/2000/svg">
<rect width="113" height="52" fill="#BFC4F2"/>
<path d="M31.48 34C30.952 34 30.544 33.864 30.256 33.592C29.984 33.304 29.848 32.896 29.848 32.368V18.712C29.848 18.184 29.984 17.784 30.256 17.512C30.544 17.224 30.952 17.08 31.48 17.08H36.136C38.968 17.08 41.152 17.808 42.688 19.264C44.24 20.72 45.016 22.808 45.016 25.528C45.016 26.888 44.816 28.096 44.416 29.152C44.032 30.192 43.456 31.072 42.688 31.792C41.936 32.512 41.008 33.064 39.904 33.448C38.816 33.816 37.56 34 36.136 34H31.48ZM32.92 31.456H35.944C36.936 31.456 37.792 31.336 38.512 31.096C39.248 30.84 39.856 30.472 40.336 29.992C40.832 29.496 41.2 28.88 41.44 28.144C41.68 27.392 41.8 26.52 41.8 25.528C41.8 23.544 41.312 22.064 40.336 21.088C39.36 20.112 37.896 19.624 35.944 19.624H32.92V31.456ZM53.1933 34.24C51.9773 34.24 50.9213 33.992 50.0253 33.496C49.1293 33 48.4333 32.296 47.9373 31.384C47.4413 30.456 47.1933 29.368 47.1933 28.12C47.1933 27.176 47.3293 26.336 47.6013 25.6C47.8893 24.848 48.2973 24.208 48.8253 23.68C49.3533 23.136 49.9853 22.728 50.7213 22.456C51.4573 22.168 52.2813 22.024 53.1933 22.024C54.4093 22.024 55.4653 22.272 56.3613 22.768C57.2573 23.264 57.9533 23.968 58.4493 24.88C58.9453 25.792 59.1933 26.872 59.1933 28.12C59.1933 29.064 59.0493 29.912 58.7613 30.664C58.4893 31.416 58.0893 32.064 57.5613 32.608C57.0333 33.136 56.4013 33.544 55.6653 33.832C54.9293 34.104 54.1053 34.24 53.1933 34.24ZM53.1933 31.96C53.7853 31.96 54.3053 31.816 54.7533 31.528C55.2013 31.24 55.5453 30.816 55.7853 30.256C56.0413 29.68 56.1693 28.968 56.1693 28.12C56.1693 26.84 55.8973 25.888 55.3533 25.264C54.8093 24.624 54.0893 24.304 53.1933 24.304C52.6013 24.304 52.0813 24.448 51.6333 24.736C51.1853 25.008 50.8333 25.432 50.5773 26.008C50.3373 26.568 50.2173 27.272 50.2173 28.12C50.2173 29.384 50.4893 30.344 51.0333 31C51.5773 31.64 52.2973 31.96 53.1933 31.96ZM67.0934 34.24C65.8614 34.24 64.7894 33.992 63.8774 33.496C62.9654 32.984 62.2614 32.264 61.7654 31.336C61.2694 30.408 61.0214 29.32 61.0214 28.072C61.0214 27.128 61.1574 26.288 61.4294 25.552C61.7174 24.8 62.1254 24.168 62.6534 23.656C63.1814 23.128 63.8214 22.728 64.5734 22.456C65.3254 22.168 66.1654 22.024 67.0934 22.024C67.6214 22.024 68.1894 22.096 68.7974 22.24C69.4214 22.384 70.0054 22.624 70.5494 22.96C70.8054 23.12 70.9734 23.312 71.0534 23.536C71.1334 23.76 71.1494 23.992 71.1014 24.232C71.0534 24.456 70.9494 24.656 70.7894 24.832C70.6454 24.992 70.4614 25.096 70.2374 25.144C70.0134 25.176 69.7654 25.12 69.4934 24.976C69.1414 24.768 68.7814 24.616 68.4134 24.52C68.0454 24.408 67.6934 24.352 67.3574 24.352C66.8294 24.352 66.3654 24.44 65.9654 24.616C65.5654 24.776 65.2214 25.016 64.9334 25.336C64.6614 25.64 64.4534 26.024 64.3094 26.488C64.1654 26.952 64.0934 27.488 64.0934 28.096C64.0934 29.28 64.3734 30.216 64.9334 30.904C65.5094 31.576 66.3174 31.912 67.3574 31.912C67.6934 31.912 68.0374 31.864 68.3894 31.768C68.7574 31.672 69.1254 31.52 69.4934 31.312C69.7654 31.168 70.0054 31.12 70.2134 31.168C70.4374 31.216 70.6214 31.328 70.7654 31.504C70.9094 31.664 70.9974 31.864 71.0294 32.104C71.0614 32.328 71.0294 32.552 70.9334 32.776C70.8534 33 70.6934 33.184 70.4534 33.328C69.9254 33.648 69.3654 33.88 68.7734 34.024C68.1814 34.168 67.6214 34.24 67.0934 34.24ZM76.7834 34.24C75.9354 34.24 75.1754 34.08 74.5034 33.76C73.8474 33.424 73.3274 32.976 72.9434 32.416C72.5754 31.856 72.3914 31.224 72.3914 30.52C72.3914 29.656 72.6154 28.976 73.0634 28.48C73.5114 27.968 74.2394 27.6 75.2474 27.376C76.2554 27.152 77.6074 27.04 79.3034 27.04H80.5034V28.768H79.3274C78.3354 28.768 77.5434 28.816 76.9514 28.912C76.3594 29.008 75.9354 29.176 75.6794 29.416C75.4394 29.64 75.3194 29.96 75.3194 30.376C75.3194 30.904 75.5034 31.336 75.8714 31.672C76.2394 32.008 76.7514 32.176 77.4074 32.176C77.9354 32.176 78.3994 32.056 78.7994 31.816C79.2154 31.56 79.5434 31.216 79.7834 30.784C80.0234 30.352 80.1434 29.856 80.1434 29.296V26.536C80.1434 25.736 79.9674 25.16 79.6154 24.808C79.2634 24.456 78.6714 24.28 77.8394 24.28C77.3754 24.28 76.8714 24.336 76.3274 24.448C75.7994 24.56 75.2394 24.752 74.6474 25.024C74.3434 25.168 74.0714 25.208 73.8314 25.144C73.6074 25.08 73.4314 24.952 73.3034 24.76C73.1754 24.552 73.1114 24.328 73.1114 24.088C73.1114 23.848 73.1754 23.616 73.3034 23.392C73.4314 23.152 73.6474 22.976 73.9514 22.864C74.6874 22.56 75.3914 22.344 76.0634 22.216C76.7514 22.088 77.3754 22.024 77.9354 22.024C79.0874 22.024 80.0314 22.2 80.7674 22.552C81.5194 22.904 82.0794 23.44 82.4474 24.16C82.8154 24.864 82.9994 25.776 82.9994 26.896V32.656C82.9994 33.152 82.8794 33.536 82.6394 33.808C82.3994 34.064 82.0554 34.192 81.6074 34.192C81.1594 34.192 80.8074 34.064 80.5514 33.808C80.3114 33.536 80.1914 33.152 80.1914 32.656V31.504H80.3834C80.2714 32.064 80.0474 32.552 79.7114 32.968C79.3914 33.368 78.9834 33.68 78.4874 33.904C77.9914 34.128 77.4234 34.24 76.7834 34.24Z" fill="white"/>
</svg>
