<svg width="127" height="52" viewBox="0 0 127 52" fill="none" xmlns="http://www.w3.org/2000/svg">
<rect width="127" height="52" fill="#FFCD34"/>
<path d="M31.384 34.192C30.888 34.192 30.504 34.056 30.232 33.784C29.976 33.496 29.848 33.104 29.848 32.608V18.448C29.848 17.936 29.976 17.552 30.232 17.296C30.504 17.024 30.888 16.888 31.384 16.888C31.88 16.888 32.256 17.024 32.512 17.296C32.784 17.552 32.92 17.936 32.92 18.448V24.568H32.968L39.856 17.656C40.112 17.4 40.368 17.208 40.624 17.08C40.88 16.952 41.168 16.888 41.488 16.888C41.952 16.888 42.28 17.008 42.472 17.248C42.68 17.488 42.76 17.768 42.712 18.088C42.68 18.408 42.528 18.704 42.256 18.976L35.248 25.912L35.272 24.52L42.592 31.96C42.928 32.28 43.104 32.616 43.12 32.968C43.136 33.32 43.024 33.616 42.784 33.856C42.56 34.08 42.224 34.192 41.776 34.192C41.392 34.192 41.08 34.112 40.84 33.952C40.616 33.792 40.352 33.56 40.048 33.256L32.968 26.176H32.92V32.608C32.92 33.104 32.792 33.496 32.536 33.784C32.28 34.056 31.896 34.192 31.384 34.192ZM47.6183 34.168C47.1383 34.168 46.7703 34.024 46.5143 33.736C46.2583 33.448 46.1303 33.048 46.1303 32.536V23.728C46.1303 23.2 46.2583 22.8 46.5143 22.528C46.7703 22.24 47.1383 22.096 47.6183 22.096C48.0983 22.096 48.4663 22.24 48.7223 22.528C48.9943 22.8 49.1303 23.2 49.1303 23.728V32.536C49.1303 33.048 49.0023 33.448 48.7463 33.736C48.4903 34.024 48.1143 34.168 47.6183 34.168ZM47.6183 19.864C47.0583 19.864 46.6183 19.728 46.2983 19.456C45.9943 19.168 45.8423 18.776 45.8423 18.28C45.8423 17.768 45.9943 17.376 46.2983 17.104C46.6183 16.832 47.0583 16.696 47.6183 16.696C48.1943 16.696 48.6343 16.832 48.9383 17.104C49.2423 17.376 49.3943 17.768 49.3943 18.28C49.3943 18.776 49.2423 19.168 48.9383 19.456C48.6343 19.728 48.1943 19.864 47.6183 19.864ZM57.6235 34.24C56.5835 34.24 55.7115 34.064 55.0075 33.712C54.3195 33.36 53.8075 32.848 53.4715 32.176C53.1355 31.488 52.9675 30.64 52.9675 29.632V24.52H51.7195C51.3355 24.52 51.0395 24.424 50.8315 24.232C50.6235 24.024 50.5195 23.744 50.5195 23.392C50.5195 23.024 50.6235 22.744 50.8315 22.552C51.0395 22.36 51.3355 22.264 51.7195 22.264H52.9675V20.08C52.9675 19.584 53.0955 19.208 53.3515 18.952C53.6235 18.696 53.9995 18.568 54.4795 18.568C54.9595 18.568 55.3275 18.696 55.5835 18.952C55.8395 19.208 55.9675 19.584 55.9675 20.08V22.264H58.5115C58.8955 22.264 59.1915 22.36 59.3995 22.552C59.6075 22.744 59.7115 23.024 59.7115 23.392C59.7115 23.744 59.6075 24.024 59.3995 24.232C59.1915 24.424 58.8955 24.52 58.5115 24.52H55.9675V29.464C55.9675 30.232 56.1355 30.808 56.4715 31.192C56.8075 31.576 57.3515 31.768 58.1035 31.768C58.3755 31.768 58.6155 31.744 58.8235 31.696C59.0315 31.648 59.2155 31.616 59.3755 31.6C59.5675 31.584 59.7275 31.648 59.8555 31.792C59.9835 31.92 60.0475 32.192 60.0475 32.608C60.0475 32.928 59.9915 33.216 59.8795 33.472C59.7835 33.712 59.5995 33.88 59.3275 33.976C59.1195 34.04 58.8475 34.096 58.5115 34.144C58.1755 34.208 57.8795 34.24 57.6235 34.24ZM69.6184 34.24C67.8584 34.24 66.3464 33.888 65.0824 33.184C63.8344 32.464 62.8744 31.456 62.2024 30.16C61.5304 28.848 61.1944 27.304 61.1944 25.528C61.1944 24.2 61.3864 23.008 61.7704 21.952C62.1544 20.88 62.7064 19.968 63.4264 19.216C64.1464 18.448 65.0264 17.864 66.0664 17.464C67.1224 17.048 68.3064 16.84 69.6184 16.84C70.4984 16.84 71.3624 16.952 72.2104 17.176C73.0584 17.4 73.8024 17.72 74.4424 18.136C74.7784 18.344 75.0024 18.6 75.1144 18.904C75.2264 19.192 75.2504 19.48 75.1864 19.768C75.1224 20.04 74.9864 20.272 74.7784 20.464C74.5864 20.656 74.3384 20.768 74.0344 20.8C73.7464 20.816 73.4264 20.712 73.0744 20.488C72.5784 20.168 72.0424 19.936 71.4664 19.792C70.8904 19.648 70.3064 19.576 69.7144 19.576C68.5784 19.576 67.6184 19.808 66.8344 20.272C66.0504 20.736 65.4584 21.408 65.0584 22.288C64.6584 23.168 64.4584 24.248 64.4584 25.528C64.4584 26.792 64.6584 27.872 65.0584 28.768C65.4584 29.664 66.0504 30.344 66.8344 30.808C67.6184 31.272 68.5784 31.504 69.7144 31.504C70.3224 31.504 70.9224 31.432 71.5144 31.288C72.1064 31.128 72.6664 30.888 73.1944 30.568C73.5464 30.36 73.8584 30.272 74.1304 30.304C74.4184 30.32 74.6584 30.416 74.8504 30.592C75.0424 30.768 75.1704 30.992 75.2344 31.264C75.2984 31.52 75.2824 31.792 75.1864 32.08C75.0904 32.352 74.8984 32.592 74.6104 32.8C73.9704 33.264 73.2024 33.624 72.3064 33.88C71.4264 34.12 70.5304 34.24 69.6184 34.24ZM81.2131 34.24C80.3651 34.24 79.6051 34.08 78.9331 33.76C78.2771 33.424 77.7571 32.976 77.3731 32.416C77.0051 31.856 76.8211 31.224 76.8211 30.52C76.8211 29.656 77.0451 28.976 77.4931 28.48C77.9411 27.968 78.6691 27.6 79.6771 27.376C80.6851 27.152 82.0371 27.04 83.7331 27.04H84.9331V28.768H83.7571C82.7651 28.768 81.9731 28.816 81.3811 28.912C80.7891 29.008 80.3651 29.176 80.1091 29.416C79.8691 29.64 79.7491 29.96 79.7491 30.376C79.7491 30.904 79.9331 31.336 80.3011 31.672C80.6691 32.008 81.1811 32.176 81.8371 32.176C82.3651 32.176 82.8291 32.056 83.2291 31.816C83.6451 31.56 83.9731 31.216 84.2131 30.784C84.4531 30.352 84.5731 29.856 84.5731 29.296V26.536C84.5731 25.736 84.3971 25.16 84.0451 24.808C83.6931 24.456 83.1011 24.28 82.2691 24.28C81.8051 24.28 81.3011 24.336 80.7571 24.448C80.2291 24.56 79.6691 24.752 79.0771 25.024C78.7731 25.168 78.5011 25.208 78.2611 25.144C78.0371 25.08 77.8611 24.952 77.7331 24.76C77.6051 24.552 77.5411 24.328 77.5411 24.088C77.5411 23.848 77.6051 23.616 77.7331 23.392C77.8611 23.152 78.0771 22.976 78.3811 22.864C79.1171 22.56 79.8211 22.344 80.4931 22.216C81.1811 22.088 81.8051 22.024 82.3651 22.024C83.5171 22.024 84.4611 22.2 85.1971 22.552C85.9491 22.904 86.5091 23.44 86.8771 24.16C87.2451 24.864 87.4291 25.776 87.4291 26.896V32.656C87.4291 33.152 87.3091 33.536 87.0691 33.808C86.8291 34.064 86.4851 34.192 86.0371 34.192C85.5891 34.192 85.2371 34.064 84.9811 33.808C84.7411 33.536 84.6211 33.152 84.6211 32.656V31.504H84.8131C84.7011 32.064 84.4771 32.552 84.1411 32.968C83.8211 33.368 83.4131 33.68 82.9171 33.904C82.4211 34.128 81.8531 34.24 81.2131 34.24ZM95.8501 34.24C94.8101 34.24 93.9381 34.064 93.2341 33.712C92.5461 33.36 92.0341 32.848 91.6981 32.176C91.3621 31.488 91.1941 30.64 91.1941 29.632V24.52H89.9461C89.5621 24.52 89.2661 24.424 89.0581 24.232C88.8501 24.024 88.7461 23.744 88.7461 23.392C88.7461 23.024 88.8501 22.744 89.0581 22.552C89.2661 22.36 89.5621 22.264 89.9461 22.264H91.1941V20.08C91.1941 19.584 91.3221 19.208 91.5781 18.952C91.8501 18.696 92.2261 18.568 92.7061 18.568C93.1861 18.568 93.5541 18.696 93.8101 18.952C94.0661 19.208 94.1941 19.584 94.1941 20.08V22.264H96.7381C97.1221 22.264 97.4181 22.36 97.6261 22.552C97.8341 22.744 97.9381 23.024 97.9381 23.392C97.9381 23.744 97.8341 24.024 97.6261 24.232C97.4181 24.424 97.1221 24.52 96.7381 24.52H94.1941V29.464C94.1941 30.232 94.3621 30.808 94.6981 31.192C95.0341 31.576 95.5781 31.768 96.3301 31.768C96.6021 31.768 96.8421 31.744 97.0501 31.696C97.2581 31.648 97.4421 31.616 97.6021 31.6C97.7941 31.584 97.9541 31.648 98.0821 31.792C98.2101 31.92 98.2741 32.192 98.2741 32.608C98.2741 32.928 98.2181 33.216 98.1061 33.472C98.0101 33.712 97.8261 33.88 97.5541 33.976C97.3461 34.04 97.0741 34.096 96.7381 34.144C96.4021 34.208 96.1061 34.24 95.8501 34.24Z" fill="white"/>
</svg>
