<svg width="213" height="52" viewBox="0 0 213 52" fill="none" xmlns="http://www.w3.org/2000/svg">
<rect width="213" height="52" fill="#BFC4F2"/>
<path d="M31.288 34.192C30.824 34.192 30.464 34.064 30.208 33.808C29.968 33.552 29.848 33.184 29.848 32.704V18.424C29.848 17.928 29.968 17.552 30.208 17.296C30.464 17.024 30.792 16.888 31.192 16.888C31.56 16.888 31.832 16.96 32.008 17.104C32.2 17.232 32.424 17.456 32.68 17.776L41.872 29.704H41.248V18.352C41.248 17.888 41.368 17.528 41.608 17.272C41.864 17.016 42.224 16.888 42.688 16.888C43.152 16.888 43.504 17.016 43.744 17.272C43.984 17.528 44.104 17.888 44.104 18.352V32.752C44.104 33.2 43.992 33.552 43.768 33.808C43.544 34.064 43.24 34.192 42.856 34.192C42.488 34.192 42.192 34.12 41.968 33.976C41.76 33.832 41.528 33.6 41.272 33.28L32.104 21.352H32.704V32.704C32.704 33.184 32.584 33.552 32.344 33.808C32.104 34.064 31.752 34.192 31.288 34.192ZM51.3771 34.24C50.5291 34.24 49.7691 34.08 49.0971 33.76C48.4411 33.424 47.9211 32.976 47.5371 32.416C47.1691 31.856 46.9851 31.224 46.9851 30.52C46.9851 29.656 47.2091 28.976 47.6571 28.48C48.1051 27.968 48.8331 27.6 49.8411 27.376C50.8491 27.152 52.2011 27.04 53.8971 27.04H55.0971V28.768H53.9211C52.9291 28.768 52.1371 28.816 51.5451 28.912C50.9531 29.008 50.5291 29.176 50.2731 29.416C50.0331 29.64 49.9131 29.96 49.9131 30.376C49.9131 30.904 50.0971 31.336 50.4651 31.672C50.8331 32.008 51.3451 32.176 52.0011 32.176C52.5291 32.176 52.9931 32.056 53.3931 31.816C53.8091 31.56 54.1371 31.216 54.3771 30.784C54.6171 30.352 54.7371 29.856 54.7371 29.296V26.536C54.7371 25.736 54.5611 25.16 54.2091 24.808C53.8571 24.456 53.2651 24.28 52.4331 24.28C51.9691 24.28 51.4651 24.336 50.9211 24.448C50.3931 24.56 49.8331 24.752 49.2411 25.024C48.9371 25.168 48.6651 25.208 48.4251 25.144C48.2011 25.08 48.0251 24.952 47.8971 24.76C47.7691 24.552 47.7051 24.328 47.7051 24.088C47.7051 23.848 47.7691 23.616 47.8971 23.392C48.0251 23.152 48.2411 22.976 48.5451 22.864C49.2811 22.56 49.9851 22.344 50.6571 22.216C51.3451 22.088 51.9691 22.024 52.5291 22.024C53.6811 22.024 54.6251 22.2 55.3611 22.552C56.1131 22.904 56.6731 23.44 57.0411 24.16C57.4091 24.864 57.5931 25.776 57.5931 26.896V32.656C57.5931 33.152 57.4731 33.536 57.2331 33.808C56.9931 34.064 56.6491 34.192 56.2011 34.192C55.7531 34.192 55.4011 34.064 55.1451 33.808C54.9051 33.536 54.7851 33.152 54.7851 32.656V31.504H54.9771C54.8651 32.064 54.6411 32.552 54.3051 32.968C53.9851 33.368 53.5771 33.68 53.0811 33.904C52.5851 34.128 52.0171 34.24 51.3771 34.24ZM66.0141 34.24C64.9741 34.24 64.1021 34.064 63.3981 33.712C62.7101 33.36 62.1981 32.848 61.8621 32.176C61.5261 31.488 61.3581 30.64 61.3581 29.632V24.52H60.1101C59.7261 24.52 59.4301 24.424 59.2221 24.232C59.0141 24.024 58.9101 23.744 58.9101 23.392C58.9101 23.024 59.0141 22.744 59.2221 22.552C59.4301 22.36 59.7261 22.264 60.1101 22.264H61.3581V20.08C61.3581 19.584 61.4861 19.208 61.7421 18.952C62.0141 18.696 62.3901 18.568 62.8701 18.568C63.3501 18.568 63.7181 18.696 63.9741 18.952C64.2301 19.208 64.3581 19.584 64.3581 20.08V22.264H66.9021C67.2861 22.264 67.5821 22.36 67.7901 22.552C67.9981 22.744 68.1021 23.024 68.1021 23.392C68.1021 23.744 67.9981 24.024 67.7901 24.232C67.5821 24.424 67.2861 24.52 66.9021 24.52H64.3581V29.464C64.3581 30.232 64.5261 30.808 64.8621 31.192C65.1981 31.576 65.7421 31.768 66.4941 31.768C66.7661 31.768 67.0061 31.744 67.2141 31.696C67.4221 31.648 67.6061 31.616 67.7661 31.6C67.9581 31.584 68.1181 31.648 68.2461 31.792C68.3741 31.92 68.4381 32.192 68.4381 32.608C68.4381 32.928 68.3821 33.216 68.2701 33.472C68.1741 33.712 67.9901 33.88 67.7181 33.976C67.5101 34.04 67.2381 34.096 66.9021 34.144C66.5661 34.208 66.2701 34.24 66.0141 34.24ZM74.0971 34.24C73.1211 34.24 72.3131 34.064 71.6731 33.712C71.0331 33.344 70.5531 32.8 70.2331 32.08C69.9291 31.36 69.7771 30.464 69.7771 29.392V23.584C69.7771 23.072 69.9051 22.696 70.1611 22.456C70.4171 22.2 70.7851 22.072 71.2651 22.072C71.7451 22.072 72.1131 22.2 72.3691 22.456C72.6411 22.696 72.7771 23.072 72.7771 23.584V29.44C72.7771 30.272 72.9451 30.888 73.2811 31.288C73.6171 31.688 74.1531 31.888 74.8891 31.888C75.6891 31.888 76.3451 31.616 76.8571 31.072C77.3691 30.512 77.6251 29.776 77.6251 28.864V23.584C77.6251 23.072 77.7531 22.696 78.0091 22.456C78.2651 22.2 78.6331 22.072 79.1131 22.072C79.5931 22.072 79.9611 22.2 80.2171 22.456C80.4891 22.696 80.6251 23.072 80.6251 23.584V32.656C80.6251 33.68 80.1371 34.192 79.1611 34.192C78.6971 34.192 78.3371 34.064 78.0811 33.808C77.8251 33.536 77.6971 33.152 77.6971 32.656V30.832L78.0331 31.552C77.6971 32.416 77.1851 33.08 76.4971 33.544C75.8251 34.008 75.0251 34.24 74.0971 34.24ZM85.2835 34.192C84.7875 34.192 84.4035 34.064 84.1315 33.808C83.8755 33.536 83.7475 33.152 83.7475 32.656V23.584C83.7475 23.088 83.8755 22.712 84.1315 22.456C84.3875 22.2 84.7475 22.072 85.2115 22.072C85.6755 22.072 86.0355 22.2 86.2915 22.456C86.5475 22.712 86.6755 23.088 86.6755 23.584V25.096H86.4355C86.6595 24.136 87.0995 23.408 87.7555 22.912C88.4115 22.416 89.2835 22.12 90.3715 22.024C90.7075 21.992 90.9715 22.08 91.1635 22.288C91.3715 22.48 91.4915 22.784 91.5235 23.2C91.5555 23.6 91.4595 23.928 91.2355 24.184C91.0275 24.424 90.7075 24.568 90.2755 24.616L89.7475 24.664C88.7715 24.76 88.0355 25.064 87.5395 25.576C87.0435 26.072 86.7955 26.776 86.7955 27.688V32.656C86.7955 33.152 86.6675 33.536 86.4115 33.808C86.1555 34.064 85.7795 34.192 85.2835 34.192ZM98.7424 34.24C97.4144 34.24 96.2704 33.992 95.3104 33.496C94.3504 33 93.6064 32.296 93.0784 31.384C92.5664 30.472 92.3104 29.392 92.3104 28.144C92.3104 26.928 92.5584 25.864 93.0544 24.952C93.5664 24.04 94.2624 23.328 95.1424 22.816C96.0384 22.288 97.0544 22.024 98.1904 22.024C99.0224 22.024 99.7664 22.16 100.422 22.432C101.094 22.704 101.662 23.096 102.126 23.608C102.606 24.12 102.966 24.744 103.206 25.48C103.462 26.2 103.59 27.016 103.59 27.928C103.59 28.216 103.486 28.44 103.278 28.6C103.086 28.744 102.806 28.816 102.438 28.816H94.7344V27.088H101.478L101.094 27.448C101.094 26.712 100.982 26.096 100.758 25.6C100.55 25.104 100.238 24.728 99.8224 24.472C99.4224 24.2 98.9184 24.064 98.3104 24.064C97.6384 24.064 97.0624 24.224 96.5824 24.544C96.1184 24.848 95.7584 25.288 95.5024 25.864C95.2624 26.424 95.1424 27.096 95.1424 27.88V28.048C95.1424 29.36 95.4464 30.344 96.0544 31C96.6784 31.64 97.5904 31.96 98.7904 31.96C99.2064 31.96 99.6704 31.912 100.182 31.816C100.71 31.704 101.206 31.52 101.67 31.264C102.006 31.072 102.302 30.992 102.558 31.024C102.814 31.04 103.014 31.128 103.158 31.288C103.318 31.448 103.414 31.648 103.446 31.888C103.478 32.112 103.43 32.344 103.302 32.584C103.19 32.824 102.99 33.032 102.702 33.208C102.142 33.56 101.494 33.824 100.758 34C100.038 34.16 99.3664 34.24 98.7424 34.24ZM114.402 34C113.874 34 113.466 33.864 113.178 33.592C112.906 33.304 112.77 32.896 112.77 32.368V18.712C112.77 18.184 112.906 17.784 113.178 17.512C113.466 17.224 113.874 17.08 114.402 17.08H120.162C121.346 17.08 122.354 17.256 123.186 17.608C124.018 17.96 124.65 18.464 125.082 19.12C125.53 19.776 125.754 20.56 125.754 21.472C125.754 22.496 125.458 23.36 124.866 24.064C124.274 24.768 123.466 25.24 122.442 25.48V25.12C123.626 25.296 124.546 25.744 125.202 26.464C125.858 27.184 126.186 28.12 126.186 29.272C126.186 30.776 125.674 31.944 124.65 32.776C123.642 33.592 122.234 34 120.426 34H114.402ZM115.722 31.672H120.042C121.13 31.672 121.93 31.464 122.442 31.048C122.954 30.616 123.21 29.976 123.21 29.128C123.21 28.264 122.954 27.624 122.442 27.208C121.93 26.792 121.13 26.584 120.042 26.584H115.722V31.672ZM115.722 24.256H119.634C120.69 24.256 121.474 24.056 121.986 23.656C122.514 23.24 122.778 22.632 122.778 21.832C122.778 21.032 122.514 20.432 121.986 20.032C121.474 19.616 120.69 19.408 119.634 19.408H115.722V24.256ZM130.541 34.192C130.045 34.192 129.661 34.064 129.389 33.808C129.133 33.536 129.005 33.152 129.005 32.656V23.584C129.005 23.088 129.133 22.712 129.389 22.456C129.645 22.2 130.005 22.072 130.469 22.072C130.933 22.072 131.293 22.2 131.549 22.456C131.805 22.712 131.933 23.088 131.933 23.584V25.096H131.693C131.917 24.136 132.357 23.408 133.013 22.912C133.669 22.416 134.541 22.12 135.629 22.024C135.965 21.992 136.229 22.08 136.421 22.288C136.629 22.48 136.749 22.784 136.781 23.2C136.813 23.6 136.717 23.928 136.493 24.184C136.285 24.424 135.965 24.568 135.533 24.616L135.005 24.664C134.029 24.76 133.293 25.064 132.797 25.576C132.301 26.072 132.053 26.776 132.053 27.688V32.656C132.053 33.152 131.925 33.536 131.669 33.808C131.413 34.064 131.037 34.192 130.541 34.192ZM139.892 34.168C139.412 34.168 139.044 34.024 138.788 33.736C138.532 33.448 138.404 33.048 138.404 32.536V23.728C138.404 23.2 138.532 22.8 138.788 22.528C139.044 22.24 139.412 22.096 139.892 22.096C140.372 22.096 140.74 22.24 140.996 22.528C141.268 22.8 141.404 23.2 141.404 23.728V32.536C141.404 33.048 141.276 33.448 141.02 33.736C140.764 34.024 140.388 34.168 139.892 34.168ZM139.892 19.864C139.332 19.864 138.892 19.728 138.572 19.456C138.268 19.168 138.116 18.776 138.116 18.28C138.116 17.768 138.268 17.376 138.572 17.104C138.892 16.832 139.332 16.696 139.892 16.696C140.468 16.696 140.908 16.832 141.212 17.104C141.516 17.376 141.668 17.768 141.668 18.28C141.668 18.776 141.516 19.168 141.212 19.456C140.908 19.728 140.468 19.864 139.892 19.864ZM149.033 34.24C148.009 34.24 147.105 33.992 146.321 33.496C145.553 33 144.953 32.296 144.521 31.384C144.089 30.456 143.873 29.368 143.873 28.12C143.873 26.856 144.089 25.776 144.521 24.88C144.953 23.968 145.553 23.264 146.321 22.768C147.105 22.272 148.009 22.024 149.033 22.024C150.009 22.024 150.857 22.264 151.577 22.744C152.313 23.224 152.809 23.856 153.065 24.64H152.801V18.4C152.801 17.904 152.929 17.528 153.185 17.272C153.441 17.016 153.809 16.888 154.289 16.888C154.769 16.888 155.137 17.016 155.393 17.272C155.665 17.528 155.801 17.904 155.801 18.4V32.656C155.801 33.152 155.673 33.536 155.417 33.808C155.161 34.064 154.793 34.192 154.313 34.192C153.833 34.192 153.465 34.064 153.209 33.808C152.953 33.536 152.825 33.152 152.825 32.656V30.784L153.089 31.504C152.849 32.336 152.361 33 151.625 33.496C150.889 33.992 150.025 34.24 149.033 34.24ZM149.873 31.96C150.465 31.96 150.985 31.816 151.433 31.528C151.881 31.24 152.225 30.816 152.465 30.256C152.721 29.68 152.849 28.968 152.849 28.12C152.849 26.84 152.577 25.888 152.033 25.264C151.489 24.624 150.769 24.304 149.873 24.304C149.281 24.304 148.761 24.448 148.313 24.736C147.865 25.008 147.513 25.432 147.257 26.008C147.017 26.568 146.897 27.272 146.897 28.12C146.897 29.384 147.169 30.344 147.713 31C148.257 31.64 148.977 31.96 149.873 31.96ZM164.384 38.56C163.52 38.56 162.68 38.48 161.864 38.32C161.064 38.16 160.336 37.912 159.68 37.576C159.376 37.416 159.168 37.224 159.056 37C158.96 36.776 158.928 36.544 158.96 36.304C159.008 36.08 159.104 35.88 159.248 35.704C159.408 35.528 159.6 35.408 159.824 35.344C160.048 35.28 160.28 35.312 160.52 35.44C161.224 35.792 161.888 36.016 162.512 36.112C163.152 36.224 163.696 36.28 164.144 36.28C165.216 36.28 166.016 36.016 166.544 35.488C167.088 34.976 167.36 34.208 167.36 33.184V31.024H167.576C167.336 31.84 166.832 32.496 166.064 32.992C165.312 33.472 164.456 33.712 163.496 33.712C162.44 33.712 161.52 33.472 160.736 32.992C159.952 32.496 159.344 31.808 158.912 30.928C158.48 30.048 158.264 29.024 158.264 27.856C158.264 26.976 158.384 26.184 158.624 25.48C158.88 24.76 159.232 24.144 159.68 23.632C160.144 23.12 160.696 22.728 161.336 22.456C161.992 22.168 162.712 22.024 163.496 22.024C164.488 22.024 165.352 22.272 166.088 22.768C166.84 23.248 167.328 23.888 167.552 24.688L167.312 25.288V23.584C167.312 23.088 167.44 22.712 167.696 22.456C167.968 22.2 168.336 22.072 168.8 22.072C169.28 22.072 169.648 22.2 169.904 22.456C170.16 22.712 170.288 23.088 170.288 23.584V32.824C170.288 34.728 169.784 36.16 168.776 37.12C167.768 38.08 166.304 38.56 164.384 38.56ZM164.312 31.432C164.936 31.432 165.472 31.288 165.92 31C166.368 30.712 166.712 30.304 166.952 29.776C167.208 29.232 167.336 28.592 167.336 27.856C167.336 26.752 167.064 25.888 166.52 25.264C165.976 24.624 165.24 24.304 164.312 24.304C163.688 24.304 163.152 24.448 162.704 24.736C162.256 25.024 161.904 25.432 161.648 25.96C161.408 26.488 161.288 27.12 161.288 27.856C161.288 28.96 161.56 29.832 162.104 30.472C162.648 31.112 163.384 31.432 164.312 31.432ZM179.18 34.24C177.852 34.24 176.708 33.992 175.748 33.496C174.788 33 174.044 32.296 173.516 31.384C173.004 30.472 172.748 29.392 172.748 28.144C172.748 26.928 172.996 25.864 173.492 24.952C174.004 24.04 174.7 23.328 175.58 22.816C176.476 22.288 177.492 22.024 178.628 22.024C179.46 22.024 180.204 22.16 180.86 22.432C181.532 22.704 182.1 23.096 182.564 23.608C183.044 24.12 183.404 24.744 183.644 25.48C183.9 26.2 184.028 27.016 184.028 27.928C184.028 28.216 183.924 28.44 183.716 28.6C183.524 28.744 183.244 28.816 182.876 28.816H175.172V27.088H181.916L181.532 27.448C181.532 26.712 181.42 26.096 181.196 25.6C180.988 25.104 180.676 24.728 180.26 24.472C179.86 24.2 179.356 24.064 178.748 24.064C178.076 24.064 177.5 24.224 177.02 24.544C176.556 24.848 176.196 25.288 175.94 25.864C175.7 26.424 175.58 27.096 175.58 27.88V28.048C175.58 29.36 175.884 30.344 176.492 31C177.116 31.64 178.028 31.96 179.228 31.96C179.644 31.96 180.108 31.912 180.62 31.816C181.148 31.704 181.644 31.52 182.108 31.264C182.444 31.072 182.74 30.992 182.996 31.024C183.252 31.04 183.452 31.128 183.596 31.288C183.756 31.448 183.852 31.648 183.884 31.888C183.916 32.112 183.868 32.344 183.74 32.584C183.628 32.824 183.428 33.032 183.14 33.208C182.58 33.56 181.932 33.824 181.196 34C180.476 34.16 179.804 34.24 179.18 34.24Z" fill="white"/>
</svg>
