<svg width="174" height="52" viewBox="0 0 174 52" fill="none" xmlns="http://www.w3.org/2000/svg">
<rect width="174" height="52" fill="#FFCD34"/>
<path d="M31.288 34.192C30.824 34.192 30.464 34.064 30.208 33.808C29.968 33.552 29.848 33.184 29.848 32.704V18.424C29.848 17.928 29.968 17.552 30.208 17.296C30.464 17.024 30.792 16.888 31.192 16.888C31.56 16.888 31.832 16.96 32.008 17.104C32.2 17.232 32.424 17.456 32.68 17.776L41.872 29.704H41.248V18.352C41.248 17.888 41.368 17.528 41.608 17.272C41.864 17.016 42.224 16.888 42.688 16.888C43.152 16.888 43.504 17.016 43.744 17.272C43.984 17.528 44.104 17.888 44.104 18.352V32.752C44.104 33.2 43.992 33.552 43.768 33.808C43.544 34.064 43.24 34.192 42.856 34.192C42.488 34.192 42.192 34.12 41.968 33.976C41.76 33.832 41.528 33.6 41.272 33.28L32.104 21.352H32.704V32.704C32.704 33.184 32.584 33.552 32.344 33.808C32.104 34.064 31.752 34.192 31.288 34.192ZM53.2971 34.24C51.9691 34.24 50.8251 33.992 49.8651 33.496C48.9051 33 48.1611 32.296 47.6331 31.384C47.1211 30.472 46.8651 29.392 46.8651 28.144C46.8651 26.928 47.1131 25.864 47.6091 24.952C48.1211 24.04 48.8171 23.328 49.6971 22.816C50.5931 22.288 51.6091 22.024 52.7451 22.024C53.5771 22.024 54.3211 22.16 54.9771 22.432C55.6491 22.704 56.2171 23.096 56.6811 23.608C57.1611 24.12 57.5211 24.744 57.7611 25.48C58.0171 26.2 58.1451 27.016 58.1451 27.928C58.1451 28.216 58.0411 28.44 57.8331 28.6C57.6411 28.744 57.3611 28.816 56.9931 28.816H49.2891V27.088H56.0331L55.6491 27.448C55.6491 26.712 55.5371 26.096 55.3131 25.6C55.1051 25.104 54.7931 24.728 54.3771 24.472C53.9771 24.2 53.4731 24.064 52.8651 24.064C52.1931 24.064 51.6171 24.224 51.1371 24.544C50.6731 24.848 50.3131 25.288 50.0571 25.864C49.8171 26.424 49.6971 27.096 49.6971 27.88V28.048C49.6971 29.36 50.0011 30.344 50.6091 31C51.2331 31.64 52.1451 31.96 53.3451 31.96C53.7611 31.96 54.2251 31.912 54.7371 31.816C55.2651 31.704 55.7611 31.52 56.2251 31.264C56.5611 31.072 56.8571 30.992 57.1131 31.024C57.3691 31.04 57.5691 31.128 57.7131 31.288C57.8731 31.448 57.9691 31.648 58.0011 31.888C58.0331 32.112 57.9851 32.344 57.8571 32.584C57.7451 32.824 57.5451 33.032 57.2571 33.208C56.6971 33.56 56.0491 33.824 55.3131 34C54.5931 34.16 53.9211 34.24 53.2971 34.24ZM64.8694 34.192C64.4694 34.192 64.1254 34.096 63.8374 33.904C63.5494 33.696 63.3174 33.376 63.1414 32.944L59.6614 24.064C59.5174 23.68 59.4694 23.344 59.5174 23.056C59.5814 22.752 59.7334 22.512 59.9734 22.336C60.2134 22.16 60.5334 22.072 60.9334 22.072C61.2854 22.072 61.5734 22.16 61.7974 22.336C62.0214 22.496 62.2134 22.808 62.3734 23.272L65.2774 31.264H64.7254L67.7254 23.08C67.8534 22.728 68.0214 22.472 68.2294 22.312C68.4534 22.152 68.7414 22.072 69.0934 22.072C69.4454 22.072 69.7334 22.16 69.9574 22.336C70.1814 22.496 70.3494 22.744 70.4614 23.08L73.4134 31.264H72.9094L75.8374 23.2C75.9974 22.768 76.1974 22.472 76.4374 22.312C76.6934 22.152 76.9734 22.072 77.2774 22.072C77.6614 22.072 77.9574 22.168 78.1654 22.36C78.3734 22.552 78.4934 22.8 78.5254 23.104C78.5574 23.392 78.5014 23.712 78.3574 24.064L74.9014 32.944C74.7414 33.36 74.5094 33.672 74.2054 33.88C73.9174 34.088 73.5734 34.192 73.1734 34.192C72.7734 34.192 72.4214 34.088 72.1174 33.88C71.8294 33.672 71.6054 33.36 71.4454 32.944L68.3014 24.616H69.6694L66.5974 32.92C66.4374 33.352 66.2134 33.672 65.9254 33.88C65.6374 34.088 65.2854 34.192 64.8694 34.192ZM89.134 34.192C88.638 34.192 88.254 34.056 87.982 33.784C87.726 33.496 87.598 33.104 87.598 32.608V18.472C87.598 17.96 87.726 17.568 87.982 17.296C88.254 17.024 88.638 16.888 89.134 16.888C89.63 16.888 90.006 17.024 90.262 17.296C90.534 17.568 90.67 17.96 90.67 18.472V24.136H99.382V18.472C99.382 17.96 99.51 17.568 99.766 17.296C100.038 17.024 100.422 16.888 100.918 16.888C101.414 16.888 101.79 17.024 102.046 17.296C102.318 17.568 102.454 17.96 102.454 18.472V32.608C102.454 33.104 102.318 33.496 102.046 33.784C101.79 34.056 101.414 34.192 100.918 34.192C100.422 34.192 100.038 34.056 99.766 33.784C99.51 33.496 99.382 33.104 99.382 32.608V26.704H90.67V32.608C90.67 33.104 90.542 33.496 90.286 33.784C90.03 34.056 89.646 34.192 89.134 34.192ZM111.225 34.24C110.009 34.24 108.953 33.992 108.057 33.496C107.161 33 106.465 32.296 105.969 31.384C105.473 30.456 105.225 29.368 105.225 28.12C105.225 27.176 105.361 26.336 105.633 25.6C105.921 24.848 106.329 24.208 106.857 23.68C107.385 23.136 108.017 22.728 108.753 22.456C109.489 22.168 110.313 22.024 111.225 22.024C112.441 22.024 113.497 22.272 114.393 22.768C115.289 23.264 115.985 23.968 116.481 24.88C116.977 25.792 117.225 26.872 117.225 28.12C117.225 29.064 117.081 29.912 116.793 30.664C116.521 31.416 116.121 32.064 115.593 32.608C115.065 33.136 114.433 33.544 113.697 33.832C112.961 34.104 112.137 34.24 111.225 34.24ZM111.225 31.96C111.817 31.96 112.337 31.816 112.785 31.528C113.233 31.24 113.577 30.816 113.817 30.256C114.073 29.68 114.201 28.968 114.201 28.12C114.201 26.84 113.929 25.888 113.385 25.264C112.841 24.624 112.121 24.304 111.225 24.304C110.633 24.304 110.113 24.448 109.665 24.736C109.217 25.008 108.865 25.432 108.609 26.008C108.369 26.568 108.249 27.272 108.249 28.12C108.249 29.384 108.521 30.344 109.065 31C109.609 31.64 110.329 31.96 111.225 31.96ZM121.189 38.512C120.709 38.512 120.341 38.384 120.085 38.128C119.829 37.872 119.701 37.496 119.701 37V23.584C119.701 23.088 119.829 22.712 120.085 22.456C120.341 22.2 120.701 22.072 121.165 22.072C121.645 22.072 122.013 22.2 122.269 22.456C122.525 22.712 122.653 23.088 122.653 23.584V25.456L122.389 24.736C122.629 23.92 123.117 23.264 123.853 22.768C124.605 22.272 125.477 22.024 126.469 22.024C127.493 22.024 128.389 22.272 129.157 22.768C129.941 23.264 130.549 23.968 130.981 24.88C131.413 25.776 131.629 26.856 131.629 28.12C131.629 29.368 131.413 30.456 130.981 31.384C130.549 32.296 129.949 33 129.181 33.496C128.413 33.992 127.509 34.24 126.469 34.24C125.493 34.24 124.637 34 123.901 33.52C123.165 33.024 122.669 32.384 122.413 31.6H122.701V37C122.701 37.496 122.565 37.872 122.293 38.128C122.037 38.384 121.669 38.512 121.189 38.512ZM125.629 31.96C126.221 31.96 126.741 31.816 127.189 31.528C127.637 31.24 127.981 30.816 128.221 30.256C128.477 29.68 128.605 28.968 128.605 28.12C128.605 26.84 128.333 25.888 127.789 25.264C127.245 24.624 126.525 24.304 125.629 24.304C125.037 24.304 124.517 24.448 124.069 24.736C123.621 25.008 123.269 25.432 123.013 26.008C122.773 26.568 122.653 27.272 122.653 28.12C122.653 29.384 122.925 30.344 123.469 31C124.013 31.64 124.733 31.96 125.629 31.96ZM139.875 34.24C138.547 34.24 137.403 33.992 136.443 33.496C135.483 33 134.739 32.296 134.211 31.384C133.699 30.472 133.443 29.392 133.443 28.144C133.443 26.928 133.691 25.864 134.187 24.952C134.699 24.04 135.395 23.328 136.275 22.816C137.171 22.288 138.187 22.024 139.323 22.024C140.155 22.024 140.899 22.16 141.555 22.432C142.227 22.704 142.795 23.096 143.259 23.608C143.739 24.12 144.099 24.744 144.339 25.48C144.595 26.2 144.723 27.016 144.723 27.928C144.723 28.216 144.619 28.44 144.411 28.6C144.219 28.744 143.939 28.816 143.571 28.816H135.867V27.088H142.611L142.227 27.448C142.227 26.712 142.115 26.096 141.891 25.6C141.683 25.104 141.371 24.728 140.955 24.472C140.555 24.2 140.051 24.064 139.443 24.064C138.771 24.064 138.195 24.224 137.715 24.544C137.251 24.848 136.891 25.288 136.635 25.864C136.395 26.424 136.275 27.096 136.275 27.88V28.048C136.275 29.36 136.579 30.344 137.187 31C137.811 31.64 138.723 31.96 139.923 31.96C140.339 31.96 140.803 31.912 141.315 31.816C141.843 31.704 142.339 31.52 142.803 31.264C143.139 31.072 143.435 30.992 143.691 31.024C143.947 31.04 144.147 31.128 144.291 31.288C144.451 31.448 144.547 31.648 144.579 31.888C144.611 32.112 144.563 32.344 144.435 32.584C144.323 32.824 144.123 33.032 143.835 33.208C143.275 33.56 142.627 33.824 141.891 34C141.171 34.16 140.499 34.24 139.875 34.24Z" fill="white"/>
</svg>
