<svg width="189" height="52" viewBox="0 0 189 52" fill="none" xmlns="http://www.w3.org/2000/svg">
<rect width="189" height="52" fill="#FFCD34"/>
<path d="M35.68 34.24C34.976 34.24 34.272 34.184 33.568 34.072C32.864 33.976 32.2 33.824 31.576 33.616C30.952 33.392 30.392 33.12 29.896 32.8C29.608 32.608 29.408 32.376 29.296 32.104C29.184 31.832 29.144 31.568 29.176 31.312C29.224 31.04 29.328 30.808 29.488 30.616C29.664 30.408 29.88 30.28 30.136 30.232C30.392 30.184 30.672 30.256 30.976 30.448C31.68 30.864 32.424 31.168 33.208 31.36C33.992 31.552 34.816 31.648 35.68 31.648C36.944 31.648 37.864 31.44 38.44 31.024C39.016 30.592 39.304 30.04 39.304 29.368C39.304 28.808 39.096 28.368 38.68 28.048C38.28 27.728 37.584 27.464 36.592 27.256L33.952 26.704C32.432 26.384 31.296 25.848 30.544 25.096C29.808 24.328 29.44 23.32 29.44 22.072C29.44 21.288 29.6 20.576 29.92 19.936C30.24 19.296 30.688 18.744 31.264 18.28C31.856 17.816 32.552 17.464 33.352 17.224C34.168 16.968 35.064 16.84 36.04 16.84C37 16.84 37.912 16.96 38.776 17.2C39.64 17.44 40.416 17.792 41.104 18.256C41.36 18.432 41.528 18.648 41.608 18.904C41.704 19.16 41.728 19.416 41.68 19.672C41.632 19.912 41.52 20.12 41.344 20.296C41.168 20.472 40.944 20.576 40.672 20.608C40.416 20.64 40.12 20.56 39.784 20.368C39.192 20.032 38.592 19.792 37.984 19.648C37.376 19.504 36.72 19.432 36.016 19.432C35.28 19.432 34.648 19.536 34.12 19.744C33.592 19.952 33.184 20.248 32.896 20.632C32.624 21 32.488 21.44 32.488 21.952C32.488 22.528 32.68 22.992 33.064 23.344C33.448 23.68 34.104 23.944 35.032 24.136L37.648 24.688C39.232 25.024 40.408 25.552 41.176 26.272C41.96 26.992 42.352 27.952 42.352 29.152C42.352 29.92 42.192 30.616 41.872 31.24C41.568 31.864 41.12 32.4 40.528 32.848C39.952 33.296 39.256 33.64 38.44 33.88C37.624 34.12 36.704 34.24 35.68 34.24ZM46.2366 34.192C45.7566 34.192 45.3886 34.064 45.1326 33.808C44.8766 33.536 44.7486 33.152 44.7486 32.656V23.584C44.7486 23.088 44.8766 22.712 45.1326 22.456C45.3886 22.2 45.7486 22.072 46.2126 22.072C46.6766 22.072 47.0366 22.2 47.2926 22.456C47.5486 22.712 47.6766 23.088 47.6766 23.584V25.336L47.4126 24.616C47.7326 23.816 48.2286 23.184 48.9006 22.72C49.5726 22.256 50.3726 22.024 51.3006 22.024C52.2446 22.024 53.0206 22.248 53.6286 22.696C54.2366 23.144 54.6606 23.832 54.9006 24.76H54.5646C54.8846 23.912 55.4126 23.248 56.1486 22.768C56.8846 22.272 57.7326 22.024 58.6926 22.024C59.5886 22.024 60.3246 22.2 60.9006 22.552C61.4926 22.904 61.9326 23.44 62.2206 24.16C62.5086 24.864 62.6526 25.76 62.6526 26.848V32.656C62.6526 33.152 62.5166 33.536 62.2446 33.808C61.9886 34.064 61.6206 34.192 61.1406 34.192C60.6606 34.192 60.2926 34.064 60.0366 33.808C59.7806 33.536 59.6526 33.152 59.6526 32.656V26.968C59.6526 26.072 59.5006 25.416 59.1966 25C58.9086 24.584 58.4126 24.376 57.7086 24.376C56.9246 24.376 56.3086 24.656 55.8606 25.216C55.4126 25.76 55.1886 26.52 55.1886 27.496V32.656C55.1886 33.152 55.0606 33.536 54.8046 33.808C54.5486 34.064 54.1806 34.192 53.7006 34.192C53.2206 34.192 52.8446 34.064 52.5726 33.808C52.3166 33.536 52.1886 33.152 52.1886 32.656V26.968C52.1886 26.072 52.0366 25.416 51.7326 25C51.4446 24.584 50.9566 24.376 50.2686 24.376C49.4846 24.376 48.8686 24.656 48.4206 25.216C47.9726 25.76 47.7486 26.52 47.7486 27.496V32.656C47.7486 33.68 47.2446 34.192 46.2366 34.192ZM69.6115 34.24C68.7635 34.24 68.0035 34.08 67.3315 33.76C66.6755 33.424 66.1555 32.976 65.7715 32.416C65.4035 31.856 65.2195 31.224 65.2195 30.52C65.2195 29.656 65.4435 28.976 65.8915 28.48C66.3395 27.968 67.0675 27.6 68.0755 27.376C69.0835 27.152 70.4355 27.04 72.1315 27.04H73.3315V28.768H72.1555C71.1635 28.768 70.3715 28.816 69.7795 28.912C69.1875 29.008 68.7635 29.176 68.5075 29.416C68.2675 29.64 68.1475 29.96 68.1475 30.376C68.1475 30.904 68.3315 31.336 68.6995 31.672C69.0675 32.008 69.5795 32.176 70.2355 32.176C70.7635 32.176 71.2275 32.056 71.6275 31.816C72.0435 31.56 72.3715 31.216 72.6115 30.784C72.8515 30.352 72.9715 29.856 72.9715 29.296V26.536C72.9715 25.736 72.7955 25.16 72.4435 24.808C72.0915 24.456 71.4995 24.28 70.6675 24.28C70.2035 24.28 69.6995 24.336 69.1555 24.448C68.6275 24.56 68.0675 24.752 67.4755 25.024C67.1715 25.168 66.8995 25.208 66.6595 25.144C66.4355 25.08 66.2595 24.952 66.1315 24.76C66.0035 24.552 65.9395 24.328 65.9395 24.088C65.9395 23.848 66.0035 23.616 66.1315 23.392C66.2595 23.152 66.4755 22.976 66.7795 22.864C67.5155 22.56 68.2195 22.344 68.8915 22.216C69.5795 22.088 70.2035 22.024 70.7635 22.024C71.9155 22.024 72.8595 22.2 73.5955 22.552C74.3475 22.904 74.9075 23.44 75.2755 24.16C75.6435 24.864 75.8275 25.776 75.8275 26.896V32.656C75.8275 33.152 75.7075 33.536 75.4675 33.808C75.2275 34.064 74.8835 34.192 74.4355 34.192C73.9875 34.192 73.6355 34.064 73.3795 33.808C73.1395 33.536 73.0195 33.152 73.0195 32.656V31.504H73.2115C73.0995 32.064 72.8755 32.552 72.5395 32.968C72.2195 33.368 71.8115 33.68 71.3155 33.904C70.8195 34.128 70.2515 34.24 69.6115 34.24ZM80.4085 34.192C79.9125 34.192 79.5285 34.064 79.2565 33.808C79.0005 33.536 78.8725 33.152 78.8725 32.656V23.584C78.8725 23.088 79.0005 22.712 79.2565 22.456C79.5125 22.2 79.8725 22.072 80.3365 22.072C80.8005 22.072 81.1605 22.2 81.4165 22.456C81.6725 22.712 81.8005 23.088 81.8005 23.584V25.096H81.5605C81.7845 24.136 82.2245 23.408 82.8805 22.912C83.5365 22.416 84.4085 22.12 85.4965 22.024C85.8325 21.992 86.0965 22.08 86.2885 22.288C86.4965 22.48 86.6165 22.784 86.6485 23.2C86.6805 23.6 86.5845 23.928 86.3605 24.184C86.1525 24.424 85.8325 24.568 85.4005 24.616L84.8725 24.664C83.8965 24.76 83.1605 25.064 82.6645 25.576C82.1685 26.072 81.9205 26.776 81.9205 27.688V32.656C81.9205 33.152 81.7925 33.536 81.5365 33.808C81.2805 34.064 80.9045 34.192 80.4085 34.192ZM94.3266 34.24C93.2866 34.24 92.4146 34.064 91.7106 33.712C91.0226 33.36 90.5106 32.848 90.1746 32.176C89.8386 31.488 89.6706 30.64 89.6706 29.632V24.52H88.4226C88.0386 24.52 87.7426 24.424 87.5346 24.232C87.3266 24.024 87.2226 23.744 87.2226 23.392C87.2226 23.024 87.3266 22.744 87.5346 22.552C87.7426 22.36 88.0386 22.264 88.4226 22.264H89.6706V20.08C89.6706 19.584 89.7986 19.208 90.0546 18.952C90.3266 18.696 90.7026 18.568 91.1826 18.568C91.6626 18.568 92.0306 18.696 92.2866 18.952C92.5426 19.208 92.6706 19.584 92.6706 20.08V22.264H95.2146C95.5986 22.264 95.8946 22.36 96.1026 22.552C96.3106 22.744 96.4146 23.024 96.4146 23.392C96.4146 23.744 96.3106 24.024 96.1026 24.232C95.8946 24.424 95.5986 24.52 95.2146 24.52H92.6706V29.464C92.6706 30.232 92.8386 30.808 93.1746 31.192C93.5106 31.576 94.0546 31.768 94.8066 31.768C95.0786 31.768 95.3186 31.744 95.5266 31.696C95.7346 31.648 95.9186 31.616 96.0786 31.6C96.2706 31.584 96.4306 31.648 96.5586 31.792C96.6866 31.92 96.7506 32.192 96.7506 32.608C96.7506 32.928 96.6946 33.216 96.5826 33.472C96.4866 33.712 96.3026 33.88 96.0306 33.976C95.8226 34.04 95.5506 34.096 95.2146 34.144C94.8786 34.208 94.5826 34.24 94.3266 34.24ZM99.9856 34.192C99.4896 34.192 99.1056 34.056 98.8336 33.784C98.5776 33.496 98.4496 33.104 98.4496 32.608V18.472C98.4496 17.96 98.5776 17.568 98.8336 17.296C99.1056 17.024 99.4896 16.888 99.9856 16.888C100.482 16.888 100.858 17.024 101.114 17.296C101.386 17.568 101.522 17.96 101.522 18.472V24.136H110.234V18.472C110.234 17.96 110.362 17.568 110.618 17.296C110.89 17.024 111.274 16.888 111.77 16.888C112.266 16.888 112.642 17.024 112.898 17.296C113.17 17.568 113.306 17.96 113.306 18.472V32.608C113.306 33.104 113.17 33.496 112.898 33.784C112.642 34.056 112.266 34.192 111.77 34.192C111.274 34.192 110.89 34.056 110.618 33.784C110.362 33.496 110.234 33.104 110.234 32.608V26.704H101.522V32.608C101.522 33.104 101.394 33.496 101.138 33.784C100.882 34.056 100.498 34.192 99.9856 34.192ZM122.508 34.24C121.18 34.24 120.036 33.992 119.076 33.496C118.116 33 117.372 32.296 116.844 31.384C116.332 30.472 116.076 29.392 116.076 28.144C116.076 26.928 116.324 25.864 116.82 24.952C117.332 24.04 118.028 23.328 118.908 22.816C119.804 22.288 120.82 22.024 121.956 22.024C122.788 22.024 123.532 22.16 124.188 22.432C124.86 22.704 125.428 23.096 125.892 23.608C126.372 24.12 126.732 24.744 126.972 25.48C127.228 26.2 127.356 27.016 127.356 27.928C127.356 28.216 127.252 28.44 127.044 28.6C126.852 28.744 126.572 28.816 126.204 28.816H118.5V27.088H125.244L124.86 27.448C124.86 26.712 124.748 26.096 124.524 25.6C124.316 25.104 124.004 24.728 123.588 24.472C123.188 24.2 122.684 24.064 122.076 24.064C121.404 24.064 120.828 24.224 120.348 24.544C119.884 24.848 119.524 25.288 119.268 25.864C119.028 26.424 118.908 27.096 118.908 27.88V28.048C118.908 29.36 119.212 30.344 119.82 31C120.444 31.64 121.356 31.96 122.556 31.96C122.972 31.96 123.436 31.912 123.948 31.816C124.476 31.704 124.972 31.52 125.436 31.264C125.772 31.072 126.068 30.992 126.324 31.024C126.58 31.04 126.78 31.128 126.924 31.288C127.084 31.448 127.18 31.648 127.212 31.888C127.244 32.112 127.196 32.344 127.068 32.584C126.956 32.824 126.756 33.032 126.468 33.208C125.908 33.56 125.26 33.824 124.524 34C123.804 34.16 123.132 34.24 122.508 34.24ZM133.596 34.24C132.748 34.24 131.988 34.08 131.316 33.76C130.66 33.424 130.14 32.976 129.756 32.416C129.388 31.856 129.204 31.224 129.204 30.52C129.204 29.656 129.428 28.976 129.876 28.48C130.324 27.968 131.052 27.6 132.06 27.376C133.068 27.152 134.42 27.04 136.116 27.04H137.316V28.768H136.14C135.148 28.768 134.356 28.816 133.764 28.912C133.172 29.008 132.748 29.176 132.492 29.416C132.252 29.64 132.132 29.96 132.132 30.376C132.132 30.904 132.316 31.336 132.684 31.672C133.052 32.008 133.564 32.176 134.22 32.176C134.748 32.176 135.212 32.056 135.612 31.816C136.028 31.56 136.356 31.216 136.596 30.784C136.836 30.352 136.956 29.856 136.956 29.296V26.536C136.956 25.736 136.78 25.16 136.428 24.808C136.076 24.456 135.484 24.28 134.652 24.28C134.188 24.28 133.684 24.336 133.14 24.448C132.612 24.56 132.052 24.752 131.46 25.024C131.156 25.168 130.884 25.208 130.644 25.144C130.42 25.08 130.244 24.952 130.116 24.76C129.988 24.552 129.924 24.328 129.924 24.088C129.924 23.848 129.988 23.616 130.116 23.392C130.244 23.152 130.46 22.976 130.764 22.864C131.5 22.56 132.204 22.344 132.876 22.216C133.564 22.088 134.188 22.024 134.748 22.024C135.9 22.024 136.844 22.2 137.58 22.552C138.332 22.904 138.892 23.44 139.26 24.16C139.628 24.864 139.812 25.776 139.812 26.896V32.656C139.812 33.152 139.692 33.536 139.452 33.808C139.212 34.064 138.868 34.192 138.42 34.192C137.972 34.192 137.62 34.064 137.364 33.808C137.124 33.536 137.004 33.152 137.004 32.656V31.504H137.196C137.084 32.064 136.86 32.552 136.524 32.968C136.204 33.368 135.796 33.68 135.3 33.904C134.804 34.128 134.236 34.24 133.596 34.24ZM144.393 34.192C143.897 34.192 143.513 34.064 143.241 33.808C142.985 33.536 142.857 33.152 142.857 32.656V23.584C142.857 23.088 142.985 22.712 143.241 22.456C143.497 22.2 143.857 22.072 144.321 22.072C144.785 22.072 145.145 22.2 145.401 22.456C145.657 22.712 145.785 23.088 145.785 23.584V25.096H145.545C145.769 24.136 146.209 23.408 146.865 22.912C147.521 22.416 148.393 22.12 149.481 22.024C149.817 21.992 150.081 22.08 150.273 22.288C150.481 22.48 150.601 22.784 150.633 23.2C150.665 23.6 150.569 23.928 150.345 24.184C150.137 24.424 149.817 24.568 149.385 24.616L148.857 24.664C147.881 24.76 147.145 25.064 146.649 25.576C146.153 26.072 145.905 26.776 145.905 27.688V32.656C145.905 33.152 145.777 33.536 145.521 33.808C145.265 34.064 144.889 34.192 144.393 34.192ZM158.311 34.24C157.271 34.24 156.399 34.064 155.695 33.712C155.007 33.36 154.495 32.848 154.159 32.176C153.823 31.488 153.655 30.64 153.655 29.632V24.52H152.407C152.023 24.52 151.727 24.424 151.519 24.232C151.311 24.024 151.207 23.744 151.207 23.392C151.207 23.024 151.311 22.744 151.519 22.552C151.727 22.36 152.023 22.264 152.407 22.264H153.655V20.08C153.655 19.584 153.783 19.208 154.039 18.952C154.311 18.696 154.687 18.568 155.167 18.568C155.647 18.568 156.015 18.696 156.271 18.952C156.527 19.208 156.655 19.584 156.655 20.08V22.264H159.199C159.583 22.264 159.879 22.36 160.087 22.552C160.295 22.744 160.399 23.024 160.399 23.392C160.399 23.744 160.295 24.024 160.087 24.232C159.879 24.424 159.583 24.52 159.199 24.52H156.655V29.464C156.655 30.232 156.823 30.808 157.159 31.192C157.495 31.576 158.039 31.768 158.791 31.768C159.063 31.768 159.303 31.744 159.511 31.696C159.719 31.648 159.903 31.616 160.063 31.6C160.255 31.584 160.415 31.648 160.543 31.792C160.671 31.92 160.735 32.192 160.735 32.608C160.735 32.928 160.679 33.216 160.567 33.472C160.471 33.712 160.287 33.88 160.015 33.976C159.807 34.04 159.535 34.096 159.199 34.144C158.863 34.208 158.567 34.24 158.311 34.24Z" fill="white"/>
</svg>
