<svg width="120" height="52" viewBox="0 0 120 52" fill="none" xmlns="http://www.w3.org/2000/svg">
<rect width="120" height="52" fill="#BFC4F2"/>
<path d="M31.288 34.192C30.84 34.192 30.496 34.064 30.256 33.808C30.016 33.552 29.896 33.2 29.896 32.752V18.328C29.896 17.864 30.024 17.512 30.28 17.272C30.536 17.016 30.888 16.888 31.336 16.888C31.736 16.888 32.048 16.968 32.272 17.128C32.512 17.272 32.728 17.528 32.92 17.896L38.848 28.864H38.08L44.008 17.896C44.2 17.528 44.408 17.272 44.632 17.128C44.856 16.968 45.168 16.888 45.568 16.888C46.016 16.888 46.36 17.016 46.6 17.272C46.84 17.512 46.96 17.864 46.96 18.328V32.752C46.96 33.2 46.84 33.552 46.6 33.808C46.376 34.064 46.032 34.192 45.568 34.192C45.12 34.192 44.776 34.064 44.536 33.808C44.296 33.552 44.176 33.2 44.176 32.752V21.64H44.704L39.664 30.832C39.504 31.104 39.336 31.304 39.16 31.432C38.984 31.56 38.744 31.624 38.44 31.624C38.136 31.624 37.888 31.56 37.696 31.432C37.504 31.288 37.336 31.088 37.192 30.832L32.104 21.616H32.68V32.752C32.68 33.2 32.56 33.552 32.32 33.808C32.096 34.064 31.752 34.192 31.288 34.192ZM56.1799 34.24C54.8519 34.24 53.7079 33.992 52.7479 33.496C51.7879 33 51.0439 32.296 50.5159 31.384C50.0039 30.472 49.7479 29.392 49.7479 28.144C49.7479 26.928 49.9959 25.864 50.4919 24.952C51.0039 24.04 51.6999 23.328 52.5799 22.816C53.4759 22.288 54.4919 22.024 55.6279 22.024C56.4599 22.024 57.2039 22.16 57.8599 22.432C58.5319 22.704 59.0999 23.096 59.5639 23.608C60.0439 24.12 60.4039 24.744 60.6439 25.48C60.8999 26.2 61.0279 27.016 61.0279 27.928C61.0279 28.216 60.9239 28.44 60.7159 28.6C60.5239 28.744 60.2439 28.816 59.8759 28.816H52.1719V27.088H58.9159L58.5319 27.448C58.5319 26.712 58.4199 26.096 58.1959 25.6C57.9879 25.104 57.6759 24.728 57.2599 24.472C56.8599 24.2 56.3559 24.064 55.7479 24.064C55.0759 24.064 54.4999 24.224 54.0199 24.544C53.5559 24.848 53.1959 25.288 52.9399 25.864C52.6999 26.424 52.5799 27.096 52.5799 27.88V28.048C52.5799 29.36 52.8839 30.344 53.4919 31C54.1159 31.64 55.0279 31.96 56.2279 31.96C56.6439 31.96 57.1079 31.912 57.6199 31.816C58.1479 31.704 58.6439 31.52 59.1079 31.264C59.4439 31.072 59.7399 30.992 59.9959 31.024C60.2519 31.04 60.4519 31.128 60.5959 31.288C60.7559 31.448 60.8519 31.648 60.8839 31.888C60.9159 32.112 60.8679 32.344 60.7399 32.584C60.6279 32.824 60.4279 33.032 60.1399 33.208C59.5799 33.56 58.9319 33.824 58.1959 34C57.4759 34.16 56.8039 34.24 56.1799 34.24ZM64.8124 28.768C64.4604 28.768 64.1644 28.656 63.9244 28.432C63.7004 28.192 63.5884 27.904 63.5884 27.568C63.5884 27.216 63.7004 26.928 63.9244 26.704C64.1644 26.48 64.4604 26.368 64.8124 26.368H69.9244C70.2604 26.368 70.5404 26.48 70.7644 26.704C71.0044 26.928 71.1244 27.216 71.1244 27.568C71.1244 27.904 71.0044 28.192 70.7644 28.432C70.5404 28.656 70.2604 28.768 69.9244 28.768H64.8124ZM81.9867 34.24C80.3547 34.24 78.9227 33.88 77.6907 33.16C76.4747 32.44 75.5307 31.432 74.8587 30.136C74.1867 28.824 73.8507 27.288 73.8507 25.528C73.8507 24.2 74.0427 23.008 74.4267 21.952C74.8107 20.88 75.3547 19.968 76.0587 19.216C76.7787 18.448 77.6347 17.864 78.6267 17.464C79.6347 17.048 80.7547 16.84 81.9867 16.84C83.6347 16.84 85.0667 17.2 86.2827 17.92C87.4987 18.624 88.4427 19.624 89.1147 20.92C89.7867 22.216 90.1227 23.744 90.1227 25.504C90.1227 26.832 89.9307 28.032 89.5467 29.104C89.1627 30.176 88.6107 31.096 87.8907 31.864C87.1867 32.632 86.3307 33.224 85.3227 33.64C84.3307 34.04 83.2187 34.24 81.9867 34.24ZM81.9867 31.6C83.0267 31.6 83.9067 31.36 84.6267 30.88C85.3627 30.4 85.9227 29.704 86.3067 28.792C86.7067 27.88 86.9067 26.792 86.9067 25.528C86.9067 23.608 86.4747 22.12 85.6107 21.064C84.7627 20.008 83.5547 19.48 81.9867 19.48C80.9627 19.48 80.0827 19.72 79.3467 20.2C78.6107 20.664 78.0427 21.352 77.6427 22.264C77.2587 23.16 77.0667 24.248 77.0667 25.528C77.0667 27.432 77.4987 28.92 78.3627 29.992C79.2267 31.064 80.4347 31.6 81.9867 31.6Z" fill="white"/>
</svg>
