<svg width="163" height="52" viewBox="0 0 163 52" fill="none" xmlns="http://www.w3.org/2000/svg">
<rect width="163" height="52" fill="#BFC4F2"/>
<path d="M36.88 34.24C35.712 34.24 34.68 34.088 33.784 33.784C32.904 33.48 32.16 33.032 31.552 32.44C30.944 31.832 30.488 31.08 30.184 30.184C29.88 29.288 29.728 28.248 29.728 27.064V18.448C29.728 17.92 29.856 17.528 30.112 17.272C30.384 17.016 30.768 16.888 31.264 16.888C31.76 16.888 32.136 17.016 32.392 17.272C32.664 17.528 32.8 17.92 32.8 18.448V27.04C32.8 28.56 33.144 29.704 33.832 30.472C34.536 31.224 35.552 31.6 36.88 31.6C38.208 31.6 39.216 31.224 39.904 30.472C40.592 29.704 40.936 28.56 40.936 27.04V18.448C40.936 17.92 41.064 17.528 41.32 17.272C41.592 17.016 41.976 16.888 42.472 16.888C42.952 16.888 43.32 17.016 43.576 17.272C43.848 17.528 43.984 17.92 43.984 18.448V27.064C43.984 28.632 43.712 29.952 43.168 31.024C42.64 32.096 41.848 32.904 40.792 33.448C39.736 33.976 38.432 34.24 36.88 34.24ZM48.7668 34.192C48.2868 34.192 47.9188 34.064 47.6628 33.808C47.4068 33.536 47.2788 33.152 47.2788 32.656V23.584C47.2788 23.088 47.4068 22.712 47.6628 22.456C47.9188 22.2 48.2788 22.072 48.7428 22.072C49.2068 22.072 49.5668 22.2 49.8228 22.456C50.0788 22.712 50.2068 23.088 50.2068 23.584V25.216L49.9428 24.616C50.2948 23.768 50.8388 23.128 51.5748 22.696C52.3268 22.248 53.1748 22.024 54.1188 22.024C55.0628 22.024 55.8388 22.2 56.4468 22.552C57.0548 22.904 57.5108 23.44 57.8148 24.16C58.1188 24.864 58.2708 25.76 58.2708 26.848V32.656C58.2708 33.152 58.1428 33.536 57.8868 33.808C57.6308 34.064 57.2628 34.192 56.7828 34.192C56.3028 34.192 55.9268 34.064 55.6548 33.808C55.3988 33.536 55.2708 33.152 55.2708 32.656V26.992C55.2708 26.08 55.0948 25.416 54.7428 25C54.4068 24.584 53.8788 24.376 53.1588 24.376C52.2788 24.376 51.5748 24.656 51.0468 25.216C50.5348 25.76 50.2788 26.488 50.2788 27.4V32.656C50.2788 33.68 49.7748 34.192 48.7668 34.192ZM62.8058 34.168C62.3258 34.168 61.9578 34.024 61.7018 33.736C61.4458 33.448 61.3178 33.048 61.3178 32.536V23.728C61.3178 23.2 61.4458 22.8 61.7018 22.528C61.9578 22.24 62.3258 22.096 62.8058 22.096C63.2858 22.096 63.6538 22.24 63.9098 22.528C64.1818 22.8 64.3178 23.2 64.3178 23.728V32.536C64.3178 33.048 64.1898 33.448 63.9338 33.736C63.6778 34.024 63.3018 34.168 62.8058 34.168ZM62.8058 19.864C62.2458 19.864 61.8058 19.728 61.4858 19.456C61.1818 19.168 61.0298 18.776 61.0298 18.28C61.0298 17.768 61.1818 17.376 61.4858 17.104C61.8058 16.832 62.2458 16.696 62.8058 16.696C63.3818 16.696 63.8218 16.832 64.1258 17.104C64.4298 17.376 64.5818 17.768 64.5818 18.28C64.5818 18.776 64.4298 19.168 64.1258 19.456C63.8218 19.728 63.3818 19.864 62.8058 19.864ZM72.859 34.24C71.627 34.24 70.555 33.992 69.643 33.496C68.731 32.984 68.027 32.264 67.531 31.336C67.035 30.408 66.787 29.32 66.787 28.072C66.787 27.128 66.923 26.288 67.195 25.552C67.483 24.8 67.891 24.168 68.419 23.656C68.947 23.128 69.587 22.728 70.339 22.456C71.091 22.168 71.931 22.024 72.859 22.024C73.387 22.024 73.955 22.096 74.563 22.24C75.187 22.384 75.771 22.624 76.315 22.96C76.571 23.12 76.739 23.312 76.819 23.536C76.899 23.76 76.915 23.992 76.867 24.232C76.819 24.456 76.715 24.656 76.555 24.832C76.411 24.992 76.227 25.096 76.003 25.144C75.779 25.176 75.531 25.12 75.259 24.976C74.907 24.768 74.547 24.616 74.179 24.52C73.811 24.408 73.459 24.352 73.123 24.352C72.595 24.352 72.131 24.44 71.731 24.616C71.331 24.776 70.987 25.016 70.699 25.336C70.427 25.64 70.219 26.024 70.075 26.488C69.931 26.952 69.859 27.488 69.859 28.096C69.859 29.28 70.139 30.216 70.699 30.904C71.275 31.576 72.083 31.912 73.123 31.912C73.459 31.912 73.803 31.864 74.155 31.768C74.523 31.672 74.891 31.52 75.259 31.312C75.531 31.168 75.771 31.12 75.979 31.168C76.203 31.216 76.387 31.328 76.531 31.504C76.675 31.664 76.763 31.864 76.795 32.104C76.827 32.328 76.795 32.552 76.699 32.776C76.619 33 76.459 33.184 76.219 33.328C75.691 33.648 75.131 33.88 74.539 34.024C73.947 34.168 73.387 34.24 72.859 34.24ZM80.2433 34.192C79.7633 34.192 79.3953 34.064 79.1393 33.808C78.8833 33.536 78.7553 33.152 78.7553 32.656V18.4C78.7553 17.904 78.8833 17.528 79.1393 17.272C79.3953 17.016 79.7633 16.888 80.2433 16.888C80.7233 16.888 81.0913 17.016 81.3473 17.272C81.6193 17.528 81.7553 17.904 81.7553 18.4V24.616H81.4193C81.7713 23.768 82.3153 23.128 83.0513 22.696C83.8033 22.248 84.6513 22.024 85.5953 22.024C86.5393 22.024 87.3153 22.2 87.9233 22.552C88.5313 22.904 88.9873 23.44 89.2913 24.16C89.5953 24.864 89.7473 25.76 89.7473 26.848V32.656C89.7473 33.152 89.6193 33.536 89.3633 33.808C89.1073 34.064 88.7393 34.192 88.2593 34.192C87.7793 34.192 87.4033 34.064 87.1313 33.808C86.8753 33.536 86.7473 33.152 86.7473 32.656V26.992C86.7473 26.08 86.5713 25.416 86.2193 25C85.8833 24.584 85.3553 24.376 84.6353 24.376C83.7553 24.376 83.0513 24.656 82.5233 25.216C82.0113 25.76 81.7553 26.488 81.7553 27.4V32.656C81.7553 33.68 81.2513 34.192 80.2433 34.192ZM96.6584 34.24C95.8104 34.24 95.0504 34.08 94.3784 33.76C93.7224 33.424 93.2024 32.976 92.8184 32.416C92.4504 31.856 92.2664 31.224 92.2664 30.52C92.2664 29.656 92.4904 28.976 92.9384 28.48C93.3864 27.968 94.1144 27.6 95.1224 27.376C96.1304 27.152 97.4824 27.04 99.1784 27.04H100.378V28.768H99.2024C98.2104 28.768 97.4184 28.816 96.8264 28.912C96.2344 29.008 95.8104 29.176 95.5544 29.416C95.3144 29.64 95.1944 29.96 95.1944 30.376C95.1944 30.904 95.3784 31.336 95.7464 31.672C96.1144 32.008 96.6264 32.176 97.2824 32.176C97.8104 32.176 98.2744 32.056 98.6744 31.816C99.0904 31.56 99.4184 31.216 99.6584 30.784C99.8984 30.352 100.018 29.856 100.018 29.296V26.536C100.018 25.736 99.8424 25.16 99.4904 24.808C99.1384 24.456 98.5464 24.28 97.7144 24.28C97.2504 24.28 96.7464 24.336 96.2024 24.448C95.6744 24.56 95.1144 24.752 94.5224 25.024C94.2184 25.168 93.9464 25.208 93.7064 25.144C93.4824 25.08 93.3064 24.952 93.1784 24.76C93.0504 24.552 92.9864 24.328 92.9864 24.088C92.9864 23.848 93.0504 23.616 93.1784 23.392C93.3064 23.152 93.5224 22.976 93.8264 22.864C94.5624 22.56 95.2664 22.344 95.9384 22.216C96.6264 22.088 97.2504 22.024 97.8104 22.024C98.9624 22.024 99.9064 22.2 100.642 22.552C101.394 22.904 101.954 23.44 102.322 24.16C102.69 24.864 102.874 25.776 102.874 26.896V32.656C102.874 33.152 102.754 33.536 102.514 33.808C102.274 34.064 101.93 34.192 101.482 34.192C101.034 34.192 100.682 34.064 100.426 33.808C100.186 33.536 100.066 33.152 100.066 32.656V31.504H100.258C100.146 32.064 99.9224 32.552 99.5864 32.968C99.2664 33.368 98.8584 33.68 98.3624 33.904C97.8664 34.128 97.2984 34.24 96.6584 34.24ZM107.455 34.192C106.959 34.192 106.575 34.064 106.303 33.808C106.047 33.536 105.919 33.152 105.919 32.656V23.584C105.919 23.088 106.047 22.712 106.303 22.456C106.559 22.2 106.919 22.072 107.383 22.072C107.847 22.072 108.207 22.2 108.463 22.456C108.719 22.712 108.847 23.088 108.847 23.584V25.096H108.607C108.831 24.136 109.271 23.408 109.927 22.912C110.583 22.416 111.455 22.12 112.543 22.024C112.879 21.992 113.143 22.08 113.335 22.288C113.543 22.48 113.663 22.784 113.695 23.2C113.727 23.6 113.631 23.928 113.407 24.184C113.199 24.424 112.879 24.568 112.447 24.616L111.919 24.664C110.943 24.76 110.207 25.064 109.711 25.576C109.215 26.072 108.967 26.776 108.967 27.688V32.656C108.967 33.152 108.839 33.536 108.583 33.808C108.327 34.064 107.951 34.192 107.455 34.192ZM116.854 34.192C116.374 34.192 116.006 34.064 115.75 33.808C115.494 33.536 115.366 33.152 115.366 32.656V23.584C115.366 23.088 115.494 22.712 115.75 22.456C116.006 22.2 116.366 22.072 116.83 22.072C117.294 22.072 117.654 22.2 117.91 22.456C118.166 22.712 118.294 23.088 118.294 23.584V25.336L118.03 24.616C118.35 23.816 118.846 23.184 119.518 22.72C120.19 22.256 120.99 22.024 121.918 22.024C122.862 22.024 123.638 22.248 124.246 22.696C124.854 23.144 125.278 23.832 125.518 24.76H125.182C125.502 23.912 126.03 23.248 126.766 22.768C127.502 22.272 128.35 22.024 129.31 22.024C130.206 22.024 130.942 22.2 131.518 22.552C132.11 22.904 132.55 23.44 132.838 24.16C133.126 24.864 133.27 25.76 133.27 26.848V32.656C133.27 33.152 133.134 33.536 132.862 33.808C132.606 34.064 132.238 34.192 131.758 34.192C131.278 34.192 130.91 34.064 130.654 33.808C130.398 33.536 130.27 33.152 130.27 32.656V26.968C130.27 26.072 130.118 25.416 129.814 25C129.526 24.584 129.03 24.376 128.326 24.376C127.542 24.376 126.926 24.656 126.478 25.216C126.03 25.76 125.806 26.52 125.806 27.496V32.656C125.806 33.152 125.678 33.536 125.422 33.808C125.166 34.064 124.798 34.192 124.318 34.192C123.838 34.192 123.462 34.064 123.19 33.808C122.934 33.536 122.806 33.152 122.806 32.656V26.968C122.806 26.072 122.654 25.416 122.35 25C122.062 24.584 121.574 24.376 120.886 24.376C120.102 24.376 119.486 24.656 119.038 25.216C118.59 25.76 118.366 26.52 118.366 27.496V32.656C118.366 33.68 117.862 34.192 116.854 34.192Z" fill="white"/>
</svg>
