<svg width="97" height="52" viewBox="0 0 97 52" fill="none" xmlns="http://www.w3.org/2000/svg">
<rect width="111" height="52" fill="#FFCD34"/>
<path d="M30.544 34C30.144 34 29.816 33.92 29.56 33.76C29.32 33.6 29.152 33.384 29.056 33.112C28.976 32.824 28.976 32.512 29.056 32.176C29.152 31.824 29.336 31.464 29.608 31.096L38.776 18.664V19.648H30.304C29.856 19.648 29.512 19.536 29.272 19.312C29.048 19.088 28.936 18.768 28.936 18.352C28.936 17.936 29.048 17.624 29.272 17.416C29.512 17.192 29.856 17.08 30.304 17.08H40.24C40.64 17.08 40.96 17.16 41.2 17.32C41.456 17.48 41.624 17.696 41.704 17.968C41.8 18.24 41.8 18.552 41.704 18.904C41.624 19.256 41.448 19.616 41.176 19.984L32.008 32.392V31.432H40.84C41.288 31.432 41.624 31.544 41.848 31.768C42.088 31.976 42.208 32.288 42.208 32.704C42.208 33.12 42.088 33.44 41.848 33.664C41.624 33.888 41.288 34 40.84 34H30.544ZM45.9153 34.192C45.4193 34.192 45.0353 34.056 44.7633 33.784C44.5073 33.496 44.3793 33.104 44.3793 32.608V18.472C44.3793 17.96 44.5073 17.568 44.7633 17.296C45.0353 17.024 45.4193 16.888 45.9153 16.888C46.4113 16.888 46.7873 17.024 47.0433 17.296C47.3153 17.568 47.4513 17.96 47.4513 18.472V32.608C47.4513 33.104 47.3233 33.496 47.0673 33.784C46.8113 34.056 46.4273 34.192 45.9153 34.192ZM57.1047 34.192C56.6727 34.192 56.3207 34.088 56.0487 33.88C55.7927 33.672 55.5847 33.344 55.4247 32.896L50.4087 18.712C50.2327 18.2 50.2647 17.768 50.5047 17.416C50.7607 17.064 51.1847 16.888 51.7767 16.888C52.2087 16.888 52.5447 16.992 52.7847 17.2C53.0247 17.392 53.2167 17.704 53.3607 18.136L57.6807 30.952H56.7207L61.2327 18.16C61.3927 17.728 61.5927 17.408 61.8327 17.2C62.0727 16.992 62.3847 16.888 62.7687 16.888C63.1527 16.888 63.4567 16.992 63.6807 17.2C63.9047 17.408 64.0967 17.736 64.2567 18.184L68.6247 30.952H67.7847L72.1767 18.136C72.3207 17.72 72.5127 17.408 72.7527 17.2C72.9927 16.992 73.3207 16.888 73.7367 16.888C74.2487 16.888 74.6247 17.064 74.8647 17.416C75.1047 17.768 75.1367 18.2 74.9607 18.712L69.8967 32.92C69.7367 33.352 69.5287 33.672 69.2727 33.88C69.0167 34.088 68.6727 34.192 68.2407 34.192C67.8087 34.192 67.4647 34.088 67.2087 33.88C66.9527 33.672 66.7447 33.344 66.5847 32.896L62.4087 20.992H62.9607L58.7367 32.92C58.5767 33.352 58.3687 33.672 58.1127 33.88C57.8727 34.088 57.5367 34.192 57.1047 34.192ZM79.4074 34.192C78.9114 34.192 78.5274 34.056 78.2554 33.784C77.9994 33.496 77.8714 33.104 77.8714 32.608V18.472C77.8714 17.96 77.9994 17.568 78.2554 17.296C78.5274 17.024 78.9114 16.888 79.4074 16.888C79.9034 16.888 80.2794 17.024 80.5354 17.296C80.8074 17.568 80.9434 17.96 80.9434 18.472V32.608C80.9434 33.104 80.8154 33.496 80.5594 33.784C80.3034 34.056 79.9194 34.192 79.4074 34.192Z" fill="white"/>
</svg>
