<svg width="11" height="11" viewBox="0 0 11 11" fill="none" xmlns="http://www.w3.org/2000/svg">
<path d="M5.57312 5.32582C5.55937 5.32582 5.5502 5.32582 5.53645 5.32582C5.51353 5.32123 5.48145 5.32123 5.45395 5.32582C4.12478 5.28457 3.12103 4.23957 3.12103 2.95165C3.12103 1.64081 4.18895 0.572893 5.49978 0.572893C6.81062 0.572893 7.87854 1.64081 7.87854 2.95165C7.87396 4.23957 6.86562 5.28457 5.58687 5.32582C5.58228 5.32582 5.5777 5.32582 5.57312 5.32582ZM5.49978 1.26039C4.56937 1.26039 3.80853 2.02123 3.80853 2.95165C3.80853 3.86832 4.52353 4.60623 5.43562 4.63832C5.45853 4.63373 5.5227 4.63373 5.58228 4.63832C6.48062 4.59707 7.18645 3.85915 7.19104 2.95165C7.19104 2.02123 6.4302 1.26039 5.49978 1.26039Z" fill="#292D32"/>
<path d="M5.57771 10.3354C4.67937 10.3354 3.77645 10.1062 3.09353 9.64788C2.45645 9.22622 2.10812 8.64871 2.10812 8.0208C2.10812 7.39288 2.45645 6.81079 3.09353 6.38454C4.46854 5.47246 6.69604 5.47246 8.06188 6.38454C8.69438 6.80621 9.0473 7.38371 9.0473 8.01163C9.0473 8.63955 8.69896 9.22163 8.06188 9.64788C7.37438 10.1062 6.47604 10.3354 5.57771 10.3354ZM3.47395 6.96204C3.03395 7.25538 2.79562 7.63121 2.79562 8.02538C2.79562 8.41496 3.03853 8.7908 3.47395 9.07955C4.6152 9.84497 6.54021 9.84497 7.68146 9.07955C8.12146 8.78621 8.35979 8.41038 8.35979 8.01621C8.35979 7.62663 8.11688 7.2508 7.68146 6.96204C6.54021 6.20121 4.6152 6.20121 3.47395 6.96204Z" fill="#292D32"/>
</svg>
