<svg width="11" height="11" viewBox="0 0 11 11" fill="none" xmlns="http://www.w3.org/2000/svg">
<path d="M8.24993 3.62538C8.23618 3.62538 8.22702 3.62538 8.21327 3.62538H8.19035C7.3241 3.59788 6.67785 2.92871 6.67785 2.1037C6.67785 1.26037 7.36535 0.57745 8.2041 0.57745C9.04285 0.57745 9.73036 1.26495 9.73036 2.1037C9.72577 2.93329 9.07952 3.60246 8.25452 3.62996C8.25452 3.62537 8.25452 3.62538 8.24993 3.62538ZM8.2041 1.26037C7.74118 1.26037 7.36535 1.63621 7.36535 2.09912C7.36535 2.55287 7.71827 2.91954 8.17202 2.93788C8.1766 2.93329 8.21327 2.93329 8.25452 2.93788C8.6991 2.91496 9.04285 2.54829 9.04744 2.09912C9.04744 1.63621 8.6716 1.26037 8.2041 1.26037Z" fill="#292D32"/>
<path d="M8.25465 7.0033C8.0759 7.0033 7.89715 6.98955 7.7184 6.95747C7.53048 6.92538 7.40673 6.74663 7.43881 6.55872C7.4709 6.3708 7.64965 6.24705 7.83756 6.27913C8.40131 6.37538 8.99715 6.26997 9.3959 6.00414C9.61132 5.86205 9.7259 5.6833 9.7259 5.50455C9.7259 5.3258 9.60673 5.15163 9.3959 5.00955C8.99715 4.74371 8.39215 4.6383 7.82381 4.73913C7.6359 4.7758 7.45715 4.64746 7.42506 4.45955C7.39298 4.27163 7.51673 4.09288 7.70465 4.0608C8.45173 3.92788 9.22632 4.06996 9.77632 4.43663C10.1797 4.70704 10.4134 5.09205 10.4134 5.50455C10.4134 5.91246 10.1842 6.30205 9.77632 6.57705C9.35923 6.85206 8.8184 7.0033 8.25465 7.0033Z" fill="#292D32"/>
<path d="M2.73625 3.6254C2.73167 3.6254 2.72709 3.6254 2.72709 3.6254C1.90209 3.5979 1.25583 2.92873 1.25125 2.10373C1.25125 1.26039 1.93875 0.572893 2.7775 0.572893C3.61626 0.572893 4.30376 1.2604 4.30376 2.09915C4.30376 2.92873 3.65751 3.5979 2.8325 3.6254L2.73625 3.28165L2.76834 3.6254C2.75917 3.6254 2.74542 3.6254 2.73625 3.6254ZM2.78209 2.9379C2.80959 2.9379 2.8325 2.9379 2.86 2.94248C3.26792 2.92415 3.62542 2.55748 3.62542 2.10373C3.62542 1.64081 3.24959 1.26498 2.78667 1.26498C2.32375 1.26498 1.94792 1.64081 1.94792 2.10373C1.94792 2.5529 2.29625 2.91498 2.74084 2.94248C2.74542 2.9379 2.76375 2.9379 2.78209 2.9379Z" fill="#292D32"/>
<path d="M2.73171 7.0033C2.16796 7.0033 1.62713 6.85206 1.21004 6.57705C0.806708 6.30664 0.572958 5.91705 0.572958 5.50455C0.572958 5.09663 0.806708 4.70704 1.21004 4.43663C1.76004 4.06996 2.53463 3.92788 3.28171 4.0608C3.46963 4.09288 3.59338 4.27163 3.5613 4.45955C3.52921 4.64746 3.35046 4.7758 3.16255 4.73913C2.59421 4.6383 1.99379 4.74371 1.59046 5.00955C1.37504 5.15163 1.26046 5.3258 1.26046 5.50455C1.26046 5.6833 1.37963 5.86205 1.59046 6.00414C1.98921 6.26997 2.58504 6.37538 3.1488 6.27913C3.33671 6.24705 3.51546 6.37538 3.54755 6.55872C3.57963 6.74663 3.45588 6.92538 3.26796 6.95747C3.08921 6.98955 2.91046 7.0033 2.73171 7.0033Z" fill="#292D32"/>
<path d="M5.49992 7.04913C5.48617 7.04913 5.477 7.04913 5.46325 7.04913H5.44033C4.57408 7.02163 3.92783 6.35246 3.92783 5.52746C3.92783 4.68412 4.61533 4.0012 5.45409 4.0012C6.29284 4.0012 6.98034 4.6887 6.98034 5.52746C6.97575 6.35704 6.3295 7.02621 5.5045 7.05371C5.5045 7.04913 5.5045 7.04913 5.49992 7.04913ZM5.45409 4.68412C4.99117 4.68412 4.61533 5.05996 4.61533 5.52287C4.61533 5.97663 4.96825 6.34329 5.422 6.36163C5.42659 6.35704 5.46325 6.35704 5.5045 6.36163C5.94909 6.33871 6.29284 5.97204 6.29742 5.52287C6.29742 5.06454 5.92159 4.68412 5.45409 4.68412Z" fill="#292D32"/>
<path d="M5.49992 10.4316C4.94992 10.4316 4.39992 10.2896 3.97366 10.0008C3.57033 9.73039 3.33658 9.34539 3.33658 8.93289C3.33658 8.52497 3.56575 8.1308 3.97366 7.86038C4.83075 7.29205 6.17367 7.29205 7.02617 7.86038C7.42951 8.1308 7.66326 8.5158 7.66326 8.9283C7.66326 9.33622 7.43409 9.73039 7.02617 10.0008C6.59992 10.285 6.04992 10.4316 5.49992 10.4316ZM4.35408 8.43789C4.13867 8.57997 4.02408 8.75872 4.02408 8.93747C4.02408 9.11622 4.14325 9.29039 4.35408 9.43247C4.97283 9.84956 6.02242 9.84956 6.64117 9.43247C6.85659 9.29039 6.97117 9.11164 6.97117 8.93289C6.97117 8.75414 6.85201 8.57997 6.64117 8.43789C6.027 8.0208 4.97742 8.02539 4.35408 8.43789Z" fill="#292D32"/>
</svg>
