<svg width="11" height="11" viewBox="0 0 11 11" fill="none" xmlns="http://www.w3.org/2000/svg">
<path d="M4.19817 5.32582C4.18442 5.32582 4.17526 5.32582 4.16151 5.32582C4.13859 5.32123 4.10651 5.32123 4.07901 5.32582C2.74984 5.28457 1.74609 4.23957 1.74609 2.95165C1.74609 1.64081 2.81401 0.572893 4.12484 0.572893C5.43568 0.572893 6.5036 1.64081 6.5036 2.95165C6.49901 4.23957 5.49068 5.28457 4.21192 5.32582C4.20734 5.32582 4.20276 5.32582 4.19817 5.32582ZM4.12484 1.26039C3.19442 1.26039 2.43359 2.02123 2.43359 2.95165C2.43359 3.86832 3.14859 4.60623 4.06067 4.63832C4.08817 4.63373 4.14776 4.63373 4.20734 4.63832C5.10568 4.59707 5.81151 3.85915 5.81609 2.95165C5.81609 2.02123 5.05526 1.26039 4.12484 1.26039Z" fill="#292D32"/>
<path d="M7.58068 5.38536C7.56693 5.38536 7.55318 5.38536 7.53943 5.38078C7.35152 5.39911 7.15902 5.2662 7.14068 5.07828C7.12235 4.89036 7.23693 4.72078 7.42485 4.69786C7.47985 4.69328 7.53943 4.69328 7.58985 4.69328C8.25902 4.65661 8.78152 4.10661 8.78152 3.43286C8.78152 2.73619 8.21777 2.17244 7.5211 2.17244C7.33318 2.17702 7.17735 2.02119 7.17735 1.83327C7.17735 1.64536 7.33318 1.48952 7.5211 1.48952C8.5936 1.48952 9.46902 2.36494 9.46902 3.43744C9.46902 4.49161 8.64402 5.34411 7.59443 5.38536C7.58985 5.38536 7.58527 5.38536 7.58068 5.38536Z" fill="#292D32"/>
<path d="M4.20276 10.3354C3.30443 10.3354 2.40151 10.1062 1.71859 9.64788C1.08151 9.22622 0.733173 8.64871 0.733173 8.0208C0.733173 7.39288 1.08151 6.81079 1.71859 6.38454C3.09359 5.47246 5.3211 5.47246 6.68693 6.38454C7.31944 6.80621 7.67235 7.38371 7.67235 8.01163C7.67235 8.63955 7.32402 9.22163 6.68693 9.64788C5.99943 10.1062 5.1011 10.3354 4.20276 10.3354ZM2.09901 6.96204C1.65901 7.25538 1.42067 7.63121 1.42067 8.02538C1.42067 8.41496 1.66359 8.7908 2.09901 9.07955C3.24026 9.84497 5.16526 9.84497 6.30652 9.07955C6.74652 8.78621 6.98485 8.41038 6.98485 8.01621C6.98485 7.62663 6.74193 7.2508 6.30652 6.96204C5.16526 6.20121 3.24026 6.20121 2.09901 6.96204Z" fill="#292D32"/>
<path d="M8.40566 9.51038C8.24524 9.51038 8.10316 9.40038 8.07107 9.23538C8.03441 9.04746 8.15357 8.86871 8.33691 8.82746C8.62566 8.76787 8.89149 8.65329 9.09774 8.49287C9.35899 8.29579 9.50108 8.04829 9.50108 7.78704C9.50108 7.52579 9.35899 7.27829 9.10232 7.08579C8.90066 6.92995 8.64857 6.81995 8.35066 6.7512C8.16732 6.70995 8.04816 6.52662 8.08941 6.3387C8.13066 6.15537 8.31399 6.0362 8.50191 6.07745C8.89607 6.16454 9.23982 6.32037 9.51941 6.53579C9.94566 6.85662 10.1886 7.31037 10.1886 7.78704C10.1886 8.26371 9.94108 8.71746 9.51483 9.04287C9.23066 9.26287 8.87316 9.42329 8.47899 9.50121C8.45149 9.51038 8.42857 9.51038 8.40566 9.51038Z" fill="#292D32"/>
</svg>
