<svg width="11" height="11" viewBox="0 0 11 11" fill="none" xmlns="http://www.w3.org/2000/svg">
<path d="M5.49997 10.4271C5.17913 10.4271 4.85371 10.3033 4.6108 10.0604L3.82703 9.28583C3.63453 9.09333 3.36872 8.98791 3.0983 8.98791H2.74996C1.80121 8.98791 1.03121 8.22249 1.03121 7.28291V2.2779C1.03121 1.33831 1.80121 0.572893 2.74996 0.572893H8.24997C9.19872 0.572893 9.96872 1.33831 9.96872 2.2779V7.27832C9.96872 8.21791 9.19872 8.98333 8.24997 8.98333H7.90163C7.63122 8.98333 7.3654 9.09333 7.1729 9.28124L6.38914 10.0558C6.14622 10.3033 5.8208 10.4271 5.49997 10.4271ZM2.74996 1.26039C2.18163 1.26039 1.71871 1.71873 1.71871 2.2779V7.27832C1.71871 7.84207 2.18163 8.29582 2.74996 8.29582H3.0983C3.55205 8.29582 3.99203 8.47916 4.31287 8.79541L5.09663 9.56999C5.32121 9.78999 5.68331 9.78999 5.90789 9.56999L6.69162 8.79541C7.01246 8.47916 7.45247 8.29582 7.90622 8.29582H8.24997C8.81831 8.29582 9.28122 7.83749 9.28122 7.27832V2.2779C9.28122 1.71414 8.81831 1.26039 8.24997 1.26039H2.74996Z" fill="#292D32"/>
<path d="M5.53198 4.44582C5.52282 4.44582 5.50906 4.44582 5.4999 4.44582C5.48615 4.44582 5.46782 4.44582 5.45407 4.44582C4.78491 4.4229 4.26239 3.88207 4.26239 3.20832C4.26239 2.5254 4.81698 1.97082 5.4999 1.97082C6.18281 1.97082 6.7374 2.5254 6.7374 3.20832C6.73282 3.88207 6.21033 4.4229 5.54116 4.44582C5.54116 4.44582 5.53657 4.44582 5.53198 4.44582ZM5.4999 2.65832C5.1974 2.65832 4.94989 2.90582 4.94989 3.20832C4.94989 3.50624 5.18365 3.74915 5.47699 3.75832C5.47699 3.75374 5.50449 3.75374 5.53657 3.75832C5.82532 3.73999 6.0499 3.50165 6.0499 3.20832C6.0499 2.90582 5.8024 2.65832 5.4999 2.65832Z" fill="#292D32"/>
<path d="M5.49999 7.65416C4.97749 7.65416 4.455 7.51666 4.04708 7.24624C3.66208 6.98957 3.43749 6.61832 3.43749 6.22415C3.43749 5.82999 3.6575 5.45415 4.04708 5.19748C4.86291 4.65665 6.13706 4.65665 6.94832 5.19748C7.33332 5.45415 7.55791 5.82999 7.55791 6.21957C7.55791 6.61374 7.3379 6.98499 6.94832 7.24624C6.54498 7.52124 6.02249 7.65416 5.49999 7.65416ZM4.42748 5.7704C4.23039 5.90332 4.12499 6.06374 4.12499 6.22415C4.12499 6.38457 4.23498 6.54499 4.42748 6.6779C5.00956 7.06749 5.98583 7.06749 6.56792 6.6779C6.765 6.54499 6.87499 6.38457 6.87041 6.22415C6.87041 6.06374 6.76042 5.90332 6.56792 5.7704C5.99042 5.38082 5.00956 5.38082 4.42748 5.7704Z" fill="#292D32"/>
</svg>
