<svg width="11" height="11" viewBox="0 0 11 11" fill="none" xmlns="http://www.w3.org/2000/svg">
<path d="M5.50002 5.84374C4.0471 5.84374 2.86459 4.66123 2.86459 3.20831C2.86459 1.7554 4.0471 0.572893 5.50002 0.572893C6.95294 0.572893 8.13544 1.7554 8.13544 3.20831C8.13544 4.66123 6.95294 5.84374 5.50002 5.84374ZM5.50002 1.26039C4.42751 1.26039 3.5521 2.13581 3.5521 3.20831C3.5521 4.28082 4.42751 5.15624 5.50002 5.15624C6.57252 5.15624 7.44794 4.28082 7.44794 3.20831C7.44794 2.13581 6.57252 1.26039 5.50002 1.26039Z" fill="#292D32"/>
<path d="M1.56297 10.4271C1.37505 10.4271 1.21922 10.2712 1.21922 10.0833C1.21922 8.12624 3.13964 6.53124 5.50006 6.53124C5.96298 6.53124 6.41672 6.59083 6.85673 6.71458C7.04006 6.765 7.14548 6.95291 7.09507 7.13624C7.04465 7.31958 6.85673 7.425 6.67339 7.37459C6.29756 7.26917 5.90339 7.21874 5.50006 7.21874C3.52006 7.21874 1.90672 8.50208 1.90672 10.0833C1.90672 10.2712 1.75089 10.4271 1.56297 10.4271Z" fill="#292D32"/>
<path d="M8.25001 10.4271C7.70918 10.4271 7.19584 10.2254 6.79709 9.86336C6.63667 9.72586 6.49459 9.55627 6.38459 9.36835C6.18292 9.03835 6.07293 8.64876 6.07293 8.25001C6.07293 7.6771 6.29292 7.14085 6.68709 6.73293C7.09959 6.30668 7.65418 6.07293 8.25001 6.07293C8.87335 6.07293 9.4646 6.33877 9.86793 6.7971C10.2254 7.19585 10.4271 7.70918 10.4271 8.25001C10.4271 8.42418 10.4042 8.59834 10.3584 8.76335C10.3125 8.9696 10.2254 9.18502 10.1063 9.37294C9.72584 10.0238 9.01085 10.4271 8.25001 10.4271ZM8.25001 6.76043C7.8421 6.76043 7.46627 6.92083 7.1821 7.20959C6.91168 7.48917 6.76043 7.85585 6.76043 8.25001C6.76043 8.52043 6.83376 8.78626 6.97584 9.01542C7.04918 9.14376 7.14542 9.25834 7.25542 9.35459C7.53042 9.60667 7.88335 9.74419 8.25001 9.74419C8.76793 9.74419 9.25835 9.46918 9.52418 9.0246C9.6021 8.89627 9.66168 8.74961 9.69376 8.60753C9.72585 8.48836 9.7396 8.37377 9.7396 8.2546C9.7396 7.88793 9.6021 7.53502 9.3546 7.26002C9.0796 6.93919 8.67626 6.76043 8.25001 6.76043Z" fill="#292D32"/>
<path d="M8.93737 8.58457H7.56695C7.37904 8.58457 7.2232 8.42874 7.2232 8.24082C7.2232 8.0529 7.37904 7.89707 7.56695 7.89707H8.93737C9.12529 7.89707 9.28112 8.0529 9.28112 8.24082C9.28112 8.42874 9.12529 8.58457 8.93737 8.58457Z" fill="#292D32"/>
<path d="M8.25 9.28587C8.06208 9.28587 7.90625 9.13004 7.90625 8.94212V7.57171C7.90625 7.38379 8.06208 7.22796 8.25 7.22796C8.43792 7.22796 8.59375 7.38379 8.59375 7.57171V8.94212C8.59375 9.13462 8.43792 9.28587 8.25 9.28587Z" fill="#292D32"/>
</svg>
