<svg width="11" height="11" viewBox="0 0 11 11" fill="none" xmlns="http://www.w3.org/2000/svg">
<path d="M5.50002 5.84374C4.0471 5.84374 2.86459 4.66123 2.86459 3.20831C2.86459 1.7554 4.0471 0.572893 5.50002 0.572893C6.95294 0.572893 8.13544 1.7554 8.13544 3.20831C8.13544 4.66123 6.95294 5.84374 5.50002 5.84374ZM5.50002 1.26039C4.42751 1.26039 3.5521 2.13581 3.5521 3.20831C3.5521 4.28082 4.42751 5.15624 5.50002 5.15624C6.57252 5.15624 7.44794 4.28082 7.44794 3.20831C7.44794 2.13581 6.57252 1.26039 5.50002 1.26039Z" fill="#292D32"/>
<path d="M1.56304 10.4271C1.37512 10.4271 1.21929 10.2712 1.21929 10.0833C1.21929 8.12624 3.13972 6.53124 5.50014 6.53124C5.96306 6.53124 6.41682 6.59083 6.85682 6.71458C7.04015 6.765 7.14555 6.95291 7.09513 7.13624C7.04472 7.31958 6.85681 7.425 6.67347 7.37459C6.29764 7.26917 5.90347 7.21874 5.50014 7.21874C3.52014 7.21874 1.90679 8.50208 1.90679 10.0833C1.90679 10.2712 1.75095 10.4271 1.56304 10.4271Z" fill="#292D32"/>
<path d="M8.25001 10.4271C7.70918 10.4271 7.19585 10.2254 6.7971 9.86336C6.63668 9.72586 6.49459 9.55627 6.38459 9.36835C6.18292 9.03835 6.07293 8.64876 6.07293 8.25001C6.07293 7.6771 6.29294 7.14085 6.68711 6.73293C7.09961 6.30668 7.65418 6.07293 8.25001 6.07293C8.87335 6.07293 9.46461 6.33877 9.86795 6.7971C10.2254 7.19585 10.4271 7.70918 10.4271 8.25001C10.4271 8.42418 10.4042 8.59834 10.3583 8.76335C10.3125 8.9696 10.2254 9.18502 10.1063 9.37294C9.72584 10.0238 9.01085 10.4271 8.25001 10.4271ZM8.25001 6.76043C7.8421 6.76043 7.46625 6.92083 7.18209 7.20959C6.91167 7.48917 6.76043 7.85585 6.76043 8.25001C6.76043 8.52043 6.83375 8.78626 6.97583 9.01542C7.04916 9.14376 7.14544 9.25834 7.25544 9.35459C7.53044 9.60667 7.88335 9.74419 8.25001 9.74419C8.76793 9.74419 9.25836 9.46918 9.5242 9.0246C9.60211 8.89627 9.66169 8.74961 9.69378 8.60753C9.72586 8.48836 9.7396 8.37377 9.7396 8.2546C9.7396 7.88793 9.60209 7.53502 9.35459 7.26002C9.07959 6.93919 8.67626 6.76043 8.25001 6.76043Z" fill="#292D32"/>
<path d="M8.93743 8.58457H7.56702C7.3791 8.58457 7.22327 8.42874 7.22327 8.24082C7.22327 8.0529 7.3791 7.89707 7.56702 7.89707H8.93743C9.12535 7.89707 9.28118 8.0529 9.28118 8.24082C9.28118 8.42874 9.12535 8.58457 8.93743 8.58457Z" fill="#292D32"/>
</svg>
