<svg width="11" height="11" viewBox="0 0 11 11" fill="none" xmlns="http://www.w3.org/2000/svg">
<path d="M5.25248 6.63664C4.35415 6.63664 3.62081 5.9033 3.62081 5.00497C3.62081 4.10663 4.35415 3.3733 5.25248 3.3733C6.15082 3.3733 6.88415 4.10663 6.88415 5.00497C6.88415 5.9033 6.15082 6.63664 5.25248 6.63664ZM5.25248 4.06539C4.73456 4.06539 4.30831 4.48705 4.30831 5.00955C4.30831 5.53206 4.72998 5.95372 5.25248 5.95372C5.77498 5.95372 6.19665 5.53206 6.19665 5.00955C6.19665 4.48705 5.77498 4.06539 5.25248 4.06539Z" fill="#292D32"/>
<path d="M7.63123 9.60209C7.44332 9.60209 7.28748 9.44626 7.28748 9.25834C7.28748 8.37834 6.3754 7.66332 5.25248 7.66332C4.12956 7.66332 3.21747 8.37834 3.21747 9.25834C3.21747 9.44626 3.06164 9.60209 2.87372 9.60209C2.68581 9.60209 2.52997 9.44626 2.52997 9.25834C2.52997 8.00251 3.74914 6.97582 5.25248 6.97582C6.75581 6.97582 7.97498 7.99792 7.97498 9.25834C7.97498 9.44626 7.81915 9.60209 7.63123 9.60209Z" fill="#292D32"/>
<path d="M5.27082 10.4271C2.68123 10.4271 0.572893 8.31879 0.572893 5.7292C0.572893 3.13961 2.68123 1.03127 5.27082 1.03127C5.9079 1.03127 6.52207 1.15502 7.09957 1.39793C7.26457 1.46668 7.34707 1.65001 7.29207 1.81959C7.24166 1.97084 7.21874 2.13127 7.21874 2.29169C7.21874 2.56211 7.29207 2.82793 7.43416 3.0571C7.50749 3.18544 7.60374 3.30001 7.71374 3.39626C8.11249 3.75835 8.70374 3.87296 9.16666 3.70796C9.33624 3.64379 9.52874 3.73087 9.59749 3.90045C9.84499 4.48253 9.96874 5.10128 9.96874 5.73379C9.96874 8.31879 7.86041 10.4271 5.27082 10.4271ZM5.27082 1.71877C3.06165 1.71877 1.26039 3.51544 1.26039 5.7292C1.26039 7.94295 3.06165 9.73962 5.27082 9.73962C7.47999 9.73962 9.28124 7.94295 9.28124 5.7292C9.28124 5.2892 9.20791 4.85378 9.07041 4.43669C8.43791 4.54669 7.74582 4.34962 7.25999 3.90504C7.09957 3.76754 6.95749 3.59794 6.84749 3.41003C6.64582 3.08003 6.53582 2.69044 6.53582 2.29169C6.53582 2.16794 6.54499 2.04878 6.5679 1.92962C6.15082 1.78753 5.7154 1.71877 5.27082 1.71877Z" fill="#292D32"/>
<path d="M8.70833 4.46875C8.16749 4.46875 7.65416 4.2671 7.25541 3.90501C7.09499 3.76751 6.95291 3.59792 6.84291 3.41C6.64124 3.08 6.53124 2.69042 6.53124 2.29167C6.53124 2.05792 6.56791 1.82875 6.64124 1.60875C6.74207 1.29709 6.91624 1.00833 7.14999 0.774581C7.56249 0.352913 8.11708 0.114579 8.71291 0.114579C9.33624 0.114579 9.9275 0.38042 10.3308 0.838754C10.6883 1.23751 10.89 1.75083 10.89 2.29167C10.89 2.46583 10.8671 2.64 10.8212 2.805C10.7754 3.01125 10.6883 3.22667 10.5692 3.41459C10.3033 3.86376 9.88166 4.19834 9.38666 4.35417C9.18041 4.43209 8.95124 4.46875 8.70833 4.46875ZM8.70833 0.80208C8.30041 0.80208 7.91999 0.962488 7.64041 1.25124C7.47999 1.41624 7.36541 1.60415 7.29666 1.81957C7.24624 1.97082 7.22332 2.13125 7.22332 2.29167C7.22332 2.56208 7.29666 2.82791 7.43874 3.05708C7.51207 3.18541 7.60833 3.29999 7.71833 3.39624C8.11708 3.75832 8.70833 3.87293 9.17125 3.70793C9.51958 3.59793 9.80375 3.36875 9.98708 3.06166C10.0696 2.92875 10.1246 2.78668 10.1567 2.64459C10.1887 2.52543 10.2025 2.41083 10.2025 2.29167C10.2025 1.925 10.065 1.57209 9.8175 1.29709C9.53791 0.980838 9.13458 0.80208 8.70833 0.80208Z" fill="#292D32"/>
<path d="M9.39126 2.62622H8.02084C7.83292 2.62622 7.67709 2.47039 7.67709 2.28247C7.67709 2.09456 7.83292 1.93872 8.02084 1.93872H9.39126C9.57918 1.93872 9.73501 2.09456 9.73501 2.28247C9.73501 2.47039 9.58376 2.62622 9.39126 2.62622Z" fill="#292D32"/>
<path d="M8.70831 3.32753C8.5204 3.32753 8.36456 3.17169 8.36456 2.98377V1.61336C8.36456 1.42544 8.5204 1.26961 8.70831 1.26961C8.89623 1.26961 9.05206 1.42544 9.05206 1.61336V2.98377C9.05206 3.17627 8.89623 3.32753 8.70831 3.32753Z" fill="#292D32"/>
</svg>
