<svg width="11" height="11" viewBox="0 0 11 11" fill="none" xmlns="http://www.w3.org/2000/svg">
<path d="M5.50002 5.84374C4.0471 5.84374 2.86459 4.66123 2.86459 3.20831C2.86459 1.7554 4.0471 0.572893 5.50002 0.572893C6.95294 0.572893 8.13544 1.7554 8.13544 3.20831C8.13544 4.66123 6.95294 5.84374 5.50002 5.84374ZM5.50002 1.26039C4.42751 1.26039 3.5521 2.13581 3.5521 3.20831C3.5521 4.28082 4.42751 5.15624 5.50002 5.15624C6.57252 5.15624 7.44794 4.28082 7.44794 3.20831C7.44794 2.13581 6.57252 1.26039 5.50002 1.26039Z" fill="#292D32"/>
<path d="M1.56304 10.4271C1.37512 10.4271 1.21929 10.2712 1.21929 10.0833C1.21929 8.12624 3.1397 6.53124 5.50013 6.53124C5.96304 6.53124 6.41679 6.59083 6.85679 6.71458C7.04012 6.765 7.14555 6.95291 7.09513 7.13624C7.04472 7.31958 6.85679 7.425 6.67346 7.37459C6.29763 7.26917 5.90346 7.21874 5.50013 7.21874C3.52012 7.21874 1.90679 8.50208 1.90679 10.0833C1.90679 10.2712 1.75095 10.4271 1.56304 10.4271Z" fill="#292D32"/>
<path d="M8.25001 10.4271C7.70918 10.4271 7.19584 10.2254 6.79709 9.86336C6.63667 9.72586 6.49459 9.55627 6.38459 9.36835C6.18292 9.03835 6.07293 8.64876 6.07293 8.25001C6.07293 7.6771 6.29292 7.14085 6.68709 6.73293C7.09959 6.30668 7.65418 6.07293 8.25001 6.07293C8.87335 6.07293 9.4646 6.33877 9.86793 6.7971C10.2254 7.19585 10.4271 7.70918 10.4271 8.25001C10.4271 8.42418 10.4042 8.59834 10.3584 8.76335C10.3125 8.9696 10.2254 9.18502 10.1063 9.37294C9.72584 10.0238 9.01085 10.4271 8.25001 10.4271ZM8.25001 6.76043C7.8421 6.76043 7.46627 6.92083 7.1821 7.20959C6.91168 7.48917 6.76043 7.85585 6.76043 8.25001C6.76043 8.52043 6.83376 8.78626 6.97584 9.01542C7.04918 9.14376 7.14542 9.25834 7.25542 9.35459C7.53042 9.60667 7.88335 9.74419 8.25001 9.74419C8.76793 9.74419 9.25835 9.46918 9.52418 9.0246C9.6021 8.89627 9.66168 8.74961 9.69376 8.60753C9.72585 8.48836 9.7396 8.37377 9.7396 8.2546C9.7396 7.88793 9.6021 7.53502 9.3546 7.26002C9.0796 6.93919 8.67626 6.76043 8.25001 6.76043Z" fill="#292D32"/>
<path d="M7.75499 9.07495C7.66791 9.07495 7.58083 9.04288 7.51208 8.97413C7.37916 8.84121 7.37916 8.62121 7.51208 8.4883L8.47915 7.52119C8.61207 7.38827 8.83207 7.38827 8.96499 7.52119C9.0979 7.65411 9.0979 7.87411 8.96499 8.00702L7.99791 8.97413C7.92916 9.04288 7.84208 9.07495 7.75499 9.07495Z" fill="#292D32"/>
<path d="M8.73594 9.08413C8.64885 9.08413 8.56177 9.05203 8.49302 8.98328L7.52594 8.0162C7.39303 7.88329 7.39303 7.66329 7.52594 7.53037C7.65886 7.39745 7.87886 7.39745 8.01178 7.53037L8.97885 8.49745C9.11177 8.63036 9.11177 8.85036 8.97885 8.98328C8.9101 9.05203 8.82302 9.08413 8.73594 9.08413Z" fill="#292D32"/>
</svg>
