<svg width="11" height="11" viewBox="0 0 11 11" fill="none" xmlns="http://www.w3.org/2000/svg">
<path d="M6.87501 10.4271H4.125C3.52 10.4271 3.01583 10.3675 2.58958 10.2392C2.43375 10.1933 2.33291 10.0421 2.34208 9.88165C2.45667 8.51123 3.84542 7.43413 5.5 7.43413C7.15459 7.43413 8.53876 8.50665 8.65793 9.88165C8.67168 10.0466 8.57084 10.1933 8.41043 10.2392C7.98417 10.3675 7.48001 10.4271 6.87501 10.4271ZM3.08 9.65248C3.3825 9.71207 3.72625 9.73957 4.125 9.73957H6.87501C7.27376 9.73957 7.61751 9.71207 7.92001 9.65248C7.67709 8.77248 6.67334 8.12163 5.5 8.12163C4.32667 8.12163 3.32292 8.77248 3.08 9.65248Z" fill="#292D32"/>
<path d="M6.87497 0.916629H4.12497C1.8333 0.916629 0.916629 1.8333 0.916629 4.12497V6.87497C0.916629 8.60748 1.43913 9.55623 2.6858 9.90914C2.78663 8.71747 4.01038 7.77788 5.49997 7.77788C6.98956 7.77788 8.21331 8.71747 8.31414 9.90914C9.56081 9.55623 10.0833 8.60748 10.0833 6.87497V4.12497C10.0833 1.8333 9.16664 0.916629 6.87497 0.916629ZM5.49997 6.49455C4.59247 6.49455 3.85913 5.75665 3.85913 4.84914C3.85913 3.94164 4.59247 3.2083 5.49997 3.2083C6.40747 3.2083 7.14081 3.94164 7.14081 4.84914C7.14081 5.75665 6.40747 6.49455 5.49997 6.49455Z" stroke="#292D32" stroke-width="0.644559" stroke-linecap="round" stroke-linejoin="round"/>
<path d="M5.49994 6.83834C4.40452 6.83834 3.51535 5.94461 3.51535 4.84919C3.51535 3.75377 4.40452 2.86459 5.49994 2.86459C6.59536 2.86459 7.48452 3.75377 7.48452 4.84919C7.48452 5.94461 6.59536 6.83834 5.49994 6.83834ZM5.49994 3.5521C4.78494 3.5521 4.20285 4.13419 4.20285 4.84919C4.20285 5.56877 4.78494 6.15084 5.49994 6.15084C6.21494 6.15084 6.79702 5.56877 6.79702 4.84919C6.79702 4.13419 6.21494 3.5521 5.49994 3.5521Z" fill="#292D32"/>
</svg>
