<svg width="11" height="11" viewBox="0 0 11 11" fill="none" xmlns="http://www.w3.org/2000/svg">
<path d="M5.50002 5.84374C4.0471 5.84374 2.86459 4.66123 2.86459 3.20831C2.86459 1.7554 4.0471 0.572893 5.50002 0.572893C6.95294 0.572893 8.13544 1.7554 8.13544 3.20831C8.13544 4.66123 6.95294 5.84374 5.50002 5.84374ZM5.50002 1.26039C4.42751 1.26039 3.5521 2.13581 3.5521 3.20831C3.5521 4.28082 4.42751 5.15624 5.50002 5.15624C6.57252 5.15624 7.44794 4.28082 7.44794 3.20831C7.44794 2.13581 6.57252 1.26039 5.50002 1.26039Z" fill="#292D32"/>
<path d="M7.25088 10.4271C7.07672 10.4271 6.91172 10.3629 6.79255 10.2438C6.65047 10.1017 6.5863 9.89544 6.61838 9.68002L6.70547 9.06128C6.72838 8.90086 6.82464 8.71294 6.93922 8.59377L8.56171 6.97128C9.21255 6.32044 9.78548 6.69169 10.0651 6.97128C10.3034 7.20961 10.4271 7.46626 10.4271 7.72292C10.4271 7.98417 10.308 8.22709 10.0651 8.47001L8.44254 10.0925C8.32796 10.2071 8.13548 10.3034 7.97506 10.3263L7.35629 10.4133C7.31963 10.4225 7.28755 10.4271 7.25088 10.4271ZM9.3088 7.29668C9.2263 7.29668 9.15296 7.35169 9.04755 7.45711L7.42505 9.0796C7.4113 9.09335 7.38838 9.13918 7.38838 9.15751L7.30588 9.73043L7.8788 9.64793C7.89713 9.64335 7.94296 9.62045 7.95671 9.6067L9.57923 7.98418C9.65256 7.91084 9.73964 7.80542 9.73964 7.72292C9.73964 7.65417 9.68465 7.55794 9.57923 7.45711C9.46923 7.34711 9.38672 7.29668 9.3088 7.29668Z" fill="#292D32"/>
<path d="M9.58839 8.80918C9.55631 8.80918 9.52422 8.80461 9.49672 8.79545C8.89172 8.62586 8.41047 8.14462 8.24089 7.53962C8.19047 7.35628 8.2959 7.16837 8.47923 7.11796C8.66257 7.06754 8.85047 7.17294 8.90089 7.35627C9.00631 7.73211 9.30423 8.03003 9.68007 8.13544C9.8634 8.18586 9.96882 8.37835 9.91841 8.5571C9.87716 8.70835 9.73964 8.80918 9.58839 8.80918Z" fill="#292D32"/>
<path d="M1.56304 10.4271C1.37512 10.4271 1.21929 10.2712 1.21929 10.0833C1.21929 8.12624 3.13972 6.53124 5.50014 6.53124C5.99972 6.53124 6.49472 6.60458 6.95764 6.74208C7.14097 6.79708 7.24181 6.98958 7.18681 7.16833C7.13181 7.35166 6.93931 7.4525 6.76056 7.3975C6.35722 7.27833 5.93556 7.21415 5.50014 7.21415C3.52014 7.21415 1.90679 8.49749 1.90679 10.0787C1.90679 10.2712 1.75095 10.4271 1.56304 10.4271Z" fill="#292D32"/>
</svg>
