<svg width="11" height="11" viewBox="0 0 11 11" fill="none" xmlns="http://www.w3.org/2000/svg">
<path d="M5.50002 5.84374C4.0471 5.84374 2.86459 4.66123 2.86459 3.20831C2.86459 1.7554 4.0471 0.572893 5.50002 0.572893C6.95294 0.572893 8.13544 1.7554 8.13544 3.20831C8.13544 4.66123 6.95294 5.84374 5.50002 5.84374ZM5.50002 1.26039C4.42751 1.26039 3.5521 2.13581 3.5521 3.20831C3.5521 4.28082 4.42751 5.15624 5.50002 5.15624C6.57252 5.15624 7.44794 4.28082 7.44794 3.20831C7.44794 2.13581 6.57252 1.26039 5.50002 1.26039Z" fill="#292D32"/>
<path d="M1.56297 10.4271C1.37505 10.4271 1.21922 10.2712 1.21922 10.0833C1.21922 8.12624 3.13964 6.53124 5.50006 6.53124C5.96298 6.53124 6.41672 6.59083 6.85673 6.71458C7.04006 6.765 7.14548 6.95291 7.09507 7.13624C7.04465 7.31958 6.85673 7.425 6.67339 7.37459C6.29756 7.26917 5.90339 7.21874 5.50006 7.21874C3.52006 7.21874 1.90672 8.50208 1.90672 10.0833C1.90672 10.2712 1.75089 10.4271 1.56297 10.4271Z" fill="#292D32"/>
<path d="M8.25001 10.4271C7.48918 10.4271 6.77418 10.0238 6.38918 9.36835C6.18293 9.03835 6.07293 8.64876 6.07293 8.25001C6.07293 7.58085 6.37084 6.96208 6.88876 6.54958C7.27376 6.2425 7.7596 6.07293 8.25001 6.07293C9.45085 6.07293 10.4271 7.04918 10.4271 8.25001C10.4271 8.64876 10.3171 9.03835 10.1108 9.37294C9.99627 9.56544 9.84959 9.7396 9.67543 9.88627C9.29501 10.2346 8.78626 10.4271 8.25001 10.4271ZM8.25001 6.76043C7.91085 6.76043 7.59001 6.875 7.3196 7.09041C6.96668 7.37 6.76043 7.79626 6.76043 8.25001C6.76043 8.52043 6.83376 8.78626 6.97584 9.01542C7.24168 9.46459 7.7321 9.7396 8.25001 9.7396C8.6121 9.7396 8.96043 9.60668 9.22627 9.36835C9.34543 9.26752 9.44626 9.14834 9.51959 9.02001C9.66626 8.78626 9.7396 8.52043 9.7396 8.25001C9.7396 7.42959 9.07043 6.76043 8.25001 6.76043Z" fill="#292D32"/>
<path d="M7.9887 9.0475C7.90161 9.0475 7.81453 9.01543 7.74578 8.94668L7.29203 8.49293C7.15912 8.36002 7.15912 8.13999 7.29203 8.00707C7.42495 7.87416 7.64495 7.87416 7.77787 8.00707L7.99787 8.22709L8.7312 7.54874C8.8687 7.4204 9.08869 7.42959 9.21703 7.56709C9.34536 7.70459 9.33621 7.92459 9.19871 8.05292L8.22245 8.95583C8.1537 9.01541 8.0712 9.0475 7.9887 9.0475Z" fill="#292D32"/>
</svg>
