<svg width="11" height="11" viewBox="0 0 11 11" fill="none" xmlns="http://www.w3.org/2000/svg">
<path d="M5.50002 5.84374C4.0471 5.84374 2.86459 4.66123 2.86459 3.20831C2.86459 1.7554 4.0471 0.572893 5.50002 0.572893C6.95294 0.572893 8.13544 1.7554 8.13544 3.20831C8.13544 4.66123 6.95294 5.84374 5.50002 5.84374ZM5.50002 1.26039C4.42751 1.26039 3.5521 2.13581 3.5521 3.20831C3.5521 4.28082 4.42751 5.15624 5.50002 5.15624C6.57252 5.15624 7.44794 4.28082 7.44794 3.20831C7.44794 2.13581 6.57252 1.26039 5.50002 1.26039Z" fill="#292D32"/>
<path d="M1.56297 10.4271C1.37505 10.4271 1.21922 10.2712 1.21922 10.0833C1.21922 8.12624 3.13965 6.53124 5.50007 6.53124C5.68799 6.53124 5.84382 6.68707 5.84382 6.87499C5.84382 7.06291 5.68799 7.21874 5.50007 7.21874C3.52007 7.21874 1.90672 8.50208 1.90672 10.0833C1.90672 10.2712 1.75089 10.4271 1.56297 10.4271Z" fill="#292D32"/>
<path d="M8.34167 10.1521C7.3425 10.1521 6.53124 9.34083 6.53124 8.34167C6.53124 7.3425 7.3425 6.53124 8.34167 6.53124C9.34083 6.53124 10.1521 7.3425 10.1521 8.34167C10.1521 9.34083 9.34083 10.1521 8.34167 10.1521ZM8.34167 7.21874C7.72291 7.21874 7.21874 7.72291 7.21874 8.34167C7.21874 8.96042 7.72291 9.46459 8.34167 9.46459C8.96042 9.46459 9.46459 8.96042 9.46459 8.34167C9.46459 7.72291 8.96042 7.21874 8.34167 7.21874Z" fill="#292D32"/>
<path d="M10.0833 10.4271C9.99623 10.4271 9.90913 10.395 9.84038 10.3262L9.38205 9.86791C9.24913 9.73499 9.24913 9.51497 9.38205 9.38205C9.51497 9.24913 9.73499 9.24913 9.86791 9.38205L10.3262 9.84038C10.4592 9.9733 10.4592 10.1933 10.3262 10.3262C10.2575 10.395 10.1704 10.4271 10.0833 10.4271Z" fill="#292D32"/>
</svg>
