<svg width="11" height="11" viewBox="0 0 11 11" fill="none" xmlns="http://www.w3.org/2000/svg">
<path d="M5.50007 10.4271C5.19299 10.4271 4.88132 10.3492 4.60632 10.1887L1.88381 8.61666C1.33381 8.29582 0.990063 7.70457 0.990063 7.06748V3.93249C0.990063 3.29541 1.33381 2.70416 1.88381 2.38332L4.60632 0.81124C5.15632 0.490406 5.83924 0.490406 6.39382 0.81124L9.11633 2.38332C9.66633 2.70416 10.0101 3.29541 10.0101 3.93249V7.06748C10.0101 7.70457 9.66633 8.29582 9.11633 8.61666L6.39382 10.1887C6.11882 10.3492 5.80716 10.4271 5.50007 10.4271ZM5.50007 1.2604C5.31215 1.2604 5.11965 1.31082 4.95007 1.40707L2.22757 2.97915C1.8884 3.17624 1.67756 3.53833 1.67756 3.93249V7.06748C1.67756 7.45707 1.8884 7.82374 2.22757 8.02083L4.95007 9.59291C5.28924 9.78999 5.71091 9.78999 6.05007 9.59291L8.77258 8.02083C9.11174 7.82374 9.32258 7.46165 9.32258 7.06748V3.93249C9.32258 3.54291 9.11174 3.17624 8.77258 2.97915L6.05007 1.40707C5.88049 1.31082 5.68799 1.2604 5.50007 1.2604Z" fill="#292D32"/>
<path d="M5.49998 5.38546C4.72081 5.38546 4.08831 4.75295 4.08831 3.97378C4.08831 3.19461 4.72081 2.56213 5.49998 2.56213C6.27914 2.56213 6.91165 3.19461 6.91165 3.97378C6.91165 4.75295 6.27914 5.38546 5.49998 5.38546ZM5.49998 3.24963C5.10123 3.24963 4.77581 3.57503 4.77581 3.97378C4.77581 4.37253 5.10123 4.69796 5.49998 4.69796C5.89873 4.69796 6.22414 4.37253 6.22414 3.97378C6.22414 3.57503 5.89873 3.24963 5.49998 3.24963Z" fill="#292D32"/>
<path d="M7.3334 7.97965C7.14548 7.97965 6.98965 7.82382 6.98965 7.6359C6.98965 7.0034 6.32048 6.4855 5.50006 6.4855C4.67964 6.4855 4.01048 7.0034 4.01048 7.6359C4.01048 7.82382 3.85464 7.97965 3.66672 7.97965C3.47881 7.97965 3.32297 7.82382 3.32297 7.6359C3.32297 6.62298 4.29923 5.798 5.50006 5.798C6.7009 5.798 7.67715 6.62298 7.67715 7.6359C7.67715 7.82382 7.52132 7.97965 7.3334 7.97965Z" fill="#292D32"/>
</svg>
