<svg width="11" height="11" viewBox="0 0 11 11" fill="none" xmlns="http://www.w3.org/2000/svg">
<path d="M5.50002 5.84374C4.0471 5.84374 2.86459 4.66123 2.86459 3.20831C2.86459 1.7554 4.0471 0.572893 5.50002 0.572893C6.95294 0.572893 8.13544 1.7554 8.13544 3.20831C8.13544 4.66123 6.95294 5.84374 5.50002 5.84374ZM5.50002 1.26039C4.42751 1.26039 3.5521 2.13581 3.5521 3.20831C3.5521 4.28082 4.42751 5.15624 5.50002 5.15624C6.57252 5.15624 7.44794 4.28082 7.44794 3.20831C7.44794 2.13581 6.57252 1.26039 5.50002 1.26039Z" fill="#292D32"/>
<path d="M9.43715 10.4271C9.24923 10.4271 9.0934 10.2712 9.0934 10.0833C9.0934 8.50208 7.48006 7.21874 5.50006 7.21874C3.52006 7.21874 1.90672 8.50208 1.90672 10.0833C1.90672 10.2712 1.75089 10.4271 1.56297 10.4271C1.37505 10.4271 1.21922 10.2712 1.21922 10.0833C1.21922 8.12624 3.13964 6.53124 5.50006 6.53124C7.86048 6.53124 9.7809 8.12624 9.7809 10.0833C9.7809 10.2712 9.62507 10.4271 9.43715 10.4271Z" fill="#292D32"/>
</svg>
