<svg width="11" height="11" viewBox="0 0 11 11" fill="none" xmlns="http://www.w3.org/2000/svg">
<path d="M5.49997 10.4271C5.17913 10.4271 4.85371 10.3034 4.6108 10.0605L3.82703 9.28586C3.63453 9.09336 3.36872 8.98794 3.0983 8.98794H2.74996C1.80121 8.98794 1.03121 8.22253 1.03121 7.28295V2.2825C1.03121 1.34292 1.80121 0.577515 2.74996 0.577515H8.24997C9.19872 0.577515 9.96872 1.34292 9.96872 2.2825V7.28295C9.96872 8.22253 9.19872 8.98794 8.24997 8.98794H7.90163C7.63122 8.98794 7.3654 9.09795 7.1729 9.28586L6.38914 10.0605C6.14622 10.3034 5.8208 10.4271 5.49997 10.4271ZM2.74996 1.26043C2.18163 1.26043 1.71871 1.71875 1.71871 2.27792V7.27836C1.71871 7.84211 2.18163 8.29585 2.74996 8.29585H3.0983C3.55205 8.29585 3.99203 8.47919 4.31287 8.79544L5.09663 9.57003C5.32121 9.79003 5.68331 9.79003 5.90789 9.57003L6.69162 8.79544C7.01246 8.47919 7.45247 8.29585 7.90622 8.29585H8.24997C8.81831 8.29585 9.28122 7.83753 9.28122 7.27836V2.27792C9.28122 1.71417 8.81831 1.26043 8.24997 1.26043H2.74996Z" fill="#292D32"/>
<path d="M5.49998 4.92708C4.72082 4.92708 4.08831 4.29457 4.08831 3.5154C4.08831 2.73624 4.72082 2.10375 5.49998 2.10375C6.27915 2.10375 6.91166 2.73624 6.91166 3.5154C6.91166 4.29457 6.27915 4.92708 5.49998 4.92708ZM5.49998 2.79126C5.10123 2.79126 4.77581 3.11665 4.77581 3.5154C4.77581 3.91415 5.10123 4.23958 5.49998 4.23958C5.89874 4.23958 6.22416 3.91415 6.22416 3.5154C6.22416 3.11665 5.89874 2.79126 5.49998 2.79126Z" fill="#292D32"/>
<path d="M7.33333 7.52127C7.14542 7.52127 6.98958 7.36544 6.98958 7.17752C6.98958 6.54502 6.32041 6.02712 5.5 6.02712C4.67958 6.02712 4.01041 6.54502 4.01041 7.17752C4.01041 7.36544 3.85458 7.52127 3.66666 7.52127C3.47874 7.52127 3.32291 7.36544 3.32291 7.17752C3.32291 6.1646 4.29916 5.33962 5.5 5.33962C6.70083 5.33962 7.67708 6.1646 7.67708 7.17752C7.67708 7.36544 7.52125 7.52127 7.33333 7.52127Z" fill="#292D32"/>
</svg>
