<?xml version="1.0" standalone="no"?>
<!DOCTYPE svg PUBLIC "-//W3C//DTD SVG 20010904//EN"
 "http://www.w3.org/TR/2001/REC-SVG-20010904/DTD/svg10.dtd">
<svg version="1.0" xmlns="http://www.w3.org/2000/svg"
 width="1024.000000pt" height="1024.000000pt" viewBox="0 0 1024.000000 1024.000000"
 preserveAspectRatio="xMidYMid meet">

<g transform="translate(0.000000,1024.000000) scale(0.100000,-0.100000)"
fill="#000000" stroke="none">
<path d="M5473 7413 c9 -2 25 -2 35 0 9 3 1 5 -18 5 -19 0 -27 -2 -17 -5z"/>
<path d="M5603 7403 c9 -2 23 -2 30 0 6 3 -1 5 -18 5 -16 0 -22 -2 -12 -5z"/>
<path d="M5673 7393 c9 -2 23 -2 30 0 6 3 -1 5 -18 5 -16 0 -22 -2 -12 -5z"/>
<path d="M5795 7374 c78 -17 116 -16 45 1 -30 8 -66 14 -80 14 -14 -1 2 -7 35
-15z"/>
<path d="M5971 7341 c-12 -7 40 -25 100 -34 8 -2 20 -6 27 -10 6 -5 42 -19 80
-32 37 -13 63 -24 58 -25 -6 0 12 -14 40 -31 27 -17 61 -44 77 -61 26 -29 32
-43 39 -93 2 -12 11 -20 23 -20 37 0 29 -35 -18 -78 -62 -58 -160 -108 -302
-155 -144 -48 -211 -65 -381 -92 -71 -11 -145 -23 -164 -26 -19 -4 -138 -12
-265 -20 l-230 -13 210 5 c116 3 239 7 275 9 45 3 57 2 40 -4 l-25 -9 25 -2
c20 -1 22 -3 7 -8 -16 -7 -16 -9 -3 -27 9 -11 16 -28 16 -37 0 -13 8 -18 30
-18 28 0 30 -2 30 -40 0 -22 5 -40 10 -40 6 0 10 -18 10 -40 0 -29 4 -40 15
-40 11 0 15 -11 15 -40 0 -29 -4 -40 -15 -40 -11 0 -15 -11 -15 -40 l0 -40
-40 0 -40 0 0 -40 c0 -33 -3 -40 -20 -40 -17 0 -20 -7 -20 -40 0 -36 -2 -40
-25 -40 -22 0 -25 -4 -25 -40 0 -39 -1 -40 -35 -40 -31 0 -35 -3 -35 -26 0
-33 -21 -54 -54 -54 -19 0 -26 -5 -26 -18 0 -23 -40 -62 -63 -62 -10 0 -17 -8
-17 -20 0 -17 -7 -20 -38 -20 -26 0 -45 -7 -57 -20 -10 -11 -29 -20 -42 -20
-14 0 -23 -6 -23 -15 0 -11 -11 -15 -40 -15 -33 0 -40 -4 -40 -19 0 -16 -11
-20 -80 -26 -76 -7 -80 -8 -80 -31 0 -21 -5 -24 -39 -24 -25 0 -41 -5 -45 -15
-3 -9 -19 -15 -41 -15 -26 0 -35 -4 -35 -16 0 -15 -2 -15 -25 0 -14 9 -25 12
-25 6 0 -5 -7 -10 -16 -10 -9 0 -12 5 -8 13 4 6 4 9 -1 5 -4 -4 -14 -3 -22 4
-7 6 -16 8 -19 5 -3 -3 21 -27 54 -54 57 -46 78 -70 68 -80 -3 -3 -18 2 -35
10 -17 8 -39 13 -50 10 -10 -2 -22 0 -25 6 -4 6 -16 11 -27 11 -13 0 -18 -4
-13 -12 5 -8 2 -9 -10 -5 -10 4 -20 7 -24 7 -3 0 7 13 22 29 16 17 23 31 18
35 -6 3 -13 -2 -16 -11 -3 -10 -14 -23 -24 -29 -15 -10 -31 -3 -97 42 -190
128 -379 382 -458 614 -8 25 -29 79 -46 122 -43 110 -79 252 -101 411 -11 76
-21 141 -24 145 -2 4 -7 24 -10 45 -6 38 -32 97 -42 97 -17 0 27 -288 71 -466
62 -250 143 -450 246 -609 216 -334 512 -558 834 -631 105 -23 310 -24 413 -1
181 41 336 111 453 205 74 58 239 227 239 244 0 5 22 6 49 2 38 -5 59 -2 97
15 58 26 141 77 170 106 12 11 88 60 168 108 182 109 290 187 384 280 136 134
185 234 186 382 1 115 -9 132 -103 179 -48 24 -83 36 -91 31 -8 -5 -11 -4 -7
2 12 19 -25 26 -168 30 -128 4 -187 -1 -239 -23 -18 -7 -19 -4 -12 37 4 24 12
46 17 50 6 3 10 9 9 13 -1 3 1 27 5 52 9 63 -8 106 -63 155 -58 52 -228 134
-342 166 -97 26 -91 25 -109 14z m229 -66 c14 -8 21 -14 15 -14 -5 0 -21 6
-35 14 -14 8 -20 14 -15 14 6 0 21 -6 35 -14z m660 -474 c52 -26 72 -71 66
-156 -4 -74 -25 -165 -38 -165 -5 0 -8 -8 -8 -17 0 -9 -3 -13 -7 -10 -9 10
-35 -31 -28 -43 4 -6 2 -9 -3 -8 -5 2 -20 -8 -32 -22 -56 -65 -112 -120 -121
-120 -6 0 -7 -5 -3 -12 4 -7 3 -8 -4 -4 -7 4 -25 -6 -41 -23 -16 -16 -32 -27
-36 -23 -3 3 -3 -2 1 -12 6 -15 3 -17 -13 -12 -17 6 -20 3 -16 -18 6 -31 -37
-65 -148 -112 -62 -27 -96 -36 -133 -35 -28 0 -52 5 -54 11 -2 5 -10 10 -18
10 -17 0 -19 -9 17 85 27 70 81 220 152 420 13 36 23 53 25 42 6 -30 25 -14
79 69 73 111 130 156 216 174 52 10 101 3 147 -19z m-460 -191 c0 -11 -4 -20
-9 -20 -5 0 -7 9 -4 20 3 11 7 20 9 20 2 0 4 -9 4 -20z m-39 -111 c-32 -118
-108 -328 -147 -404 l-15 -30 6 30 c3 17 22 70 41 118 20 49 38 100 40 113 4
22 31 97 53 149 5 11 14 40 21 63 6 24 14 42 16 39 3 -2 -4 -38 -15 -78z
m-1667 -935 c4 -10 1 -14 -6 -12 -15 5 -23 28 -10 28 5 0 13 -7 16 -16z"/>
<path d="M3790 7155 c-7 -9 -11 -18 -8 -20 3 -3 11 1 18 10 7 9 11 18 8 20 -3
3 -11 -1 -18 -10z"/>
<path d="M5522 7054 c-7 -14 -8 -23 -2 -19 15 9 32 45 22 45 -5 0 -14 -12 -20
-26z"/>
<path d="M5564 7065 c4 -24 16 -30 16 -7 0 12 -4 22 -9 22 -5 0 -8 -7 -7 -15z"/>
<path d="M5467 7047 c6 -29 18 -43 27 -29 2 4 -4 18 -14 32 l-18 24 5 -27z"/>
<path d="M5426 7046 c3 -8 13 -17 22 -21 13 -5 13 -2 -3 15 -21 24 -26 25 -19
6z"/>
<path d="M4180 7015 c-91 -25 -175 -59 -185 -75 -13 -20 196 -95 351 -126 187
-37 453 -63 644 -63 l125 1 -43 20 c-36 16 -49 18 -71 8 -16 -6 -69 -10 -127
-8 -89 3 -99 5 -97 21 1 14 -3 16 -15 11 -53 -24 -332 31 -332 65 0 8 -28 3
-88 -15 -21 -6 -23 -4 -20 16 2 16 14 27 38 36 19 7 27 13 18 13 -10 1 -18 7
-18 14 0 8 -4 7 -10 -3 -8 -12 -10 -10 -10 9 0 22 -1 23 -12 8 -12 -15 -58
-37 -79 -37 -20 0 -8 16 20 27 62 23 80 104 23 102 -15 0 -65 -11 -112 -24z
m380 -215 c0 -5 -4 -10 -10 -10 -5 0 -10 5 -10 10 0 6 5 10 10 10 6 0 10 -4
10 -10z"/>
<path d="M4635 6990 c-3 -5 1 -10 10 -10 9 0 13 5 10 10 -3 6 -8 10 -10 10 -2
0 -7 -4 -10 -10z"/>
<path d="M5703 6984 c15 -8 27 -21 27 -29 0 -8 7 -15 15 -15 9 0 20 -11 25
-24 5 -14 19 -30 30 -36 20 -11 21 -10 10 9 -13 26 -14 26 52 -4 42 -19 70
-25 122 -24 38 1 63 5 56 9 -7 4 -8 10 -3 13 5 3 15 2 22 -2 24 -15 59 0 64
27 8 39 -6 46 -32 18 -20 -21 -29 -23 -80 -19 -38 4 -61 2 -65 -6 -9 -13 -65
-14 -85 -2 -8 5 -22 24 -30 42 -13 27 -25 35 -66 46 -27 7 -59 13 -70 12 -17
0 -16 -2 8 -15z m97 -41 c0 -11 -4 -11 -20 -3 -11 6 -20 15 -20 19 0 5 9 7 20
4 11 -3 20 -12 20 -20z"/>
<path d="M5940 6968 c0 -19 2 -20 10 -8 13 19 13 30 0 30 -5 0 -10 -10 -10
-22z"/>
<path d="M4944 6969 c-4 -7 -3 -9 4 -5 5 3 13 0 15 -6 4 -9 6 -10 6 -1 1 17
-16 25 -25 12z"/>
<path d="M5578 6961 c-37 -21 -35 -31 7 -31 34 0 44 12 27 36 -5 7 -16 5 -34
-5z"/>
<path d="M5077 6959 c7 -7 15 -10 18 -7 3 3 -2 9 -12 12 -14 6 -15 5 -6 -5z"/>
<path d="M5357 6908 c-9 -7 -18 -24 -19 -38 -3 -24 -1 -25 45 -22 26 2 60 11
75 19 26 15 27 15 2 9 -40 -9 -72 3 -65 25 7 22 -12 26 -38 7z"/>
<path d="M7044 6887 c1 -6 10 -24 20 -39 21 -33 46 -121 46 -168 0 -19 5 -42
11 -50 7 -11 9 12 7 81 -4 98 -25 158 -50 143 -7 -5 -9 -2 -5 9 4 11 -1 20
-12 27 -14 7 -19 6 -17 -3z"/>
<path d="M5550 6880 c-13 -8 -13 -10 2 -10 9 0 20 5 23 10 8 13 -5 13 -25 0z"/>
<path d="M5736 6863 c-7 -22 -9 -22 -36 -8 -34 17 -40 18 -40 6 0 -20 152 -57
175 -43 6 4 20 5 33 3 30 -4 28 6 -8 24 -26 13 -29 14 -24 0 7 -17 -6 -19 -54
-9 -21 4 -32 13 -34 28 -4 21 -4 21 -12 -1z"/>
<path d="M5110 6860 c0 -6 7 -10 15 -10 8 0 15 2 15 4 0 2 -7 6 -15 10 -8 3
-15 1 -15 -4z"/>
<path d="M5190 6863 c0 -7 -10 -13 -22 -13 -23 -1 -23 -1 1 -14 19 -11 31 -11
50 -2 22 10 23 11 5 15 -10 2 -22 8 -26 15 -6 8 -8 7 -8 -1z"/>
<path d="M5590 6830 c-9 -6 -10 -10 -3 -10 6 0 15 5 18 10 8 12 4 12 -15 0z"/>
<path d="M5433 6806 c4 -10 -15 -15 -88 -20 -51 -4 -103 -5 -116 -1 -15 3 -33
-2 -46 -12 -23 -18 -22 -18 35 -16 31 1 101 4 155 6 71 3 102 8 113 19 14 14
13 15 -10 11 -19 -4 -26 -1 -26 11 0 9 -5 16 -11 16 -6 0 -9 -6 -6 -14z"/>
<path d="M7590 6629 c-15 -28 -8 -33 13 -9 9 11 12 22 7 25 -5 3 -14 -4 -20
-16z"/>
<path d="M7688 6590 c-3 -22 -1 -27 7 -20 7 5 14 7 18 4 3 -3 10 3 16 14 12
22 6 32 -20 32 -11 0 -18 -10 -21 -30z"/>
<path d="M7422 6578 c-13 -15 -30 -50 -37 -76 -6 -26 -17 -57 -22 -67 -13 -25
-24 -145 -14 -145 19 0 42 40 36 60 -4 13 1 34 15 56 16 28 18 39 9 50 -16 20
-3 78 27 113 13 16 21 32 17 34 -5 2 -19 -9 -31 -25z"/>
<path d="M3378 6542 c-7 -24 12 -90 36 -127 22 -35 27 -55 11 -49 -8 3 -31 32
-52 65 -37 58 -58 73 -118 84 -25 5 -22 2 17 -19 40 -22 69 -46 55 -46 -3 0
-36 11 -73 25 l-69 25 35 -30 c19 -17 49 -38 65 -46 17 -9 46 -32 67 -51 39
-38 43 -70 12 -104 -8 -8 -14 -19 -14 -23 0 -15 -85 -85 -98 -81 -7 3 -11 1
-8 -4 3 -5 -1 -12 -10 -15 -9 -4 -14 -9 -11 -12 3 -3 19 2 36 10 16 9 38 16
47 16 9 0 36 17 59 38 23 20 50 42 61 48 17 10 19 23 19 119 0 78 -4 109 -12
112 -7 3 -13 11 -13 18 0 7 -6 15 -14 18 -8 3 -16 16 -18 29 l-3 23 -7 -23z"/>
<path d="M7258 6514 c-14 -22 -43 -73 -63 -114 l-38 -75 13 -80 c8 -52 9 -95
3 -124 -9 -46 -33 -69 -33 -31 0 12 -4 19 -9 15 -5 -3 -13 4 -16 15 -5 15 -10
18 -19 11 -9 -7 -16 -7 -24 1 -17 17 -15 7 9 -47 18 -40 19 -51 9 -76 -13 -31
-34 -38 -44 -14 -3 8 -10 15 -17 15 -7 0 -9 -21 -5 -67 5 -57 9 -70 33 -90 15
-12 31 -22 35 -23 3 0 17 -17 29 -37 l23 -37 11 67 c6 37 16 72 23 79 7 7 12
23 11 37 0 15 -3 20 -6 13 -2 -6 -9 -9 -15 -6 -6 4 -13 3 -17 -2 -3 -5 -15
-14 -26 -20 -13 -7 -22 -25 -26 -50 l-5 -39 -8 37 c-11 49 6 96 49 138 19 19
36 32 38 29 1 -2 12 -25 25 -51 23 -51 32 -57 52 -33 7 9 19 14 27 11 7 -3 34
13 58 36 42 40 61 69 33 51 -7 -4 -22 -6 -32 -4 -10 1 -29 -2 -41 -9 -17 -9
-28 -8 -56 8 -29 16 -34 25 -37 60 -2 30 3 51 18 71 21 31 15 45 -20 46 -11 0
-16 15 -18 60 -2 54 1 66 27 105 17 25 31 50 31 55 0 6 12 27 26 48 14 21 24
43 21 50 -2 7 -15 -6 -29 -29z"/>
<path d="M7830 6521 c7 -13 9 -38 6 -55 -5 -29 -5 -30 9 -12 16 21 17 21 33
-9 10 -17 11 -12 11 30 0 40 -2 47 -11 34 -10 -15 -14 -13 -35 10 -23 25 -24
25 -13 2z"/>
<path d="M7590 6476 l1 -51 15 34 c8 19 19 40 25 47 7 8 2 13 -16 16 -24 5
-25 3 -25 -46z"/>
<path d="M3574 6464 c2 -23 9 -51 16 -63 6 -13 10 -25 7 -27 -6 -6 -77 82 -77
96 0 6 -4 8 -10 5 -18 -11 -10 -41 28 -101 21 -32 44 -78 51 -100 13 -39 12
-45 -14 -99 -24 -48 -31 -56 -49 -51 -12 4 -33 9 -48 12 -16 4 -28 10 -28 14
0 4 -8 16 -18 27 l-17 21 -25 -22 c-14 -11 -31 -33 -37 -49 -12 -26 -12 -27
21 -27 37 0 66 -25 66 -58 0 -12 5 -22 10 -22 13 0 13 -29 -1 -68 -23 -66
-150 -106 -262 -83 -34 7 -63 17 -65 22 -5 12 -43 11 -62 -1 -10 -6 -20 -4
-30 5 -8 8 -34 18 -58 23 -52 12 -114 58 -110 80 3 13 14 17 46 15 23 -1 42 1
42 3 0 16 -74 67 -117 82 -25 8 -33 8 -37 -3 -3 -10 0 -12 11 -8 13 5 13 3 4
-15 -15 -28 -14 -32 5 -25 12 4 15 2 12 -8 -6 -16 17 -67 41 -89 9 -8 38 -32
64 -54 36 -29 45 -41 35 -47 -7 -5 58 -9 152 -9 163 0 210 -5 210 -20 0 -7
-40 -30 -132 -77 -32 -17 -35 -28 -11 -37 15 -6 15 -8 3 -16 -11 -7 -7 -10 17
-10 21 0 42 9 60 26 15 14 69 50 119 80 108 63 232 159 264 203 17 25 25 29
35 21 16 -13 27 -58 29 -115 2 -48 -3 -48 159 -4 64 18 117 37 117 44 0 6 -13
32 -30 58 -16 26 -30 50 -30 53 0 2 -12 31 -27 64 -23 52 -29 59 -47 54 -18
-6 -19 -5 -8 8 12 15 6 78 -8 78 -4 0 -21 -13 -37 -29 -17 -16 -55 -45 -86
-64 -48 -31 -61 -47 -103 -126 -27 -50 -52 -91 -55 -91 -3 0 -2 34 3 76 8 78
22 111 71 176 57 76 73 166 41 234 -20 41 -36 55 -66 57 -13 0 -26 6 -30 12
-4 5 -6 -9 -4 -31z m221 -364 c8 -24 -3 -100 -14 -100 -10 0 -61 54 -61 65 0
14 42 55 56 55 7 0 16 -9 19 -20z"/>
<path d="M3130 6472 c0 -4 15 -13 33 -20 24 -9 37 -23 52 -59 11 -27 20 -55
21 -63 3 -46 4 -53 9 -48 3 3 8 17 11 32 4 25 -32 107 -59 132 -18 15 -67 35
-67 26z"/>
<path d="M7761 6426 c2 -41 -1 -51 -21 -66 -14 -10 -27 -16 -30 -12 -3 4 -16
7 -30 7 -15 -1 -34 10 -47 25 -13 14 -23 21 -24 15 -6 -76 -6 -145 -1 -145 4
0 31 16 61 35 29 19 57 35 62 35 4 0 15 12 23 28 8 15 26 38 40 51 26 24 36
48 15 36 -5 -4 -19 4 -30 16 l-20 23 2 -48z"/>
<path d="M2957 6453 c-4 -3 -7 -11 -7 -17 0 -6 5 -5 12 2 6 6 9 14 7 17 -3 3
-9 2 -12 -2z"/>
<path d="M3097 6433 c-37 -6 -24 -23 18 -23 22 0 41 -8 55 -22 17 -18 20 -19
20 -5 0 21 -35 58 -52 56 -7 -1 -25 -4 -41 -6z"/>
<path d="M2912 6415 c-7 -8 -9 -15 -4 -15 5 0 15 7 22 15 16 19 -1 19 -18 0z"/>
<path d="M7140 6409 c0 -2 -4 -19 -9 -37 -5 -17 -6 -32 -1 -32 10 0 24 59 16
67 -3 4 -6 4 -6 2z"/>
<path d="M7960 6368 c0 -32 -6 -34 -32 -11 -17 15 -18 15 -7 -16 6 -17 9 -61
7 -97 -4 -60 -3 -63 12 -47 21 23 44 158 30 181 -8 14 -9 12 -10 -10z"/>
<path d="M3132 6366 c7 -8 15 -12 17 -11 5 6 -10 25 -20 25 -5 0 -4 -6 3 -14z"/>
<path d="M3061 6341 c-25 -25 -27 -51 -6 -51 30 0 76 31 73 48 -5 25 -44 26
-67 3z"/>
<path d="M2855 6291 c-3 -10 -1 -38 4 -61 10 -45 21 -64 21 -36 0 9 6 19 14
22 12 5 12 9 0 32 -8 15 -14 32 -14 39 0 21 -18 24 -25 4z"/>
<path d="M3012 6265 c5 -44 -4 -45 -23 -3 -20 41 -32 23 -14 -20 15 -34 42
-52 54 -35 3 6 17 14 30 18 24 7 24 7 4 24 -11 9 -23 24 -26 34 -11 32 -29 19
-25 -18z"/>
<path d="M7414 6256 c3 -27 6 -77 6 -112 0 -50 3 -62 14 -58 31 12 132 -155
143 -235 3 -23 8 -40 12 -38 3 1 42 20 86 40 119 56 125 59 125 74 0 7 -4 13
-10 13 -5 0 -10 14 -10 30 l0 31 -27 -26 c-32 -29 -38 -30 -77 -10 -15 8 -35
15 -42 15 -32 0 -3 34 65 76 19 13 29 24 22 28 -5 4 -19 -2 -30 -13 -34 -34
-66 -36 -122 -7 -28 14 -56 23 -61 19 -6 -3 -8 -1 -4 5 3 5 1 12 -6 14 -17 6
0 44 42 92 21 24 26 34 15 29 -13 -4 -16 -3 -11 5 8 14 -20 12 -43 -3 -11 -6
-25 3 -54 36 l-40 44 7 -49z"/>
<path d="M7046 6275 c-3 -9 -5 -38 -5 -63 2 -46 2 -46 9 13 7 64 6 76 -4 50z"/>
<path d="M7772 6203 c10 -43 26 -97 33 -120 9 -25 15 -94 17 -175 2 -111 0
-138 -15 -163 -16 -28 -17 -28 -13 -5 17 94 17 100 0 107 -10 4 -19 2 -21 -4
-2 -5 -14 -8 -27 -6 -13 3 -34 -1 -47 -8 -13 -7 -28 -14 -34 -14 -66 -6 -84
-18 -99 -61 l-15 -44 67 0 c90 -1 192 -50 192 -94 0 -9 4 -16 9 -16 4 0 6 -11
3 -25 -2 -14 -2 -25 1 -25 14 0 63 26 75 40 9 10 11 10 6 1 -4 -9 -2 -12 7 -9
18 6 24 37 11 50 -7 7 -23 3 -49 -12 l-38 -22 43 39 c36 33 42 44 42 77 0 35
6 46 50 87 38 35 57 46 74 43 18 -3 25 1 29 19 5 18 4 20 -6 7 -11 -14 -37
-25 -37 -16 0 2 9 25 20 51 23 53 24 59 10 50 -13 -8 -13 7 1 42 12 31 3 183
-11 183 -5 0 -11 -30 -15 -67 -9 -92 -22 -173 -24 -146 -2 31 -22 33 -51 6
-29 -28 -80 -57 -87 -50 -2 3 9 20 26 38 37 39 38 41 7 29 -51 -19 -81 66 -43
122 32 47 40 68 21 61 -8 -3 -14 1 -14 11 0 9 -4 16 -9 16 -5 0 -28 18 -51 40
-23 22 -45 40 -50 40 -4 0 1 -35 12 -77z"/>
<path d="M8010 6239 c0 -15 -4 -19 -16 -15 -12 4 -15 2 -10 -9 3 -8 8 -45 12
-80 4 -36 9 -64 11 -62 6 6 14 187 8 187 -3 0 -5 -9 -5 -21z"/>
<path d="M2941 6211 c-11 -7 -9 -11 8 -21 31 -16 46 -8 24 12 -12 11 -23 14
-32 9z"/>
<path d="M2892 6148 c17 -26 136 -94 146 -83 4 4 -1 12 -12 19 -10 6 -30 20
-45 31 -14 11 -44 28 -65 38 l-39 18 15 -23z"/>
<path d="M2365 6117 c0 -12 4 -28 8 -34 4 -7 3 -21 -2 -32 -8 -13 -7 -36 1
-75 12 -61 7 -76 -20 -60 -9 5 -26 8 -37 6 -16 -2 -20 -11 -20 -45 0 -23 -4
-51 -9 -62 -5 -11 -8 -28 -7 -37 3 -22 -35 -32 -95 -25 -31 3 -44 1 -44 -8 0
-7 -9 -15 -20 -18 -12 -3 -20 -14 -20 -27 0 -28 -26 -21 -95 25 -114 75 -164
83 -85 13 95 -83 157 -99 274 -68 44 11 92 20 107 20 45 0 129 -36 209 -89 49
-32 79 -46 86 -40 12 10 42 8 62 -4 7 -5 12 -3 12 5 0 8 -18 22 -40 32 -55 24
-140 98 -169 147 -22 37 -24 53 -25 167 -1 109 -5 133 -23 168 -28 53 -49 71
-48 41z"/>
<path d="M3225 6050 c-3 -5 -2 -10 4 -10 5 0 13 5 16 10 3 6 2 10 -4 10 -5 0
-13 -4 -16 -10z"/>
<path d="M7956 6033 c-6 -14 -5 -15 5 -6 7 7 10 15 7 18 -3 3 -9 -2 -12 -12z"/>
<path d="M1938 5963 c-16 -18 -22 -36 -19 -63 1 -8 10 5 21 29 22 49 21 60 -2
34z"/>
<path d="M7364 5956 c11 -9 25 -16 31 -16 30 0 105 -109 105 -152 0 -15 4 -29
10 -33 5 -3 7 -12 3 -20 -3 -10 1 -15 13 -15 16 0 17 2 4 10 -13 9 -13 10 0
10 12 0 12 2 2 8 -10 7 -8 14 8 34 25 32 25 64 1 120 -24 56 -44 74 -60 54
-14 -16 -75 -14 -113 4 -22 11 -22 10 -4 -4z"/>
<path d="M2900 5871 c0 -10 39 -36 45 -29 2 2 -8 11 -21 21 -13 10 -24 13 -24
8z"/>
<path d="M8261 5772 c0 -18 -10 -52 -22 -75 -20 -42 -20 -42 0 -17 11 14 21
28 21 32 0 4 13 14 28 22 17 9 28 23 29 37 1 13 -1 19 -5 14 -12 -18 -40 -16
-45 2 -3 10 -5 3 -6 -15z"/>
<path d="M2208 5763 c7 -3 16 -2 19 1 4 3 -2 6 -13 5 -11 0 -14 -3 -6 -6z"/>
<path d="M4110 5710 c-13 -9 -12 -11 5 -9 34 2 41 -1 25 -12 -13 -9 -13 -10 0
-6 8 2 15 10 15 18 0 17 -25 22 -45 9z"/>
<path d="M7518 5703 c7 -3 16 -2 19 1 4 3 -2 6 -13 5 -11 0 -14 -3 -6 -6z"/>
<path d="M2746 5685 c-13 -10 -15 -15 -6 -15 7 0 10 -3 7 -6 -4 -4 -13 -2 -20
4 -8 7 -17 9 -20 5 -4 -3 -7 -1 -7 5 0 7 -7 12 -16 12 -14 0 -15 -2 -3 -17 10
-12 11 -17 2 -20 -21 -7 -2 -33 38 -54 37 -18 44 -17 39 6 -1 6 11 -2 27 -17
28 -27 29 -27 41 -8 7 11 18 20 26 20 10 0 14 12 13 40 -2 34 -6 42 -26 47
-13 3 -33 0 -43 -6 -11 -7 -23 -10 -26 -7 -3 3 0 6 7 6 7 0 9 5 6 10 -8 13
-16 12 -39 -5z"/>
<path d="M3320 5689 c-13 -6 -33 -19 -44 -31 -19 -20 -19 -21 -1 -34 24 -18
35 -18 35 1 0 8 6 15 13 15 12 1 67 45 67 55 0 8 -43 5 -70 -6z"/>
<path d="M4045 5690 c-13 -6 -15 -9 -5 -9 8 0 22 4 30 9 18 12 2 12 -25 0z"/>
<path d="M6397 5670 c5 -18 -39 -70 -58 -70 -13 0 -65 -61 -61 -72 1 -4 -24
-8 -55 -8 -32 -1 -142 -9 -245 -19 l-186 -17 -39 -35 c-83 -75 -203 -143 -328
-184 -181 -60 -548 -40 -734 42 -63 27 -84 29 -102 7 -14 -17 -50 -17 -266 2
l-72 7 6 -24 c3 -13 10 -29 15 -35 5 -7 6 -28 4 -48 -5 -44 0 -47 114 -70 237
-48 510 -70 850 -70 359 0 478 12 518 51 55 55 151 69 229 33 44 -19 66 -18
136 11 22 9 27 18 27 48 0 42 27 106 66 157 44 57 141 104 158 76 2 -4 26 -23
52 -42 26 -18 44 -28 40 -22 -6 11 0 14 21 11 14 -2 23 31 13 50 -22 43 3 146
45 181 16 13 16 14 -2 21 -36 15 -46 10 -39 -17 5 -18 3 -24 -5 -19 -6 4 -9
19 -6 35 4 17 1 27 -6 28 -7 0 -31 2 -53 5 -35 3 -41 2 -37 -13z m101 -245
c-3 -3 -9 2 -12 12 -6 14 -5 15 5 6 7 -7 10 -15 7 -18z m-28 4 c12 -8 10 -9
-9 -4 -17 5 -22 4 -16 -5 5 -9 4 -11 -4 -6 -6 4 -9 12 -6 17 8 12 16 11 35 -2z"/>
<path d="M3935 5650 c-13 -6 -15 -9 -5 -9 8 0 22 4 30 9 18 12 2 12 -25 0z"/>
<path d="M4163 5646 c2 -5 15 -10 31 -12 22 -2 25 0 16 11 -12 15 -52 16 -47
1z"/>
<path d="M3902 5616 c7 -7 19 -11 27 -8 11 4 10 7 -5 13 -29 12 -36 10 -22 -5z"/>
<path d="M4220 5609 c-13 -8 -12 -9 2 -7 9 2 17 -1 18 -7 2 -11 29 -29 36 -23
2 3 -6 14 -19 26 -16 15 -26 18 -37 11z"/>
<path d="M3284 5590 c-14 -14 -127 -80 -137 -80 -4 0 -5 6 -1 13 5 8 3 8 -9
-2 -11 -9 -28 -11 -53 -6 -24 4 -34 3 -29 -4 3 -6 17 -11 29 -11 31 0 89 -25
106 -44 14 -17 35 -22 25 -6 -3 6 1 7 9 4 9 -4 16 -1 16 6 0 6 6 10 13 7 8 -2
18 19 28 62 18 70 18 76 3 61z m-74 -110 c0 -5 -2 -10 -4 -10 -3 0 -8 5 -11
10 -3 6 -1 10 4 10 6 0 11 -4 11 -10z"/>
<path d="M2690 5582 c0 -12 19 -26 26 -19 2 2 -2 10 -11 17 -9 8 -15 8 -15 2z"/>
<path d="M3800 5549 c-12 -16 -19 -33 -16 -36 3 -4 7 -4 9 -2 1 2 12 19 25 37
12 17 18 32 13 32 -5 0 -19 -14 -31 -31z"/>
<path d="M7932 5571 c-11 -6 -10 -10 4 -15 20 -8 32 0 18 14 -5 5 -15 5 -22 1z"/>
<path d="M2735 5560 c-3 -5 1 -10 9 -10 9 0 16 5 16 10 0 6 -4 10 -9 10 -6 0
-13 -4 -16 -10z"/>
<path d="M2841 5542 c-8 -14 -11 -14 -26 -2 -15 13 -16 11 -10 -23 5 -25 4
-37 -4 -37 -6 0 -11 9 -11 20 0 13 -5 18 -15 14 -8 -4 -15 -10 -15 -16 0 -5
-7 -16 -15 -24 -11 -11 -19 -12 -34 -5 -14 8 -20 8 -23 -1 -3 -7 -19 -13 -37
-14 -19 -1 -37 -7 -41 -14 -4 -7 -12 -10 -18 -6 -5 3 -12 -5 -14 -18 -4 -19
-1 -23 11 -19 9 4 22 10 29 16 6 5 12 6 12 2 0 -4 7 -2 15 5 9 7 17 11 18 9 1
-2 9 -13 17 -23 10 -13 10 -17 3 -12 -18 10 -16 -2 2 -20 8 -9 15 -27 15 -42
-1 -28 -30 -72 -49 -72 -6 0 -11 -4 -11 -9 0 -5 -13 -14 -30 -20 -31 -10 -38
-25 -18 -37 8 -5 6 -10 -5 -19 -14 -10 -14 -15 -3 -37 11 -20 11 -29 2 -38 -8
-10 -6 -10 10 -2 11 6 30 9 41 6 14 -4 29 2 43 16 18 18 24 20 31 9 6 -11 10
-11 19 -1 5 6 7 10 4 7 -4 -3 -13 0 -20 5 -6 6 -16 10 -20 9 -5 -1 -22 3 -37
9 -16 7 -33 12 -38 12 -6 0 -6 8 1 20 12 23 32 27 24 5 -5 -11 1 -15 25 -15
53 0 121 43 121 76 0 2 -10 0 -22 -4 -13 -5 -36 -6 -52 -3 -28 6 -28 6 18 25
49 20 59 40 26 51 -25 8 -26 21 -1 34 10 6 24 24 31 41 9 23 17 29 29 24 9 -4
35 -6 59 -6 23 1 42 -3 42 -8 0 -6 7 -10 15 -10 21 0 19 -26 -2 -40 -17 -11
-17 -11 -1 -6 24 7 47 -32 27 -45 -13 -8 -72 -14 -94 -9 -5 1 -6 -2 -2 -7 5
-4 16 -8 25 -8 12 0 17 -8 17 -27 -1 -28 10 -35 30 -20 6 4 10 16 10 26 0 11
6 21 14 24 10 3 12 -2 7 -22 -9 -37 6 -32 47 13 19 22 38 37 41 33 12 -11 6
-35 -11 -49 -16 -12 -15 -13 10 -7 15 3 33 2 40 -4 13 -11 116 -52 131 -52 25
0 -24 32 -70 46 -30 8 -54 19 -54 23 0 12 26 32 33 25 3 -3 15 0 27 6 12 6 20
13 18 15 -9 10 -149 42 -171 39 -24 -2 -37 14 -41 51 -1 6 -8 13 -16 16 -8 3
-15 19 -15 34 0 25 -4 29 -27 28 -41 -1 -42 -2 -28 -18 18 -22 -4 -19 -23 3
-17 19 -23 51 -9 53 45 6 80 3 94 -8 9 -8 30 -17 46 -19 24 -4 31 -1 35 16 4
16 2 20 -9 16 -8 -3 -32 1 -52 10 -55 23 -110 26 -121 6z m-21 -86 c0 -2 -21
-16 -47 -31 -44 -27 -47 -27 -60 -9 -23 31 -11 48 15 22 10 -10 15 -10 20 -1
4 6 18 13 32 16 14 2 28 5 33 6 4 0 7 -1 7 -3z m189 -127 c-22 -13 -31 -11
-17 5 7 8 17 12 22 9 4 -3 2 -9 -5 -14z"/>
<path d="M2605 5540 c3 -5 14 -10 23 -10 15 0 15 2 2 10 -20 13 -33 13 -25 0z"/>
<path d="M1733 5515 c15 -14 34 -25 41 -25 8 0 27 -7 42 -15 l29 -15 -25 -1
-25 -1 25 -8 c14 -4 -12 -5 -59 -2 -62 4 -82 2 -77 -6 4 -7 31 -12 59 -12 l52
0 -35 -30 c-31 -26 -55 -35 -82 -31 -5 0 -8 -4 -8 -9 0 -6 -12 -8 -27 -5 -16
2 -8 -2 17 -10 70 -24 161 -2 209 49 17 18 36 26 60 27 l36 1 -43 10 c-24 5
-40 14 -36 19 8 13 -31 55 -70 74 -16 8 -48 15 -70 15 l-41 -1 28 -24z"/>
<path d="M2228 5524 c-63 -19 -61 -33 5 -28 36 2 46 1 32 -6 -17 -7 -18 -9 -2
-9 9 -1 17 -5 17 -11 0 -5 19 -11 43 -11 29 -2 34 -3 15 -6 -16 -2 -28 -7 -28
-11 1 -19 20 -27 67 -29 44 -2 54 1 63 17 9 17 21 20 70 20 43 0 60 4 60 13 0
10 -16 12 -66 9 -56 -4 -68 -1 -87 16 -28 26 -89 52 -119 51 -13 0 -44 -7 -70
-15z m192 -78 c-4 -4 -16 -4 -26 2 -16 9 -14 10 8 9 15 -1 23 -6 18 -11z"/>
<path d="M4592 5531 c-10 -6 -7 -10 13 -15 15 -4 30 -5 33 -1 3 3 -2 5 -12 5
-9 0 -14 5 -11 10 8 12 -5 13 -23 1z"/>
<path d="M2666 5522 c-3 -6 -1 -14 5 -17 14 -9 20 -2 10 14 -6 8 -11 9 -15 3z"/>
<path d="M2710 5510 c0 -5 7 -10 15 -10 8 0 15 5 15 10 0 6 -7 10 -15 10 -8 0
-15 -4 -15 -10z"/>
<path d="M2600 5505 c0 -8 27 -35 34 -35 14 0 4 20 -14 30 -11 6 -20 8 -20 5z"/>
<path d="M7068 5473 c6 -2 18 -2 25 0 6 3 1 5 -13 5 -14 0 -19 -2 -12 -5z"/>
<path d="M3257 5444 c-12 -12 -8 -82 6 -91 13 -8 47 -15 47 -9 0 16 -47 105
-53 100z"/>
<path d="M2155 5431 c-3 -6 8 -8 26 -6 43 6 50 15 11 15 -17 0 -33 -4 -37 -9z"/>
<path d="M2258 5433 c7 -3 16 -2 19 1 4 3 -2 6 -13 5 -11 0 -14 -3 -6 -6z"/>
<path d="M3036 5422 c-3 -5 8 -7 23 -4 15 2 45 -3 65 -12 50 -21 56 -20 27 4
-24 20 -105 28 -115 12z"/>
<path d="M7765 5420 c-3 -5 -1 -10 4 -10 6 0 11 5 11 10 0 6 -2 10 -4 10 -3 0
-8 -4 -11 -10z"/>
<path d="M2126 5385 c-16 -16 -14 -19 35 -41 78 -36 153 -20 107 23 -32 30
-119 40 -142 18z"/>
<path d="M2370 5371 c0 -4 6 -13 13 -20 10 -11 8 -15 -7 -25 -10 -6 -31 -22
-45 -34 -25 -23 -25 -23 -1 -8 29 19 81 21 99 4 10 -11 16 -8 29 12 10 14 26
35 38 47 l21 21 -30 6 c-19 4 -33 2 -38 -6 -6 -9 -16 -9 -43 -1 -20 6 -36 8
-36 4z"/>
<path d="M7713 5355 c-60 -22 -88 -20 -40 3 21 10 20 11 -10 11 -42 1 -46 -17
-10 -58 16 -19 33 -46 39 -62 5 -15 19 -30 31 -33 89 -26 181 -44 229 -45 38
0 67 -7 90 -21 18 -11 29 -20 25 -20 -14 0 115 -110 161 -137 66 -39 58 -23
-15 32 -37 28 -68 56 -71 64 -3 8 0 11 7 7 6 -4 11 -4 11 0 0 10 -43 79 -52
82 -5 2 -6 7 -3 12 3 4 -1 21 -8 36 -12 29 -13 29 -107 33 -55 2 -106 9 -122
17 -29 15 -78 73 -78 92 0 15 -1 15 -77 -13z m330 -162 c-7 -2 -19 -2 -25 0
-7 3 -2 5 12 5 14 0 19 -2 13 -5z"/>
<path d="M3204 5311 c4 -6 16 -16 28 -22 15 -8 18 -8 14 0 -4 6 -16 16 -28 22
-15 8 -18 8 -14 0z"/>
<path d="M8374 5292 c3 -6 64 -8 160 -5 147 5 156 4 182 -16 28 -22 50 -28 39
-11 -3 6 -1 10 6 10 10 0 10 3 1 12 -16 16 -398 26 -388 10z"/>
<path d="M2837 5283 c-10 -10 -8 -43 2 -43 5 0 8 11 7 25 0 14 -1 25 -2 25 0
0 -4 -3 -7 -7z"/>
<path d="M2880 5270 c-9 -6 -10 -10 -3 -10 6 0 15 5 18 10 8 12 4 12 -15 0z"/>
<path d="M6723 5265 c-7 -7 -14 -33 -15 -57 -3 -44 -27 -85 -36 -60 -3 10 -8
10 -21 -2 -10 -9 -35 -22 -57 -30 l-39 -14 62 5 c46 4 75 1 108 -11 41 -16 46
-16 67 -2 25 18 48 21 48 6 0 -5 -11 -12 -25 -16 -14 -3 -25 -9 -25 -13 0 -9
70 -49 85 -50 39 0 107 -15 122 -26 16 -12 12 -13 -27 -8 -25 2 -58 9 -74 14
-26 8 -28 7 -22 -14 3 -12 6 -25 6 -28 0 -4 28 -10 63 -14 34 -5 52 -10 39
-13 -17 -3 -22 -9 -20 -25 3 -19 8 -22 44 -19 49 4 63 -11 38 -39 -11 -13 -13
-19 -4 -19 7 0 10 -7 6 -16 -3 -8 -2 -12 4 -9 6 3 10 1 10 -4 0 -6 -8 -11 -17
-11 -15 0 -15 -2 -4 -9 10 -7 24 -3 42 10 15 10 34 16 43 13 9 -3 23 -1 31 6
25 21 159 19 182 -2 72 -68 104 -90 120 -83 10 4 13 9 8 11 -6 2 -9 21 -7 42
2 25 -4 45 -16 61 -18 22 -22 23 -52 12 -18 -6 -44 -11 -57 -11 -42 0 -153 66
-153 92 0 4 12 8 28 8 24 1 22 4 -23 27 -48 25 -49 27 -25 34 23 6 23 7 -7 8
-18 1 -33 6 -33 12 0 7 -10 9 -27 4 l-28 -7 23 24 c32 35 28 43 -26 45 -26 1
-67 9 -91 18 -24 8 -52 15 -62 15 -11 0 -19 3 -19 8 0 4 -7 15 -14 25 -13 16
-17 16 -71 -8 -32 -14 -60 -23 -63 -21 -3 3 12 13 34 21 65 26 84 38 84 52 0
14 -10 16 -34 7 -9 -3 -14 -10 -11 -14 3 -5 -4 -6 -15 -3 -11 3 -20 1 -20 -3
0 -5 -13 -9 -29 -10 -32 -1 -32 0 -15 84 5 25 4 26 -13 7z m352 -295 l20 -9
-20 0 c-11 0 -29 4 -40 9 l-20 9 20 0 c11 0 29 -4 40 -9z m85 -36 c22 -21 -1
-17 -35 7 -28 19 -28 20 -5 14 14 -4 32 -13 40 -21z m1 -40 c42 -45 6 -42 -41
3 -44 42 -44 43 -14 32 17 -5 42 -21 55 -35z m276 -69 c3 -9 2 -19 -1 -23 -8
-8 -38 10 -44 26 -6 18 38 14 45 -3z m13 -44 c0 -5 -7 -11 -14 -14 -10 -4 -13
-1 -9 9 6 15 23 19 23 5z"/>
<path d="M2255 5243 c-22 -9 -41 -20 -43 -25 -2 -4 -11 -8 -21 -8 -9 0 -22 -5
-27 -10 -8 -8 -24 -6 -55 4 -52 19 -59 19 -59 6 0 -5 11 -10 25 -10 28 0 31
-9 13 -29 -11 -11 -9 -11 9 -2 12 6 35 9 52 7 17 -2 40 3 51 11 26 18 26 3 0
-30 -11 -14 -23 -38 -26 -54 -17 -82 -106 -119 -229 -94 l-40 8 28 12 c28 11
32 31 9 39 -7 2 -16 -8 -22 -22 -5 -14 -15 -26 -22 -26 -7 0 1 -9 17 -20 17
-11 26 -20 20 -21 -5 0 -1 -4 10 -9 29 -12 79 -12 92 1 6 6 30 15 54 20 60 14
109 62 109 107 0 18 7 40 15 48 8 9 15 11 15 6 0 -5 13 -9 29 -9 27 0 28 2 18
24 -7 17 -8 27 0 31 10 7 33 46 33 56 0 9 -11 7 -55 -11z m-65 -47 c0 -3 -4
-8 -10 -11 -5 -3 -10 -1 -10 4 0 6 5 11 10 11 6 0 10 -2 10 -4z"/>
<path d="M3220 5250 c0 -5 5 -10 11 -10 5 0 7 5 4 10 -3 6 -8 10 -11 10 -2 0
-4 -4 -4 -10z"/>
<path d="M6668 5222 c-2 -24 0 -46 4 -48 12 -8 20 40 10 66 -9 23 -10 21 -14
-18z"/>
<path d="M8460 5228 c11 -12 20 -27 20 -34 0 -13 29 -28 38 -19 3 3 0 5 -7 5
-7 0 -10 4 -7 9 4 5 0 12 -6 15 -7 3 1 3 17 0 29 -5 29 -5 -10 20 -50 32 -73
34 -45 4z"/>
<path d="M2323 5225 c-3 -9 -3 -18 -1 -21 3 -3 8 4 11 16 6 23 -1 27 -10 5z"/>
<path d="M2465 5229 c-11 -4 -15 -8 -10 -9 54 -7 65 -8 65 0 0 12 -33 18 -55
9z"/>
<path d="M2396 5214 c-4 -9 -4 -19 -1 -22 3 -3 5 -1 5 5 0 6 7 10 16 9 9 0 19
5 21 12 7 19 -34 15 -41 -4z"/>
<path d="M2830 5205 c-17 -18 -26 -22 -31 -13 -6 9 -14 9 -35 0 l-27 -13 20
-22 c11 -12 26 -33 33 -46 16 -30 0 -47 -55 -56 -36 -7 -38 -6 -21 7 29 23 1
34 -31 13 -15 -10 -49 -26 -77 -36 -65 -22 -68 -44 -6 -44 25 0 51 -4 59 -9
10 -6 19 -3 29 10 10 14 16 15 19 6 9 -23 61 -44 83 -32 16 9 20 8 20 -5 0 -9
5 -13 11 -10 6 4 8 13 6 19 -3 7 5 25 17 41 17 21 27 26 44 21 29 -10 28 -18
-6 -38 -30 -18 -60 -64 -48 -75 4 -4 11 -1 16 7 8 13 10 12 10 -2 0 -9 3 -24
6 -32 5 -12 2 -15 -12 -9 -12 4 -15 3 -10 -5 4 -7 1 -12 -7 -12 -8 0 -20 -7
-27 -15 -7 -9 -15 -13 -18 -10 -3 3 -15 -4 -27 -15 -11 -10 -45 -25 -74 -33
-40 -10 -49 -15 -33 -19 11 -3 23 -3 27 0 3 3 26 5 50 3 39 -2 44 0 38 15 -6
15 -2 16 33 10 21 -4 46 -8 54 -8 8 0 23 -8 33 -16 12 -11 37 -16 73 -16 30 0
54 -3 54 -6 0 -3 54 -6 120 -8 107 -3 119 -1 113 14 -12 31 75 82 92 54 8 -13
35 6 35 25 0 17 -60 75 -77 75 -7 0 -13 -9 -13 -19 0 -18 -2 -19 -30 -5 -33
17 -50 19 -130 15 -41 -2 -50 -5 -35 -11 11 -5 37 -9 57 -9 21 -1 55 -8 76
-16 22 -9 43 -15 48 -13 5 2 10 -1 11 -7 6 -24 -48 -23 -91 1 -27 15 -56 23
-77 22 -26 -2 -36 2 -43 18 -9 21 -19 27 -86 60 l-35 17 35 10 c20 5 29 11 20
14 -88 26 -109 54 -70 93 23 23 50 26 68 8 9 -9 15 -10 20 -2 20 31 102 41
102 13 0 -13 68 -11 76 2 4 8 -3 9 -23 5 -21 -5 -34 -2 -43 9 -11 13 -9 15 11
15 23 1 23 1 5 15 -18 14 -18 15 10 25 l29 12 -26 13 c-29 16 -44 15 -79 -5
-14 -8 -32 -15 -41 -16 -8 -1 -32 -4 -51 -8 -30 -5 -37 -3 -40 11 -4 19 -44
-82 -42 -104 2 -18 -13 -16 -20 3 -11 29 -6 79 11 104 16 24 16 24 0 11 -13
-10 -17 -10 -17 -1 0 7 -7 10 -16 6 -8 -3 -12 -2 -9 3 13 22 -14 18 -35 -4z
m73 -287 c3 -9 0 -22 -8 -28 -10 -8 -13 -6 -12 12 1 13 -3 34 -7 48 -7 24 -7
24 6 5 8 -11 17 -28 21 -37z m98 5 c13 -17 13 -17 -6 -3 -11 8 -22 16 -24 17
-2 2 0 3 6 3 6 0 17 -8 24 -17z m194 -84 c11 -10 -55 -12 -80 -3 -13 5 -14 9
-4 15 15 9 69 1 84 -12z"/>
<path d="M3455 5200 c3 -5 14 -10 23 -10 15 0 15 2 2 10 -20 13 -33 13 -25 0z"/>
<path d="M7700 5180 c0 -11 7 -20 15 -20 13 0 14 4 5 20 -6 11 -13 20 -15 20
-3 0 -5 -9 -5 -20z"/>
<path d="M1959 5175 c-1 -3 -2 -10 -3 -16 0 -7 -10 -15 -21 -19 -17 -6 -16 -8
9 -14 19 -5 26 -11 22 -22 -5 -12 -2 -13 15 -2 12 7 31 19 43 25 l21 13 -22 0
c-13 0 -32 9 -43 20 -11 11 -21 18 -21 15z"/>
<path d="M1683 5156 c15 -16 99 -46 125 -46 15 1 15 2 -2 12 -23 13 -117 48
-129 48 -5 0 -2 -6 6 -14z"/>
<path d="M2436 5115 c-13 -19 -14 -30 -6 -45 18 -33 29 -23 27 25 -1 25 -3 45
-3 45 -1 0 -9 -11 -18 -25z"/>
<path d="M3668 5079 c55 -52 78 -59 48 -14 -20 31 -14 31 31 4 19 -12 37 -19
40 -15 10 9 94 -57 89 -70 -8 -21 61 -74 95 -74 24 0 30 -4 25 -15 -5 -13 3
-16 44 -14 31 2 50 7 50 15 0 6 7 17 15 24 12 10 15 10 15 -3 0 -9 -5 -19 -12
-23 -8 -5 -6 -10 8 -15 13 -4 26 0 41 13 14 13 29 18 39 14 14 -5 11 -10 -17
-25 -19 -10 -47 -21 -64 -26 l-30 -8 33 -9 c18 -5 38 -17 45 -28 6 -11 16 -20
21 -20 5 0 2 8 -7 18 -21 23 -22 42 -2 42 8 0 15 -4 15 -10 0 -20 15 -9 28 20
8 17 20 30 28 30 18 0 18 -4 -1 -40 -16 -31 -6 -41 15 -15 7 8 23 15 36 15 14
0 24 6 24 14 0 11 13 13 63 9 34 -2 69 -7 77 -11 8 -3 29 -6 45 -6 25 -1 31
-6 33 -27 2 -15 11 -33 20 -41 24 -21 135 -44 140 -29 2 6 16 11 30 11 24 1
25 2 8 11 -10 6 -40 9 -67 7 -62 -6 -65 7 -4 17 57 8 117 -9 108 -32 -5 -13
-3 -13 15 -4 11 6 48 11 82 11 l62 0 -7 -27 -7 -28 29 27 c25 24 39 28 93 30
l65 3 -3 -33 c-2 -30 0 -32 17 -22 11 5 23 15 26 20 3 6 16 10 28 10 18 0 14
-5 -18 -25 -27 -16 -34 -24 -21 -25 10 0 31 11 48 25 32 27 28 32 -32 37 l-35
3 55 33 c48 29 61 33 106 28 29 -2 69 -13 90 -24 l38 -19 -24 -13 c-15 -8 -47
-11 -92 -8 -58 5 -66 3 -51 -8 10 -7 27 -14 38 -14 11 0 31 -7 44 -16 21 -15
24 -15 52 12 29 28 42 19 13 -10 -14 -15 -14 -16 3 -16 27 0 114 28 140 46 15
9 40 14 66 12 l42 -3 -72 -42 c-39 -24 -77 -41 -85 -38 -7 3 -33 1 -58 -3
l-45 -9 28 -11 c16 -7 43 -12 61 -12 18 0 47 -5 64 -11 28 -9 36 -7 71 18 22
15 45 38 51 51 8 20 15 22 40 17 25 -5 29 -4 24 9 -8 21 1 20 46 -5 39 -22 70
-65 63 -86 -6 -16 2 -16 28 -2 20 10 20 11 -5 36 -35 35 -36 83 -2 83 33 0 45
-19 39 -63 -3 -29 -1 -37 10 -37 19 0 47 27 47 45 0 7 18 29 40 49 22 20 35
36 29 36 -6 0 -17 -7 -25 -15 -17 -17 -39 -21 -29 -5 3 6 -3 10 -15 10 -12 0
-19 -4 -16 -9 4 -5 -7 -6 -26 0 -18 4 -49 11 -68 14 -41 6 -106 63 -125 110
l-13 29 -473 1 c-486 0 -652 10 -929 51 -131 20 -395 77 -475 102 -33 11 -77
22 -97 25 -31 5 -36 3 -31 -11 3 -10 -1 -8 -11 6 -10 12 -27 22 -39 22 -19 0
-14 -8 31 -51z m922 -253 c0 -8 -4 -17 -9 -21 -12 -7 -24 12 -16 25 9 15 25
12 25 -4z m1105 -56 c-3 -5 -15 -10 -26 -10 -10 0 -19 5 -19 10 0 6 12 10 26
10 14 0 23 -4 19 -10z m-70 -50 c-3 -5 -12 -10 -18 -10 -7 0 -6 4 3 10 19 12
23 12 15 0z m305 3 c0 -5 -5 -15 -10 -23 -7 -12 -9 -10 -7 8 1 19 17 33 17 15z
m-353 -19 c-3 -3 -12 -4 -19 -1 -8 3 -5 6 6 6 11 1 17 -2 13 -5z"/>
<path d="M8411 5111 c-9 -15 -6 -22 12 -34 12 -8 33 -17 46 -22 34 -10 18 10
-20 25 -22 10 -29 18 -26 32 7 23 0 23 -12 -1z"/>
<path d="M1850 5110 c0 -5 7 -10 16 -10 8 0 12 5 9 10 -3 6 -10 10 -16 10 -5
0 -9 -4 -9 -10z"/>
<path d="M3527 5104 c3 -10 2 -15 -3 -12 -5 3 -9 -9 -10 -28 -1 -40 8 -43 30
-10 11 18 12 26 3 29 -6 2 -9 8 -4 12 4 5 40 -8 79 -28 l72 -37 -29 30 c-16
17 -47 35 -70 41 -22 5 -48 12 -57 15 -14 4 -16 1 -11 -12z"/>
<path d="M2260 5095 c-21 -25 -1 -31 23 -7 17 18 18 22 5 22 -8 0 -21 -7 -28
-15z"/>
<path d="M3085 5090 c-8 -13 5 -13 25 0 13 8 13 10 -2 10 -9 0 -20 -4 -23 -10z"/>
<path d="M6510 5090 c-18 -12 -2 -12 25 0 13 6 15 9 5 9 -8 0 -22 -4 -30 -9z"/>
<path d="M7675 5093 c-11 -3 -27 -11 -35 -19 -33 -28 -85 -43 -123 -34 -40 9
-40 8 -37 -32 1 -16 -5 -41 -12 -56 l-14 -28 39 -1 c47 -2 81 -30 98 -80 9
-28 14 -33 32 -27 12 4 31 7 41 6 11 0 27 3 37 8 14 8 20 3 33 -25 11 -22 32
-43 56 -55 48 -25 62 -25 83 -2 14 15 15 24 5 48 -9 26 -20 33 -74 48 -35 10
-75 15 -89 12 -22 -6 -25 -3 -25 18 0 24 -44 65 -92 86 -23 10 -22 10 2 5 14
-4 42 -11 64 -16 44 -11 52 -8 41 18 -4 10 -7 44 -5 76 1 31 0 56 -2 56 -2 -1
-12 -4 -23 -6z m-122 -90 c-7 -2 -19 -2 -25 0 -7 3 -2 5 12 5 14 0 19 -2 13
-5z m242 -173 c3 -5 -1 -10 -9 -10 -9 0 -16 5 -16 10 0 6 4 10 9 10 6 0 13 -4
16 -10z m40 -30 c-4 -11 -3 -20 2 -19 24 4 25 -3 3 -14 -17 -9 -33 -11 -52 -4
-36 12 -35 21 5 41 42 21 50 20 42 -4z"/>
<path d="M1782 5072 c-18 -12 97 -24 117 -12 13 8 11 9 -9 10 -14 0 -41 3 -60
5 -19 3 -41 2 -48 -3z"/>
<path d="M2390 5070 c0 -6 7 -10 15 -10 8 0 15 2 15 4 0 2 -7 6 -15 10 -8 3
-15 1 -15 -4z"/>
<path d="M8391 5066 c10 -9 69 -36 69 -32 0 6 -55 36 -66 36 -4 0 -5 -2 -3 -4z"/>
<path d="M1513 5053 c-15 -5 -17 -23 -4 -23 5 0 11 7 15 15 3 8 4 15 3 14 -1
0 -8 -3 -14 -6z"/>
<path d="M1700 5050 c8 -5 24 -10 34 -10 26 0 18 6 -19 14 -22 5 -26 4 -15 -4z"/>
<path d="M3596 5035 c16 -14 45 -28 64 -31 19 -3 47 -8 63 -10 16 -3 27 -1 27
5 0 6 -20 11 -48 11 -34 0 -58 7 -84 25 -47 32 -59 32 -22 0z"/>
<path d="M3226 5026 c6 -15 60 -29 77 -19 6 3 7 1 3 -5 -5 -8 0 -12 13 -12 11
0 25 10 32 21 11 21 10 22 -40 15 -30 -4 -59 -2 -71 4 -16 8 -18 8 -14 -4z"/>
<path d="M3370 5033 c1 -10 26 -43 32 -43 3 0 3 11 0 25 -4 22 -33 37 -32 18z"/>
<path d="M6420 5015 c-25 -26 -21 -32 9 -15 20 10 36 40 22 40 -4 0 -18 -11
-31 -25z"/>
<path d="M8291 5037 c2 -1 12 -9 22 -16 15 -12 17 -12 11 3 -3 9 -13 16 -22
16 -8 0 -13 -1 -11 -3z"/>
<path d="M2249 5017 c-1 -4 -2 -10 -3 -14 -4 -21 -20 -33 -45 -33 -34 0 -125
-56 -115 -71 3 -6 9 -7 13 -2 22 31 104 73 86 43 -8 -14 37 -13 72 2 21 8 24
12 11 15 -14 4 -15 8 -5 23 9 15 9 22 -1 32 -6 6 -13 9 -13 5z"/>
<path d="M2484 5003 c-17 -8 -36 -24 -43 -35 -11 -18 -10 -18 10 -8 11 7 30 9
41 7 20 -6 32 11 26 36 -3 12 -7 12 -34 0z"/>
<path d="M3481 5007 c-8 -11 -5 -14 19 -14 24 0 27 3 19 14 -6 7 -15 13 -19
13 -4 0 -13 -6 -19 -13z"/>
<path d="M3560 5009 c0 -5 5 -7 10 -4 6 3 10 8 10 11 0 2 -4 4 -10 4 -5 0 -10
-5 -10 -11z"/>
<path d="M5597 4994 c-2 -2 -246 -13 -532 -24 -175 -6 -162 -7 166 -8 196 -1
377 1 403 4 59 9 64 34 6 31 -23 -1 -42 -2 -43 -3z"/>
<path d="M6180 4993 c0 -4 5 -15 10 -23 8 -13 10 -13 10 2 0 9 -4 20 -10 23
-5 3 -10 3 -10 -2z"/>
<path d="M3377 4964 c-11 -11 3 -23 19 -17 8 3 24 -3 34 -12 26 -23 34 -15 14
13 -14 21 -53 30 -67 16z"/>
<path d="M3505 4961 c-11 -5 -23 -7 -27 -4 -13 7 -9 -15 3 -23 6 -3 21 3 32
15 23 23 22 24 -8 12z"/>
<path d="M3716 4961 c-4 -5 -13 -8 -21 -4 -22 8 -18 -11 5 -32 18 -17 19 -20
6 -41 -14 -20 -13 -22 3 -27 10 -2 43 0 74 6 31 6 59 8 62 6 2 -3 0 -20 -5
-38 -6 -22 -6 -40 1 -52 7 -15 6 -19 -6 -19 -8 0 -15 -5 -15 -10 0 -6 -9 -30
-20 -52 -11 -23 -18 -43 -16 -45 2 -2 15 1 30 7 15 5 35 10 44 9 14 0 14 -2 2
-6 -8 -3 -28 -17 -45 -31 -22 -18 -25 -23 -10 -19 51 15 93 18 100 7 5 -8 12
-7 26 6 14 13 32 15 77 12 48 -3 62 -1 70 12 6 10 30 27 54 39 l43 22 -66 -7
c-42 -4 -69 -3 -73 4 -6 11 44 32 75 32 20 0 25 15 9 25 -12 7 -80 -11 -136
-36 -65 -30 -71 -22 -9 11 31 17 63 30 69 30 7 0 27 7 45 16 18 9 41 14 52 11
10 -3 17 -1 13 4 -8 13 -98 11 -111 -2 -8 -8 -17 -8 -30 -1 -20 12 -17 14 42
27 17 4 24 10 17 12 -24 9 -107 -18 -124 -40 -13 -17 -20 -19 -29 -10 -10 10
-10 18 -1 38 7 15 10 31 6 36 -3 5 -34 22 -69 38 -34 16 -67 36 -71 44 -11 19
-60 32 -68 18z m29 -12 c10 -15 -1 -23 -20 -15 -9 3 -13 10 -10 16 8 13 22 13
30 -1z m15 -59 c0 -5 -4 -10 -10 -10 -5 0 -10 5 -10 10 0 6 5 10 10 10 6 0 10
-4 10 -10z m285 -220 c4 -6 -7 -10 -24 -10 -17 0 -31 5 -31 10 0 6 11 10 24
10 14 0 28 -4 31 -10z"/>
<path d="M2353 4948 c-6 -7 -12 -19 -15 -27 -2 -8 -15 -16 -29 -18 -49 -6 -70
-14 -64 -23 3 -5 1 -11 -5 -15 -16 -10 -12 -22 10 -28 13 -3 21 1 25 14 4 10
15 19 26 19 23 0 24 -8 2 -32 -13 -14 -13 -18 -2 -18 24 0 40 16 33 33 -6 16
8 22 44 18 15 -2 15 -6 -1 47 -10 34 -16 41 -24 30z"/>
<path d="M8006 4923 c-6 -15 8 -32 25 -33 14 0 19 34 7 42 -19 11 -25 10 -32
-9z"/>
<path d="M3481 4906 c-9 -11 -9 -16 0 -22 7 -4 15 -2 17 4 2 7 10 12 18 12 25
0 15 -38 -18 -64 l-32 -25 28 -10 c15 -6 35 -11 45 -11 9 0 21 -3 27 -7 5 -5
-3 4 -18 18 -34 32 -34 34 -7 62 17 17 21 18 16 5 -4 -10 -3 -18 2 -18 5 0 11
10 14 22 7 24 -7 38 -35 38 -9 0 -23 2 -31 5 -7 3 -19 -1 -26 -9z"/>
<path d="M8243 4900 c1 -19 8 -26 31 -28 16 -2 33 1 39 7 8 8 3 10 -19 5 -25
-5 -32 -2 -42 18 l-12 23 3 -25z"/>
<path d="M6872 4880 c-18 -49 -100 -123 -165 -148 -33 -12 -66 -22 -74 -22
-10 0 -13 -6 -9 -16 3 -9 6 -18 6 -20 0 -2 10 -4 21 -4 17 0 19 -3 10 -14 -6
-7 -9 -21 -5 -30 7 -19 9 -19 35 -5 28 14 59 2 59 -24 1 -22 1 -22 15 -3 20
26 19 36 -2 36 -28 0 -51 18 -36 28 7 4 14 21 15 36 4 46 22 50 58 15 22 -22
30 -39 27 -55 -3 -15 0 -21 9 -17 7 2 10 12 7 20 -5 13 0 14 27 8 21 -5 30 -4
26 3 -3 5 4 12 16 15 34 9 43 3 126 -102 10 -13 10 -11 2 14 -6 17 -24 47 -41
67 -16 20 -29 40 -29 43 0 11 52 -50 68 -80 8 -16 17 -25 19 -18 3 7 -9 32
-26 57 -20 29 -27 47 -20 52 7 4 -3 18 -25 36 -43 35 -45 48 -10 48 38 0 11
23 -48 40 -48 14 -69 36 -24 24 33 -8 41 11 14 30 -31 22 -34 20 -46 -14z"/>
<path d="M7426 4882 c-3 -5 1 -9 9 -9 8 0 15 4 15 9 0 4 -4 8 -9 8 -6 0 -12
-4 -15 -8z"/>
<path d="M2100 4870 c0 -5 7 -7 15 -4 8 4 15 8 15 10 0 2 -7 4 -15 4 -8 0 -15
-4 -15 -10z"/>
<path d="M3665 4860 c-3 -5 -1 -10 4 -10 6 0 11 5 11 10 0 6 -2 10 -4 10 -3 0
-8 -4 -11 -10z"/>
<path d="M3726 4824 c-3 -8 -15 -14 -26 -14 -12 0 -19 -4 -16 -9 4 -5 -3 -7
-14 -4 -14 4 -21 -1 -26 -21 -7 -29 0 -56 16 -56 5 0 10 7 10 15 0 8 7 15 16
15 9 0 25 11 36 25 11 14 26 25 34 25 8 0 14 6 14 14 0 19 -37 27 -44 10z"/>
<path d="M4440 4819 c0 -4 4 -10 9 -13 4 -3 6 -17 3 -31 -5 -26 0 -29 50 -25
14 1 29 -3 33 -9 3 -6 0 -11 -7 -11 -7 -1 2 -7 21 -16 51 -22 50 -8 -2 40 -26
23 -47 49 -47 57 0 9 -11 14 -30 15 -17 1 -30 -2 -30 -7z"/>
<path d="M7499 4792 c-3 -20 -2 -29 4 -23 5 5 7 19 5 32 -3 20 -5 19 -9 -9z"/>
<path d="M2475 4790 c-18 -8 -17 -9 8 -9 15 -1 27 4 27 9 0 12 -8 12 -35 0z"/>
<path d="M4352 4770 c-18 -11 -30 -25 -27 -30 10 -16 22 -12 28 9 3 14 11 17
31 14 19 -4 26 -1 26 11 0 21 -18 20 -58 -4z"/>
<path d="M7169 4773 c-13 -16 -12 -17 4 -4 9 7 17 15 17 17 0 8 -8 3 -21 -13z"/>
<path d="M2305 4773 c-33 -2 -64 -8 -69 -13 -5 -5 25 -7 74 -5 45 2 88 9 93
14 8 8 4 10 -13 9 -14 -1 -52 -3 -85 -5z"/>
<path d="M2920 4750 c0 -5 5 -10 10 -10 6 0 10 5 10 10 0 6 -4 10 -10 10 -5 0
-10 -4 -10 -10z"/>
<path d="M3755 4751 c-6 -11 33 -26 43 -16 4 3 0 10 -8 15 -19 12 -27 12 -35
1z"/>
<path d="M7302 4739 c-12 -19 -11 -19 8 -9 11 6 18 15 15 21 -8 12 -8 12 -23
-12z"/>
<path d="M4263 4720 c-13 -16 -23 -33 -23 -39 0 -14 17 -14 25 -1 3 5 12 7 20
3 11 -4 15 3 15 25 0 42 -11 45 -37 12z"/>
<path d="M4720 4740 c0 -6 7 -10 15 -10 8 0 15 2 15 4 0 2 -7 6 -15 10 -8 3
-15 1 -15 -4z"/>
<path d="M7156 4714 c-22 -19 -35 -34 -30 -34 13 0 80 57 74 63 -3 3 -23 -10
-44 -29z"/>
<path d="M4950 4731 c0 -5 5 -13 10 -16 6 -3 10 -2 10 4 0 5 -4 13 -10 16 -5
3 -10 2 -10 -4z"/>
<path d="M3138 4705 c-24 -32 -23 -40 3 -16 12 11 20 24 18 29 -2 6 -12 0 -21
-13z"/>
<path d="M2367 4713 c-4 -3 -7 -11 -7 -17 0 -6 5 -5 12 2 6 6 9 14 7 17 -3 3
-9 2 -12 -2z"/>
<path d="M3413 4695 c0 -14 3 -25 8 -25 5 0 9 11 9 25 0 14 -4 25 -9 25 -5 0
-8 -11 -8 -25z"/>
<path d="M5175 4700 c-16 -11 -25 -20 -19 -20 11 0 64 39 54 40 -3 0 -18 -9
-35 -20z"/>
<path d="M4186 4687 c-3 -12 -15 -32 -26 -45 -11 -12 -17 -22 -11 -22 11 0 71
67 71 80 0 20 -28 9 -34 -13z"/>
<path d="M4836 4695 c-8 -8 -21 -15 -28 -15 -10 0 -9 -3 2 -10 22 -14 26 -13
44 15 18 27 6 34 -18 10z"/>
<path d="M4498 4693 c-10 -2 -18 -8 -18 -13 0 -4 9 -6 20 -3 11 3 20 9 20 14
0 5 -1 8 -2 8 -2 -1 -11 -3 -20 -6z"/>
<path d="M7420 4685 c0 -8 4 -15 10 -15 5 0 7 7 4 15 -4 8 -8 15 -10 15 -2 0
-4 -7 -4 -15z"/>
<path d="M3365 4680 c-3 -5 -1 -10 4 -10 6 0 11 5 11 10 0 6 -2 10 -4 10 -3 0
-8 -4 -11 -10z"/>
<path d="M4716 4649 c-10 -50 -8 -51 23 -17 26 29 27 34 13 40 -27 11 -29 10
-36 -23z"/>
<path d="M4870 4648 c-12 -22 -12 -22 6 -6 10 10 15 20 12 24 -4 3 -12 -5 -18
-18z"/>
<path d="M5251 4646 c-25 -26 -19 -62 8 -49 9 4 50 8 91 9 64 2 75 5 78 21 2
14 1 15 -6 4 -14 -19 -87 -9 -122 18 l-28 20 -21 -23z"/>
<path d="M4225 4643 c-18 -14 -18 -15 -2 -9 10 3 34 6 53 6 19 0 34 5 34 10 0
16 -63 11 -85 -7z"/>
<path d="M4486 4652 c-4 -7 5 -9 29 -5 24 4 50 -1 85 -16 48 -21 70 -21 70 0
0 5 -12 7 -27 4 -15 -2 -30 1 -34 7 -10 15 -114 23 -123 10z"/>
<path d="M5895 4640 c-3 -6 1 -7 9 -4 18 7 21 14 7 14 -6 0 -13 -4 -16 -10z"/>
<path d="M3710 4626 c0 -14 41 -26 58 -17 15 9 15 10 -5 11 -12 0 -28 3 -37 6
-9 3 -16 4 -16 0z"/>
<path d="M4340 4607 c16 -15 39 -24 65 -25 l40 -2 -60 25 c-74 31 -76 31 -45
2z"/>
<path d="M5190 4616 c0 -8 -10 -22 -22 -30 -12 -9 -23 -23 -24 -33 -2 -12 7
-6 26 17 27 31 38 60 25 60 -3 0 -5 -6 -5 -14z"/>
<path d="M4468 4601 c-19 -22 -14 -31 16 -30 19 0 20 1 2 8 -17 7 -17 8 -2 24
10 9 14 17 9 17 -5 0 -16 -9 -25 -19z"/>
<path d="M3652 4601 c-8 -5 -12 -21 -10 -37 4 -35 35 -52 108 -61 45 -5 50 -4
50 14 0 12 -19 35 -47 57 -46 36 -75 44 -101 27z"/>
<path d="M4915 4600 c-3 -5 -1 -10 4 -10 6 0 11 5 11 10 0 6 -2 10 -4 10 -3 0
-8 -4 -11 -10z"/>
<path d="M5905 4600 c-3 -5 -1 -10 4 -10 6 0 11 5 11 10 0 6 -2 10 -4 10 -3 0
-8 -4 -11 -10z"/>
<path d="M4815 4577 c-10 -8 -14 -17 -9 -20 6 -3 15 3 22 14 14 23 12 24 -13
6z"/>
<path d="M5600 4572 c0 -25 -45 -63 -66 -55 -8 3 -14 1 -14 -5 0 -13 45 -21
64 -10 16 9 33 74 22 85 -3 4 -6 -3 -6 -15z"/>
<path d="M5696 4568 c-11 -10 -14 -18 -8 -18 6 0 14 5 17 10 3 6 17 10 30 10
13 0 27 5 30 10 11 18 -49 7 -69 -12z"/>
<path d="M5838 4568 c9 -9 15 -9 24 0 9 9 7 12 -12 12 -19 0 -21 -3 -12 -12z"/>
<path d="M6267 4551 c-15 -25 -15 -30 -2 -35 8 -3 24 -2 35 2 19 7 19 8 2 34
l-18 27 -17 -28z"/>
<path d="M6668 4539 c-3 -24 -4 -45 -4 -45 1 -1 12 -5 25 -9 21 -6 23 -5 16
11 -4 11 -13 34 -20 53 l-13 34 -4 -44z"/>
<path d="M6974 4573 c4 -8 -2 -17 -18 -25 -28 -12 -33 -24 -13 -31 9 -4 9 -6
-1 -6 -8 -1 -22 9 -33 22 l-18 22 -1 -26 c0 -18 6 -28 20 -32 30 -8 59 3 53
19 -7 18 2 18 20 0 15 -15 57 -11 57 5 0 5 -4 9 -9 9 -4 0 -21 12 -36 28 -16
15 -25 21 -21 15z m36 -43 c0 -5 -4 -10 -10 -10 -5 0 -10 5 -10 10 0 6 5 10
10 10 6 0 10 -4 10 -10z"/>
<path d="M4910 4533 l-25 -24 30 7 c17 4 37 10 45 15 13 7 13 8 -2 9 -9 0 -18
4 -20 9 -1 4 -14 -3 -28 -16z"/>
<path d="M6822 4546 c-35 -20 -37 -26 -9 -26 16 0 30 8 37 20 12 22 5 24 -28
6z"/>
<path d="M5345 4540 c-3 -5 3 -10 14 -10 11 0 23 5 26 10 3 6 -3 10 -14 10
-11 0 -23 -4 -26 -10z"/>
<path d="M5288 4533 c6 -2 18 -2 25 0 6 3 1 5 -13 5 -14 0 -19 -2 -12 -5z"/>
<path d="M7130 4525 c0 -19 21 -19 46 0 18 14 17 14 -13 15 -23 0 -33 -5 -33
-15z"/>
<path d="M6730 4522 c0 -12 19 -26 26 -19 2 2 -2 10 -11 17 -9 8 -15 8 -15 2z"/>
<path d="M2851 4223 c-85 -16 -237 -304 -338 -642 l-28 -94 -135 7 c-74 4
-136 8 -137 10 -2 2 12 52 31 112 87 268 112 454 70 511 -34 46 -79 66 -159
71 -97 6 -217 -19 -334 -71 -159 -69 -261 -189 -261 -306 0 -54 29 -107 70
-128 14 -7 54 -13 90 -12 l65 0 -38 13 c-50 18 -62 29 -76 74 -27 81 23 200
118 283 108 96 292 152 389 118 48 -16 58 -53 43 -163 -14 -111 -82 -373 -123
-478 -9 -25 -16 -28 -57 -29 -89 -1 -143 -15 -168 -43 -32 -38 -29 -49 10 -30
18 10 65 19 110 22 l77 5 -30 -67 c-126 -282 -279 -445 -418 -446 -83 0 -145
45 -158 116 -7 40 -25 40 -39 0 -7 -20 -5 -35 9 -61 26 -47 94 -75 183 -75
121 0 213 41 317 139 80 76 134 155 202 294 l57 117 144 0 c78 0 143 -2 143
-3 0 -2 -10 -48 -21 -103 -29 -134 -31 -294 -5 -347 28 -56 69 -81 141 -85 42
-2 66 1 80 11 18 14 17 15 -17 15 -56 0 -79 11 -94 48 -24 58 -16 240 17 407
10 47 15 57 33 57 11 1 37 10 56 21 l35 19 -47 -6 c-27 -3 -48 -3 -48 1 0 4
11 50 26 103 47 178 185 496 243 560 19 20 39 32 55 32 36 0 32 16 -5 24 -33
6 -39 6 -78 -1z"/>
<path d="M6057 4078 c-18 -17 -44 -29 -72 -34 -67 -10 -252 1 -425 25 -336 46
-520 16 -607 -97 -35 -46 -44 -103 -24 -154 23 -60 110 -109 168 -93 l28 8
-32 7 c-18 4 -40 13 -49 20 -50 42 -59 138 -19 207 48 80 147 107 316 84 66
-9 171 -39 198 -58 2 -1 -7 -12 -21 -22 -47 -38 -78 -125 -209 -601 -93 -336
-124 -390 -228 -390 -53 0 -68 -13 -28 -24 129 -34 255 59 323 241 23 61 43
130 129 458 57 213 85 307 95 320 8 10 23 10 78 -3 37 -8 117 -15 177 -16 94
-1 116 2 150 21 48 25 70 48 85 87 15 41 0 47 -33 14z"/>
<path d="M6603 3994 c-7 -3 -13 -13 -13 -22 0 -25 -47 -110 -89 -162 -48 -60
-6 -27 69 53 52 56 80 71 80 43 0 -41 -40 -89 -175 -210 -59 -52 -35 -44 32
12 32 26 69 56 83 65 14 10 46 38 73 63 39 39 47 52 47 84 0 23 -7 43 -18 53
-20 18 -69 29 -89 21z"/>
<path d="M5762 3904 c-14 -9 -22 -26 -22 -43 0 -15 -13 -72 -29 -127 -16 -54
-43 -153 -61 -219 -17 -66 -38 -140 -45 -165 -29 -95 -75 -267 -75 -279 0 -22
46 -35 78 -22 23 10 31 21 36 50 19 122 73 228 160 319 58 61 102 87 121 72
27 -22 18 -74 -38 -220 -35 -93 -42 -142 -23 -178 17 -33 34 -42 76 -42 45 0
75 15 126 64 53 51 54 52 54 32 0 -24 49 -74 79 -81 42 -9 93 16 156 76 l55
52 0 -40 c0 -49 23 -80 67 -92 41 -12 118 24 164 77 24 27 34 33 37 22 10 -30
79 -88 117 -99 57 -16 94 -13 142 9 60 27 147 120 173 186 22 53 23 54 62 54
22 0 55 7 73 16 39 18 71 51 61 61 -4 5 -12 0 -17 -10 -13 -23 -61 -47 -94
-47 -46 0 -62 16 -69 70 -18 138 -161 178 -302 84 -91 -61 -144 -143 -146
-229 0 -41 -6 -54 -40 -91 -51 -55 -93 -73 -116 -50 -15 15 -15 22 1 101 10
47 35 131 57 187 22 56 40 108 40 115 0 17 -38 17 -70 0 -21 -11 -31 -11 -60
1 -45 19 -124 11 -180 -18 -96 -49 -190 -179 -190 -263 0 -32 -8 -46 -50 -87
-49 -50 -76 -60 -98 -38 -21 21 -13 75 27 181 50 133 56 162 41 197 -18 43
-66 56 -129 35 -48 -16 -144 -97 -185 -155 -20 -29 -21 -37 28 135 70 244 104
360 111 377 14 34 -62 51 -103 22z m1268 -404 c22 -22 25 -36 11 -44 -22 -14
-29 -63 -14 -94 13 -27 13 -37 -1 -85 -29 -98 -114 -197 -171 -197 -44 0 -60
34 -60 129 0 76 4 94 31 151 36 75 73 115 129 141 50 23 51 23 75 -1z m-549
-6 c11 -13 10 -27 -4 -81 -38 -143 -139 -293 -198 -293 -25 0 -33 6 -45 36
-13 31 -13 45 -3 88 19 82 60 157 117 214 43 42 59 52 86 52 19 0 40 -7 47
-16z"/>
<path d="M6439 3743 c-13 -16 -12 -17 4 -4 9 7 17 15 17 17 0 8 -8 3 -21 -13z"/>
<path d="M3303 3630 c-24 -10 -83 -85 -83 -107 0 -9 -14 -13 -48 -13 -61 0
-74 -14 -97 -100 -9 -36 -23 -79 -31 -97 -8 -17 -14 -34 -14 -38 0 -17 -94
-146 -120 -165 -89 -63 -99 17 -29 251 34 116 34 143 0 147 -47 7 -68 -6 -76
-45 -3 -21 -20 -81 -36 -133 -17 -52 -33 -127 -36 -167 -5 -67 -4 -73 20 -97
30 -30 73 -34 115 -12 31 16 132 120 132 135 0 6 4 11 9 11 5 0 7 -26 4 -57
-6 -73 14 -103 71 -103 47 0 87 21 147 77 48 45 49 45 58 22 21 -54 94 -99
161 -99 97 0 218 98 255 206 13 38 14 39 72 45 32 3 59 5 60 4 2 -1 -11 -53
-28 -115 -29 -110 -30 -115 -12 -128 18 -13 58 -9 78 8 6 5 19 44 30 86 22 88
66 167 143 254 64 73 104 97 122 75 16 -20 7 -65 -37 -178 -45 -117 -51 -198
-14 -228 47 -38 135 -17 192 48 32 37 35 37 53 1 6 -13 28 -32 48 -42 55 -31
107 -11 185 69 l61 64 -30 -112 c-17 -62 -31 -112 -32 -113 0 0 -28 -11 -61
-23 -249 -94 -360 -151 -441 -224 -90 -82 -134 -187 -102 -247 36 -67 144 -95
253 -65 91 24 177 79 258 165 85 88 128 166 171 304 l31 100 69 37 c68 37 89
56 80 71 -3 4 -28 -8 -56 -27 -44 -31 -78 -44 -78 -31 0 18 102 405 111 419
13 23 16 20 -46 43 -75 28 -176 25 -240 -8 -99 -51 -183 -166 -190 -260 -5
-69 -94 -159 -140 -142 -32 13 -28 53 19 182 25 70 48 138 51 152 10 42 -10
77 -50 90 -65 21 -148 -34 -258 -170 -17 -21 -26 -27 -21 -15 52 154 42 200
-44 187 -28 -4 -31 -7 -26 -32 8 -39 -25 -148 -50 -165 -21 -15 -72 -20 -100
-9 -10 4 -16 18 -16 36 0 46 -37 122 -69 141 -18 10 -50 17 -83 17 -133 0
-268 -124 -284 -262 -6 -48 -12 -62 -52 -102 -80 -82 -130 -70 -117 29 11 93
82 284 126 341 55 71 83 82 99 38 9 -22 13 -24 25 -14 21 18 19 56 -5 80 -22
22 -25 23 -57 10z m308 -140 c20 0 26 -45 11 -77 -13 -28 -13 -38 -2 -72 11
-35 10 -47 -9 -110 -17 -57 -32 -82 -70 -121 -52 -55 -83 -63 -122 -31 -48 39
-34 217 25 310 43 67 111 116 144 105 8 -2 18 -4 23 -4z m1127 -3 c11 -13 -32
-142 -78 -232 -39 -76 -116 -145 -162 -145 -100 0 -20 261 111 363 38 30 110
37 129 14z m-158 -549 c-1 -55 -79 -228 -144 -316 -107 -145 -284 -225 -353
-160 -70 66 29 244 195 349 67 43 266 138 290 139 6 0 12 -6 12 -12z"/>
<path d="M3717 3626 c-3 -8 3 -22 14 -32 26 -24 24 -38 -13 -80 l-33 -37 30
16 c33 17 79 63 88 88 9 26 -20 59 -52 59 -16 0 -31 -6 -34 -14z"/>
</g>
</svg>
