<svg width="1189" height="128" viewBox="0 0 1189 128" fill="none" xmlns="http://www.w3.org/2000/svg">
<mask id="path-1-inside-1_3_58" fill="white">
<path d="M131.271 47H1056.12V51H131.271V47Z"/>
</mask>
<path d="M131.271 47H1056.12V51H131.271V47Z" fill="#1C1B1B"/>
<path d="M1056.12 47V46H1053.11V47V48H1056.12V47ZM1049.09 47V46H1043.06V47V48H1049.09V47ZM1039.03 47V46H1033V47V48H1039.03V47ZM1028.98 47V46H1022.95V47V48H1028.98V47ZM1018.93 47V46H1012.9V47V48H1018.93V47ZM1008.88 47V46H1002.84V47V48H1008.88V47ZM998.823 47V46H992.791V47V48H998.823V47ZM988.77 47V46H982.739V47V48H988.77V47ZM978.717 47V46H972.686V47V48H978.717V47ZM968.665 47V46H962.633V47V48H968.665V47ZM958.612 47V46H952.58V47V48H958.612V47ZM948.559 47V46H942.528V47V48H948.559V47ZM938.507 47V46H932.475V47V48H938.507V47ZM928.454 47V46H922.422V47V48H928.454V47ZM918.401 47V46H912.369V47V48H918.401V47ZM908.348 47V46H902.317V47V48H908.348V47ZM898.296 47V46H892.264V47V48H898.296V47ZM888.243 47V46H882.211V47V48H888.243V47ZM878.19 47V46H872.158V47V48H878.19V47ZM868.137 47V46H862.106V47V48H868.137V47ZM858.085 47V46H852.053V47V48H858.085V47ZM848.032 47V46H842V47V48H848.032V47ZM837.979 47V46H831.947V47V48H837.979V47ZM827.926 47V46H821.895V47V48H827.926V47ZM817.874 47V46H811.842V47V48H817.874V47ZM807.821 47V46H801.789V47V48H807.821V47ZM797.768 47V46H791.736V47V48H797.768V47ZM787.715 47V46H781.684V47V48H787.715V47ZM777.663 47V46H771.631V47V48H777.663V47ZM767.61 47V46H761.578V47V48H767.61V47ZM757.557 47V46H751.526V47V48H757.557V47ZM747.504 47V46H741.473V47V48H747.504V47ZM737.452 47V46H731.42V47V48H737.452V47ZM727.399 47V46H721.367V47V48H727.399V47ZM717.346 47V46H711.315V47V48H717.346V47ZM707.293 47V46H701.262V47V48H707.293V47ZM697.241 47V46H691.209V47V48H697.241V47ZM687.188 47V46H681.156V47V48H687.188V47ZM677.135 47V46H671.104V47V48H677.135V47ZM667.083 47V46H661.051V47V48H667.083V47ZM657.03 47V46H650.998V47V48H657.03V47ZM646.977 47V46H640.945V47V48H646.977V47ZM636.924 47V46H630.893V47V48H636.924V47ZM626.872 47V46H620.84V47V48H626.872V47ZM616.819 47V46H610.787V47V48H616.819V47ZM606.766 47V46H600.734V47V48H606.766V47ZM596.713 47V46H590.682V47V48H596.713V47ZM586.661 47V46H580.629V47V48H586.661V47ZM576.608 47V46H570.576V47V48H576.608V47ZM566.555 47V46H560.524V47V48H566.555V47ZM556.502 47V46H550.471V47V48H556.502V47ZM546.45 47V46H540.418V47V48H546.45V47ZM536.397 47V46H530.365V47V48H536.397V47ZM526.344 47V46H520.313V47V48H526.344V47ZM516.292 47V46H510.26V47V48H516.292V47ZM506.239 47V46H500.207V47V48H506.239V47ZM496.186 47V46H490.154V47V48H496.186V47ZM486.133 47V46H480.102V47V48H486.133V47ZM476.081 47V46H470.049V47V48H476.081V47ZM466.028 47V46H459.996V47V48H466.028V47ZM455.975 47V46H449.943V47V48H455.975V47ZM445.922 47V46H439.891V47V48H445.922V47ZM435.87 47V46H429.838V47V48H435.87V47ZM425.817 47V46H419.785V47V48H425.817V47ZM415.764 47V46H409.733V47V48H415.764V47ZM405.711 47V46H399.68V47V48H405.711V47ZM395.659 47V46H389.627V47V48H395.659V47ZM385.606 47V46H379.574V47V48H385.606V47ZM375.553 47V46H369.522V47V48H375.553V47ZM365.5 47V46H359.469V47V48H365.5V47ZM355.448 47V46H349.416V47V48H355.448V47ZM345.395 47V46H339.363V47V48H345.395V47ZM335.342 47V46H329.311V47V48H335.342V47ZM325.29 47V46H319.258V47V48H325.29V47ZM315.237 47V46H309.205V47V48H315.237V47ZM305.184 47V46H299.152V47V48H305.184V47ZM295.131 47V46H289.1V47V48H295.131V47ZM285.079 47V46H279.047V47V48H285.079V47ZM275.026 47V46H268.994V47V48H275.026V47ZM264.973 47V46H258.942V47V48H264.973V47ZM254.92 47V46H248.889V47V48H254.92V47ZM244.868 47V46H238.836V47V48H244.868V47ZM234.815 47V46H228.783V47V48H234.815V47ZM224.762 47V46H218.731V47V48H224.762V47ZM214.709 47V46H208.678V47V48H214.709V47ZM204.657 47V46H198.625V47V48H204.657V47ZM194.604 47V46H188.572V47V48H194.604V47ZM184.551 47V46H178.52V47V48H184.551V47ZM174.499 47V46H168.467V47V48H174.499V47ZM164.446 47V46H158.414V47V48H164.446V47ZM154.393 47V46H148.361V47V48H154.393V47ZM144.34 47V46H138.309V47V48H144.34V47ZM134.288 47V46H131.271V47V48H134.288V47ZM1056.12 47V45H1053.11V47V49H1056.12V47ZM1049.09 47V45H1043.06V47V49H1049.09V47ZM1039.03 47V45H1033V47V49H1039.03V47ZM1028.98 47V45H1022.95V47V49H1028.98V47ZM1018.93 47V45H1012.9V47V49H1018.93V47ZM1008.88 47V45H1002.84V47V49H1008.88V47ZM998.823 47V45H992.791V47V49H998.823V47ZM988.77 47V45H982.739V47V49H988.77V47ZM978.717 47V45H972.686V47V49H978.717V47ZM968.665 47V45H962.633V47V49H968.665V47ZM958.612 47V45H952.58V47V49H958.612V47ZM948.559 47V45H942.528V47V49H948.559V47ZM938.507 47V45H932.475V47V49H938.507V47ZM928.454 47V45H922.422V47V49H928.454V47ZM918.401 47V45H912.369V47V49H918.401V47ZM908.348 47V45H902.317V47V49H908.348V47ZM898.296 47V45H892.264V47V49H898.296V47ZM888.243 47V45H882.211V47V49H888.243V47ZM878.19 47V45H872.158V47V49H878.19V47ZM868.137 47V45H862.106V47V49H868.137V47ZM858.085 47V45H852.053V47V49H858.085V47ZM848.032 47V45H842V47V49H848.032V47ZM837.979 47V45H831.947V47V49H837.979V47ZM827.926 47V45H821.895V47V49H827.926V47ZM817.874 47V45H811.842V47V49H817.874V47ZM807.821 47V45H801.789V47V49H807.821V47ZM797.768 47V45H791.736V47V49H797.768V47ZM787.715 47V45H781.684V47V49H787.715V47ZM777.663 47V45H771.631V47V49H777.663V47ZM767.61 47V45H761.578V47V49H767.61V47ZM757.557 47V45H751.526V47V49H757.557V47ZM747.504 47V45H741.473V47V49H747.504V47ZM737.452 47V45H731.42V47V49H737.452V47ZM727.399 47V45H721.367V47V49H727.399V47ZM717.346 47V45H711.315V47V49H717.346V47ZM707.293 47V45H701.262V47V49H707.293V47ZM697.241 47V45H691.209V47V49H697.241V47ZM687.188 47V45H681.156V47V49H687.188V47ZM677.135 47V45H671.104V47V49H677.135V47ZM667.083 47V45H661.051V47V49H667.083V47ZM657.03 47V45H650.998V47V49H657.03V47ZM646.977 47V45H640.945V47V49H646.977V47ZM636.924 47V45H630.893V47V49H636.924V47ZM626.872 47V45H620.84V47V49H626.872V47ZM616.819 47V45H610.787V47V49H616.819V47ZM606.766 47V45H600.734V47V49H606.766V47ZM596.713 47V45H590.682V47V49H596.713V47ZM586.661 47V45H580.629V47V49H586.661V47ZM576.608 47V45H570.576V47V49H576.608V47ZM566.555 47V45H560.524V47V49H566.555V47ZM556.502 47V45H550.471V47V49H556.502V47ZM546.45 47V45H540.418V47V49H546.45V47ZM536.397 47V45H530.365V47V49H536.397V47ZM526.344 47V45H520.313V47V49H526.344V47ZM516.292 47V45H510.26V47V49H516.292V47ZM506.239 47V45H500.207V47V49H506.239V47ZM496.186 47V45H490.154V47V49H496.186V47ZM486.133 47V45H480.102V47V49H486.133V47ZM476.081 47V45H470.049V47V49H476.081V47ZM466.028 47V45H459.996V47V49H466.028V47ZM455.975 47V45H449.943V47V49H455.975V47ZM445.922 47V45H439.891V47V49H445.922V47ZM435.87 47V45H429.838V47V49H435.87V47ZM425.817 47V45H419.785V47V49H425.817V47ZM415.764 47V45H409.733V47V49H415.764V47ZM405.711 47V45H399.68V47V49H405.711V47ZM395.659 47V45H389.627V47V49H395.659V47ZM385.606 47V45H379.574V47V49H385.606V47ZM375.553 47V45H369.522V47V49H375.553V47ZM365.5 47V45H359.469V47V49H365.5V47ZM355.448 47V45H349.416V47V49H355.448V47ZM345.395 47V45H339.363V47V49H345.395V47ZM335.342 47V45H329.311V47V49H335.342V47ZM325.29 47V45H319.258V47V49H325.29V47ZM315.237 47V45H309.205V47V49H315.237V47ZM305.184 47V45H299.152V47V49H305.184V47ZM295.131 47V45H289.1V47V49H295.131V47ZM285.079 47V45H279.047V47V49H285.079V47ZM275.026 47V45H268.994V47V49H275.026V47ZM264.973 47V45H258.942V47V49H264.973V47ZM254.92 47V45H248.889V47V49H254.92V47ZM244.868 47V45H238.836V47V49H244.868V47ZM234.815 47V45H228.783V47V49H234.815V47ZM224.762 47V45H218.731V47V49H224.762V47ZM214.709 47V45H208.678V47V49H214.709V47ZM204.657 47V45H198.625V47V49H204.657V47ZM194.604 47V45H188.572V47V49H194.604V47ZM184.551 47V45H178.52V47V49H184.551V47ZM174.499 47V45H168.467V47V49H174.499V47ZM164.446 47V45H158.414V47V49H164.446V47ZM154.393 47V45H148.361V47V49H154.393V47ZM144.34 47V45H138.309V47V49H144.34V47ZM134.288 47V45H131.271V47V49H134.288V47Z" fill="white" mask="url(#path-1-inside-1_3_58)"/>
<rect x="128.833" width="96" height="96" rx="48" fill="#E79C84"/>
<path d="M174.961 60V44.376H171.433V39.3C172.609 39.3 173.557 39.09 174.277 38.67C174.997 38.25 175.465 37.44 175.681 36.24H180.829V60H174.961Z" fill="white"/>
<rect x="546.5" width="96" height="96" rx="48" fill="#72C99F"/>
<path d="M584.942 60V54.24L594.41 48.3C594.794 48.06 595.19 47.784 595.598 47.472C596.006 47.16 596.384 46.8 596.732 46.392C597.08 45.984 597.362 45.534 597.578 45.042C597.794 44.55 597.902 44.004 597.902 43.404C597.902 42.78 597.764 42.252 597.488 41.82C597.212 41.388 596.816 41.058 596.3 40.83C595.784 40.602 595.154 40.488 594.41 40.488C593.57 40.488 592.892 40.62 592.376 40.884C591.86 41.148 591.464 41.514 591.188 41.982C590.912 42.45 590.726 42.984 590.63 43.584C590.534 44.184 590.486 44.808 590.486 45.456L584.906 44.268C584.858 42.468 585.218 40.926 585.986 39.642C586.754 38.358 587.864 37.368 589.316 36.672C590.768 35.976 592.502 35.628 594.518 35.628C596.294 35.628 597.872 35.904 599.252 36.456C600.632 37.008 601.712 37.83 602.492 38.922C603.272 40.014 603.662 41.376 603.662 43.008C603.662 44.208 603.458 45.294 603.05 46.266C602.642 47.238 602.114 48.096 601.466 48.84C600.818 49.584 600.104 50.238 599.324 50.802C598.544 51.366 597.794 51.852 597.074 52.26L591.782 55.212V55.536L603.95 55.32V60H584.942Z" fill="white"/>
<rect x="964.167" width="96" height="96" rx="48" fill="#BFC4F2"/>
<path d="M1011.75 60.504C1010.14 60.504 1008.75 60.348 1007.56 60.036C1006.37 59.724 1005.38 59.274 1004.59 58.686C1003.8 58.098 1003.18 57.372 1002.73 56.508C1002.29 55.644 1002.01 54.672 1001.89 53.592L1007.11 51.936C1007.16 52.584 1007.29 53.166 1007.52 53.682C1007.75 54.198 1008.07 54.636 1008.48 54.996C1008.88 55.356 1009.38 55.626 1009.95 55.806C1010.53 55.986 1011.18 56.076 1011.9 56.076C1012.74 56.076 1013.47 55.95 1014.11 55.698C1014.75 55.446 1015.24 55.062 1015.59 54.546C1015.93 54.03 1016.11 53.388 1016.11 52.62C1016.11 51.66 1015.77 50.862 1015.08 50.226C1014.4 49.59 1013.35 49.152 1011.93 48.912C1010.52 48.672 1008.72 48.672 1006.53 48.912V45.708L1014.42 41.064V40.74L1003.15 40.848V36.204H1020.28V41.496L1012.87 46.14V46.5C1015.15 46.332 1016.94 46.536 1018.25 47.112C1019.56 47.688 1020.49 48.492 1021.06 49.524C1021.62 50.556 1021.9 51.66 1021.9 52.836C1021.9 54.42 1021.54 55.782 1020.81 56.922C1020.07 58.062 1018.96 58.944 1017.46 59.568C1015.96 60.192 1014.06 60.504 1011.75 60.504Z" fill="white"/>
</svg>
