<svg width="126" height="282" viewBox="0 0 126 282" fill="none" xmlns="http://www.w3.org/2000/svg">
<path d="M13.2615 38.9309C16.0583 32.5229 22.1486 28.1687 29.1168 27.5952L85.4321 22.9607C92.5889 22.3717 99.4663 25.8679 103.208 31.9972L120.217 59.8624C122.037 62.8437 123 66.269 123 69.7619V125.804C123 136.753 113.77 145.436 102.841 144.768L30.3493 140.339C21.9483 139.826 14.8861 133.847 12.9942 125.645L1.41115 75.433C0.494745 71.4605 0.880439 67.2985 2.51124 63.562L13.2615 38.9309Z" fill="#F1CDD1"/>
<path fill-rule="evenodd" clip-rule="evenodd" d="M42.638 2.81802C30.8166 6.36969 15.9599 20.411 8.37313 35.2047C-1.55399 54.5621 -2.43324 72.9302 4.5652 114.827C8.11776 136.108 11.9515 161.625 13.0797 171.534C15.7692 195.13 9.10692 261.263 3.11703 270.435C-1.18225 277.02 -0.968904 277.74 5.82912 279.566C43.5625 289.709 79.7346 267.802 103.526 220.398C121.072 185.439 125.553 163.645 125.944 111.353C126.251 70.5203 125.504 63.9813 118.528 46.4825C103.678 9.23698 75.4192 -7.02286 42.638 2.81802ZM88.5271 39.0224C94.0612 44.5753 93.321 59.6966 87.2179 65.8237C81.7646 71.2923 70.2116 69.81 65.7862 63.0732C56.0627 48.2632 76.3501 26.804 88.5271 39.0224ZM51.757 44.5947C58.7587 52.3533 57.317 63.8192 48.6182 69.5829C39.4346 75.6678 27.7554 67.5363 27.7554 55.0551C27.7554 38.8213 41.248 32.9407 51.757 44.5947ZM116.421 59.6869C126.157 69.4597 119.54 83.7831 105.285 83.7831C93.0268 83.7831 88.5174 70.7668 97.3713 60.9486C104.305 53.2615 109.661 52.9079 116.421 59.6869ZM25.0757 66.4464C36.3863 76.7154 29.3394 91.8725 14.2596 89.7091C4.76562 88.3468 -1.0982 73.4719 4.96604 66.1383C10.3741 59.5993 17.6602 59.7128 25.0757 66.4464ZM92.7876 86.6439C107.276 101.185 109.464 115.32 98.8712 125.949C91.3362 133.51 88.5368 133.798 74.0001 128.524C64.8876 125.216 61.7649 125.469 53.8743 130.146C41.72 137.35 35.6654 137.13 27.7554 129.193C8.0725 109.443 32.6689 74.0947 66.1192 74.0655C78.2153 74.0558 82.0329 75.8559 92.7876 86.6439Z" fill="#ABA897"/>
<path fill-rule="evenodd" clip-rule="evenodd" d="M86.6231 147.357C53.402 161.776 63.0528 192.257 100.979 192.703L116.176 192.88L121.827 170.624C124.937 158.382 126.697 147.121 125.738 145.597C123.092 141.386 97.7482 142.526 86.6231 147.357ZM14.4378 209.834C13.3443 218.269 11.6729 230.085 10.7239 236.088L9 247L27.3131 245.508C68.3855 242.156 74.4767 208.258 35.9032 197.718C17.7477 192.758 16.5656 193.426 14.4378 209.834Z" fill="#292728"/>
</svg>
