<svg width="112" height="112" viewBox="0 0 112 112" fill="none" xmlns="http://www.w3.org/2000/svg">
<path d="M82 0H30C13.4315 0 0 13.4315 0 30V82C0 98.5685 13.4315 112 30 112H82C98.5685 112 112 98.5685 112 82V30C112 13.4315 98.5685 0 82 0Z" fill="#FFCD34"/>
<path d="M77.2217 33.1938H34.7787C32.7069 33.1997 30.7217 34.0254 29.2567 35.4903C27.7917 36.9553 26.9661 38.9405 26.9602 41.0123V67.8184C26.9661 69.8902 27.7917 71.8754 29.2567 73.3404C30.7217 74.8054 32.7069 75.631 34.7787 75.6369H40.3633V86.8061L53.448 75.8966C53.6489 75.7288 53.9024 75.6368 54.1642 75.6369H77.2217C79.2935 75.631 81.2787 74.8054 82.7437 73.3404C84.2087 71.8754 85.0343 69.8902 85.0402 67.8184V41.0123C85.0343 38.9405 84.2087 36.9553 82.7437 35.4903C81.2787 34.0254 79.2935 33.1997 77.2217 33.1938Z" fill="white"/>
<path d="M42.5971 58.8826C45.0645 58.8826 47.0648 56.8824 47.0648 54.415C47.0648 51.9475 45.0645 49.9473 42.5971 49.9473C40.1296 49.9473 38.1294 51.9475 38.1294 54.415C38.1294 56.8824 40.1296 58.8826 42.5971 58.8826Z" fill="#FFCD34"/>
<path d="M56.0002 58.8826C58.4676 58.8826 60.4678 56.8824 60.4678 54.415C60.4678 51.9475 58.4676 49.9473 56.0002 49.9473C53.5327 49.9473 51.5325 51.9475 51.5325 54.415C51.5325 56.8824 53.5327 58.8826 56.0002 58.8826Z" fill="#FFCD34"/>
<path d="M69.4032 58.8826C71.8707 58.8826 73.8709 56.8824 73.8709 54.415C73.8709 51.9475 71.8707 49.9473 69.4032 49.9473C66.9358 49.9473 64.9355 51.9475 64.9355 54.415C64.9355 56.8824 66.9358 58.8826 69.4032 58.8826Z" fill="#FFCD34"/>
</svg>
