<svg width="41" height="41" viewBox="0 0 41 41" fill="none" xmlns="http://www.w3.org/2000/svg">
<g clip-path="url(#clip0_1_31)">
<mask id="mask0_1_31" style="mask-type:luminance" maskUnits="userSpaceOnUse" x="0" y="0" width="41" height="41">
<path d="M20.5 41C31.8218 41 41 31.8218 41 20.5C41 9.17816 31.8218 0 20.5 0C9.17816 0 0 9.17816 0 20.5C0 31.8218 9.17816 41 20.5 41Z" fill="white"/>
</mask>
<g mask="url(#mask0_1_31)">
<path d="M8.80859 82.9609C33.1329 82.9609 52.8516 63.2422 52.8516 38.918C52.8516 14.5937 33.1329 -5.125 8.80859 -5.125C-15.5157 -5.125 -35.2344 14.5937 -35.2344 38.918C-35.2344 63.2422 -15.5157 82.9609 8.80859 82.9609Z" fill="#BFC4F2"/>
</g>
<path d="M26.2656 16.3359C27.1501 16.3359 27.8672 15.6189 27.8672 14.7344C27.8672 13.8499 27.1501 13.1328 26.2656 13.1328C25.3811 13.1328 24.6641 13.8499 24.6641 14.7344C24.6641 15.6189 25.3811 16.3359 26.2656 16.3359Z" fill="#F0DBFF"/>
<path d="M20.5 15.375C19.4864 15.375 18.4955 15.6756 17.6527 16.2387C16.8099 16.8019 16.153 17.6023 15.7651 18.5387C15.3772 19.4752 15.2757 20.5057 15.4735 21.4998C15.6712 22.494 16.1593 23.4072 16.8761 24.1239C17.5928 24.8407 18.506 25.3288 19.5002 25.5265C20.4943 25.7243 21.5248 25.6228 22.4613 25.2349C23.3977 24.847 24.1981 24.1901 24.7613 23.3473C25.3244 22.5045 25.625 21.5136 25.625 20.5C25.625 19.1408 25.085 17.8372 24.1239 16.8761C23.1628 15.915 21.8592 15.375 20.5 15.375ZM20.5 23.0625C19.9932 23.0625 19.4978 22.9122 19.0764 22.6306C18.655 22.3491 18.3265 21.9489 18.1326 21.4806C17.9386 21.0124 17.8879 20.4972 17.9867 20.0001C18.0856 19.503 18.3297 19.0464 18.688 18.688C19.0464 18.3297 19.503 18.0856 20.0001 17.9867C20.4972 17.8879 21.0124 17.9386 21.4806 18.1326C21.9489 18.3265 22.3491 18.655 22.6306 19.0764C22.9122 19.4978 23.0625 19.9932 23.0625 20.5C23.0625 21.1796 22.7925 21.8314 22.312 22.312C21.8314 22.7925 21.1796 23.0625 20.5 23.0625Z" fill="#F0DBFF"/>
<path d="M26.9062 10.25H14.0938C11.9709 10.25 10.25 11.9709 10.25 14.0938V26.9062C10.25 29.0291 11.9709 30.75 14.0938 30.75H26.9062C29.0291 30.75 30.75 29.0291 30.75 26.9062V14.0938C30.75 11.9709 29.0291 10.25 26.9062 10.25Z" stroke="#F0DBFF" stroke-width="2" stroke-miterlimit="10"/>
</g>
<defs>
<clipPath id="clip0_1_31">
<rect width="41" height="41" fill="white"/>
</clipPath>
</defs>
</svg>
