<svg width="41" height="41" viewBox="0 0 41 41" fill="none" xmlns="http://www.w3.org/2000/svg">
<g clip-path="url(#clip0_1_28)">
<path fill-rule="evenodd" clip-rule="evenodd" d="M20.5 0C31.8222 0 41 9.17775 41 20.5C41 31.8222 31.8222 41 20.5 41C9.17775 41 0 31.8222 0 20.5C0 9.17775 9.17775 0 20.5 0Z" fill="#E79C84"/>
<path fill-rule="evenodd" clip-rule="evenodd" d="M25.1045 8.48907C25.1053 8.85583 25.2134 14.161 30.7796 14.4917C30.7796 16.0212 30.7812 17.1303 30.7812 18.5901C30.36 18.6142 27.1169 18.3787 25.0981 16.5786L25.0917 24.5576C25.1686 30.0958 21.0934 33.4654 15.7658 32.3011C6.58002 29.5536 9.6326 15.9299 18.856 17.3874C18.856 21.786 18.8584 17.3866 18.8584 21.786C15.0483 21.2255 13.7734 24.395 14.7864 26.6652C15.7073 28.7312 19.5014 29.1789 20.8251 26.264C20.9749 25.6939 21.0493 25.0428 21.0493 24.3125V8.46906L25.1045 8.48907Z" fill="#F0DBFF"/>
</g>
<defs>
<clipPath id="clip0_1_28">
<rect width="41" height="41" fill="white"/>
</clipPath>
</defs>
</svg>
